<svg xmlns="http://www.w3.org/2000/svg" width="21" height="17" viewBox="0 0 21 17"><g><g><path fill="#acc9d4" d="M20.801 2.717a8.358 8.358 0 0 1-2.386.65 4.143 4.143 0 0 0 1.827-2.284 8.338 8.338 0 0 1-2.638 1.002A4.162 4.162 0 0 0 14.572.782c-2.294 0-4.155 1.847-4.155 4.126 0 .324.037.638.108.94a11.818 11.818 0 0 1-8.562-4.31 4.117 4.117 0 0 0 1.286 5.509 4.159 4.159 0 0 1-1.882-.517v.052c0 2 1.431 3.667 3.332 4.046a4.2 4.2 0 0 1-1.876.07 4.155 4.155 0 0 0 3.88 2.866 8.37 8.37 0 0 1-5.159 1.766 8.45 8.45 0 0 1-.99-.057 11.813 11.813 0 0 0 6.367 1.854c7.64 0 11.82-6.288 11.82-11.74 0-.18-.005-.357-.013-.534a8.404 8.404 0 0 0 2.073-2.136z"/></g></g></svg>