<svg xmlns="http://www.w3.org/2000/svg" width="24" height="14" viewBox="0 0 24 14"><g><g><path fill="#acc9d4" d="M11.855 13.373h1.388s.419-.046.633-.278c.197-.213.19-.612.19-.612s-.026-1.872.838-2.147c.852-.272 1.946 1.808 3.105 2.608.877.606 1.543.473 1.543.473l3.1-.044s1.623-.1.854-1.381c-.063-.105-.448-.949-2.306-2.681-1.944-1.814-1.683-1.52.658-4.657 1.427-1.91 1.997-3.077 1.819-3.576-.17-.476-1.22-.35-1.22-.35l-3.49.021s-.259-.035-.45.08c-.188.113-.309.377-.309.377s-.553 1.478-1.29 2.735c-1.554 2.653-2.175 2.793-2.43 2.628-.59-.384-.443-1.542-.443-2.365 0-2.57.388-3.643-.755-3.92-.38-.092-.66-.153-1.63-.163-1.245-.013-2.3.004-2.896.298-.397.195-.704.63-.517.656.23.03.753.141 1.03.52.358.49.345 1.588.345 1.588s.206 3.026-.48 3.402c-.47.258-1.116-.268-2.502-2.675-.71-1.233-1.246-2.596-1.246-2.596s-.103-.254-.288-.39C4.883.757 4.57.705 4.57.705L1.253.727S.755.741.573.96c-.164.194-.014.594-.014.594s2.597 6.106 5.538 9.184c2.697 2.822 5.758 2.636 5.758 2.636z"/></g></g></svg>