<svg xmlns="http://www.w3.org/2000/svg" width="19" height="20" viewBox="0 0 19 20"><g><g><path fill="#acc9d4" d="M18.59 9.674a9.16 9.16 0 0 1-13.587 8.02l-5.07 1.623 1.652-4.914A9.159 9.159 0 0 1 9.43.515c5.06 0 9.16 4.1 9.16 9.159zM9.43 2.049c-4.204 0-7.625 3.42-7.625 7.625 0 1.669.54 3.213 1.452 4.47l-.952 2.832 2.93-.938a7.585 7.585 0 0 0 4.195 1.26c4.205 0 7.625-3.42 7.625-7.624 0-4.205-3.42-7.625-7.625-7.625zm4.555 11.102c-.216.538-1.19 1.03-1.62 1.052-.43.023-.442.336-2.784-.69-2.342-1.025-3.75-3.519-3.862-3.679-.11-.16-.907-1.303-.864-2.453.044-1.151.669-1.694.892-1.92a.86.86 0 0 1 .634-.269c.156.006.311.032.448.036.136.006.334-.065.51.41.178.475.603 1.644.657 1.763.054.119.088.257.004.41-.084.153-.127.25-.248.38-.122.133-.257.297-.366.397-.122.112-.249.234-.121.474.128.238.568 1.021 1.24 1.667.863.83 1.608 1.105 1.837 1.23.23.126.366.113.509-.039.142-.15.61-.66.774-.888.165-.228.32-.183.53-.098.212.086 1.34.695 1.57.82.23.126.383.191.438.29.054.1.037.568-.178 1.107z"/></g></g></svg>