<svg xmlns="http://www.w3.org/2000/svg" width="299" height="344" viewBox="0 0 299 344"><g><g><path fill="#acc9d4" d="M122.818 18.878c1.855-6 4.888-11.416 8.222-16.682 1.189-1.877 1.67-1.888 3.091-.216.994 1.17 2.049 2.302 2.693 3.723.588 1.296 1.165.89 1.754.006.696-1.045 1.348-2.125 2.108-3.123.47-.617 1.142-.813 1.24.254.097 1.049.072 2.11.639 3.036 1.229 2.007 2.496 3.99 3.789 6.05 1.05-.904 1.318-2.108 1.915-3.104 1.268-2.113 2.649-4.113 4.758-5.497 2.89-1.896 6.027-1.194 7.61 1.88.732 1.424 1.467 2.347 3.209 2.76 2.444.578 3.48 2.824 4.353 5.014.92 2.306.793 4.817 1.423 7.18l.566.155c2.626-2.32 5.785-1.913 7.3 1.163.947 1.923 1.689 1.411 2.663.214 1.634-2.011 3.306-3.988 5.339-5.615.923-.739 1.864-1.339 2.151.56.21 1.39 1.427 1.634 2.469 1.942 1.814.536 3.66.952 5.163 2.207.8.667 1.419.137 2.033-.359 1.306-1.054 2.602-2.102 4.164-2.801 4.973-2.225 8.877-.427 10.215 4.813.16.625.515.914.956 1.268.953.763 1.72 1.699 1.688 2.999-.038 1.591.735 1.49 1.86 1.063 4.232-1.602 8.602-2.478 13.144-2.285 4.11.175 5.296 1.274 5.69 5.298.11 1.123.743 1.72 1.615 2.268 2.862 1.8 3.166 4.01.687 6.26-1.511 1.37-2.671 2.834-3.05 4.859-.204 1.084-1.272 1.202-1.973 1.73-.377.283-1.057.453-.932.998.175.764.917.382 1.425.413.416.025.838-.049 1.257-.056 4.196-.078 7.912.991 10.547 4.524 2.133 2.86 4.667 3.517 8.084 2.183 4.59-1.793 7.678.398 7.932 5.358.071 1.383-.055 2.81-.325 4.17-.298 1.501.161 1.698 1.495 1.345a8.436 8.436 0 0 1 4.563.038c3.376.975 5.042 3.48 4.592 6.967-.668 5.182-.45 5.575 4.262 7.95.81.408 1.63.827 2.357 1.362 2.592 1.909 3.088 4.69 1.316 7.378-1.089 1.651-2.577 2.937-4.082 4.197-3.574 2.994-3.876 4.745-1.315 8.496 1.86 2.722 2.086 5.613.97 8.597-.535 1.431-.176 2.268.894 3.259 2.768 2.562 4.79 5.523 3.85 9.6-.227.99.325 1.074 1.022 1.043 3.93-.177 7.797.705 11.72.678 2.688-.018 4.334 1.399 4.809 4.043.37 2.061.025 4.064-.71 5.976-1.237 3.224-1.109 6.111.958 9.106 2.335 3.385 1.972 6.637-.73 9.795-1.126 1.316-1.621 2.003.35 2.968 2.066 1.013 2.618 3.097 2.288 5.22-.62 3.995-1.992 7.84-2.389 11.9-.162 1.664-1.55 2.726-3.149 3.011-4.353.777-7.13 3.582-9.556 6.966-1.707 2.38-3.22 4.944-5.657 6.703-.904.651-1.884 1.196-2.83 1.79l-.003.418c8.551 3.117 12.47 10.143 15.196 18.123 1.522 4.454 2.6 9.013 2.255 13.783-.052.714.171 1.113.754 1.549 2.041 1.525 2.75 3.34 1.214 5.18-3.057 3.662-4.27 7.727-4.827 12.373-.416 3.478-3.333 5.346-6.71 6.147-3.096.733-6.18.426-9.084-.716-2.925-1.15-2.51 1.742-3.374 2.777-.728.87-.056 2.41 1.253 3.061.749.373 1.568.6 2.345.918 3.419 1.402 4.432 3.98 2.75 7.276-1.56 3.06-4.087 4.927-7.491 5.48-1.07.174-1.94.308-2.462 1.503-.622 1.425-2.106 1.781-3.501 1.995-1.72.263-2.693 1.19-3.285 2.811-1.56 4.27-4.027 5.17-8.122 3.07-.85-.437-1.68-.918-2.512-1.375-.674.907-.034 1.35.257 1.828.66 1.085 1.268 2.19 1.394 3.474.203 2.088-1.097 3.473-3.147 3.072-1.962-.383-3.726-.049-5.53.622-2.275.846-4.653 1.001-7.042.71-3.891-.473-7.778-.94-11.705-1.04-2.438-.061-4.78-.818-7.16-1.447-.265 1.234.591 1.706 1.046 2.343.669.936 1.524 1.743-.004 2.712-.816.516-.079.915.31 1.265 1.106.996 2.052 2.09 2.446 3.578 1.136 4.288-1.998 8.026-6.54 7.734-3.167-.204-5.885-1.691-8.598-3.16-.615-.333-1.222-.68-1.843-1-.333-.172-.876-.182-.772.246.318 1.315-.697 3.084 1.153 3.893 2.542 1.112 3.97 3.274 5.23 5.543 1.289 2.316 2.225 4.847 4.459 6.512.272.203.576.503.327.873-.354.528-.89.267-1.348.173-5.887-1.218-11.384-3.423-16.434-6.677-1.98-1.276-3.837-2.74-6.24-4.47 1.5 3.714 3.26 6.626 5.488 9.267 1.921 2.278 4.4 3.865 6.864 5.468 2.475 1.61 4.842 3.332 6.396 5.943 1.471 2.47 2.08 5.053.953 7.805-.357.871-.26 1.619.033 2.42.599 1.643 1.267 3.264 1.782 4.932.7 2.272-.035 3.592-2.327 4.34-2.983.975-5.948.607-8.893-.205-6.491-1.792-11.64-5.615-16.116-10.52-6.91-7.572-12.795-15.9-18.294-24.523-.37-.579-.83-1.1-1.276-1.683-.63.651-.116 1.24.007 1.772 1.053 4.587 1.563 9.251 1.792 13.932.242 4.932-2.912 7.977-7.838 7.6-4.831-.37-9.16-1.951-12.232-5.996-.21-.276-.425-.568-.698-.771-6.7-4.992-6.702-4.99-9.897-12.86-.123-.005-.311-.07-.366-.01-3.98 4.306-5.925 4.742-11.443 2.548-.455-.18-.903-.411-1.377-.507-9.803-1.98-15.964-8.757-20.938-16.612-6.88-10.866-13.504-21.893-20.465-32.714-4.837-7.519-6.71-16.068-7.527-24.872-.563-6.077-.516-12.166-.167-18.249.1-1.728-.357-2.22-2.084-1.938-4.347.712-8.663.356-12.89-.834-1.125-.316-1.998-.102-2.96.464-8.093 4.755-15.837 10.035-23.532 15.4-8.507 5.93-16.702 12.265-24.804 18.727-.817.653-1.548 1.415-2.319 2.126l-2.039-2.67c.78-.593 1.57-1.175 2.339-1.781 11.053-8.706 22.183-17.307 34.007-24.962 4.11-2.66 8.238-5.294 12.336-7.973.49-.32 1.603-.454.987-1.431-.476-.755-1.232-.385-1.87-.03-.244.137-.51.237-.746.385-2.848 1.778-5.74 3.491-8.532 5.355-13.622 9.098-26.989 18.547-39.54 29.102l-1.785-2.336c6.943-5.304 13.836-10.676 20.842-15.897 8.8-6.558 18.033-12.488 27.237-18.457l.186-.625c-14.63-10.464-23.096-25.355-29.773-41.515-2.784-6.737-4.961-13.669-6.188-20.873-.459-2.693-.86-5.403-.116-8.115.321-1.172-.4-2.007-.876-2.915-3.013-5.74-5.66-11.72-5.826-18.233A145.394 145.394 0 0 0 4.143 104.2c-.723-5.23.417-10.393 3.591-14.775 4.387-6.055 10.721-7.76 17.8-7.13 1.713.153 2.635-.116 3.192-1.723.295-.852.765-1.65 1.191-2.452 2.792-5.26 8.013-6.525 12.838-3.033 1.008.73 1.633 1.008 2.798.135 1.872-1.402 3.374-1.067 6.656.958.076-1.902-.533-3.627-.76-5.396-.51-3.954-1.145-7.892-1.591-11.852-1.435-12.75 2.807-23.964 9.515-34.482 1.23-1.93 2.889-3.729 4.964-4.372 2.388-.74 4.821-1.485 7.262-2.021 1.692-.372 3.136.998 4.26 2.292.961 1.106 1.849 2.282 2.696 3.479.798 1.127 1.5 2.322 2.378 3.695.68-1.676.422-3.222.493-4.7.244-5.068 2.396-8.8 7.123-10.956 1.518-.693 3.026-1.47 4.282-2.624 1.138-1.046 1.785-.618 2.281.682a31.794 31.794 0 0 0 1.73 3.814c.368.678.657 1.797 1.7 1.535.894-.224.745-1.266.758-1.997.027-1.536-.087-3.075-.091-4.613-.006-2.002.471-2.398 2.403-1.938.736.175 1.694.343 2.09.865 2.314 3.045 6.403 3.937 8.513 7.227 2.873 4.481 5.827 8.905 6.95 14.235h.4c1.086-3.391 2.202-6.773 3.253-10.176zm29.796 106.262l.099.007-.099-.007zm-4.11 4.506c-1.637.76-2.326 2.099-2.438 3.845-.382 5.992-.8 11.983-1.174 17.976-.04.639-.301 1.381.48 2 1.437-1.715 2.864-3.403 4.272-5.107.571-.69 1.51-1.107 1.705-2.071.901-4.457 1.4-8.966 1.649-13.502.052-.96-.365-1.064-1.14-.565-.849.546-1.506 1.548-3.089 1.423 2.958-2.087 4.733-4.439 4.265-7.92l-.546.031c-.99 1.644-2.199 3.062-3.985 3.89zm-20.546-51.833l-.174.888-.25.56-.285.869-.314.524.43.082.277-.531.197-.904.288-.529a10.525 10.525 0 0 0-.343-.07l.175-.889c.07-.185.142-.37.214-.556l-.215.556zm13.196-48.597l-.501-.055c-.88 1.557-1.71 3.146-2.655 4.662-.69 1.107-.999 2.166-.676 3.497.273 1.121.211 2.325.298 3.491l.533.016 3.001-11.61zm86.102 185.724l14.181 2.002 3.011.1.845.136-.039.434-.888-.089-2.938-.03a98.28 98.28 0 0 1-13.332-.835c-1.387-.184-1.637.21-1.584 1.513.048 1.175.777 1.325 1.563 1.596 4.898 1.688 9.982 2.517 15.083 3.271l3.124.263.58.078 2.395.146.253.236-.303.097-2.49.006a1.41 1.41 0 0 1-.388-.036l-3.692-.28-12.052-1.349c1.766 1.799 3.18 3.216 4.567 4.659 1.155 1.201 1.02 1.977-.73 2.374-2.51.569-4.995 1.25-7.49 1.884l-.09.568c2.311.565 4.626 1.107 6.853 1.972 6.586 2.556 12.574 8.619 10.727 17.262-.379 1.775.051 3.427 1.49 4.78 1.127 1.062 1.212 2.298-.022 3.467-2.252 2.135-2.322 2.628-.79 5.314.449.79.987 1.528 1.44 2.316.984 1.711 1.367 1.752 2.522.097 1.872-2.683 2.054-5.615.988-8.611-.472-1.327-.8-2.19 1.146-2.42 1.229-.146 2.051-1.166 2.347-2.431.392-1.68-.082-3.194-1.033-4.567-2.807-4.051-6.033-7.698-10.148-10.491-.53-.36-1.45-.76-.767-1.594.533-.651 1.142.004 1.654.317.477.291.92.636 1.381.952 3.485 2.38 7.165 4.369 11.23 5.581 1.699.507 3.384.764 5.133.06 1.814-.73 3.657-1.414 5.536-1.947 3.552-1.008 5.765-3.324 6.866-6.754.94-2.934 1.704-5.918 2.088-8.984.14-1.12.1-2.236-.166-3.336-.606-2.498-1.853-3.488-4.39-3.545-.688-.015-1.45.172-2.332-.565 2.255-.332 4.18-.562 6.085-.907 3.851-.697 4.846-1.913 4.864-5.882.01-1.994-.342-3.95-1.499-5.595-1.364-1.94-2.776-3.809-3.622-6.08-.456-1.226-1.416-2.247-2.546-3.003-.436-.29-.874-.893-1.459-.52-.463.295-.192.911-.2 1.383-.028 1.782-.005 3.402-2.36 4.016-1.391.363-1.425 2.085-.35 3.529 1.623 2.183 1.442 2.837-1.134 3.905-3.252 1.348-6.656 2.14-10.122 2.683-9.561 1.498-19.197 2.05-28.859 2.267l-.598.054-.044.417.505.116zM7.835 112.646c3.783 7.948 8.855 15.008 15.234 21.108-6.354-5.176-11.425-11.448-15.587-18.803-1.024 2.996-.627 7.698 1.081 13.134 2.99 9.515 7.802 17.775 16.418 23.346l3.742 2.394-.06.262c-1.47-.608-2.86-1.357-4.13-2.32-3.313-1.969-6.288-4.347-8.856-7.228-.451-.507-.93-1.405-1.592-1.152-.833.318-.457 1.34-.454 2.07.027 5.72 3.347 9.692 7.158 13.396l3.235 2.429c-1.524-.266-2.663-1.12-3.768-2.03l-5.188-4.827c2.094 7.26 3.228 14.28 9.228 19.004 1.968 1.55 3.926 3.113 5.89 4.67l2.863 1.793c-1.38-.028-2.403-.682-3.405-1.384-2.923-1.667-5.423-3.925-8.528-6.382 1.848 4.695 3.8 8.627 5.95 12.457 5.028 8.957 10.829 17.32 19.002 23.746 7.254 5.703 15.387 8.708 24.77 7.778 1.983-.197 2.907-.793 2.97-3.03.154-5.45.521-10.902 1.5-16.286.195-1.07.409-2.137.686-3.584-3.757 1.64-7.2 2.96-10.982 2.801l-.59.11-.904-.074c-.126-.007-.36.001-.362-.021-.038-.282.173-.292.374-.303l.924.014c-.012.128-.022.256-.032.384.01-.128.02-.256.032-.384l.59-.154c1.705-.391 3.431-.705 5.107-1.192 2.381-.692 4.53-1.862 6.329-3.599.574-.554 1.012-1.337.69-2.062-.303-.678-1.143-.282-1.722-.223a69.586 69.586 0 0 1-14.883-.115c-.833-.094-1.772.008-2.592-.74 1-.485 1.83-.209 2.635-.14 4.835.41 9.639.171 14.46-.356 2.365-.258 3.783-1.188 4.614-3.445.516-1.403.587-2.007-1.132-2.078-1.956-.08-3.909-.305-5.854-.542-8.639-1.053-17.151-2.647-25.236-6.02-4.693-1.544-8.96-3.887-12.921-6.812 4.218 2.29 8.596 4.226 13 6.108 1.132.362 2.265.719 3.394 1.086 9.458 3.079 19.231 4.27 29.107 4.836 1.088.062 3.277-1.892 3.142-3.04-.15-1.281-1.511-.895-2.324-1.069-11.111-2.365-22.002-5.43-32.437-9.974-.657-.286-1.447-.43-1.9-1.13.534-.398.904-.071 1.257.08 7.809 3.34 15.916 5.75 24.176 7.652 3.815.879 7.671 1.586 11.52 2.305 1.267.237 3.386-1.265 3.46-2.397.116-1.803-1.398-1.617-2.482-1.872-1.702-.4-3.431-.686-5.13-1.1-9.96-2.433-19.572-5.784-28.475-10.966-5.52-2.696-10.415-6.31-15.063-10.288 4.86 3.493 9.923 6.658 15.118 9.616 5.618 2.859 11.377 5.376 17.382 7.322a121.068 121.068 0 0 0 16.277 4.055c.586.103 1.725.808 1.642-.665-.098-1.715-.271-3.155-2.391-4.082-16.583-7.257-30.646-18.025-42.841-31.315-3.156-3.126-6.004-6.509-8.4-10.27l8.767 10.001c2.157 2.093 4.263 4.24 6.478 6.268 10.638 9.742 22.299 17.968 35.576 23.765.602.263 1.346.92 1.889.33.511-.556.198-1.476.085-2.228-.101-.67-.767-.74-1.24-1-1.715-.941-3.524-1.742-5.132-2.84-16.81-11.474-30.4-26.037-41.267-43.194-1.479-2.347-2.802-4.779-3.754-7.426l4.064 7.154c5.36 8.04 11.326 15.589 18.101 22.491 7.756 7.902 16.034 15.158 25.637 20.775 3.623 2.12 3.594 2.076 4.508-1.91.259-1.13.015-1.47-1.106-1.587-8.895-.924-14.606-6.36-19.05-13.549-.697-1.126-1.214-2.373-2.245-3.26-4.172-3.59-7.428-7.949-10.498-12.466-1.183-1.526-2.064-3.21-2.506-5.148l3.07 4.722c2.55 3.387 5.094 6.78 8.942 9.747-1.198-3.913-1.872-7.518-3.391-10.723-1.966-4.145-4.309-8.118-6.034-12.392-.285-.753-.829-1.443-.598-2.391.718.517.736 1.359 1.124 1.989 1.392 2.547 2.387 5.345 4.754 8.027-.033-1.016-.008-1.36-.06-1.69-1.131-7.187-1.723-14.413-1.641-21.692a5.732 5.732 0 0 0-.303-1.847c-1.262-3.777-2.272-7.62-3.133-11.506-.498-2.247-1.913-3.877-3.77-5.077-1.954-1.263-3.876-.449-4.574 1.751-1.012 3.19-.39 6.362.053 9.539l1.523 5.33c-1.089-1.689-1.864-3.474-2.137-5.44-.983-2.81-1.29-5.71-1.051-8.659.11-1.379-.65-2.287-1.728-2.519-1.093-.235-1.047 1.103-1.237 1.792-.527 1.903-.876 3.854-1.295 5.786-.64-2.365-.345-4.682.323-6.918.548-1.836-.208-2.368-1.842-2.501-3.651-.298-6.512 2.098-7.855 6.463-1.218 3.965-1.235 7.97-.702 12.02l1.143 4.612c-1.016-1.427-1.625-2.982-1.722-4.713-.755-2.215-.988-4.535-.808-6.819.15-1.91-.721-2.46-2.311-2.642-3.858-.444-7.508.347-11.032 1.85-3.155 1.347-4.883 3.708-5.416 7.141-.687 4.429.168 8.613 1.492 12.772 2.67 8.39 7.296 15.652 12.886 22.358 4.676 4.62 9.465 9.11 14.801 12.976 2.131 1.544 4.266 3.083 6.305 4.757-3.026-1.566-5.706-3.643-8.397-5.698-4.673-3.567-9.186-7.314-13.021-11.806-3.488-3.478-6.348-7.443-8.9-11.63-3.895-6.391-6.973-13.081-7.145-20.763l-.493-.04c-1.884 5.87-1.488 11.639 1.137 17.156zm203.499 62.326l.072.06.065-.117-.07.06-.067-.003zm-1.68-.336l-.56-.251-.633.197.633-.196.56.251.585.073-.585-.074zm1.68.336l-.446-.371c-.027.118-.052.236-.075.354l.52.017zm-3.482-.461a128.997 128.997 0 0 1 0 .001l-.008.05c-.263-.183-.525-.368-.788-.553v.004c0 .005-.057.038-.057.038l.057-.033c.262.176.525.36.788.545a.773.773 0 0 1 .064-.044l-.056-.008zM52.378 64.436l.012-.023-.303-1.097c-.053.415.016.796.29 1.12zm116.156 8.012l.002-.019a12 12 0 0 1-.002.019l-.057.004.057-.004.03.1zm4.393-8.083l.388.388c-3.181 7.269-6.383 14.53-8.327 22.307 5.311-9.812 10.972-19.376 18.286-27.848 6.259-7.729 13.695-14.225 21.416-20.424-7.473 6.525-14.663 13.331-21.022 20.97-5.92 7.501-11.06 15.484-14.99 24.252 4.976-7.11 10.662-13.526 17.435-18.94 3.887-3.402 7.955-6.55 12.483-9.066-4.266 2.885-8.207 6.183-12.133 9.5-6.843 5.903-15.269 15.785-15.789 18.882 1.211-1.15 2.336-2.293 3.54-3.346 9.791-8.565 20.478-15.57 33.21-18.999.53-.143 1.173-.252 1.527-.61 3.745-3.785 8.224-6.753 11.862-10.648 2.006-2.148 3.96-4.351 5.163-7.089.721-1.643.792-3.342-.982-4.205-2.752-1.339-3.868-3.515-4.48-6.372-.767-3.573-5.063-4.717-7.81-2.288-.6.53-.928 1.382-2.016 1.661.735-1.792 1.984-3.216 2.087-5.096.114-2.076-.848-2.91-2.81-2.276-.908.294-1.764.747-3.207 1.37.94-.952 1.395-1.487 1.924-1.934 1.8-1.522 1.889-3.298.157-4.888-1.607-1.474-3.516-1.593-5.51-1.044-2.382.656-4.182 2.228-5.84 3.947-3.479 3.608-5.742 8.076-8.516 12.183-.399.59-.662 1.303-1.432 1.763-.09-1.017.48-1.608.84-2.248 1.71-3.05 3.49-6.06 5.21-9.106 1.428-2.528.978-3.556-1.913-4.231-1.574-.368-3.213-.598-4.465-1.68-1.016-.878-1.699-.59-2.474.25-6.648 7.213-12.145 15.164-15.696 24.37-1.012 2.62-1.778 5.305-2.187 8.087-.059.405-.262.877.143 1.164.433.307.773-.108 1.1-.333.344-.238.648-.534.984-.786.336-.253.707-.535 1.143-.308.57.296.402.841.297 1.302-1.393 6.11-.963 12.406-1.91 18.56l.538.096 3.776-7.287zM166.63 87.47l-.412.845-.416.844c-.016.17-.061.487-.044.491-.017-.004.028-.32.044-.491l.417-.844.41-.845.407-.845-.406.845zm88.886 158.184l6.046 2.294.256.251-.306.084c-3.144-.203-5.905-1.852-9.26-2.67.406.7.592 1.063.818 1.4 2.974 4.426 2.924 6.103-.463 10.114-.65.77-.288 1.248.164 1.809 1.267 1.572 3.043 2.426 4.763 3.356l-.058.436.058-.436.9.172.216.259-.287.069-.887-.064c-1.475-.265-2.759-.963-3.995-1.767-.98-.637-1.188-.147-1.192.77-.002.688.329 1.208.737 1.686.976 1.141 1.977 2.26 3.234 3.69-1.507-.426-2.243-1.255-3.04-2.007-.472-.447-1.098-.95-1.43.053-.52 1.579-1.654 2.807-2.624 4.529 4.035-.22 7.756-.159 11.391-.686 4.744-.687 6.65-4.035 5.33-8.584-.92-3.172-.433-4.42 2.455-6.304.49-.32 1.363-.48.902-1.33-.602-1.113-.194-1.814.677-2.497.653-.512.902-1.312.805-2.075-.246-1.942.694-1.732 1.963-1.239 2.618 1.02 5.294 1.825 8.154 1.646 5.075-.318 8.068-3.442 8.195-8.493.025-.975.023-1.968.209-2.918.204-1.042-.169-1.204-1.084-1.087-1.24.158-2.496.373-3.737-.037-.228-.038-.656-.089-.655-.113.031-.497.424-.285.697-.323 3.814.191 6.742-1.252 8.722-4.595 1.294-2.185 1.007-3.425-1.246-4.534-.755-.371-1.502-.73-2.115-1.334-3.374-3.322-7.593-3.874-12.055-3.693-1.118.046-1.343.43-1.242 1.538.408 4.46-.392 8.771-1.962 12.945-.911 2.422-2.259 4.703-4.647 5.736-4.541 1.964-8.93 4.845-14.305 3.517l-.101.432-.496-.396.495.397zm-113.935-70.814c-.37.072-.29.228-.077.409.878.41 1.165 2.005 2.52 1.407 2.635-1.163 4.927-2.775 6.732-5.747-3.396 1.338-6.36 2.45-9.175 3.931zm27.382 73.812a93.274 93.274 0 0 1-3.275-4.06c-.58-.766-1.379-1.247-2.137-.767-.998.631-.019 1.333.343 1.882 1.341 2.037 2.863 3.916 4.671 5.586 3.218 2.973 7.263 4.62 10.864 6.974 2.605 1.996 4.763 4.32 5.506 7.649.177.794.824 1.082 1.388 1.473 3.39 2.351 7.015 4.303 10.646 6.243l-.073.521.073-.521.84.412c.347-.016.778.121.677.447-.129.413-.518.04-.794-.009l-.796-.329c-3.614-1.325-6.89-3.292-10.144-5.304-.467-.289-1.072-.953-1.619-.187-.548.768.047 1.236.634 1.693 2.686 2.09 5.354 4.205 8.029 6.311l12.275 8.663c-4.612-2.237-8.78-5.15-12.833-8.237l-7.337-5.235c-.776-.554-1.602-1.088-2.301.034-.61.978-2.285 1.548-.94 3.281 2.19 2.82 4.387 5.62 6.842 8.213 5.822 6.146 12.395 11.274 20.132 14.818 1.794.822 3.645 1.46 5.671 1.208 2.91-.362 4.588-3.066 3.609-5.842-.663-1.878-2.127-2.866-3.951-3.437-.682-.214-1.739.028-1.813-1.036-.061-.87.853-1.074 1.464-1.276 1.63-.54 1.25-1.372.43-2.29-1.17-1.308-2.374-2.588-3.649-3.973 1.27-.15 1.586 1.36 2.756 1.107.087-1.26-.41-2.345-.847-3.434-1.781-4.435-5.094-7.634-8.69-10.567-1.084-.883-1.55-1.623-.718-2.97.817-1.322.724-2.79.127-4.237-1.19-2.882-3.477-4.454-6.313-5.392-1.26-.416-2.59-.68-3.77-1.255-2.542-1.237-3.634-3.641-2.515-5.839.794-1.56.235-2.232-1-3.017a881.96 881.96 0 0 1-13.012-8.448c-2.619-1.73-2.586-1.763-4.057.833-.31.545-.599 1.172-1.07 1.542-1.873 1.471-1.447 2.902-.087 4.4.328.362.605.77.905 1.157l5.393 4.638c-2.396-.85-4.314-2.336-5.945-4.214-.719-.843-1.514-1.634-2.138-2.543-1.04-1.514-2.161-.516-3.079-.045-1.163.596-.274 1.468.163 2.047 1.209 1.6 2.526 3.117 3.8 4.667 5.331 5.196 11.479 9.178 18.225 12.273l.243.295-.318.105c-3.553-1.052-6.58-3.172-9.825-4.846-3.059-2.349-6.323-4.451-8.886-7.395-.595-.586-1.236-1.132-1.774-1.767zm7.462 72.007c4.41 6.138 8.995 12.115 14.878 16.946 1.41 1.158 2.882 2.3 4.867 2.517-3.444-2.85-6.042-6.384-8.476-10.029-1.819-2.724-4.214-5.23-5.107-8.364-.798-2.802-2.113-5.07-4.284-6.732-7.664-5.866-13.453-13.341-18.756-21.266l-.399.447c5.628 8.912 11.118 17.913 17.277 26.481zm44.913-56.869l.074-.327c-4.926-3.55-9.965-6.951-14.507-11.01-.522-.467-1.35-.872-1.348-1.53.004-1.722-1.294-2.366-2.337-3.222-7.971-6.54-16.62-12.05-25.76-16.798-.899-.467-1.69-1.228-2.754-1.245-.27 3.132 1.033 5.01 3.849 6.545 4.526 2.467 8.729 5.528 13.074 8.329.961.62 2.019 1.322 2.104 2.472.11 1.482.945 2.252 2.003 2.975 8.05 5.501 16.675 9.936 25.602 13.811zM109.586 40.593c-2.602 4.155-4.823 8.512-6.962 12.917-7.624 15.708-9.08 32.416-8.095 49.523l.375.043c1.161-5.324 2.283-10.661 3.843-15.885 1.519-5.086 3.212-10.12 4.753-15.2.824-2.718.888-5.386-1.222-7.67-.76-.823-.336-1.513.23-2.213 3.427-4.236 5.1-9.094 5.118-14.528.002-.719.085-1.395.62-1.936 1.37-1.385 1.776-3.115 1.78-4.987l-.44-.064c.101-.146.198-.263.278-.263-.08 0-.177.117-.278.263zm58.67 125.012l.04.047.012-.02-.052-.027zm-6.254 4.973c-.983.363-1.935.812-2.907 1.205-3.92 1.584-5.657 4.623-5.674 8.709-.006 1.386.28 2.776.47 4.16.19 1.393.267 2.746-.128 4.15-.248.882-1.733 1.563-.912 2.424.63.661 1.912.776 2.935.967 1.162.216 2.36.362 3.54.338 3.801-.076 6.826-3.242 6.933-7.178-1.217.175-2.086 1.38-4.059 1.197 4.24-1.821 5.24-4.962 5.403-8.698.148-3.42.6-6.828.89-10.243.055-.654.3-1.358-.197-1.957-1.46 2.455-3.664 3.955-6.294 4.926zm122.576-44.888l.046-.445c-6.582-.542-12.94.738-19.249 2.395-.857.224-1.384.898-1.933 1.542-3.88 4.547-8.832 7.186-14.665 8.307-3.448.663-6.97.552-10.423 1.1-1.754.28-3.576.354-5.37 1.403 1.993 1.154 3.775 2.333 4.62 4.317.562 1.316 1.267 1.332 2.438.984 5.646-1.674 11.422-2.696 17.27-3.358 5.561-.629 11.145-.48 16.723-.546-.484-.863-1.462-.947-2.224-1.367-1.195-.658-2.895-1.004-2.685-2.781.205-1.747 1.863-2.089 3.274-2.493.803-.23 1.643-.331 2.462-.51.966-.21 1.862-.579 2.657-1.187 2.092-1.602 1.965-3.053-.38-4.144-.429-.198-1.066-.221-1.019-.861.055-.753.78-.694 1.29-.808 2.385-.532 4.778-1.034 7.168-1.548zm-10.543 15.699l.026.049v-.05h-.026zm-26.572 141.383c1.992.124 2.457-.446 1.661-2.319-1.316-3.098-3.17-5.9-5.045-8.685-.555-.824-1.34-.891-2.203-.91-4.876-.103-9.521-1.273-14.14-2.789-7.555-2.48-14.492-6.253-21.531-9.83-.74-.375-1.418-.985-2.645-1.022 1 1.3 2.043 2.309 2.26 3.589.512 3.024 2.719 4.59 4.905 6.196 5.274 3.874 11.173 6.618 17.084 9.336l.253.422-.347.023c-.4-.116-.814-.199-1.198-.354-6.701-2.716-13.156-5.88-18.893-10.357-.383-.299-.775-1.085-1.368-.464-.518.543.123 1.01.423 1.445.197.285.455.53.7.779 2.944 2.992 5.954 5.91 9.305 8.455.337.255.813.474.732 1.187l-4.213-2.76c.67 1.365 1.244 2.132 1.43 2.985.902 4.13 4.045 4.938 7.556 5.258.488.045.978.067 1.468.071 3.157.03 6.279.275 9.38.965 2.606.58 5.275.784 7.903.034.536-.153 1.59.024 1.196-1.164-.366-.16-.733-.318-1.099-.477l-.414-.233a92.794 92.794 0 0 0 .483-.124l1.136.361c1.74.129 3.48.274 5.221.382zM167.751 27.98c.268-1.211 1.481-2.346.981-3.542-1.24-2.967-1.19-6.15-1.901-9.194-.35-1.5-.839-2.96-1.856-4.165-1.651-1.956-3.192-1.815-4.347.442-.699 1.365-1.275 2.791-1.906 4.19l-.25.25-.081-.3c.045-1.786.798-3.393 1.312-5.056.632-2.043.188-3.906-.945-5.586-1.207-1.788-2.976-1.807-4.382-.173-1.443 1.676-1.756 3.677-1.295 5.727.505 2.245 1.27 4.432 1.91 6.646.72 2.486 1.041 5.039-.32 7.349-1.465 2.488-1.004 4.564.523 6.794 3.247 4.737 4.371 10.07 4.078 15.756-.041.786-.433 1.646.337 2.535 1.788-1.849 3.625-2.178 5.682-.33.744.669.795-.363.888-.825 1.648-8.134 5.661-15.155 10.276-21.897 1.239-1.81-.02-5.234-2.15-5.853-1.149-.335-2.292-.145-2.594 1.066-.812 3.253-3.221 5.734-4.126 8.92l-.414.218-.027-.334c.203-.88.411-1.757.607-2.638zm-32.769-12.72c.35-1.994 1.03-3.92 1.117-5.973.072-1.69-.33-3.18-1.437-4.47-1.943-2.265-2.407-2.235-3.583.462a25 25 0 0 0-1.391 4.17c-1.09 4.568-.7 9.191-.269 13.788.56 5.974.49 11.887-1.241 17.686-1.58 5.294-1.546 10.603-.47 15.983 1.24 6.196 2.027 12.433.825 18.75-.015.074.152.184.525.607.97-4.69 4.296-8.196 4.573-13.01.22-3.827 1.14-7.61 1.571-11.432.588-5.202 1.475-10.413.384-15.661-.208-1 .4-1.745.843-2.521 2.118-3.71 3.86-7.615 5.878-11.366 2.966-5.514 3.977-10.73-.709-15.803-.182-.197-.24-.504-.384-.742-.327-.54-.857-.67-1.162-.131-.838 1.482-2.471 2.407-2.666 4.38-.184 1.87-.957 3.64-1.815 5.336l-.504 1.432-.2.935c-.134.14-.268.278-.403.416l.03-.534.113-.895.375-1.406zM65.927 27.586c-.114-2.125.39-4.16.915-6.191.104-.403.272-.836-.136-1.157-.44-.346-.895-.222-1.37 0-2.896 1.355-5.256 6.436-4.256 9.489 1.03 3.144 1.688 6.352 1.933 9.636.337 4.531.535 9.073.877 13.603.189 2.512.731 4.974 1.437 7.397.388 1.333.943 1.52 2.01.545.764-.698 1.65-1.557 2.587-1.715 2.2-.372 2.218-1.576 2.068-3.387-.33-3.983 1.581-6.236 5.557-6.992.618-.118 1.254-.198 1.841-.408 1.722-.617 2.75-1.537 2.5-3.71-.385-3.326-.468-6.694-.532-10.047-.116-6.039-3.312-10.543-7.333-14.521-2.195-2.172-4.761-1.39-6.085 1.453-.898 1.928-1.183 4.014-1.559 6.077l-.079.588c-.03.204-.062.407-.093.61l-.278.236-.08-.319.015-.595.06-.592zm195.647 155.417l-.085.484c1.708 2.247 5.2 2.898 5.637 6.317.034.27.602.553.974.689 4.002 1.46 7.81.54 10.621-2.745 1.77-2.067 3.307-4.33 4.991-6.473 2.3-2.924 4.972-5.302 8.842-5.914 1.925-.305 2.883-1.554 3.079-3.455.222-2.157.436-4.312 1.189-6.377.527-1.446 1.027-2.915 1.065-4.475.044-1.763-.315-3.31-2.103-4.217-1.731-.878-2.992-.226-4.365.864-4.933 3.916-9.876 7.848-15.757 10.306-4.945 2.067-10.137 3.028-15.652 3.041.672 2.106 1.702 3.878 2.056 5.876.484 2.724.487 2.69 3.374 2.51 2.775-.175 5.433-.949 8.145-1.55a1.266 1.266 0 0 1-.625.562c-3.195 1.338-6.527 2.04-9.988 2.188-.629.026-1.742-.333-1.765.576-.026 1.068 1.185.707 1.828.75 1.459.099 2.932-.016 4.4-.044l4.45-1.138c-1.332 1.07-2.849 1.668-4.56 1.768-1.88.62-3.83.354-5.75.457zM126.168 13.488c-3.995 12.826-8.143 25.608-11.857 38.515-2.208 7.674-2.537 15.592-.922 23.495.513 2.51 1.016 2.732 3.226 1.577 2.524-1.318 4.889-.99 7.131.993 2.178 1.924 2.18 1.924 3.012-1.001a28.658 28.658 0 0 0 1.075-7.459c.055-3.726-.378-7.41-1.107-11.05-1.242-6.2-1.45-12.337.462-18.466 1.568-5.027 1.638-10.193 1.155-15.393-.433-4.669-.778-9.344-.358-14.037l-.538-.043c-.432.955-.97 1.876-1.28 2.87zm33.764 89.518c-2.136 5.462-4.854 10.707-6.131 16.487-.165.744-.378 1.478-.16 2.268 1.416 5.153 1.077 10.39.688 15.626-.162 2.186-.358 4.371-.563 6.857 2.743-1.463 4.915-3.15 7.474-4.087 1.53-.56 2.59-1.59 3.425-2.937 1.263-2.038 2.117-4.254 2.847-6.518 1.589-4.924 3.144-9.858 4.719-14.786 1.404-4.395 2.81-8.79 4.231-13.18.5-1.544.308-2.738-1.408-3.36-2.337-.85-3.644-2.758-4.716-4.832-.8-1.548-1.452-3.173-2.17-4.763l-.504-.137c-3.387 3.986-5.833 8.506-7.732 13.362zm1.926 224.83l.027-.555c.177.08.267.156.29.228-.023-.072-.113-.148-.29-.228-3.173-2.823-5.295-6.399-7.239-10.102-.587-1.092-1.254-2.147-1.326-3.517l1.755 3.203c1.666 2.577 3.069 5.346 5.275 7.532.898.89 1.703 2.562 3.132 1.986 1.622-.654 1.43-2.54 1.511-4.07.008-.14-.008-.28-.017-.42-.301-4.537-.762-9.06-1.82-13.489-.987-4.133-1.825-8.32-4.355-11.915a33.671 33.671 0 0 1-2.86-4.874c-2.68-5.622-6.546-10.436-10.529-15.299.858 6.177 2.94 12.081 4.341 18.138l4.33 12.439c-2.295-3.727-3.648-7.842-4.903-11.996l-3.715-11.496c-.663 2.9-.067 5.628.166 8.378l1.638 6.86c-1.271-2.165-2.047-4.48-2.28-6.967-.423-.983-.192-2.187-.947-3.191-.245.252-.442.366-.501.529-1.243 3.425-2.67 6.757-4.803 9.744-.394.55-.349 1.199-.331 1.823a12.903 12.903 0 0 1-1.406 6.276c-.448.885-.492 1.699-.104 2.6 2.086 4.846 4.261 9.606 9.454 12.025.462.216.791.758 1.132 1.19 3.719 4.708 8.672 5.976 14.375 5.168zM105.482 18.841c-.279-2.428-.36-4.88-.97-7.266-.305-1.195-.828-2.246-1.918-2.877-1.065-.617-1.869-.658-1.784.987.09 1.742.23 3.505-.233 5.218-.566 2.097-2.242 2.546-3.75 1.007-1.181-1.204-2.105-2.607-2.893-4.098l-.323-.017c.046-.12.088-.175.129-.187-.04.012-.083.066-.129.187-1.227 1.513-1.902 3.328-2.754 5.046l-.248.23-.058-.285c-.168-1.539 1.091-2.8.976-4.395-5.769 1.811-8.136 4.745-8.495 10.843-.387 6.558-.19 13.122.215 19.677.023.372-.101.88.528 1.04.873-.6.975-1.618 1.227-2.522.549-1.96.698-3.984.81-6.009.033-.619-.086-1.35.504-1.739.74-.488 1.072.38 1.588.641.227.115.428.384.793.033-.04-2.498-.27-5.076.14-7.637l.139-.858.082-.58.173-.284.176.329-.008.56-.113.912c.05 1.317.12 2.634.148 3.952.094 4.363 1.538 8.218 4.288 11.587l.383-8.02.14-.847c.029-.171.048-.49.087-.492.39-.024.336.279.339.531l-.086.887c.312 4.43.042 8.932 1.686 13.192 1.05 2.726 2.078 5.46 3.118 8.191l.519.02c.485-.994 1.147-1.94 1.426-2.988 1.5-5.626 3.247-11.197 4.026-16.994l.072-.533a277.267 277.267 0 0 0 .081-.61l.14-.89.08-.584.102-.26c.036.095.072.19.106.284l.065.57-.116.925-.021.598-.076.58c.256 3.288-1.192 6.437-.82 9.796 2.122-3.133 4.557-6.001 5.912-9.536.983-2.564 2.971-4.37 4.863-3.772 2.692.852 2.146-.754 1.932-2.138-.965-6.218-4.306-11.261-8.076-16.072-.42-.536-1.04-.93-1.608-1.33-.45-.317-.987-.758-1.525-.52-.625.275-.344.984-.35 1.512-.019 1.671.205 3.347-.124 5.01l.07 1.256-.407.247-.057-.35-.12-1.158zm-11.76 23.495l-.002.04.052.024h.002a20.437 20.437 0 0 1-.052-.064zm11.314 71.496c.059-1.835.484-3.6.98-5.356.45-1.599-.536-3.431-2.127-3.87-1.298-.358-2.312-.196-2.658 1.43-1.843 8.656-1.379 17.094 2.108 25.309.62 1.46 1.24 1.723 2.361.563 1.721-1.78 3.8-3.084 5.893-4.36 6.117-3.728 12.615-6.005 19.908-5.038 1.048.139 1.328-.305 1.58-1.148.762-2.557 1.325-5.148 1.623-7.8 1.087-9.699-.322-19.115-3.098-28.39-.568-1.898-.968-3.847-1.445-5.772-2.186 5.073-4.108 10.086-5.422 15.294-.934 3.705-1.302 7.456.007 11.176.255.726.181 1.398-.249 1.996-2.536 3.528-3.905 7.557-5.062 11.679l-.08.579-.427-.078.071-.535c.457-3.722 1.645-7.22 3.257-10.587.327-.684.754-1.297.223-2.135-1.749-2.763-8.455-5.74-11.715-5.138-2.197.406-3.356 2.074-2.903 4.246.13.624.345 1.223-.023 1.824-1.15 1.879-1.535 4.044-2.284 6.074-.017.21-.074.413-.333.356-.08-.017-.124-.208-.184-.32zm72.624 34.275c-3.71 2.242-7.771 3.989-10.532 7.625l8.089-3.171c1.538-.58 3.026-1.316 4.789-1.287l-4.393 1.794c-2.11 1.097-4.244 2.148-6.32 3.303-2.334 1.298-2.37 1.388-.64 3.503 1.562 1.91 2.746 3.866 2.278 6.482-.111.622-.541 1.496.278 1.886.616.292 1.141-.384 1.646-.715 4.706-3.088 8.045-7.32 10.275-12.446.584-1.34 1.284-2.272 2.878-2.662 2.316-.567 4.058-2.167 5.405-4.116 4.573-6.616 7.475-13.903 8.702-21.852.171-1.11.251-2.23.029-3.343-.437-2.18-1.786-3.175-3.793-2.188-4.184 2.058-7.808 1.504-11.208-1.513-.256-.226-.598-.362-.913-.513-2.244-1.07-4.218-.581-5.754 1.413-1.128 1.463-1.41 3.176-1.435 4.949-.027 1.889.119 3.785-.008 5.665-.4 5.909-2.377 8.104-8.19 9.017-6.996 1.1-12.723 4.487-17.6 9.485-1.093 1.12-2.203 2.226-2.866 3.686 4.24-3.267 8.7-6.154 13.308-8.816 3.157-1.823 3.785-1.517 4.04 1.929.006.092.177.172.388.364 4.956-5.533 10.58-10.331 16.444-14.86 3.685-2.649 7.293-5.41 11.372-7.484-3.804 2.462-7.392 5.223-11.041 7.9-1.993 1.745-4.028 3.445-5.97 5.246-3.836 3.56-7.43 7.357-10.726 11.427-.362.446-1.057 1.04-.407 1.596.572.49.943-.347 1.336-.656 4.34-3.411 9-6.351 13.631-9.334 2.334-1.355 4.375-3.2 6.967-4.128-2.439 1.17-4.224 3.365-6.811 4.3-4.947 4.16-10.583 7.52-14.728 12.665 3.696-1.956 7.29-4.029 11.163-5.541l.317.39zm-54.566 12.637c1.646 4.563 4.053 8.594 7.915 11.765.604-1.114.16-1.739-.339-2.487-3.364-5.053-4.355-10.673-3.776-16.632.041-.42-.098-1.016.838-1.26-.086 2.845-.03 5.617.684 8.306.717 2.7 1.42 5.415 3.354 7.894 2.776-6.542 4.207-13.016 5.604-19.509 1.135-5.28 2.324-10.574 6.66-14.4.235-.207.412-.61.417-.923.042-2.996 1.976-4.391 4.402-5.536 2.203-1.04 3.24-2.993 3.504-5.374.137-1.237-.332-2.245-1.366-2.861-.945-.564-1.89-.174-2.757.377-2.485 1.58-4.294 3.762-5.704 6.318-1.113 2.02-2.128 4.101-3.632 5.882-2.874 3.399-6.163 4.278-10.3 2.669-.986-.384-2.107-.704-2.683.244-1.449 2.38-3.423 4.578-3.178 7.692.412 5.241-.304 10.427-3.506 14.592-2.239 2.911-3.902 5.909-5.234 9.262-.87 2.188-2.313 4.146-3.46 6.23-.958 1.736-1.981 3.459.496 4.944.577.345.835 1.258 1.183 1.939.356.694.717 1.341 1.469 1.707 2.806 1.364 5.716 2.283 8.881 2.135.62-.029 1.579.08 1.732-.474.553-2.001 1.749-1.122 2.93-.908 1.84.332 3.933.997 5.463-.3 1.604-1.358 2.744-3.266 4.59-5.557-6.004 1.08-10.216-.748-12.902-5.597 1.6 1.3 2.969 2.984 5.64 3.513-3.442-4.347-6.565-8.387-7.307-13.654l.097-.423c.094.143.19.285.285.426zm18.834 93.664c-.283-.399-.616-.772-.842-1.2-5.298-10.071-8.723-20.71-9.727-32.087-.042-.477.344-1.152-.794-1.45-.542 6.366-.028 12.563 1.237 18.721l1.916 6.55a16.219 16.219 0 0 1-2.56-6.666c-1.61-5.402-2.208-10.947-2.386-16.559-.022-.71.58-1.834-.713-2.055-1.122-.192-2.087.183-2.505 1.39-.388 1.122-.948 2.22-1.121 3.374-1.494 9.974-.166 19.398 5.844 27.776 3.404 4.744 8.001 8.383 12 12.577 2.985 3.13 6.576 4.62 10.895 4.454 1.318-.05 1.838-.049 1.077-1.718-3.656-8.012-6.136-16.374-6.32-25.257-.07-3.373 2.559-5.442 5.884-4.965 2.888.414 2.9.413 2.696-2.665a17.639 17.639 0 0 0-.332-2.491c-.974-4.579-3.703-6.648-8.35-6.322-1.086.076-2.308.114-2.98-.675-1.887-2.219-4.514-3.006-7.024-4.063-.637-.268-1.333-.95-1.924-.603-.796.467-.262 1.414-.167 2.123.915 6.831 2.75 13.414 5.417 19.767l1.544 3.381-.337.179-1.631-3.201c-3.189-6.366-5.157-13.129-6.59-20.075-.204-.99.2-2.853-1.115-2.713-1.138.122-.586 1.926-.464 2.935 1.348 11.158 4.688 21.703 9.897 31.657l2.626 4.157c-1.314-1.241-2.57-2.516-3.151-4.276zm57.9-57.456c-5.405-.086-10.75-.753-16.059-1.712-1.857-.336-3.696-.783-5.526-1.248-1.05-.266-2.134-.312-2.476.816-.31 1.023.919 1.043 1.538 1.325 3.19 1.447 6.47 2.661 9.854 3.588.625.171 1.412.092 1.857.929-.812.356-1.518-.001-2.217-.169-3.825-.916-7.49-2.295-11.082-3.878-.624-.276-1.236-.755-1.955-.248-3.532 2.49-6.474 1.134-9.19-1.441-.846-.803-1.654-1.044-2.819-.663-1.709.557-3.469.284-5.18-.176-1.215-.328-2.416-.71-3.626-1.057-.685-.196-1.28.027-1.672.577-.468.657.19 1.003.528 1.392 1.837 2.11 3.7 4.194 5.53 6.308.54.623 1.054 1.046 1.972.775 4.744-1.4 9.568-1.006 14.386-.558 1.667.156 3.41.217 4.208 2.156.259.627.936.52 1.482.556 8.058.522 15.918 2.153 23.813 3.79 6.427 1.332 6.81.874 9.506-4.388 1.169-2.281 2.656-4.26 4.849-5.673 4.24-2.733 4.684-5.015 1.506-8.849-1.193-1.439-1.299-2.778-.85-4.449 1.012-3.766 3.21-6.538 6.778-8.366a25.176 25.176 0 0 0-4.68-.329c-4.394.094-8.794.94-13.175-.16-1.115-.28-1.07.534-1.09 1.253-.053 2.052-.786 3.892-2.192 5.32-5.299 5.387-10.87 10.368-18.857 11.287-.251.028-.556.104-.445.6 4.997 1.245 10.189 1.39 15.292 2.14.853-.11 1.703-.197 2.728.317-1.035.58-1.893.328-2.736.234zm78.524-63c-1.672 1.333-3.723 1.524-5.677 2.03-.796.207-1.83.256-1.984 1.263-.17 1.114.942 1.232 1.65 1.58 1.884.924 3.792 1.8 5.687 2.7.446.213.964.446.749 1.066-.17.489-.676.399-1.087.386-.42-.012-.839-.051-1.257-.082-11.907-.874-23.625.335-35.182 3.253-.525.133-1.24.025-1.632.923 2.594-.008 5.027-.065 7.457-.013 7.22.155 14.398.657 21.363 2.776l-.047.501.047-.5.88.17c.237.067.528.104.405.456-.015.04-.314-.018-.48-.03l-.852-.096c-3.325-.429-6.643-.94-9.979-1.27-4.944-.486-9.912-.512-14.876-.395-.514.013-2.158-.29-1.099 1.008 2.604 3.19 4.703 6.726 7.369 9.896 3.654 4.345 7.664 4.71 12.453 2.788.064-.026.136-.036.2-.063 8.388-3.513 16.772-6.988 23.3-13.716 2.669-2.75 5.835-2.983 8.756-1.18.722.444 1.513 1.449 2.38.608.72-.698.196-1.715-.137-2.555-.18-.452-.363-.936-.67-1.299-2.63-3.105-2.451-6.504-1.17-10.07.594-1.65 1.008-3.354.74-5.14-.363-2.418-1.832-3.728-4.19-3.314-4.054.712-8.105 1.482-12.056 2.674l-.03.198c1.321 2.287 1.005 3.826-1.03 5.447zM181.5 302.602c-2.544-2.99-4.835-6.186-7.02-9.47.85 2.62 2.25 4.934 3.658 7.245 4.457 7.313 9.973 13.807 15.602 20.214l3.375 3.264c-1.52-.71-2.578-1.92-3.727-3.026-7.351-7.515-14.287-15.363-19.398-24.634-.718-1.302-1.206-2.447-3.068-1.82-.78.263-1.645-.253-2.332-.757-7.82-5.738-14.429-12.623-19.035-21.19-1.149-2.136-2.63-2.708-4.931-3.232 1.113 3.355 2.282 6.317 4.3 8.857 4.085 5.144 8.67 9.889 12.306 15.39 4.837 7.317 10.08 14.261 17.113 19.687 1.94 1.497 3.68 3.385 4.42 5.761.857 2.75 2.597 4.917 4.085 7.257a141.234 141.234 0 0 0 4.462 6.602c2.43 3.384 5.258 6.377 9.057 8.246 2.63 1.295 5.389 1.968 8.318.993.832-.277 1.536-.676 1.683-1.661.278-1.861-2.325-7.052-3.999-8.042-1.484-.878-2.801-1.965-4.24-3.666 1.854.937 3.252 1.683 4.684 2.356 1.405.66 2.122.06 2.254-1.39.282-3.084-.906-5.6-3.064-7.707-1.558-1.52-3.345-2.751-5.19-3.896-4.001-2.483-7.13-5.744-9.474-9.87-2.808-4.943-4.831-10.231-7.174-15.38-.77-1.694-1.388-3.478-2.701-5.158-1.03 2.176-1.978 4.179-4.216 5.148-.806.349-.324 1.078.012 1.612.892 1.42 1.769 2.851 2.702 4.245 3.37 5.028 7.368 9.552 11.323 14.111-3.93-2.712-6.747-6.518-9.785-10.089zm-7.585-184.579c-.506.409-.89.872-1.075 1.498-.65 2.2-1.304 4.397-1.956 6.595.106.019.21.04.315.063 1.417-1.822 2.733-3.734 4.271-5.447 3.53-3.933 6.903-4.395 11.332-1.62 2.305 1.444 4.614 1.91 7.137.614.617-.317 1.3-.526 1.973-.707 2.876-.777 4.984.505 5.64 3.417.28 1.243.267 2.498.077 3.756a54.546 54.546 0 0 1-3.773 13.296c-.285.67-.866 1.294-.536 2.408 2.031-1.898 3.381-4.08 4.312-6.46 2.82-7.204 4.438-14.597 2.833-22.366-.74-3.582.227-6.471 3.199-8.69.656-.49 1.233-1.157 1.673-1.852 1.103-1.743.837-2.89-.888-4.05-1.133-.762-2.19-1.544-2.256-3.066-.024-.552-.298-.886-.768-1.144-4.16-2.28-5.927-5.841-5.946-10.537-.014-3.507-1.85-4.662-4.92-2.973-3.115 1.714-6.208 1.865-9.531 1.14-5.516-1.206-10.22.464-14.291 4.207-.723.664-1.673 1.465-1.307 2.467 1.316 3.593 2.48 7.349 6.237 9.327 2.551 1.344 3.072 2.447 2.342 5.27-.315 1.217-.796 2.392-1.108 3.611-.344 1.348-1.177 2.606-.971 4.306 6.283-4.651 12.627-8.722 19.834-11.254 1.275-.515 2.526-1.123 3.959-1.022-1.037.854-2.368 1.041-3.555 1.553-7.553 3.14-14.276 7.624-20.64 12.7-.879.702-1.346 1.51-1.154 2.987 5.948-4.697 11.985-8.803 19.162-10.83 1.13-.46 2.29-.755 3.612-.413l-3.188.965c-7.586 2.605-13.9 7.288-20.045 12.251zm-4.749 100.32c.31 1.295 1.108 1.525 1.763 1.863 2.177 1.12 4.359 2.23 6.565 3.29 8.876 4.266 17.968 7.84 27.96 8.382 8.916.484 17.546-1.317 26.135-3.39.637-.155 1.58-.062 1.722-.902.124-.731-.6-1.23-1.1-1.693a63.306 63.306 0 0 0-6.687-5.396c-.492-.345-1.363-.732-.951-1.409 1.588-2.606-.639-2.826-2.084-3.347-14.45-5.207-29-9.993-44.603-10.183-.586-.008-1.45.105-1.45-.797.001-1.758-1.226-1.82-2.432-1.898-2.583-.166-5.167-.334-7.754-.402a22.78 22.78 0 0 0-5.632.527c-.559.127-1.568.288-.906 1.13 1.447 1.843 2.35 4.144 4.556 5.372 7.297 4.059 14.857 7.496 22.889 9.846 1.239.257 2.527.369 3.98 1.323-1.71.21-2.871-.3-4.051-.695-7.76-1.858-14.96-5.178-22.16-8.899 1.208 3.995 4.092 5.952 7.155 7.686 1.876 1.063 3.842 1.968 5.768 2.945l4.622 1.593c-1.747.295-3.205-.377-4.674-1.013-2.972-.838-5.613-2.468-8.63-3.933zM265.23 103.19c1.763-1.496 3.94-2.945 4.456-5.174.835-3.606 3.17-5.788 5.796-7.936.747-.611 1.404-1.38 1.95-2.18 1.528-2.236 1.078-4.254-1.22-5.722-.587-.375-1.227-.675-1.861-.969-4.47-2.064-6.381-4.46-5.12-9.39.448-1.745-.065-3.392-1.608-4.466-2.054-1.43-4.343-1.192-6.68-.832-1.97.305-1.874 2.013-2.507 3.24-.384.745-.715 1.518-1.086 2.271-.252.513-.496 1.016-.165 1.585 1.365 2.345 1.56 4.863.865 7.72.92-.293 1.563-.488 2.2-.705.704-.241 1.356-.071 1.584.6.91 2.684 3.06 4.478 4.638 6.681 2.357 3.292 2.26 6.219-.343 9.393-2.027 2.47-4.617 4.282-7.372 5.828-6.247 3.505-12.975 5.561-20.08 6.353-1.387.155-2.019.515-1.666 2.077.451 1.996.233 4.037-.047 6.059-.08.578-.275 1.147.48 1.632 3.342 2.15 3.936 3.628 2.972 7.457-1.177 4.676-3.84 8.338-7.8 11.084-.558.387-1.298.648-1.778 1.72 5.908-1.979 11.735-2.33 17.435-3.385 3.472-.643 6.768-1.74 9.591-3.995 7.874-6.29 11.96-14.996 15.285-24.135 1.049-2.882-.605-5.276-2.313-7.49-.673-.873-1.155-.325-1.694.177-2.106 1.963-4.379 3.708-6.861 5.174l-2.836 1.618c.709-.9 1.5-1.647 2.654-1.826 1.046-.819 2.12-1.605 3.131-2.463zM171.941 223.84c.72 1.716.812 3.626 2.96 4.49 11.674 4.691 21.94 11.658 31.434 19.82.612.526 1.465 1.044 1.34 2.004-.149 1.13.591 1.633 1.262 2.233 5.175 4.63 10.834 8.586 16.71 12.273 4.818 3.024 10.072 4.46 15.671 4.8 1.35.082 3.248.89 3.958-.26.837-1.354-.957-2.534-1.635-3.779-.067-.122-.148-.237-.218-.358-1.717-2.98-1.537-4.363 1.012-6.718.669-.618.758-1.176.159-1.77-2.176-2.158-1.952-4.816-1.567-7.482.567-3.923-.614-7.279-3.55-9.817-5.98-5.169-13.355-7.276-20.868-6.442-11.422 1.267-22.327.452-32.928-3.97-2.966-1.237-5.918-2.508-8.876-3.764l-.132.424 6.376 4.273 9.797 5.075c-3.507-.998-6.763-2.522-9.85-4.414-3.848-1.912-7.289-4.515-11.055-6.618zm-20.23-145.323c.605-.464 1.11-.362 1.52.381 1.196 2.168 2.375 4.308 1.33 6.916-.175.435-.15.963-.157 1.45-.01.755.395 1.206 1.154 1.18.817-.027.75-.667.726-1.237-.07-1.728.269-3.349 1.313-4.762 1.24-1.679 2-1.668 3.146.022.392.579.689 1.232 1.139 1.756.349.406.868.924 1.313.926.656.003.61-.817.776-1.32 3.082-9.264 3.714-18.907 4.422-28.538.007-.092-.167-.198-.332-.382-.766.585-1.534 1.178-2.31 1.76-.331.25-.681.567-1.127.337-.573-.295-.428-.82-.296-1.293.303-1.077.698-2.135.605-3.283-.103-1.27-.536-2.348-1.855-2.775-1.385-.448-2.055.514-2.66 1.495-1.984 3.215-3.938 6.447-5.94 9.65-.508.813-.867 1.782-2.05 2.514.88-2.28 1.47-4.307 2.406-6.16 4.548-9.015 3.928-17.684-1.56-26.056-1.36-2.072-1.665-4.093-.31-6.27 1.079-1.734 1.413-3.622 1.076-5.644-.656-3.943-2.87-7.53-2.235-11.96-4.495 3.138-18.205 52.261-16.227 57.789 2.131-6.064 4.153-11.857 6.898-17.352.136.033.272.064.408.094-.2.59-.369 1.192-.605 1.767-2.091 5.097-4.023 10.25-5.468 15.571-.143.525-.653 1.353.205 1.573.703.18.677-.73.844-1.21 1.44-4.16 3.013-8.251 5.75-11.778l2.528-3.252.35.244-2.543 3.474c-2.315 3.553-3.812 7.45-4.924 11.521-.267.976-.17 1.462.874 1.894 5.68 2.351 8.94 6.491 9.142 12.787l.45.082c.738-.641 1.45-1.316 2.224-1.91zm94.827-20.872c.869-.644 1.172-1.146-.058-1.764-1.461-.736-2.602-1.93-3.566-3.2-1.949-2.569-4.607-3.472-7.654-3.72-10.105-.823-16.57 5.406-22.946 11.814-.026.026.016.12.03.197.404.373.921.25 1.39.24 3.575-.07 6.75.994 9.487 3.303 1.384 1.167 2.97 1.782 4.77 1.948 4.205.386 6.658 2.909 8.001 6.709.684 1.933.821 3.959.905 5.991.024.587-.088 1.149.837 1.4 3.677 1 4.585 2.493 3.738 6.24-.77 3.41-1.745 6.77-3.045 10.03-.211.528-.738 1.06-.182 1.874 3.593-1.792 6.896-4.049 10.257-6.219-3.494 3.145-7.306 5.836-11.36 8.187-1.13.655-1.14.637-1.766 2.18 4.172-1.603 8.128-3.322 11.971-5.321 3.838-1.996 7.39-4.452 11.03-6.764-7.237 6.354-15.602 10.78-24.46 14.358l-.016.503c-.138-.06-.212-.12-.24-.177.028.058.102.116.24.177 1.47.87 2.88.114 4.233-.278 4.83-1.399 8.994-4.154 13.24-6.73 1.04-.635 2.081-1.269 3.123-1.903-.88 1.126-1.91 2.007-3.245 2.447-4.705 3.667-9.891 6.434-15.858 8.134 1.318.748 1.319.757 2.32.668 6.486-.576 12.633-2.383 18.452-5.262 3.46-1.712 6.745-3.73 9.09-6.919 1.707-2.322 1.698-4.42.012-6.76-1.225-1.702-2.561-3.324-3.768-5.039-.603-.858-1.068-.946-1.772-.149-1.372 1.555-3.115 2.562-5.299 3.534 1.405-1.606 3.248-2.223 4.294-3.924-4.787.558-8.161 3.629-12.045 5.646 2.41-2.47 5.677-3.805 8.099-6.259 1.972-1.997 2.57-4.512 1.607-7.085-.47-1.254-1.037-1.519-2.126-.633-1.336 1.085-2.724 2.106-4.096 3.146 5.393-4.197 7.62-10.011 8.59-16.514.207-1.396.185-2.794-.168-4.166-.537-2.088-1.803-3.019-3.864-2.449-2.273.629-4.565 1.243-6.677 2.41-2.619 1.447-4.541 3.71-6.846 5.518l-3.184 3.771c.594-1.672 1.835-2.847 2.951-4.116 1.654-1.916 3.547-3.571 5.574-5.074zm-91.682 201.608c-1.625-1.722-2.018-4.09-3.481-5.906.952 4.628 2.153 9.18 4.313 13.396 1.624 3.167 1.635 3.293-1.98 3.735-.278.034-.556.065-.835.088-2.623.215-2.665.27-1.293 2.536 4.63 7.645 10.876 13.804 17.822 19.315 1.205.956 2.232.978 3.188-.378.655-.93 1.637-1.441 2.749-1.014 1.525.586 2.42-.248 3.228-1.247 1.533-1.893 1.38-4.024-.428-6.055-.658-.739-1.255-1.23-.117-2.165 2.586-2.123 3.057-3.95 1.81-7.013-.52-1.277-.355-1.894.978-2.349 1.68-.573 2.559-1.946 2.828-3.627.42-2.618-.562-4.787-2.36-6.654-2.478-2.57-5.68-4.039-8.71-5.768-4.736-2.704-8.46-6.405-10.968-11.255-1.333-2.578-1.022-2.969 1.87-2.757 6.612.483 11.76-5.984 9.357-11.916-5.262-12.988-13.248-24.247-22.346-34.783-.545-.63-1.096-.803-1.833-.43-.74.376-.938.932-.718 1.734.52 1.899 1.175 3.743 2.236 5.406 1.434 2.247 2.921 4.46 4.385 6.688-3.282-3.202-6.218-6.642-7.91-10.968-.22-.563-.403-1.45-1.178-1.18-.91.315-.24 1.081-.046 1.577 1.127 2.863 2.356 5.688 3.935 8.334 2.814 4.714 5.682 9.396 8.526 14.09-.3-.035-.485-.15-.595-.314-4.703-7.018-10.008-13.667-13.314-21.545-.44-1.051-.883-1.74-2.273-1.513-2.03.332-4.04-.03-5.964-.802-.436-.174-1.034-.502-1.34.017-.468.794.459.899.833 1.133 5.025 3.142 9.364 7.065 13.246 11.517 6.835 7.837 11.022 16.64 9.918 27.357-.12 1.175-.057 2.592-.998 3.328-1.017.797-1.798-.65-2.762-.894-.468-.119-.963-.48-1.382-.11-.448.394-.103.898.08 1.337.215.516.428 1.034.671 1.537 4.538 9.383 10.509 17.803 17.26 25.7l3.27 3.63c-1.579-.744-2.535-2.125-3.685-3.299-7.57-8.158-13.765-17.26-18.72-27.218-.215-.434-.215-1.378-.99-1.003-.658.319-.094.99.096 1.47 1.52 3.834 3.03 7.672 4.598 11.487 1.808 4.397 4.587 8.241 7.08 12.26-1.928-2.022-3.597-4.226-5.094-6.578-3.132-4.922-5.333-10.297-7.711-15.587l-.64-.062c1.19 5.762 3.302 11.233 5.394 16.718zm78.211-70.829c-3.24.508-6.483 1-9.718 1.542-.53.088-1.465-.179-1.377.816.064.723.063 1.65.836 2.02.533.254 1.226.21 1.85.236 4.886.202 9.76-.2 14.641-.304l.464.264-.51.184c-5.053.826-10.14 1.141-15.258 1.068-.506-.007-1.279-.293-1.36.52-.059.591.662.62 1.095.765 2.656.894 5.366 1.567 8.146 1.963.6.086 1.327-.043 2.036.849-3.795-.044-7.137-.622-10.426-1.603-.649-.194-1.463-.75-1.987-.195-2.15 2.275-5.278 3.49-6.802 6.447-1.079 2.093-2.204 4.175-3.83 5.922.66.779 1.489.6 2.22.648 4.561.302 8.733-1.029 12.6-3.296 3.029-1.777 5.78-1.83 8.436.617 1.49 1.374 2.95 1.471 4.683.198 2.965-2.179 3.726-2.018 6.25.868 1.051 1.201 2.159 1.468 3.481.525a52.98 52.98 0 0 0 1.84-1.39c3.912-3.057 8.917-3.324 13.136-.707.532.33 1.073.656 1.643.91.451.203 1.01.298 1.382-.095.461-.488-.067-.882-.288-1.285-1.358-2.477-.99-3.919 1.472-5.348.662-.384 1.11-.78 1.162-1.58.2-3.086-.69-5.794-2.76-8.098-.599-.667-1.313-.92-2.252-.766-1.582.259-3.178.499-4.795.346l-.316-.113.334-.339c1.309-.225 2.625-.414 3.923-.689.592-.125 1.403-.123 1.607-.807.227-.762-.595-1-1.045-1.395-1.627-1.427-3.312-2.792-4.873-4.288-.763-.732-1.446-.882-2.436-.592-1.699.498-3.35 1.242-5.196 1.194 2.135-1.01 4.273-2.033 6.52-2.681 3.03-.874 3.58-1.581 2.706-4.61-1.32-4.564-4.031-8.298-7.368-11.534-3.916-3.798-7.97-7.431-10.456-12.428-.57-1.144-1.598-1.935-2.774-2.464-.628-.283-1.254-.364-1.469.534-1.002 4.204-2.441 8.33.72 12.42 1.953 2.528 1.375 4.316-1.39 6.095-4.108 2.642-8.653 4.206-13.403 5.232-.708.153-1.544.01-2.265.883 1.226.208 2.332.279 3.364.593 2.626.799 5.588 1.048 6.984 4.025.936 1.998.7 2.798-1.242 3.823-3.037 1.603-6.243 2.805-9.456 3.989-.414.153-1.099.15-.995.842.096.64.604.905 1.238.877a29.345 29.345 0 0 0 1.674-.111c3.195-.325 6.39-.658 9.584-.989l.342.106-.322.385v.001zm-63.031-2.057c-.968-.33-1.505-.282-1.882.819a14.867 14.867 0 0 1-2.96 5.04c-.688.776-.497 1.303.074 1.978 2.588 3.063 5.917 3.346 8.719.56 2.109-2.098 4.498-2.936 7.433-2.444 3.255.546 6.42.181 9.417-1.283 4.195-2.05 7.851-4.898 11.214-8.062 2.809-2.643 4.115-5.842 1.797-9.591-.555-.899-.03-1.147.778-1.021.828.13 1.639.368 2.463.526 10.063 1.93 19.64.554 28.67-4.328 3.608-1.95 3.885-2.939 1.652-6.39-1.547-2.392-1.964-4.87-1.353-7.608.442-1.98.922-3.962 1.173-5.97.355-2.827-.773-5.044-3.203-6.575-2.172-1.367-4.557-1.7-7.058-1.469-2.66.246-5.224.966-7.79 1.653-3.789 1.014-7.598 1.346-11.402.22-5.357-1.587-9.625-.095-12.945 4.337-.377.502-.824.952-1.24 1.425-2.287 2.6-4.68 5.052-8.299 5.715-.95.174-1.118.942-1.355 1.677-1.159 3.596-3.195 6.645-5.686 9.46-1.649 1.865-3.843 3.082-5.902 5.121 1.896-.414 3.087-1.282 4.366-1.954 4.846-2.547 9.059-6.078 13.754-8.86 2.762-2.984 6.372-4.99 9.15-7.957-2.753 3.003-5.836 5.637-9.022 8.158-5.095 4.14-10.07 8.634-16.118 11.18-3.986 1.68-4.961 4.12-4.956 7.86.002 1.481.249 2.25 1.797 2.685 4.509 1.265 9.04 2.383 13.682 3.03l-.08.434c-4.726.113-9.262-1.016-13.818-2.057-.622-.142-1.508-.853-1.943.33-.414 1.128.226 1.602 1.189 2.004 3.039 1.269 6.23 2.024 9.388 2.893l1.712.361-.049.336-1.729-.241c-3.284-.32-6.513-.928-9.638-1.992zM222.54 67.914c1.685-.862 1.27-1.38.1-2.242-.702-.517-1.326-.552-2.124-.322-1.632.472-3.008 1.395-4.405 2.296l-3.079 2.351-.175-.146 2.291-2.222c.976-.91 2.018-1.73 3.209-2.344.55-.283 1.431-.455 1.38-1.112-.062-.778-.998-.873-1.65-1.066-3.992-1.18-7.913-.523-11.774.616-8.552 2.523-16.17 6.9-23.41 11.994-2.478 1.744-4.92 3.542-7.05 5.817 2.47-.662 4.933-1.098 7.429-.723 4.137.623 8.057.656 11.982-1.444 2.796-1.496 5.033.146 5.486 3.341.069.484.115.975.12 1.463.038 4.444 1.961 7.617 6.186 9.271.485.19 1.318.374.955 1.083-.91 1.777.358 2.377 1.483 3.082 1.681 1.055 2.012 2.544 1.53 4.366-.139.53-.813 1.015-.225 1.723 2.53-1.15 4.158-3.501 6.517-4.833-2.314 2.553-4.866 4.828-7.547 6.96a242.34 242.34 0 0 0-3.588 2.904c-.477.395-.679.982-.405 1.51.398.766.976.126 1.45.001.396-.104.755-.354 1.126-.55 4.164-2.192 7.946-4.948 11.606-7.883l3.666-3.829c-.583 1.69-1.96 2.677-3.12 3.853-4.1 3.63-8.407 6.973-13.335 9.423-1.04.516-1.449 1.176-1.187 2.334 1.01 4.472.508 8.89-.456 13.314-.904 4.155-2.032 8.221-4.021 12.125 3.25-1.435 6.473-2.566 9.853-3.117 5.228-.852 10.568-1.298 14.928-4.873-2.352 2.662-5.41 3.91-8.73 4.68-3.88.9-7.868 1.402-11.551 3.04-1.021.454-2.162.74-2.852 1.532 7.088 2.637 14.086 1.871 21.003-.405 3.923-1.291 7.82-2.703 10.636-6.012 2.515-2.956 4.305-6.21 4.317-10.208.003-1.114-.395-2.098-1.487-2.566-1.123-.481-1.817.272-2.516 1.008-.923.974-1.885 1.913-2.835 2.862 3.389-3.503 3.29-7.95 3.28-12.32-.006-2.143-.84-4.077-2.136-5.817-.804-1.08-1.559-1.453-2.767-.519-.88.68-1.933 1.136-3.23 1.875.245-.463.263-.54.312-.581.486-.4.966-.808 1.47-1.185 4.751-3.557 8.087-8.072 9.526-13.902.487-1.97 1.097-3.91 1.595-5.877.169-.668.255-1.385.223-2.072-.063-1.37-.649-2.46-2.102-2.768-1.527-.324-1.836.884-2.27 1.928-1.332 3.194-3.045 5.49-5.009 6.589.587-.783 1.037-1.392 1.496-1.994 3.498-4.593 3.752-9.697 2.11-14.957-1.465-4.692-5.91-6.745-10.537-5.154-3.758 1.292-6.472 4.082-9.438 6.514l-2.525 2.91c.163-1.34 1.157-2.057 1.921-2.94 2.428-2.7 5.11-5.123 8.35-6.782zM89.536 118.803l.158 2.092c.523 6.865 2.684 13.27 5.488 19.488.624 1.383 1.352 1.642 2.376.23 1.064-1.47 2.275-2.835 3.46-4.213.692-.803.649-1.405-.19-2.097-5.427-4.481-7.427-10.505-7.531-17.288-.038-2.453-.198-4.888-.378-7.328-1.265-17.163-.912-34.15 5.614-50.45.293-.73.098-1.328-.145-2.004-2.208-6.138-4.818-12.08-8.514-17.488-.65-.95-1.177-2.625-2.283-2.428-1.06.189-.646 1.923-.844 2.968-1.07 5.676-3.964 9.02-8.787 10.02-3.498.726-5.024 2.545-4.329 6.094.527 2.696.09 5.074-.723 7.564-.561 1.72-.807 3.543-1.217 5.315-.094.406.067 1.004-.778 1.138-.06-2.969.579-5.756 1.181-8.545.32-1.48-.235-1.788-1.554-1.295-1.73.647-2.867 1.96-3.9 3.39-4.034 5.58-6.197 11.908-7.134 18.64-2.024 14.54-.652 28.904 2.67 43.115 1.659 7.096 4.378 13.735 9.408 19.19 3.77 4.088 8.278 6.864 13.97 7.29.91.067 2.083.43 2.482-.901.344-1.147-.796-1.35-1.391-1.808-6.98-5.353-12.312-11.953-15.428-20.242-.243-.647-.658-1.305-.299-2.377.32.722.529 1.148.702 1.588 3.226 8.176 8.618 14.634 15.66 19.79 1.065.78 2.067 1.484 3.31.269.534-.522 1.024-.173 1.402.326l.356.097c.31-.733-.161-1.206-.599-1.646-1.736-1.745-3.03-3.82-4.436-5.817-7.52-10.68-12.277-22.487-14.481-35.344l-.132-.886-.13-.933h-.002l.179-.485.166.5.19.924.181.916c.18.6.396 1.192.532 1.802 2.983 13.367 8.607 25.482 17.16 36.204.663.83 1.228 1.788 2.41 2.151-1.75-4.399-3.963-8.56-5.473-13.022-1.546-4.573-2.854-9.197-3.593-13.973-.725-3.207-1.176-6.45-1.213-9.743l-.105-.592.017-.92c-.034-.196-.068-.394-.104-.59l.22-.433.14.465.117.594h.001l.02.923.138.564 1.427 9.32c.17.677.353 1.352.508 2.033 1.768 7.739 4.403 15.158 8.153 22.165.24.449.45 1.265 1.095.966.69-.318.152-.969-.042-1.458-.953-2.402-2.01-4.768-2.854-7.209-1.863-5.378-3.135-10.872-2.715-16.633l.017-.598.172-.275.16.314.063.576zm10.065 85.6c1.058-1.503.839-3.59-.71-4.465-1.393-.786-1.881.738-2.577 1.463-2.506 2.613-4.384 5.718-6.57 8.826-.231-1.03.326-1.543.64-2.121 1.834-3.39 3.817-6.685 6.404-9.569.684-.763.615-1.493.13-2.29-.604-.997-1.347-.461-1.995-.13-.805.41-1.609.868-2.306 1.437-1.256 1.023-2.432 2.144-3.642 3.224 1.053-2.314 2.622-4.18 4.672-5.531 1.533-1.01 1.748-1.985.874-3.586-2.45-4.488-4.415-9.197-6.02-14.057-.202-.612-.138-1.664-1.006-1.637-.743.023-.85 1.013-1.107 1.632-2.59 6.253-2.824 12.779-2.245 19.406.6 6.847 2.405 13.484 3.472 20.249.763 4.832 1.44 9.665 1.027 14.58-.25 2.974-.812 5.845-2.933 8.13-.782.843-.711 1.654-.411 2.683.937 3.217.42 6.222-1.592 8.952-.26.352-.772.657-.496 1.395 2.793.832 5.824 1.422 8.142 3.463 2.472 2.176 4.485 4.776 3.838 8.3-.366 1.99-.353 3.475 1.506 4.618.62.38.61 1.223.794 1.892.87 3.162 1.113 6.49 2.531 9.508 1.161 2.471 2.25 4.92 5.007 6.186 1.484.68 2.393 2.161 2.928 3.707.593 1.713 1.062 3.475 1.486 5.24 1.271 5.285 3.837 9.727 8.303 12.948.64.462 1.208 1.22 2.27.855-.378-1.395-1.332-2.45-1.933-3.682-1.252-2.245-2.151-4.638-2.97-7.065-.13-.384-.397-.747-.106-1.286l3.76 8.284c1.666 3.423 4.569 5.36 8.027 6.573 2.373.832 4.783.565 6.357-1.39 2.388-2.965 4.126-6.327 3.922-10.358-.048-.942-.266-1.65-.99-2.38-3.766-3.804-6.728-8.187-8.987-13.042-1.17-2.036-1.96-4.228-2.441-6.57l2.93 6.163c1.813 3.322 3.74 6.602 6.4 9.304 4.013 4.079 3.454 4.581 6.041-.963 3.41-7.308 5.12-14.927 3.475-23.037-.375-1.852-1.164-3.338-2.561-4.647-3.007-2.816-5.993-5.667-8.807-8.673-9.511-10.16-11.823-22.133-8.568-35.402.276-1.123.216-1.541-1.017-1.516-1.186.024-2.4.05-3.555-.172-1.463-.281-1.62.357-1.584 1.565.158 5.23 1.327 10.244 3.044 15.153.16.462.338.919.475 1.388.115.393.43.795-.003 1.247-2.767-5.87-5.037-11.848-5.146-18.437-.015-.905.078-2.123-1.167-2.058-1.2.063-.709 1.306-.725 2.026-.218 9.322.376 18.59 1.9 27.793l2.546 10.473c-1.579-3.384-2.719-6.89-3.224-10.582-1.26-4.823-1.741-9.761-2.126-14.71-.379-4.884-.467-9.777-.344-14.675.032-1.262-1.877-3.81-2.66-3.464-1.14.505-.58 1.837-.87 2.78-.04.13-.02.278-.037.417-1.505 13.017-1.962 26.072-1.485 39.163l.269 3.949.303 3.896-.123.75c-.464-.118-.407-.45-.325-.791-.357-1.294-.406-2.618-.391-3.948a14.571 14.571 0 0 1-.3-3.953c-1.206-13.85-.806-27.682.745-41.473.265-2.364-.364-3.983-1.752-5.685-1.123-1.376-1.637-1.07-2.262.339-1.97 4.434-3.328 9.06-4.377 13.78-2.223 10.01-3.177 20.167-3.488 30.395l-.023 4.455c-.032.235-.068.675-.093.674-.48-.013-.33-.421-.4-.699l-.063-4.533c-.224-10.587.82-21.061 2.874-31.439 1.021-5.156 2.416-10.21 4.915-14.872.888-1.658.053-2.88-1.033-3.62-1.061-.722-1.516.746-2.06 1.412-2.787 3.42-5.135 7.136-7.26 10.997-.182.78-.533 1.461-1.148 2.217-.298-1.062.266-1.626.577-2.266 1.832-4.735 4.525-8.984 7.43-13.113zm23.623 13.856c-2.095-1.825-2.915-4.143-3.069-6.733-.37-6.236-2.209-12.149-4.692-17.757-2.457-5.55-2.443-12.117-7.309-16.745-1.668-1.588-2.721-3.831-5.057-4.767-.618-.247-1.256-.717-.774-1.418 1.872-2.724.005-4.306-1.773-5.81-1.552-1.315-2.68-2.843-3.224-4.784-.9-3.213-1.54-6.33-5.188-8.058-2.39-1.133-2.23-1.672-3.486.881-.56 1.138-.929 2.335-1.169 3.578-.853 4.421-.347 8.797.62 13.11 3.582 15.952 11.673 29.697 21.346 42.573 3.242 4.315 7.86 6.584 13.775 5.93zm-11.006 86.89c-1.22-2.27-2.226-4.027-3.123-5.837-.91-1.84-1.042-3.908-1.553-5.867-.554-2.121-1.126-4.543-3.33-5.305-3.078-1.064-4.11-3.585-5.344-6.047-1.263-2.52-1.913-5.241-2.354-8.022-.334-2.106-.87-4.16-2.972-5.268-.873-.46-.734-.987-.38-1.716 1.765-3.634.946-7.175-2.163-9.706-2.41-1.962-5.306-2.777-8.228-3.518-1.33-.338-1.671-.762-.586-1.908 1.93-2.04 3.165-4.677 2.325-7.295-.963-2.996-.7-5.092 1.298-7.63 1.884-2.395 1.542-5.729 1.491-8.746-.116-6.899-1.606-13.601-2.923-20.33-1.66-8.475-2.98-16.973-1.203-25.617.064-.313.196-.683-.192-.936-.615.066-.699.643-.91 1.04-1.79 3.342-3.425 6.785-4.19 10.501-3.025 14.7-3.557 29.578-2.669 44.504.615 10.335 3.875 19.824 9.787 28.41 3.646 5.294 7.332 10.57 10.466 16.208 3.533 6.357 7.088 12.713 11.823 18.3 1.39 1.639 2.803 3.256 4.93 4.785zm44.132-76.934l.48-.244c-.27-1.05-.48-2.122-.82-3.15-3.328-10.041-10.181-17.353-18.38-23.598-3.038-2.316-6.549-3.66-10.208-4.633-2.73-.725-3.311-.134-2.502 2.598.275.927.776 1.787 1.17 2.679 1.015 2.287 3.048 3.84 4.828 6.249-4.047-2.197-7.665-7.133-8.052-10.79-.119-1.122-.54-1.735-1.498-2.254-1.668-.905-2.716-2.379-3.26-4.192-.632-2.107-.325-2.63 1.795-2.99 1.93-.328 3.754-.832 5.511-2.976-4.352.794-7.951-.052-11.383-1.803-.364 1.147.171 1.875.423 2.632 2.973 8.93 6.927 17.576 7.539 27.179.147 2.308 1.707 3.74 3.911 4.441 2.022.644 4.114.775 6.208.927 2.54.184 5.032.54 6.936 2.494.32.328.683.458 1.129.41 1.547-.167 2.648.629 3.688 1.64.854.829 1.768 1.708 3.108 1.416 4.032-.878 7.145.437 9.377 3.965zm-12.452-105.888c-.19.069-.452.08-.56.215-2.97 3.732-6.489 3.495-10.551 1.904-4.875-1.908-9.515-1.03-13.505 2.476-3.316 2.913-6.634 5.785-10.682 7.694-3.88 1.83-6.212 4.813-6.705 9.208-.27 2.406-1.733 4.056-4.025 4.95a39.114 39.114 0 0 0-3.456 1.515c-.806.408-1.021.946-.011 1.464 2.185 1.123 3.21 3.123 3.63 5.372.573 3.076 1.918 5.644 4.162 7.804 1.406 1.354 2.315 2.986 2.174 5.034-.05.719.201 1.416.906 1.404.968-.017.563-.946.577-1.47.39-15.243 6.791-27.288 19.142-36.226 1.628-1.178 3.102-1.203 4.555.07 1.578 1.38 3.248 1.38 5.084.671 2.055-.793 3.49-2.267 4.67-4.053 1.689-2.558 2.95-5.376 4.595-8.032zm5.97-25.042c1.267-4.007 2.785-7.894 3.8-11.955.454-1.812.4-3.349-.56-5-.714-1.23-1.151-1.113-1.953-.199-1.54 1.754-2.72 3.72-3.637 5.852-2.115 4.912-3.171 10.136-4.463 15.287-1.737 6.922-3.19 13.903-3.903 21.017-.053.532-.35 1.226.176 1.57.604.397 1.275-.068 1.681-.476 2.025-2.032 4.992-2.436 7.157-4.221.407-.337 1.095-.705 1.52-.585 2.878.814 2.994-1.353 3.533-3.115.225-.735.483-1.462.771-2.174 2.673-6.612 5.321-13.234 8.05-19.823 1.24-2.99 1.68-5.76-1.224-8.08-.67-.537-.853-1.998-1.85-1.687-1.159.362-1.248 1.73-1.338 2.853-.04.483.063.976.058 1.465-.028 2.96-.996 5.633-2.38 8.18.1-1.624.427-3.183.75-4.742.195-.934.063-1.545-1.077-1.832-1.116-.282-1.305.327-1.608 1.074-.937 2.307-1.96 4.573-3.503 6.591zM144.73 72.71c-.69-.9-2.925-2.68-4.637-3.401-3.782-1.595-6.564-.465-8.15 3.301-1.582 3.758-.774 7.51.434 11.071 4.28 12.617 5.083 25.424 2.56 38.466-.206 1.064.01 1.557 1.041 1.796 1.258.293 1.18-.657 1.3-1.366.473-2.827.829-5.676 1.38-8.487 1.995-10.153 4.092-20.263 8.143-29.885 1.534-3.643.912-7.44-2.07-11.495zm-22.606 30.896c-.36-5.558 1.234-10.325 2.73-15.126.611-1.967.411-4.025-.089-6.012-.959-3.812-5.02-6.197-8.355-3.506-1.155.932-2.298.765-3.367-.284-1.84-1.805-2.576-1.745-3.874.528-3.896 6.817-6.427 14.093-7.098 21.954-.05.594-.431 1.727.646 1.608 1.296-.145 2.707 1.575 3.775.024 1.915-2.781 4.51-3.258 7.548-2.734 2.8.483 5.222 1.865 8.084 3.548zm-19.808 30.317c.12-.898-.276-1.485-.504-2.109-2.21-6.047-3.361-12.258-2.992-18.725.197-3.435 1.18-6.763 1.413-10.175.599-8.76 3.25-16.86 7.517-24.478.626-1.118 1.358-2.294 2.616-2.598 1.52-.366 1.376-1.21 1.19-2.331-1.194-7.222-.599-14.36 1.026-21.457 1.191-5.2 3.037-10.192 4.697-15.243.383-1.166.398-2.233-.84-2.908-1.252-.681-2.293-.242-3.192.709-1.065 1.126-1.474 2.54-1.594 4.024-.232 2.867-.344 5.746-2.288 8.14-.231.285-.246.796-.253 1.204-.085 5.281-1.777 10.02-4.843 14.284-.512.712-.668 1.291-.117 2.067 1.586 2.232 1.6 4.726.945 7.243-.476 1.826-1.12 3.608-1.703 5.404-3.852 11.871-7.146 23.878-8.509 36.322-.555 5.072-.223 10.089 2.178 14.74 1.218 2.358 2.747 4.485 5.253 5.887zm90.912 160.824c1.15.026 1.52.578 2.009.94a227.786 227.786 0 0 0 4.918 3.556c.374.26.893.674 1.315.26.228-.226.218-.793.165-1.185-.231-1.698-.767-3.158-2.312-4.246-5.804-4.083-10.855-8.99-15.332-14.488-1.505-1.847-1.455-1.863-2.537.347-.304.62-.673 1.245-1.15 1.734-.685.703-.672 1.321-.063 2.005 2.903 3.255 4.279 7.324 5.995 11.215.785 1.778 1.343 3.66 2.713 5.16 5.79 6.335 13.02 10.199 21.203 12.446.16.044.37-.09.775-.2-1.366-2.373-2.625-4.681-4.004-6.916-.93-1.506-2.131-2.786-3.96-3.234-4.222-1.034-6.49-4.527-9.735-7.394zm94.344-135.682c1.668-1.275 3.3-2.48 4.886-3.743 1.54-1.225 2.917-2.616 3.856-4.37.277-.517.698-1.053-.023-1.652-3.257-2.71-6.873-2.532-9.988.536-1.89 1.862-3.631 3.904-5.924 5.298-7.18 4.363-14.467 8.492-22.895 10-.718.128-1.492.171-.797 1.264 1.519 2.388 3.132 4.488 6.49 3.605 1.005-.264 2.08-.245 3.113-.41 8.204-1.315 15.064-5.36 21.282-10.528zm-3.036 42.462c-3.845-5.185-8.352-7.41-13.418-8.689-.563-.142-1.527-.584-1.749.404-.156.696.424 1.183 1.158 1.524 4.844 2.246 10.508 11.289 10.42 16.613a14.228 14.228 0 0 1-.41 3.11c-.54 2.212-1.422 4.126-4.203 4.131-.461 0-1.285-.034-1.081.868.146.647.537 1.154 1.32 1.088.697-.059 1.39-.16 2.088-.21 3.951-.29 7.668.286 10.875 2.867.556.447 1.114 1.459 1.854 1.013.748-.45.456-1.544.376-2.356-.77-7.758-3.828-14.672-7.23-20.363zm-145.647-33.01c-1.2.812-2.053 1.911-2.598 3.227-.341.824-.894 1.823-.254 2.576.76.895 1.7.04 2.479-.278 4.398-1.794 8.768-3.657 13.16-5.467.545-.224 1.193-.691 1.747-.092.636.687.072 1.316-.295 1.878-1.914 2.932-4.372 5.246-7.62 6.665-.636.277-1.673.25-1.424 1.414.226 1.052.828 1.695 1.964 1.876 2.65.422 5.429-1.099 6.319-3.681.842-2.444 2.41-4.208 4.585-5.516 2.116-1.272 4.525-1.838 6.754-2.84 1.59-.716 2.853-1.723 3.64-3.304.743-1.495.563-2.426-1.277-2.89-4.313-1.087-8.44-.637-12.037 1.907-2.437 1.724-4.922 2.44-7.816 2.4-2.627-.035-5.13.582-7.327 2.125zm-16.137-31.99c-.553.422-.85.603-1.093.841-9.592 9.387-14.23 20.875-14.503 34.206-.01.484.028.988.156 1.453.15.548.5 1.088 1.083 1.16.603.074.685-.584.904-.994.724-1.356 1.419-2.728 2.16-4.075 1.614-2.93 3.597-5.734 2.85-9.391-.121-.59.18-.983.861-.607 1.564.862 2.174-.4 2.787-1.35 2.453-3.808 3.665-8.017 3.506-12.534-.095-2.69-.773-5.406 1.252-7.737.1-.115.023-.386.037-.973zm28.473 55.418c-2.982-.136-4.275-1.42-4.158-3.908-2.822.932-2.845.931-2.83-1.874.017-2.756-.258-5.45-1.444-7.982-1.242-2.65-2.693-2.975-4.717-.85a24.06 24.06 0 0 0-5.467 9.108c-1.436 4.355.588 8.054 5.017 9.253 5.014 1.357 9.05-.997 13.599-3.747zm73.447-142.95c1.259-.128 2.193-.258 2.753-.998 1.259-1.667 2.86-2.855 4.713-3.742.504-.241.667-.668.792-1.157.504-1.97 1.684-3.477 3.17-4.828 1.768-1.607 1.64-2.66-.414-3.892-1.276-.764-2.144-1.695-2.269-3.275-.253-3.192-1.044-3.907-4.286-4.001-2.382-.07-4.751.137-7.107.477-1.05.151-2.143.215-3.477.933 2.723 1.435 3.523 3.704 4.04 6.152.277 1.316 1.131 2.173 2.264 2.864 3.434 2.097 3.992 4.305 2.018 7.871-.626 1.13-1.345 2.21-2.197 3.597zM213.9 210.914c1.748 1.074 3.499 1.855 5.499 1.926 4.689.166 9.38.23 14.066-.009 9.085-.462 18.196-.722 27.113-2.81 1.384-.324 2.802-.593 4.112-1.406-2.56-2.175-5.33-2.933-8.333-2.533-2.497.332-4.348 1.774-6.232 3.256-2.783 2.19-4.323 1.977-6.438-.892-1.044-1.416-2.073-1.578-3.544-.596-3.506 2.34-4.075 2.336-7.395-.268-1.677-1.315-3.408-1.742-5.249-.731-4.231 2.326-8.666 3.869-13.6 4.063zm-69.683-74.499c-1.076.197-1.256.795-1.556 1.234-1.804 2.65-2.714 5.666-3.341 8.752-1.461 7.185-2.78 14.397-5.414 21.29-.748 1.957-1.038 4.06-.971 6.178.012.393-.015.969.489 1.037.776.106.615-.607.66-1.03.327-3.15 1.948-5.47 4.552-7.163a3.481 3.481 0 0 0 1.411-1.745c1.887-4.86 4.054-9.65 3.257-15.086-.04-.27.035-.556.054-.834l.86-12.633zm4.002 28.02c.736.489 1.474.1 2.17-.093 1.013-.281 1.91-.827 2.784-1.427 3.858-2.646 8.124-3.079 13.107-2.014-2.711-4.805-2.492-9.68-2.335-14.55.01-.313.084-.761-.373-.869-.456-.108-.802.205-1.105.48-1.753 1.588-2.792 3.656-3.743 5.757-2.209 4.884-5.297 9.02-9.884 11.927-.275.175-.619.327-.621.79zm11.338-17.958c-4.558 3.067-8.204 6.21-11.59 9.662-2.081 2.122-4.663 3.87-5.377 7.037-.131.585-.755 1.236-.196 1.744.475.432 1.234.1 1.803-.08 2.164-.693 3.968-2.011 5.716-3.422 4.698-3.789 6.894-9.182 9.644-14.941zm-39.249 46.033c.15.144.292.301.453.433 3.201 2.6 7.317 2.174 10.99 3.187 1.284.353 1.694-.8.726-2.012-1.721-2.156-2.086-4.637-1.574-7.31.15-.782.972-1.835.262-2.304-.885-.585-2.003.12-2.886.664-.706.436-1.32 1.022-1.971 1.546-1.481 1.194-3.081 2.149-4.96 2.59-2.324.548-2.56 1.298-1.04 3.206zm153.258 72.64c.328-.329.803-.749 1.212-1.225 2.777-3.231 2.235-5.788-1.584-7.55-.635-.292-1.293-.552-1.887-.914-.91-.554-1.737-.359-2.562.14-1.666 1.004-1.91 2.464-1.315 4.18.717 2.07 1.385 4.119.225 6.283-.545 1.017.316.98.941.983 1.833.01 3.38-.776 4.97-1.898zm-7.15-139.605c2.969-.471 5.37-.88 7.78-1.228 3.404-.49 4.575-2.323 3.556-5.628-.617-2-1.938-3.538-3.311-5.031-.588-.64-1.188-.682-1.623.227a120.529 120.529 0 0 1-6.402 11.66zm-100.204 12.643c6.383.334 9.023-2.012 9.245-8.083.088-2.414.148-4.829.223-7.29-2.106 1.857-7.483 10.577-9.468 15.373zm56.904 41.032c-1.908 1.49-2.77 3.583-3.432 5.82-.458 1.544.126 1.685 1.419 1.281 3.258-1.018 6.446-2.207 9.504-3.731 1.755-.876 1.864-1.92.36-3.225-2.32-2.012-5.34-2.066-7.851-.145zm38.408 91.605c-5.156.066-9.621.114-14.087.19-.59.01-1.4-.3-1.693.417-.219.538.343 1.071.739 1.4 2.8 2.327 6.116 3.631 9.625 4.328 1.404.278 2.212-.956 2.644-2.243.487-1.453.977-2.902 2.772-4.092zm-141.94-146.14c-11.523 5.342-19.645 13.342-25.54 24.298 3.688-1.081 6.533-2.361 6.902-6.328.377-4.06 2.755-6.772 6.19-8.68 4.386-2.436 8.695-4.971 12.447-9.29zm32.026 56.283c-.365-.406-.759-.13-1.14-.034-.943.236-1.934.802-2.815.663-2.623-.413-2.672.896-2.167 2.78.07.266.07.551.098.828.087.89.447 1.08 1.21.542.546-.383 1.126-1.086 1.844-.592.768.529.3 1.41.275 2.145-.013.417-.08.832-.094 1.249-.018.583.078 1.17.703 1.378.7.234 1.37.093 1.916-.463 1.031-1.049 1.163-7.41.17-8.496zm46.595 72.705l-5.278-3.608c.49 2.493 1.7 3.33 5.278 3.608zm64.831 16.483c1.302.135 2.404-.15 3.133-1.723-1.525.156-2.178 1.179-3.133 1.723zm-108.928 36.808l-.025-.07.042.067zm18.819-242.598c.688-1.758 1.628-3.378 3.072-4.764l-2.684 5.152-.388-.388zm4.416 83.352l4.001-1.683.158.358-3.842 1.714-.317-.39zm22.38-48.907l.03-.025-.001.027-.03-.002zm-72.474-18.68l.286-.87.304.041c-.065.302-.13.603-.197.904a19.14 19.14 0 0 0-.393-.075zm80.659 94.389a.77.77 0 0 0-.064.044l.008-.051.056.007zm-70.144-132.89c.059.106.117.21.173.315v-.007a204.16 204.16 0 0 0-.173-.307zm3.74 133.62c-.214-.18-.292-.336.077-.408zm11.379-49.72a25.062 25.062 0 0 1-.275-.362v.006c.09.119.183.237.275.356zm-99.96 60.814l2.07.499c.346-.004.788-.045.911.308.14.4-.233.37-.508.33l-2.647-.588-2.947-.753-1.086-.442c-.544.022-1.013-.173-1.442-.487l-.877-.23-.539-.321-.393-.173.418.025.569.151.897.183 1.448.432 1.123.383 3.003.683zm-9.657-22.76c-.288-.135-.645-.207-.58-.655l.66.318-.08.336c.026-.112.052-.224.08-.336l.842.389c.282.135.564.27.845.407.274.036.556.09.418.46-.018.047-.348-.022-.533-.038l-.848-.417-.804-.465zM39.503 85.59c-.103.002-.2.015-.292-.002-.02-.004-.05-.142-.024-.167.074-.072.174-.119.263-.175l.053.344zm-8.542 14.05c-.047.01-.106.045-.139.028-.045-.024-.071-.085-.105-.13l.223-.064.021.165zm8.953-11.504a572.375 572.375 0 0 0 .02.065l.01.067-.04-.085a.859.859 0 0 1 .01-.047zm-.06-.224c.027.033.074.064.077.099.005.04-.006.083-.017.125l-.06-.224zm6.268 58.499l-.078.105c-.04-.031-.09-.057-.117-.097-.008-.013.047-.067.073-.102l.122.094zM25.185 162.21l.005-.167.136.102zm9.454 18.885l.062-.267.83.426.237.201-.275.057-.854-.417zm0 0c-.185-.023-.433.009-.32-.302.012-.03.249.022.381.036l-.06.266zm-5.916-27.27c.118.04.338.082.336.119-.009.343-.235.162-.395.142l.06-.26zM39.585 86.65l-.06.094-.052-.088zm-1.787 95.664l-.004.045zm53.16 38.695c.46.147.018.54-.055.827l-.274.545-.488.839a449.223 449.223 0 0 0-.081.587c.039.346-.131.58-.374.773l.362-.775.081-.587.148-.893.253-.547c-.023-.364.117-.868.427-.769zm-2.355-8.915l-.172.001c.024-.054.033-.128.074-.156.04-.027.112-.007.17-.007l-.072.162zm1.005 12.545l.078-.06c-.01.02-.02.04-.028.061zm24.726 71.568l-.02-.155.132.085zm-18.53-34.714l-.095-.075.096-.046zm-6.8-50.377l.069-.089.043.089zM70.71 72.899c.073-.207-.092-.61.364-.49.063.016.045.342.065.525l-.1.586-.145.266-.142-.3h-.001l-.04-.587h-.001zm-.38 52.816c.035-.024.079-.074.104-.066.046.015.08.065.119.1l-.175.116-.049-.15zM210.154 79.78l.093-.107-.053.107zm.369-.669l.143.079-.42.483.277-.562zm-.33.67c-.002 0-.104.116-.104.116l.065-.117h.038zm-24.652 104.586l1.494.231.246.126c-.092.049-.185.097-.277.148v.003l-1.499-.082-.581-.062.08-.435.537.072zm-2.374 4.454a465.97 465.97 0 0 1-1.168-.157l.033-.279.582.079.596.08c.197.028.393.054.589.08l-.042.274-.59-.078zm.632-.196l.588.081.507.125-.532.135v.001l-.605-.07.042-.272zm1.162.222l-.067-.016.071-.018zm.004-.034l.588.077-.004.037-.588-.08.004-.034zm1.172.194l-.588-.08.004-.037.588.078zm.004-.039l.592.068-.01.053-.586-.082.004-.039zm-4.69-.706l.581.123-.033.28-.597-.068.049-.335zm5.376-150.208c-.144.218-.284.439-.438.65-.012.017-.114-.031-.175-.05l.365-.66.248.06zm-.248-.06l.248-.423-.001.483-.247-.06zm-9.76 19.69c-.019.014-.041.027-.063.04l.017-.051zm-.14.28c-.006-.054-.034-.122-.011-.16a.257.257 0 0 1 .088-.08l-.078.24zm.094-.291a.138.138 0 0 1 .045-.053l.002.063-.047-.01zm.036-.309c.264.115.099.181.009.256l-.01-.256zm58.65 130.09c.177.041.503.076.506.126.018.374-.256.353-.522.31l-.332-.09.348-.346zm2.627-.225l-.19-.014c.028-.057.043-.138.09-.164.046-.026.123.002.186.007l-.086.171zm-3.773.656l-.076.104-.053-.1zm2.74-.425l-.102-.065.094-.055zm8.239 29.717l1.237-.055.272.367-.34.03c-.403.032-.805.062-1.208.092l.039-.434zm3.158.145c-.003.38-.27.309-.514.269l-.278-.24.325-.099c.163.023.468.048.467.07zm2.792 6.382c-.054.394-.334.266-.567.246l-.233-.224.281-.09.519.068zm15.922-5.013c.008-.103.318-.184.49-.275l.258.388-.348.033c-.169.028-.423.168-.4-.146zM142.885 47.754a21.13 21.13 0 0 1-.41-.094l.39-.855c.133-.08.266-.16.4-.238-.01.109-.018.218-.026.327l-.355.86zm.996-2.751l.022.493-.22.24-.037-.28.235-.453zm50.498 191.044c-.068-.207-.166-.393-.132-.422.258-.217.507-.074.716.096.08.065.085.222.123.336l-.707-.01zm1.848.3l.246.15-.085.137c-.08-.053-.163-.104-.238-.164-.005-.004.05-.08.077-.124zm-1.853-14.707c-.757-.131-1.605.002-2.293-.835.922-.299 1.633.02 2.346.31.312 0 .774-.024.73.358-.051.435-.494.197-.783.167zm-8.515 3.022c-.577.348-1.038-.095-1.536-.175-.19-.15-.563-.397-.543-.436.17-.318.427-.157.66-.039.525.075 1.102.035 1.419.65zm1.524.193l.52.278c-.075.085-.145.234-.225.24a.487.487 0 0 1-.351-.148c-.045-.05.027-.206.056-.37zm1.952.597c.142.086.416.224.406.25-.111.282-.283.115-.44.026l-.254-.143c.096-.044.192-.087.287-.132zm7.774-3.585c0-.452.348-.245.582-.246l.589.08.589.079.588.079.589.078.587.079.608.082a341.788 341.788 0 0 0 .473.063l.716.129c.276.231.347.4-.123.404l-.599-.077-.58-.075-.588-.078-.596-.02-.591-.072-.59-.079-.588-.08-.588-.083c-.167-.087-.477-.175-.478-.263zm6.718 1.03c-.267-.157-.511-.314.01-.453l.586.096.59.076.25.147c-.094.05-.189.102-.283.154a102.055 102.055 0 0 0-.603-.054c-.183.01-.367.021-.55.033zm-13.204 39.954l.148.1-.216.173c-.022-.056-.068-.117-.058-.167.009-.041.082-.07.126-.106zm-10.826-11.901h.444c.198.04.397.079.31.362l-.358-.137-.396-.225zm27.606 35.301v.153c-.048-.02-.115-.027-.14-.063-.023-.035-.004-.099-.004-.15l.144.06zm-7.65-187.466l.032.019-.033.008v-.027zm.318-.054c-.05.295-.175.145-.286.073l.286-.073zm-8.689 214.029l.084.093-.088-.054.004-.04zm.822.554l-.151.197a316.23 316.23 0 0 1-.587-.658l.738.461zm-2.594-112.45c1.453-.501 2.394-.015 3.34.08l.601.079.535.072c.303.042.607.086.91.13l.585.098-.023.178-.564.13-.94-.135-.585-.043-.592-.054c-.977.16-1.896-.02-3.267-.534zm13.9-3.976c.345-.657.918-.312 1.392-.344l.889.097 1.2-.085.906.103.247.122-.276.144v.002l-.9-.01-1.229.16-.874-.1c-.448.116-.898.275-1.354-.09zm-7.93 4.435l.237.093c-.086.027-.172.054-.258.083l.022-.176zm-61.207 45.444l-.125.048-.003-.144zm-6.989-96.185l.424-1.156.182-.28.132.321h.001l-.247 1.18c-.005.29-.025.6-.429.506-.062-.015-.044-.372-.063-.57zm56.033-5.216c-.02.057-.024.135-.064.165s-.117.012-.177.015c.02-.057.024-.135.064-.165s.117-.012.177-.015zm1.453-.668l.088.104-.212-.006c.042-.033.084-.064.124-.098zm-3.377 5.816l.1-.14.068.128zm-76.707-33.67l.124-.094.028.174zm.37-1.155c-.031.038-.063.106-.095.106-.045 0-.091-.05-.137-.078l.167-.19.066.162zm14.2 4.435l-.14.31-.288-.388.427.078zm28.52 180.22l.061.17c-.088-.015-.179-.025-.263-.053-.01-.003.017-.112.027-.171l.174.055zm6.249 6.617l-.036.085.019-.083.017-.002zm-22.012-97.64l-.129-.105.119-.053zM66.011 30.292l-.049.147.02-.154a.998.998 0 0 1 .028.006zm0 0zm68.453-12.196l-.003.056.052.106-.1-.109.05-.053zm94.654 259.184c-.027-.036-.01-.161.026-.182.367-.22.613.085.9.22.183.095.366.189.55.282l.434.225c-.16.024-.32.048-.48.07-.184-.096-.367-.194-.55-.291-.357.064-.657-.035-.88-.324zM148.975 99.514c-.067-.365.007-.688.305-.929.035-.027.166-.004.188.033.229.382-.07.642-.231.934l-.22.244-.042-.282zm12.044 87.51a62.616 62.616 0 0 0-.064.004l-.106.048.106-.05.034-.016.03.014zm.252-.004c-.04.022-.08.066-.116.062-.047-.007-.091-.034-.136-.057l.252-.005z"/></g></g></svg>