<svg xmlns="http://www.w3.org/2000/svg" width="150" height="114" viewBox="0 0 150 114"><g><g><path fill="#010101" d="M89.044 0c16.395 0 13.686 12.995 6.448 8.86-2.45-1.401-4.039-5.596-6.068-5.296-5.568 0-9.797 3.844-9.797 14.247v13.927c.42.16.84.37 1.26.6.21.07.41.14.62.22l-.04.12c1.579.971 3.108 2.203 4.558 2.593 4.628 1.232 9.367 1.182 16.605-4.755-11.637 6.938-15.146 1.342-20.394.94 6.858-13.935 21.683-3.974 26.762-7.288-.64 11.564-8.717 19.744-17.415 18.532-5.508-.76-7.657-4.365-11.356-7.429-.2-.07-.4-.14-.6-.2V67.8h5.438v3.534H65.151V67.8h5.439V35.24c-2.5.571-5.049 1.432-7.568 2.273l-.23.08v30.627c.68 8.049 3.559 11.113 8.537 11.113 2.03.29 3.62-3.905 6.069-5.297 7.237-4.135 9.936 8.861-6.458 8.861-9.438 0-16.446-7.75-17.035-14.177h-.1c-.03-.43-.05-.871-.05-1.321V40.147c-4.909.821-9.337.12-12.776-4.555l2.399-1.762c2.589 3.514 6.238 3.985 10.377 3.244V23.397h9.037v11.054c2.58-.862 5.198-1.722 7.798-2.273V19.733C70.59 8.86 77.318 0 89.044 0zm2.98 90.787l.319-1.572h-1.25l-.32 1.572zm-2.59.46c-.07 0-.1-.03-.08-.11l.04-.23c.01-.04.03-.07.04-.09.02-.02.05-.03.1-.03h.71l.33-1.572h-.75c-.05 0-.08-.01-.09-.03-.01-.02-.01-.05-.01-.09l.05-.24c.01-.04.03-.07.04-.09.01-.02.04-.03.09-.03h.76l.22-1.082c.01-.04.02-.07.04-.08.01-.01.04-.02.08-.02h.28c.05 0 .08.01.11.02.02.01.02.04.01.08l-.22 1.082h1.249l.22-1.082a.19.19 0 0 1 .04-.08c.01-.01.04-.02.07-.02h.3c.04 0 .07.01.09.02.02.01.03.04.03.08l-.23 1.082h.72c.09 0 .12.04.11.12l-.06.24c-.01.04-.02.07-.03.09-.02.02-.05.03-.09.03h-.75l-.32 1.572h.76c.08 0 .11.04.1.12l-.04.23c-.02.05-.03.08-.05.09-.01.01-.05.02-.09.02h-.77c0 .02-.01.08-.03.201-.03.11-.05.23-.08.37-.03.13-.05.26-.07.37-.03.111-.04.181-.05.191-.01.05-.02.08-.03.09 0 .01-.03.02-.08.02h-.29c-.04 0-.07-.01-.09-.02-.03-.01-.03-.04-.02-.09l.22-1.131h-1.24c-.01.02-.02.08-.05.2-.02.11-.04.23-.07.37-.03.13-.06.26-.08.37-.02.111-.03.181-.03.191-.01.05-.02.08-.04.09-.01.01-.04.02-.08.02h-.3c-.03 0-.07-.01-.09-.02-.02-.01-.03-.04-.02-.09l.23-1.131zm6.428-3.994h-1.65c-.05 0-.08-.01-.09-.03-.02-.02-.02-.06-.02-.11v-.41c0-.05 0-.08.02-.1.01-.02.04-.04.09-.04h4.14c.05 0 .09.02.1.04.01.02.02.05.02.1v.41c0 .05-.01.09-.02.11-.01.02-.05.03-.1.03h-1.7v5.086c0 .06-.01.1-.03.12-.02.02-.06.03-.12.03h-.48c-.05 0-.1-.01-.12-.03-.03-.02-.04-.06-.04-.12zm3.359-.27c0-.15.03-.26.09-.33.07-.07.18-.1.34-.1h1.94c.27 0 .51.04.729.12.21.08.4.2.56.35.16.14.28.32.36.52.09.21.13.43.13.671 0 .34-.09.641-.25.891-.17.26-.41.44-.71.55v.04c.23.07.4.181.5.321.1.15.18.32.24.53l.49 1.783c.01.03.01.06 0 .1-.01.04-.04.06-.1.06h-.56c-.03 0-.06-.01-.09-.02s-.05-.04-.06-.1l-.45-1.612c-.04-.16-.1-.3-.18-.4-.07-.11-.16-.19-.25-.26-.1-.06-.21-.1-.33-.12-.13-.03-.26-.04-.4-.04h-1.2v2.402c0 .06-.02.1-.04.12-.02.02-.06.03-.12.03h-.48c-.05 0-.09-.01-.12-.03-.03-.02-.04-.06-.04-.12zm3.319.92a.707.707 0 0 0-.18-.31.832.832 0 0 0-.33-.24c-.15-.06-.32-.09-.54-.09h-1.47v2.002h1.41c.21 0 .38-.03.53-.08.14-.06.26-.13.36-.22.09-.1.16-.2.2-.32.05-.12.07-.26.07-.4 0-.111-.02-.221-.05-.341zm1.96-1.19c0-.06.01-.1.04-.12.02-.02.06-.03.1-.03h.51c.05 0 .09.01.11.03.019.02.03.06.03.12v3.173c0 .35.029.64.069.89.04.251.12.462.26.632.12.16.31.29.54.37.24.07.55.11.94.11.1 0 .25 0 .45-.01s.43-.04.67-.09v-5.076c0-.06.02-.1.04-.12.02-.02.06-.03.11-.03h.499c.05 0 .08.01.09.03.02.02.02.06.02.12v5.026c0 .2-.04.36-.13.49-.08.12-.25.211-.49.261-.21.03-.44.06-.67.08-.24.01-.44.02-.62.02-.47 0-.87-.05-1.19-.13a1.83 1.83 0 0 1-.799-.44c-.2-.21-.35-.48-.44-.821-.09-.34-.13-.771-.13-1.272zm9.686 5.596c0 .06-.01.1-.03.13-.02.03-.07.05-.13.05h-2.349c-.28 0-.51-.04-.69-.12-.18-.08-.33-.19-.44-.32-.11-.13-.19-.28-.23-.45-.05-.18-.07-.361-.07-.562v-3.023c0-.19.03-.38.08-.56.05-.17.13-.331.25-.462.11-.13.26-.24.44-.32.18-.08.4-.11.66-.11h2.3c.07 0 .11.01.13.04.02.03.03.07.03.13v.36c0 .061-.01.101-.03.13-.02.02-.06.041-.13.041h-2.29c-.24 0-.41.05-.51.15-.11.11-.16.27-.16.49v1.102h2.68c.07 0 .11.01.13.04.02.03.03.07.03.13v.32c0 .06-.01.1-.03.13-.02.03-.06.04-.13.04h-2.68v1.472c0 .19.05.351.15.461.1.12.27.18.52.18h2.34c.06 0 .11.01.13.04.02.03.03.07.03.13zm1.38.08c0 .06-.03.1-.1.1h-.23c-.07 0-.1-.04-.1-.1v-4.525c0-.18.02-.35.06-.521.05-.16.12-.3.22-.41.1-.12.23-.21.4-.28.16-.06.36-.09.6-.09h2.319c.06 0 .09.03.09.1v.19c0 .07-.03.1-.09.1h-2.31c-.3 0-.52.07-.66.22-.13.14-.2.36-.2.64v1.412h2.8c.05 0 .08.04.08.1v.19c0 .06-.03.09-.08.09h-2.8zm7.798.01c0 .06-.03.09-.08.09h-2.4c-.24 0-.44-.04-.6-.1-.16-.07-.29-.16-.4-.28a.945.945 0 0 1-.21-.41c-.04-.17-.06-.341-.06-.521v-4.536c0-.06.02-.08.08-.08h.26c.06 0 .09.02.09.08v4.566c0 .29.07.5.2.65.14.15.37.23.68.23h2.36c.05 0 .08.03.08.081zm4.578-.62c-.41.53-1.02.8-1.81.8-.43 0-.789-.08-1.089-.23-.3-.15-.55-.35-.74-.621-.2-.27-.34-.6-.43-.97a5.35 5.35 0 0 1-.13-1.232c0-.481.05-.921.16-1.302.11-.38.27-.7.48-.96.21-.251.46-.452.75-.592.3-.13.63-.2 1-.2.4 0 .75.07 1.06.21.3.14.55.33.75.591.2.26.359.58.459.961.1.37.15.801.15 1.282 0 .97-.2 1.732-.61 2.262zm.08-3.264a2.47 2.47 0 0 0-.32-.852c-.15-.25-.35-.44-.6-.59-.26-.15-.57-.22-.96-.22-.36 0-.66.07-.919.22-.25.14-.46.33-.61.58-.16.24-.28.531-.35.852-.07.32-.1.66-.1 1.01 0 .371.03.711.09 1.042.07.32.18.6.33.851.16.24.36.44.62.58.25.14.56.21.93.21.38 0 .69-.08.94-.22.25-.15.46-.35.61-.59.16-.25.27-.54.33-.861.07-.32.1-.65.1-1.001 0-.351-.03-.691-.09-1.011zm4.429-1.472l-.29 1.141-1.11 4.085c-.04.14-.12.22-.25.22h-.19c-.07 0-.12-.02-.16-.04a.424.424 0 0 1-.09-.17l-1.21-5.667c-.01-.04 0-.06.04-.06h.31c.05 0 .08.02.1.06l.81 3.915.28 1.431h.04l.39-1.461 1.02-3.745c.01-.06.03-.1.06-.14.03-.04.09-.05.17-.05h.21c.11 0 .18.06.22.19l1 3.745.38 1.461h.04l.3-1.481.829-3.865c.01-.04.04-.06.08-.06h.31c.05 0 .06.02.04.06l-1.24 5.667c-.02.09-.05.14-.09.17-.04.02-.1.04-.17.04h-.18c-.12 0-.2-.08-.24-.22l-1.11-4.115-.28-1.111zm7.807 5.336c0 .07-.03.11-.09.11h-2.349c-.24 0-.44-.04-.61-.1a1.13 1.13 0 0 1-.39-.27c-.1-.12-.17-.26-.21-.42-.04-.16-.06-.331-.06-.521v-3.314c0-.18.02-.35.06-.521.05-.16.12-.3.22-.41.1-.12.24-.21.4-.28.16-.06.36-.09.6-.09h2.25c.07 0 .1.03.1.1v.19c0 .07-.03.1-.1.1h-2.24c-.31 0-.53.07-.66.22-.14.14-.2.35-.2.63v1.332h2.84c.06 0 .1.03.1.1v.18c0 .07-.04.1-.1.1h-2.84v1.723c0 .26.06.46.18.62.13.15.35.23.68.23h2.33c.06 0 .09.03.09.101zm1.32.03c0 .05-.03.08-.09.08h-.27c-.05 0-.07-.03-.07-.08v-5.526c0-.1.02-.18.06-.24.04-.06.13-.08.27-.08h1.9c.26 0 .5.04.71.12.21.08.38.19.52.34.139.14.249.31.319.5s.11.4.11.621c0 .16-.02.33-.06.49a1.37 1.37 0 0 1-.52.791c-.13.1-.28.18-.46.23v.01c.24.08.42.201.53.361.12.16.21.35.27.58l.51 1.793c.02.06 0 .09-.07.09h-.28c-.01 0-.03-.01-.05-.01-.03-.01-.04-.03-.05-.06-.08-.28-.16-.571-.24-.85l-.24-.842c-.05-.19-.12-.34-.2-.46a.965.965 0 0 0-.29-.28.825.825 0 0 0-.36-.141c-.13-.03-.27-.04-.41-.04h-1.539zm.01-5.446v2.463h1.69c.42 0 .75-.11.98-.33.23-.22.34-.531.34-.922 0-.37-.12-.66-.35-.88-.23-.231-.54-.341-.93-.331zm7.848 5.186c-.36.29-.87.43-1.54.43-.13 0-.27-.01-.44-.02-.17-.01-.34-.03-.52-.07a3.53 3.53 0 0 1-.54-.13c-.19-.06-.36-.13-.52-.22-.05-.02-.06-.06-.03-.11l.11-.23c.02-.04.06-.05.1-.02.14.06.29.12.45.18.16.05.32.1.48.13.17.04.33.07.48.08.16.02.3.03.43.03.2 0 .39-.02.58-.06.2-.04.37-.11.53-.2a1.021 1.021 0 0 0 .53-.922c0-.17-.03-.33-.09-.47-.06-.14-.16-.27-.29-.39-.13-.11-.3-.22-.51-.311-.21-.1-.46-.19-.75-.27-.32-.1-.6-.2-.83-.3-.23-.09-.42-.2-.57-.33-.14-.121-.25-.261-.32-.422-.07-.16-.1-.35-.1-.57 0-.22.04-.42.13-.601.08-.18.2-.34.36-.47.16-.13.35-.23.58-.31.23-.071.49-.11.78-.11.26 0 .53.029.82.079.29.05.57.14.86.29.04.01.06.04.03.09l-.11.241c-.02.04-.05.05-.08.03-.29-.14-.56-.23-.82-.28-.26-.04-.5-.07-.71-.07-.18 0-.36.02-.53.07-.17.04-.32.11-.45.2-.13.09-.23.21-.31.35-.07.13-.11.29-.11.47 0 .191.03.351.1.481.08.12.18.23.32.32.14.101.3.181.5.251s.43.15.68.23c.3.1.57.2.8.3.23.11.42.23.58.371.16.14.28.3.36.481.08.18.12.39.12.63 0 .481-.18.871-.54 1.152zM6.409 106.265l.76-3.754h-2.98l-.769 3.754zm-6.178 1.112c-.17 0-.24-.09-.2-.26l.1-.571c.03-.09.06-.16.1-.21.04-.05.12-.07.23-.07h1.71l.77-3.755h-1.8c-.11 0-.17-.02-.2-.06-.03-.04-.03-.12-.02-.23l.12-.56c.03-.1.06-.171.09-.211.04-.05.11-.07.21-.07h1.82l.519-2.593c.03-.1.06-.17.09-.2.04-.02.1-.04.2-.04h.68c.11 0 .19.02.24.04.06.03.07.1.04.2l-.52 2.593h2.979l.53-2.593c.03-.1.06-.17.09-.2a.32.32 0 0 1 .17-.04h.71c.11 0 .18.02.23.04.05.03.06.1.05.2l-.54 2.593h1.729c.2 0 .29.09.26.28l-.14.56c-.02.11-.06.19-.09.23-.03.04-.1.06-.21.06h-1.78l-.76 3.755h1.79c.2 0 .29.09.25.28l-.11.572c-.02.1-.06.17-.1.21-.04.03-.11.05-.22.05h-1.83c0 .04-.03.19-.09.46-.05.27-.11.571-.18.891-.06.32-.12.621-.18.892-.05.27-.09.42-.099.46-.03.11-.05.18-.07.2-.02.03-.08.04-.19.04h-.71c-.09 0-.17-.01-.22-.04-.05-.02-.07-.09-.04-.2l.52-2.703H3.2c-.01.04-.05.19-.1.46-.06.27-.12.571-.18.891-.07.32-.13.621-.19.892-.05.27-.08.42-.08.46-.02.11-.05.18-.08.2-.02.03-.09.04-.2.04h-.7a.5.5 0 0 1-.23-.04c-.05-.02-.06-.09-.04-.2l.55-2.703zm23.153 2.643c0 .14-.02.22-.07.25-.04.04-.13.05-.25.05h-1.19c-.11 0-.19-.01-.25-.05-.06-.03-.09-.11-.09-.25V97.826h-7.097v12.194c0 .14-.03.22-.08.25-.04.04-.13.05-.25.05h-1.21c-.11 0-.19-.01-.24-.05-.05-.03-.08-.11-.08-.25V97.435c0-.43.11-.75.33-.961.22-.2.51-.31.86-.31h8.427c.38 0 .67.11.88.31.21.21.31.53.31.961zm3.029-12.846c0-.35.07-.61.22-.78.15-.16.41-.25.78-.25h4.698c.63 0 1.21.1 1.74.3.53.21.98.49 1.37.86.38.371.68.822.89 1.332.219.521.319 1.092.319 1.713 0 .36-.06.79-.18 1.291-.12.5-.34.971-.67 1.412-.33.44-.79.82-1.37 1.131-.58.31-1.329.46-2.239.46h-3.749v5.337c0 .15-.02.24-.08.28-.05.04-.15.06-.3.06h-1.05c-.13 0-.229-.02-.29-.06-.06-.04-.089-.13-.089-.28zm7.998 2.393c-.09-.3-.24-.58-.46-.83-.21-.24-.51-.451-.88-.621-.38-.17-.85-.25-1.42-.25h-3.409v5.146h3.45c.96 0 1.669-.22 2.139-.671.47-.46.71-1.081.71-1.892 0-.28-.04-.581-.13-.882zm12.246 10.753c-.12 0-.22-.01-.29-.04-.07-.02-.14-.11-.19-.26l-1.01-2.963H39.48l-1.01 2.963c-.07.2-.21.3-.42.3h-1.37c-.139 0-.219-.03-.26-.11a.48.48 0 0 1-.009-.27l4.559-12.986c.11-.32.23-.54.37-.64.13-.1.35-.15.66-.17h.61c.359 0 .609.06.729.18.13.12.25.33.36.63l4.538 12.986c.04.09.04.18.01.26-.04.08-.12.12-.26.12zm-3.37-9.13l-.939-2.964h-.11l-.9 2.863-1.37 4.325h4.67zm14.536 2.933c-.49-.47-1.21-.711-2.149-.711h-3.749v5.216h3.75c.579 0 1.059-.09 1.429-.26.38-.18.67-.4.89-.66.21-.261.36-.552.44-.862.08-.31.12-.6.12-.86 0-.772-.24-1.392-.73-1.863zm-5.898-2.242h3.71c.219 0 .459-.03.729-.09.27-.06.52-.17.75-.331.24-.15.43-.37.59-.64.15-.281.23-.642.23-1.072 0-.57-.19-1.032-.58-1.382-.38-.35-.9-.52-1.56-.52h-3.869zm6.188.69c.42.14.77.34 1.07.591.3.25.54.53.72.85.19.321.33.651.42 1.022.09.36.13.72.13 1.091 0 .631-.12 1.202-.35 1.712-.24.511-.56.951-.97 1.322-.41.37-.89.66-1.45.86-.56.201-1.16.301-1.809.301h-4.779c-.36 0-.62-.08-.79-.24-.16-.16-.24-.42-.24-.77V97.193c0-.35.08-.61.22-.78.15-.16.42-.25.81-.25l4.49-.02c.609 0 1.179.07 1.699.19.52.13.96.34 1.34.62.38.28.669.641.879 1.082.22.43.33.96.33 1.582 0 .61-.16 1.16-.47 1.672-.31.5-.72.88-1.25 1.14zm8.088 2.483c-.07.55-.14 1.011-.21 1.382-.08.37-.16.69-.24.96-.09.271-.18.501-.29.682-.1.19-.21.38-.33.57h7.098V97.846h-5.118zm-2.48 5.266l-.2 3.014c-.02.2-.1.3-.27.3h-.979c-.08 0-.14-.02-.19-.06-.04-.04-.06-.12-.08-.24l-.26-3.915c-.01-.21.03-.37.13-.51.1-.13.29-.21.56-.24l.64-.04c.23-.261.42-.531.58-.832.15-.29.28-.62.39-.99.11-.361.2-.772.27-1.222.08-.451.16-.971.24-1.562l.82-6.448c.07-.44.2-.79.399-1.04.19-.241.52-.372 1-.372h6.068c.44 0 .76.11.96.31.19.211.29.531.29.962v11.233l.68.04c.21.01.37.08.51.2.13.12.2.321.2.591l-.24 3.835c-.02.12-.04.2-.08.24-.04.04-.1.06-.18.06h-.99c-.07 0-.12-.02-.16-.06-.04-.04-.06-.12-.06-.24l-.13-3.014zm22.874 0c-.13 0-.22-.01-.3-.04-.07-.02-.13-.11-.19-.26l-1.01-2.963h-5.688l-1.01 2.963c-.06.2-.2.3-.42.3h-1.37c-.13 0-.22-.03-.25-.11-.04-.07-.04-.16-.01-.27l4.56-12.986c.1-.32.23-.54.36-.64.13-.1.36-.15.67-.17h.599c.36 0 .61.06.74.18.12.12.24.33.35.63l4.538 12.986c.04.09.04.18.01.26-.03.08-.12.12-.25.12zm-3.37-9.13l-.949-2.964h-.1l-.91 2.863-1.37 4.325h4.68zm17.905 8.189c.27.01.43.08.5.2.06.12.08.25.07.4l-.21 3.395c0 .15-.05.22-.16.22h-.5c-.11 0-.16-.07-.16-.22l-.1-3.054h-9.727c-.31 0-.53-.07-.65-.22-.13-.15-.19-.36-.19-.64V96.363c0-.12.06-.18.2-.18h.62c.14 0 .2.06.2.18v13.035h8.338V96.344c0-.12.06-.18.2-.18h.62c.14 0 .2.06.2.18v13.005zm10.497-5.436c-.6-.551-1.47-.831-2.61-.831h-4.198v6.267h4.239c.74 0 1.33-.12 1.78-.34.45-.22.8-.49 1.05-.811.249-.33.419-.68.509-1.051.08-.38.13-.731.13-1.052 0-.901-.3-1.631-.9-2.182zm-6.808-1.682h4.139c.28 0 .59-.03.94-.11.34-.07.66-.21.96-.41.31-.21.56-.481.76-.822.199-.35.299-.78.299-1.311 0-.701-.23-1.292-.7-1.772-.47-.481-1.14-.721-2-.721h-4.398zm6.068.39c.54.12.99.31 1.34.57.35.26.62.562.82.902.2.34.35.69.43 1.061.08.37.12.731.12 1.081 0 .602-.11 1.162-.32 1.663-.22.51-.52.93-.9 1.28-.39.352-.84.631-1.37.822-.54.2-1.12.29-1.77.29H104.6c-.28 0-.49-.05-.61-.16-.13-.11-.2-.3-.2-.58V96.954c0-.24.05-.43.16-.58.1-.14.31-.21.65-.21h4.519c.54 0 1.04.07 1.51.2.47.14.88.35 1.23.63.349.281.629.641.829 1.072.2.43.3.93.3 1.512 0 .28-.03.57-.11.87-.07.29-.19.571-.35.842-.16.26-.38.5-.65.72-.27.22-.6.4-.99.54zm14.126 7.429c0 .16-.08.24-.23.24h-5.598c-.58 0-1.07-.07-1.46-.23-.39-.15-.7-.37-.94-.64-.23-.281-.4-.612-.5-.992-.1-.39-.15-.801-.15-1.241v-7.92c0-.44.05-.86.16-1.241.11-.39.28-.72.53-1.002.24-.28.55-.5.94-.66.39-.15.87-.23 1.44-.23h5.378c.15 0 .22.08.22.24v.47c0 .16-.07.24-.22.24h-5.358c-.73 0-1.25.171-1.58.511-.32.34-.48.851-.48 1.522v3.174h6.798c.14 0 .22.08.22.23v.45c0 .161-.08.23-.22.23h-6.798v4.126c0 .6.15 1.091.44 1.461.3.371.84.561 1.62.561h5.558c.15 0 .23.08.23.24zm6.288.06c0 .12-.06.18-.18.18h-.65c-.13 0-.2-.06-.2-.18V97.074h-4.238c-.12 0-.18-.06-.18-.18v-.53c0-.13.06-.2.18-.2h9.667c.12 0 .18.07.18.2v.53c0 .12-.06.18-.18.18H131.3zm7.138.18c-.28 0-.49-.05-.61-.16-.13-.11-.2-.3-.2-.58V96.344c0-.12.07-.18.21-.18h.62c.14 0 .2.06.2.18v5.416h4.079c1.06 0 1.9.16 2.519.47.62.32 1.09.702 1.41 1.142.32.45.53.911.62 1.402.08.48.13.901.13 1.251 0 .601-.11 1.171-.31 1.692a3.97 3.97 0 0 1-.89 1.362c-.39.39-.85.69-1.38.91-.54.221-1.15.331-1.82.331zm7.708-5.696a2.68 2.68 0 0 0-.67-1.012c-.29-.29-.66-.52-1.11-.69-.44-.17-.96-.25-1.55-.25h-4.158v6.707h4.179c.74 0 1.34-.13 1.8-.37.469-.24.829-.54 1.079-.901.26-.35.43-.731.52-1.142.09-.4.13-.76.13-1.08 0-.451-.07-.872-.22-1.262zm3.829 5.516c0 .12-.07.18-.2.18h-.65c-.13 0-.2-.06-.2-.18V96.364c0-.13.07-.2.2-.2h.65c.13 0 .2.07.2.2z"/></g></g></svg>