<svg xmlns="http://www.w3.org/2000/svg" width="629" height="601" viewBox="0 0 629 601"><g><g><path fill="#7297a4" d="M92.181 342.251c-.119-.154-.235-.314-.348-.477-3.43-3.63-7.604-6.125-11.798-8.76-4.755-2.985-9.624-5.627-15.013-7.25-.38-.115-.767-.214-1.533-.419.532.902.888 1.581 1.355 2.172 1.273 1.608 2.119 3.346 1.007 5.242-.065.148-.141.297-.23.447-1.205 2.047-3.233 1.947-5.236 1.424-8.002-2.089-15.267-5.688-21.684-10.9-3.573-2.9-4.45-6.17-2.668-9.229.614-1.242 1.656-2.458 3.123-3.612 2.99-2.355 6.704-3.606 10.774-3.444l-1.449.381c.451-.014.913-.012 1.388.007l-1.489.398c2.305.803 3.082 2.342 2.975 4.567-.025.51.55 1.33 1.046 1.539 4.274 1.803 8.593 3.5 12.899 5.227l.26-.356c-1.004-1.784-1.802-3.735-3.072-5.303-2.264-2.794-1.968-6.955-.233-10.089 1.127-2.257 2.986-4.066 5.183-4.627 4.21-1.076 8.514-1.784 12.77-2.679 3.885-.816 7.765-1.653 11.64-2.51.428-.095.827-.36 1.21-.594a.66.66 0 0 0 .17-.158c-.344-.285-.586-.532-.88-.632-4.854-1.643-9.66-3.448-14.493-5.162-4.56-1.461-9.121-2.916-13.688-4.354a94.977 94.977 0 0 0-8.44-1.864c-1.413-.241-2.828-.482-4.25-.666-1.777-.23-3.295-.405-4.611 1.589-1.398 2.117-4.538 1.372-6.072-.96-.415-.632-1.301-1.407-1.93-1.372-7.83.433-15.655.989-23.477 1.563-.807.06-1.59.44-2.384.671-3.063.89-4.992-.178-5.8-3.252-.211-.8-.151-1.7-.483-2.432a77.563 77.563 0 0 0-3.007-5.94c-.353-.628-1.096-1.028-1.61-1.58-1.342-1.445-2.259-3.049-1.416-4.981.094-.314.24-.616.434-.902 1.123-1.647 3.528-1.827 6.436-.623a101.742 101.742 0 0 0 12.206 4.179c2.274.542 4.55 1.072 6.828 1.598 2.284.448 4.59.815 6.917 1.1.488.059.988.025 1.665.013-1.849-3.958-3.59-7.711-5.358-11.453-1.398-2.958-2.576-5.955-2.375-9.326.04-.671.122-1.322.285-1.923.213-1.41 1.081-2.634 2.657-3.238 2.203-.846 4.6-.697 6.026 1.204 1.637 2.18 2.859 4.734 3.912 7.271.77 1.854.885 3.97 1.486 5.909.182.585 1.023 1.394 1.544 1.38 7.331-.182 14.182 1.763 20.88 4.474.226.091.47.135.794.2-.858-1.485-1.728-2.962-2.563-4.459-1.57-2.812-2.692-5.74-2.305-9.06.095-.815.268-1.52.53-2.127.537-1.928 2.126-2.988 4.451-3.336 7.085-1.06 10.35.961 12.616 7.9.68 2.085.72 4.72 1.856 6.312.391.414.84.776 1.341 1.094 1.548.719 3.798.73 5.52 1.415 2.929 1.166 5.739 2.631 8.545 3.952-.599-5.704.316-11.666-1.748-17.392-.706-1.957-.952-4.126-1.116-6.222-.268-3.423.354-6.581 2.427-9.323.392-.736.8-1.48 1.175-2.244-6.768-1.464-13.221-3.099-19.772-4.083-2.865-.43-5.948.651-8.94.978-1.72.188-3.455.348-5.181.329-2.435-.026-4.538-.96-5.41-3.361-.517-1.419-.395-2.715.154-3.88.279-.776.758-1.493 1.408-2.113 6.406-6.124 13.862-10.34 22.949-9.361 6.166.663 12.2 2.607 18.269 4.08 1.063.257 2.248.805 2.935 1.6.313.363.633.84.877 1.335.426.682.522 1.434.331 2.221-.44 1.82-2.09 2.257-5.564 2.17-2.84-.07-5.69.24-8.43.733 5.346 2.036 10.642 4.117 16.008 5.996 1.02.358 2.373-.095 3.542-.326 7.165-1.413 13.257.479 18.945 5.104 6.435 5.231 14.024 8.595 21.837 11.253 7.888 2.685 15.894 5.023 23.354 7.347-3.574-13.6-11.76-25.616-17.882-38.603-1.057-2.244-1.937-4.57-2.9-6.86h.082c-2.17-4.99-4.047-10.107-5.459-15.403-2.16-8.103-1.86-15.987 2.554-23.415.57-.958.905-2.067 1.267-3.134 4.42-13.044 11.262-24.674 20.31-35.044 5.992-6.87 13.331-9.268 22.198-7.086 2.634.649 5.316 1.101 7.97 1.678 4.426.963 8.528.054 12.467-2.023 2.6-1.373 5.198-2.77 7.884-3.959 4.836-2.138 9.482-1.576 13.652 1.65 2.383 1.844 4.54 3.98 6.787 5.999 2.664 2.393 5.439 4.692 9.126 5.117 1.273.146 2.793-.314 3.946-.955 2.69-1.495 5.225-3.267 8.097-5.102-1.437-7.171-2.782-14.662-7.164-21.146-2.882-4.266-6.803-6.518-12.098-6.074-2.022.17-4.061.228-6.09.183-3.4-.075-6.248-1.617-8.129-4.304-2.135-3.05-3.95-6.36-5.578-9.715-.777-1.603.123-3.2 1.575-4.346 2.88-2.274 5.713-4.606 8.59-6.883 2.247-1.778 4.406-3.71 6.824-5.223 6.023-3.766 10.768-2.914 15.352 2.455 1.127 1.32 2.256 2.655 3.511 3.85 4.51 4.291 11.365 4.474 16.081.427 1.315-1.128 2.473-2.438 3.713-3.654 4.588-4.498 8.695-5.294 14.06-1.867 12.92 8.252 25.011 17.355 33.246 30.846 3.016 4.94 7.406 9.133 11.58 13.25 4.84 4.775 8.873 10.075 12.28 15.907.374.642.794 1.258 1.51 2.386.153-3.335.172-6.143.427-8.93 1.521-16.618 5.357-32.743 10.684-48.516 7.983-23.633 19.2-45.592 34.36-65.467a22.679 22.679 0 0 1 2.247-2.544c2.563-2.48 4.473-2.661 7.464-.794 5.167-4.22 11.31-3.903 17.245 2.3 5.15 5.383 7.643 12.18 8.706 19.336 1.807 12.164 3.361 24.378 4.559 36.616 1.301 13.299 2.182 26.642 3.05 39.98.885 13.626-.146 27.155-2.77 40.555-1.08 5.524-2.244 11.032-3.237 15.898 7.312-6.777 14.88-14.017 22.694-20.982 12.207-10.88 24.963-21.041 39.79-28.237 6.46-3.135 13.162-5.277 20.516-4.394 5.48.657 10.139 2.874 13.744 7.086.908 1.062 1.738 1.346 3.125.988 4.446-1.146 8.931-2.146 13.413-3.152 2.956-.664 5.448-2.05 7.62-4.188 5.651-5.562 11.403-5.519 16.954.231 1.98 2.052 3.63 4.438 5.315 6.756 1.8 2.476 3.848 4.474 6.678 5.902 6.852 3.458 10.202 9.248 9.159 15.65-.302 1.847-1.29 3.687-2.358 5.262-.558.824-2.264 1.717-2.937 1.418-1.01-.449-1.916-1.82-2.233-2.974-.451-1.642-.085-3.502-.507-5.158-.624-2.45-1.344-4.963-2.556-7.154-1.38-2.493-3.846-2.856-5.925-.899-1.719 1.62-3.102 3.676-4.322 5.725-1.501 2.521-2.62 5.267-4.008 7.86-3.238 6.052-8.102 10.282-14.591 12.533-2.652.92-4.795 2.361-6.599 4.54-4.309 5.208-10.138 7.57-16.668 8.57-3.65.557-7.262 1.362-10.912 1.922-9.816 1.505-16.643 7.384-22.237 15.076-1.44 1.98-2.752 4.056-4.244 6.266 3.77.383 7.227.55 10.619 1.112 11.469 1.899 20.609 7.932 27.355 17.113 5.93 8.07 11.073 16.727 16.414 25.22 1.024 1.627 1.902 2.016 3.776 1.685 15.436-2.727 30.817-3.069 45.876 2.085 12.84 4.395 23.295 11.978 30.43 23.745.31.513.572 1.055.913 1.493-.624-.725-1.238-1.46-1.85-2.2.23.36.455.722.677 1.088.379.624.698 1.285 1.136 2.096-2.689-3.35-5.024-6.742-7.836-9.678-9.667-10.098-21.764-15.5-35.425-17.638-11.251-1.761-22.444-.988-33.593.973-.54.095-1.067.272-1.588.429.447 1.719 1.386 2.405 3.422 2.37 8.3-.147 16.61-.216 24.908.015 9.587.266 18.602 2.855 26.958 7.621.246.14.47.32.647.603-5.04-2.584-10.16-5.097-15.692-6.146 5.402 1.353 10.57 3.551 15.468 6.621-7.974-4.789-16.328-6.82-24.862-7.618-2.051-.151-4.106-.275-6.162-.383-7.526-.26-15.154.144-22.75.188.181 1.698 1.563 1.46 2.477 1.637 6.814 1.311 13.742 2.163 20.446 3.89 11.16 2.877 22.181 6.298 33.258 9.5.351.101.67.316.972.587a313.963 313.963 0 0 0-26.758-7.668c8.257 2.208 16.46 4.627 24.63 7.167-17.422-5.393-35.121-9.605-53.712-12.102.488 1.023.858 1.803 1.234 2.58 4.758 9.817 8.665 19.918 10.304 30.782 2.306 15.285.052 29.757-6.827 43.427a79.533 79.533 0 0 1-1.417 2.73 29.848 29.848 0 0 0-1.052 2.13 19.018 19.018 0 0 0-.737 1.997 11.798 11.798 0 0 1-.927 2.202c-2.899 5.843-10.47 9.603-16.747 2.505-3.686-4.168-6.869-8.812-10.01-13.425-10.833-15.909-24.094-29.23-40.917-38.788-3.144-1.786-6.44-3.317-9.728-4.829-.681-.314-1.937-.372-2.428.043-6.517 5.509-13.075 10.982-19.355 16.755-2.215 2.036-3.895 4.369-5.19 6.9-1.629 3.327-2.615 6.981-3.288 10.748-2.15 12.043-4.104 24.113-4.356 36.385h-.204c-.004.21-.008.42-.01.631-.159 11.415 2.244 22.499 4.644 33.572 2.56 11.811 5.305 23.627 4.738 35.816-.33 7.078-1.21 14.135-1.983 21.186-1.04 9.49-2.193 19.074.845 28.308 1.962 5.965 4.994 11.606 7.829 17.25 3.28 6.532 7.274 12.73 10.234 19.395 4.441 10 3.616 20.014-1.628 29.63-.358.655-.837 1.243-1.26 1.863.147-.426.234-.885.45-1.272 6.416-11.512 5.815-23.004-.342-34.335-3.457-6.363-7.27-12.532-10.919-18.791-4.64-7.96-7.751-16.452-7.532-25.747.188-7.985 1.095-15.95 1.547-23.932.387-6.847 1.381-13.79.673-20.539-1.098-10.468-3.21-20.849-5.272-31.19-2.187-10.973-4.764-21.945-4.021-33.163.711-10.746 2.469-21.42 3.716-32.133.684-5.875 2.409-11.127 5.138-15.801 2.68-4.797 6.385-9.033 11.25-12.663 4.324-3.227 8.296-6.925 12.869-10.815-5.066-1.423-9.644-2.777-14.271-3.939-.887-.223-2.15.067-2.937.582-10.962 7.166-20.74 15.571-28.175 26.533-4.448 6.558-8.177 13.37-10.796 20.614-3.148 9.342-3.999 19.09-4.519 28.94h-.204a324.478 324.478 0 0 0 .655 44.992c.215 2.55 1.037 4.579 2.403 6.637 10.863 16.359 20.546 33.3 25.516 52.527.078.302.379.546.947 1.326v-1.548c.374 9.416 2.826 18.337 7.253 26.85l-3.614-6.72c1.05 7.93 2.114 15.243 2.97 22.58 1.89 16.192 3.652 32.398 5.54 48.59.225 1.934.905 3.815 1.375 5.721.48 3.258.943 6.518 1.446 9.773.928 6.001 3.292 11.33 6.919 16.251 5.06 6.868 9.785 13.983 14.654 20.992.173.249.351.492.52.743 2.117 3.144 1.645 6.65-1.16 8.614-2.696 1.889-5.697 1.228-7.955-1.99-7.985-11.373-15.97-22.747-23.818-34.215-3.837-5.606-7.053-11.66-11.15-17.055-2.787-3.671-6.315-6.96-10.041-9.7-6.799-4.999-13.635-10.148-21.089-14.012-17.196-8.915-30.932-21.733-43.442-36.153-16.162-18.63-28.796-39.468-39.104-61.812-4.565-9.895-9.757-19.481-17.612-27.255-2.285-2.26-4.845-4.395-7.628-5.97-6.317-3.578-12.432-2.05-18.098 1.762-5.913 3.977-10.263 9.348-12.994 15.93-2.513 6.056-4.834 12.191-7.24 18.292.062-.525.042-1.075.196-1.57 2.971-9.526 6.419-18.838 11.8-27.334 5.908-9.328 14.33-15.822 23.645-21.361 4.075-2.423 8.112-4.912 12.12-7.343-.843-2.94-.843-2.94-2.641-2.934 2.026-1.16.22-2.084-.33-2.795-2.753-3.554-6.386-6.621-5.773-11.781-.41-.044-.653-.138-.85-.08-11.714 3.423-21.375 9.503-26.641 21.038-6.246 13.68-8.76 28.334-10.926 43.06-.031.209.406.485.625.73-.65 3.003-1.353 5.995-1.911 9.014-.122.658.273 1.411.43 2.12l-.992 3.215-.332-.03c0-2.29-.261-4.615.046-6.863 1.21-8.878 2.298-17.79 4.02-26.575 1.33-6.777 3.311-13.453 5.402-20.047 4.47-14.093 14.353-22.837 28.34-26.722 4.036-1.121 4.857-3.99 6.21-6.856.2-.421-.692-1.358-1.105-2.067l.067.042a8.5 8.5 0 0 0-.07-.05 3.021 3.021 0 0 1-.016-.025l1.747.868 2.428-4.661c-1.149 3.887-2.58 7.652-4.332 11.261-1.748 3.604-1.152 6.785 1.339 9.61 3.074 3.486 5.535 7.29 7.26 11.606 1.255 3.142 3.872 4.367 7.051 4.885.95.155 1.856.576 2.764.985-.491-.217-.984-.407-1.482-.423-4.089-.132-7.576-1.284-9.463-5.209-13.217 6.003-31.107 19.344-32.572 24.334 1.398-1.08 2.661-2.145 4.012-3.083 7.559-5.25 15.353-5.19 22.581.51 2.943 2.32 5.621 5.056 8.072 7.902 6.766 7.856 11.371 17.07 15.76 26.354 8.817 18.65 19.414 36.176 32.48 52.157 13.608 16.642 28.492 31.71 47.865 41.952 21.582 11.411 38.358 28.141 50.947 49.058.75 1.247 1.529 2.476 2.294 3.714l-.225.124-13.244-18.797-.631.424c.322.564.615 1.149.972 1.69 2.574 3.912 5.08 7.87 7.76 11.707 6.439 9.226 12.946 18.406 19.463 27.577 1.426 2.007 3.158 2.35 4.839 1.162 1.673-1.183 2.094-3.367.984-5.24-.307-.518-.692-.99-1.037-1.485l-12.942-18.593c-.502-.72-1.008-1.44-1.512-2.16l-.422.21.86 2.233c-.392-.698-.897-1.357-1.162-2.1-5.506-15.426-8.27-31.459-10.327-47.625-2.114-16.622-3.795-33.301-6.059-49.902-1.98-14.534-5.372-28.775-11.041-42.373-7.964-19.1-19.495-36.085-31.573-52.723-5.361-7.385-12.296-13.108-20.842-16.18-9.623-3.458-19.529-6.165-29.395-8.898-5.112-1.417-10.315-.944-15.384.815-1.468.51-1.933 1.223-1.357 2.789 9.415-.785 18.578.718 27.668 3.14 8.356 2.227 21.492 8.51 24.876 12.743-.524-.375-.883-.64-1.251-.893-14.97-10.294-31.544-15.117-49.697-14.601-1.416.04-1.964.464-2.373 1.968-.64 2.347-1.804 4.573-2.93 6.756-.48.933-1.423 1.628-2.239 2.522 6.7 3.723 11.568 9.003 15.32 15.188a733.423 733.423 0 0 1 16.27 28.243c8.672 15.845 18.604 30.715 31.377 43.623 11.368 11.49 20.865 24.462 29.244 38.27 11.298 18.616 20.417 38.341 29.594 58.037 2.189 4.698 4.347 9.41 6.519 14.115.27-.86.099-1.56-.19-2.206-8.856-19.906-17.296-40.013-26.71-59.653-9.786-20.419-22.413-39.014-39.23-54.479-.706-.65-1.44-1.27-2.16-1.903 1.44.49 2.51 1.326 3.536 2.213 13.195 11.39 23.61 25.06 32.2 40.105 15.241 26.689 26.807 54.988 36.195 84.208-2.004-4-4.019-7.994-6.01-12-7.958-15.998-15.7-32.109-23.914-47.974-10.7-20.67-23.302-40.113-39.65-56.835-11.926-12.198-21.803-25.804-29.907-40.77-4.886-9.023-9.836-18.012-14.91-26.93-3.672-6.45-7.837-12.564-13.692-17.319-4.266-3.464-4.258-3.475-8.749-.611.748-.72 1.416-1.552 2.256-2.14 4.473-3.13 7.191-7.248 7.427-12.816.07-1.66.178-3.32.154-4.98-.054-3.595.557-6.772 2.089-9.432h-.15c1.297-2.861 3.79-4.43 6.396-5.845 2.728-1.482 4.673-3.522 5.921-6.102.279-.674.518-1.378.724-2.102 1.437-5.048.578-10.03-.239-15.029-.79-4.839-1.79-9.68-.676-14.598.4-1.772.962-3.417 1.743-4.877 1.543-3.132 4.014-5.475 7.932-6.519 3.956-1.054 6.41.488 7.446 4.4.274 1.034.662 2.037 1.15 3.519 8.08-7.396 15.145-14.99 19.585-24.09.63-1.334 1.2-2.7 1.706-4.101-3.072-1.58-6.073-2.589-8.356-4.469-1.811-1.491-3.24-1.822-5.248-1.09a57.95 57.95 0 0 0-8.319 3.804 955.59 955.59 0 0 0-4.491 2.762 65.014 65.014 0 0 0-5.555 4.216 21.07 21.07 0 0 1 1.709-1.837l-1.703 1.052-.183-.233 5.248-3.53c.283-.196.57-.389.86-.578l6.838-4.6c-6.31-.955-8.003-.508-12.949 3.357-2.55 1.993-4.996 4.168-7.216 6.519-2.45 2.593-4.587 5.481-6.86 8.241.146-.24.295-.48.444-.719l-.224.272c4.742-7.79 10.856-14.166 18.88-18.636a1.707 1.707 0 0 0-.324-.01 12 12 0 0 0-1.566.22c-9.261 1.992-16.106 7.483-21.07 15.258a107.687 107.687 0 0 0-6.46 11.673c-2.289 5.095-4.17 10.376-5.94 15.697-4.096 12.316-6.46 24.95-6.439 37.975h-.453c.043-.757.08-1.515.113-2.274a249.548 249.548 0 0 1-.38 3.816c.222-5.934.304-11.91 1.05-17.802 1.868-14.77 6.144-28.797 12.97-41.896a124.154 124.154 0 0 1 3.289-5.977c4.962-8.463 11.855-14.83 21.749-17.217 1.283-.309 2.595-.501 3.9-.72-.628-.354-1.178-.607-1.762-1.222-2.007-2.11-4.52-3.736-6.814-5.578-4.923-3.954-10.525-5.238-16.595-3.769-3.012.73-5.864 2.124-8.538 3.124.248-.198.495-.388.744-.57-.24.13-.48.26-.718.394 5.998-4.302 12.504-5.682 19.638-3.713-4.657-2.922-9.058-5.39-14.263-5.444-9.63-.102-17.098 4.183-22.553 12.074-1.085 1.57-2.247 3.086-3.375 4.625l-.049.088.074-.095-.893 1.605 3.83-.83c-.287.214-.61.414-.961.596l.74-.16c-1.805 1.352-5.054 2.127-7.975 1.74-1.03-.137-1.853-.097-2.356.626-.026.078-.05.16-.073.248-1.316 5.246-2.802 10.452-3.987 15.726-1.193 5.309.227 10.323 2.465 15.1 1.656 3.535 3.55 6.958 5.337 10.43a159.01 159.01 0 0 1-1.674-2.356c.487.93.973 1.86 1.453 2.793-4.466-6.194-8.676-12.544-9.212-20.456-.17-2.508.105-5.13.672-7.586 1.046-4.536 2.448-8.99 3.725-13.47.11-.385.25-.734.43-1.034.476-1.124 1.336-1.78 2.764-1.412 2.368.61 4.28.033 5.791-1.813.39-.834.79-1.665 1.21-2.485 2.07-4.13 4.586-8.002 8.53-10.473 4.3-2.694 9.134-4.536 13.701-6.66a11.887 11.887 0 0 0-1.19-.048c-12.584.073-24.52-2.642-35.94-7.954a373.051 373.051 0 0 0-21.197-9.079c-6.682-2.62-13.662-2.736-20.622-1.538a2.915 2.915 0 0 1-.007.019c.225 1.622.416 3.124.651 4.619 2.987 18.976 9.294 36.715 20.404 52.478 3.627 5.146 8.315 9.532 12.321 14.426 4.795 5.858 8.725 12.063 5.961 20.22-.451 1.331 2.04 3.723 3.293 3.242 3.725-1.431 7.043-3.45 9.187-6.945.259-.636.338-1.382.53-2.06.05-.057.1-.114.152-.17.021-.09.044-.179.069-.266l1.646-1.876c-.057.412-.065.933-.206 1.415a16.403 16.403 0 0 1-1.157 2.916c-1.763 3.723-4.822 6.221-8.731 7.957-1.698.754-2.812 1.54-3.436 2.56-.52 1.168-.495 2.65-.08 4.769.608 3.099 1.569 6.127 2.286 9.207.723 3.11 1.743 5.998 4.687 7.72-.628-.351-1.384-.628-2.009-.981.38.402.806.775 1.288 1.116-1.123-.708-2.417-1.297-3.112-2.301-2.215-3.203-5.762-3.25-8.93-4.196-.275-.082-.875.628-1.202 1.062-.329.437-.656.875-.983 1.314-.972 1.454-1.905 2.937-2.862 4.401h-.38c-2.039 2.772-4.092 5.533-6.264 8.196-2.545 3.12-6.117 4.996-10.068 5.712-16.384 2.971-31.416 9.485-46.03 17.185-11.414 6.015-23.02 11.678-34.298 17.935-9.46 5.247-17.822 11.98-23.733 21.27-1.568 2.464-2.686 5.211-4.085 7.789-.822 1.517-1.768 2.969-2.699 4.424-.65 1.016-1.458 1.937-2.037 2.988-1.422 2.583-.928 3.51 1.94 3.829 4.937.55 8.766 2.807 12.313 6.41 4.309 4.377 7.25 9.388 9.602 14.911.406.956 1.043 1.844 1.709 2.652 1.331 1.62 3.136 2.115 4.836.9 6.065-4.337 10.717-9.813 12.118-17.35.771-4.153-1.564-7.64-5.543-9.314-2.231-.94-2.665-1.785-2.068-3.025.698.71 1.36 1.916 2.338 2.29 5.44 2.084 8.17 6.835 6.584 12.638-1.835 6.715-5.905 12.048-11.5 16.09-3.477 2.514-6.887 1.74-9.042-1.984-1.616-2.79-2.737-5.866-4.102-8.803-.301-.646-.707-1.243-1.556-1.649l4.607 12.338-.231.133c-1.053-2.11-2.186-4.185-3.138-6.34-1.003-2.274-1.831-4.627-2.741-6.943-3.062-7.795-8.862-11.583-17.156-11.452-4.978.079-9.949.561-14.927.664-4.839.1-9.473-.819-13.523-3.747l-.555.388c1.489 2.219 2.81 4.576 4.504 6.626 3.097 3.747 7.384 5.77 11.946 6.984 8.263 2.197 15.175 6.405 21.115 12.551 2.688 2.781 6.057 4.905 9.1 7.452-2.278-1.485-4.928-2.612-6.768-4.519-7.527-7.8-16.315-13.281-26.84-16.034-2.03-.53-3.862-1.822-5.86-2.642 6.598 5.629 11.585 13.215 20.2 16.333-7.32-2.182-12.481-7.32-17.41-12.779 5.636 13.228 13.82 23.575 29.105 25.791 11.394 1.652 22.64.563 33.585-2.757 15.33-4.65 17.06-20.534 10.679-29.88-.209-.306-.464-.58-.91-.883 5.173 9.98 5.03 18.84-5.29 25.52.284-.316.537-.668.857-.943 8.686-7.495 9.387-17.69 1.83-26.483-3.083-3.589-7.087-5.698-11.396-7.568.866.217 1.745.389 2.594.657 16.368 5.172 21.854 22.817 11.427 36.842-6.781 9.122-16.225 14.038-27.006 16.639-9.79 2.361-19.6 2.216-29.375-.287-2.052-.525-3.51-1.635-4.475-3.49-3.167-6.09-6.437-12.128-9.478-18.28-1.056-2.138-1.784-4.503-2.268-6.846-1.065-5.16-3.385-9.643-6.668-13.694-8.6-10.615-10.543-22.203-5.08-34.87.26-.603.494-1.218.813-2.006-3.419 1.97-6.559 3.967-9.86 5.646-7.54 3.835-15.842 4.824-24.064 5.85-6.808.848-13.692 1.073-20.525 1.75-6.545.649-11.48 4.164-14.91 9.58-4.86 7.67-8.224 15.967-8.907 25.131-.335 4.49.671 8.733 3.573 12.312 2.406 2.966 6.225 4.96 5.888 10.073-2.605 2.594-6.299 2.985-10.317 1.655-3.996-1.324-7.036-4.074-9.902-6.99a43.395 43.395 0 0 1-4.349-5.215c-2.643-3.707-4.798-7.554-5.012-12.371-.252-5.644-1.355-11.258-1.46-16.897-.053-2.803.922-5.802 2.096-8.414 2.067-4.596 4.408-9.11 7.063-13.391 3.774-6.085 9.065-10.463 15.617-13.628 12.28-5.934 21.052-15.49 26.874-27.786.096-.204.17-.42.25-.631 4.597-12.115 13.94-17.464 26.327-18.482.703-.058 1.4-.192 1.993-.276-2.738-1.998-5.967-3.464-7.887-5.945a26.687 26.687 0 0 0-1.288-1.54h-.092zm474.506-105.759c-4.578-.204-9.173-.038-13.787-.038l-.002.056c.42.091.901.126 1.445.118 4.176-.06 8.354-.12 12.532-.128l-.188-.008zm-120.5 35.363c2.998-2.346 6.126-4.524 9.308-6.848-.285-.116-.494-.217-.715-.263-.96-.199-1.921-.409-2.892-.55-9.238-1.338-18.528-1.308-27.82-.908-.972.042-2.052.514-2.854 1.098-11.497 8.371-21.114 18.442-28.705 30.353a105.595 105.595 0 0 0-3.146 5.414c-.503.926-.774 2.197-.617 3.224 1.027 6.707 1.983 13.438 3.39 20.07 1.343 6.326 3.206 12.542 4.84 18.806h-.541c3.986 14.288 8.886 28.3 14.349 42.142.179.455.4.893.6 1.34.345-.67.385-1.25.339-1.823-1.32-16.22-1.056-32.428-.028-48.66.83-13.11 4.159-25.216 10.454-36.126 5.972-10.58 14.167-19.545 24.038-27.27zm-65.254 16.067c.434 1.333.341 2.836.503 4.26 1.923 16.862 4.743 33.568 8.736 50.07h-.265a552.343 552.343 0 0 0 4.398 17.53c2.19 8.177 6.789 14.345 12.787 20.73-12.657-33.722-22.635-67.402-22.181-103.34-1.222 1.258-1.972 2.597-2.998 3.67-.039.04-.076.081-.113.122-1.206 1.988-1.766 4.191-.867 6.958zm6.971 54.33c-.336-1.668-.675-3.335-1.013-5.003l-4.548-19.145c-2.64 7.868-3.964 15.875-3.51 24.147h-.38c.011 5.197.415 10.416 1.049 15.646.067.554.53 1.275 1.014 1.53 4.581 2.423 9.208 4.762 13.27 6.842l-5.706-24.018h-.176zm-37.958-35.743c.537 4.267 1.36 8.503 1.751 12.78.374 4.086.025 7.824-1.422 11.037-1.346 3.302-3.807 6.061-7.818 8.028a13 13 0 0 0-1.907 1.175c-.871.857-1.662 1.875-2.538 2.722h-.176a10.063 10.063 0 0 0-1.72 4.945l41.188 10.49c-.067-.822-.13-1.861-.24-2.896-1.315-12.425-1.128-24.775 2.672-36.744a85.62 85.62 0 0 1 .96-3.191c.8-3.368.768-6.631.101-10.048-.36-1.847-.544-3.73-.775-5.601-.543-4.392-1.066-8.786-1.587-13.086-3.345 3.16-6.534 6.251-9.813 9.244-2.998 2.735-6.23 2.422-8.814-.737-.382-.466-.697-.986-1.051-1.475-2.132-2.941-4.342-2.9-6.418.148-.355.521-.671 1.05-.952 1.586-1.762 3.61-1.952 7.556-1.44 11.623zm-9.043-57.871a21.606 21.606 0 0 0-3.411.313c2.431-.202 5.306-.07 8.896.367-1.734-.48-3.562-.703-5.485-.68zm-64.122 93.613c1.93-1.835 3.884-3.645 5.788-5.505.361-.414.726-.822 1.099-1.216.224-.237-.23-1.52-.704-1.941-1.494-1.333-3.147-2.488-4.738-3.712l.257-.415-.014-.011.385-.612 5.954 3.419c.768-2.88-1.015-7.022-3.846-8.207-6.818-2.854-13.686-5.591-20.459-8.549-5.96-2.604-12.197-3.895-18.625-4.176-13.666-.599-24.809-6.144-33.825-16.383-6.336-7.194-11.282-15.308-16.243-23.425-6.94-11.356-16.79-18.793-29.6-22.384-9.83-2.756-19.456-6.036-28.21-11.46-.093-.058-.208-.08-.36-.097.445.615.773 1.156 1.252 1.442 2.375 1.418 1.248 3.399.959 5.241-.04.253-.179.602-.353.793-.101.256-.372.545-.598.613-1.617.485-3.271.845-4.887 1.334-3.067.927-5.57 2.738-7.046 5.506-1.265 2.575-2.524 5.338-2.855 8.127-.585 4.936-3.151 9.93-.272 14.949.59.512 1.177 1.025 1.764 1.54 11.33 5.75 22.492 11.417 33.054 16.78l-33.054-16.78c2.723 2.383 5.434 4.78 8.22 7.088 1.319 1.093 2.885 1.888 4.339 2.819l-.258.413.037.024-.319.509c-2.777-1.822-5.727-3.432-8.28-5.526-2.278-1.87-4.118-4.272-6.15-6.44-.25.102-.636.177-.857.284-.41 2.276-.397 4.425 1.846 6.012 3.717 2.63 7.366 5.355 11.043 8.04l-.273.399.052.037-.307.45-12.59-8.85c.263 1.413.343 2.762.992 3.731 2.46 3.675 4.846 7.51 7.91 10.647 5.637 5.77 12.944 9.024 20.317 12.027l2.934 1.192 2.619 1.068c-1.36-.352-2.71-.721-4.043-1.113 1.298.535 2.596 1.07 3.89 1.616-13.57-3.535-26.066-8.742-33.686-21.988 0 .864.125 1.66.26 2.455 3.02 17.873 20.606 36.606 44.942 32.72 9.458-1.51 18.911-3.076 28.4-4.366 8.568-1.165 17.155-.982 25.71.453 14.333 2.403 28.328 6.67 42.95 7.538 4.214.25 8.23 1.84 11.027 3.452-.606-.13-1.235-.28-1.883-.441.59.285 1.146.579 1.661.873-3.83-.82-8.549-2.475-13.34-2.723-11.125-.574-22.09-1.866-32.886-4.624-10.044-2.567-20.252-3.539-30.553-2.235-8.602 1.09-17.152 2.592-25.728 3.89-6.291.953-12.602 1.526-18.94.478-7.788-1.289-14.328-4.986-19.923-10.47-8.536-8.368-13.208-18.89-16.673-30.082l1.314 2.861c-.372-1.086-.732-2.18-1.08-3.28.974 2.13 1.95 4.259 2.925 6.387.02-.025.037-.05.055-.074a.959.959 0 0 0 .017-.51c-2.344-11.315-1.585-22.565 1.164-33.662.46-1.857 1.1-3.57 1.943-5.1 2.01-3.892 5.275-6.709 10.275-7.79.952-.206 1.887-.526 2.796-.882.642-.25 1.096-.565 1.361-.947.16-.525.036-1.143-.35-1.844-1.19-2.157-2.951-3.62-5.33-4.252-5.087-1.352-9.46.216-13.587 3.19-2.485 1.79-5.044 3.653-7.852 4.778-4.313 1.728-7.705 4.18-9.814 8.375-1.88 4.041-1.455 8.283-.882 12.432.367 2.652 1.693 5.17 2.588 7.75l-.193.106-.41-.734c.131.34.258.68.377 1.021l-.212.105-3.208-5.715c-.053 2.802-.322 5.25.101 7.571.601 3.293 1.681 6.54 2.91 9.666 1.345 3.425 3.244 6.63 4.628 10.043 1.348 3.327 2.833 6.715 3.41 10.215 1.447 8.8 5.464 15.715 13.748 19.343 5.212 2.283 10.736 3.952 16.247 5.417 4.408 1.172 8.976 2.395 13.616 1.21 8.549-2.185 17.208-1.97 25.887-1.371 9.358.645 18.69.95 28.011-.598 12.218-2.028 24.159-1.878 35.524 4.14 4.93 2.61 10.41 3.39 16.046 2.982 2.7-.195 5.434-.075 8.146.04 4.254.18 9.7 1.623 11.824 3.153-.216-.07-.432-.137-.646-.199-2.52-.035-4.954-.521-7.315-.28-3.131.32-6.294.964-9.278 1.962-9.251 3.09-18.304 2.964-27.456-.515-5.497-2.089-11.192-3.785-17.21-3.354-6.24.447-12.189 1.857-17.88 4.033l-.227.1h-.03c-3.736 1.445-7.36 3.22-10.884 5.27-4.58 2.664-8.337 6.274-9.53 11.78-.269 1.24-.236 2.547-.342 3.823l.7.37c4.259-9.561 12.378-14.033 21.623-17.027-9.007 3.952-17.698 8.27-21.418 18.356l-.925-1.076c-.12 1.268-.071 2.118-.295 2.888-.901 3.094-1.227 6.658-3.048 9.086-1.47 1.96-4.68 2.893-7.302 3.633-2.716.768-5.645.88-8.494 1.057-5.124.32-10.28.366-14.978 2.866-11.42 6.079-17.716 16.039-21.096 28.12-.826 2.953-1.383 6.035-.26 9.246 2.882-9.593 8.49-17.097 16.127-23.167-.604.815-1.35 1.513-2.085 2.223-5.226 5.044-9.38 10.847-12.213 17.545-1.07 2.53-1.766 5.126-.315 7.84 2.651 4.96 10.728 7.894 15.962 5.772 4.186-1.696 7.424-4.58 10.23-8.014 1.19-1.456 2.303-2.973 3.452-4.463-3.063 5.824-7.218 10.562-13.892 13.314 9.964.058 11.975-1.075 16.669-9.066.344-.585.664-1.185.976-1.789 1.176-2.274 2.285-4.585 3.525-6.824 5.979-10.785 14.974-18.58 25.511-24.494 11.443-6.423 23.213-12.264 34.871-18.299a252.864 252.864 0 0 1 5.748-2.886l-48.955 22.666c23.425-12.803 47.65-23.872 72.5-33.568l-16.403 7.595c10.043-4.408 20.42-7.892 31.399-9.736 2.17-.365 4.29-1.42 6.266-2.471 3.338-1.777 5.33-4.798 7.228-8.42-3.069.708-5.63.762-8.045-.507 1.138-.14 2.255-.018 3.373-.022 2.152-.007 3.875-.642 5.362-1.622h-.278zm-157.367-66.677l-.03.012c.073.144.152.288.234.432l.962.838a64.49 64.49 0 0 0-1.166-1.282zm129.7 66.677l11.564-2.52c.258-.13.51-.265.757-.404-8.539 1.83-17.08 2.947-25.633.92l7.87 2.004h-.295c2.71.288 5.477.288 8.12 0h-2.383zm-58.51 0c7.772-4.075 16.176-6.003 24.78-7.179 3.44-.47 6.904-.759 10.361-1.097-14.14-.294-27.425 2.759-40.478 7.126-.94.392-1.88.782-2.827 1.15h-2.734c-6.533 1.873-13.05 3.8-19.571 5.709 5.499-1.876 10.979-3.836 16.48-5.709h-1.432c16.142-5.34 32.35-10.34 49.539-10.293-13.195-1.537-25.972 1.84-39.021 4.032l2.01-.73c-.547.093-1.094.186-1.64.275l3.498-1.335c-1.292-.273-2.558-.354-3.825-.394-9.942-.314-19.875-1.799-29.833-.266-.966.149-2.07.144-2.851.628-3.75 2.325-7.586 4.567-11.063 7.262-5.947 4.61-12.61 7.415-19.971 8.392-7.475.992-15 1.617-22.514 2.302-11.326 1.032-19.912 5.8-24.43 16.844-2.56 6.258-6.463 11.763-11.175 16.65-.999 1.037-2.031 2.041-3.048 3.06l.293.353 21.054-16.081.326.447-20.235 15.717c.85-.128 1.583-.464 2.316-.8 6.1-2.798 12.075-5.914 18.32-8.339 25.654-9.96 51.379-19.739 77.103-29.517 6.759-2.57 13.61-4.899 20.418-7.338-.583.31-1.142.68-1.752.919-19.73 7.717-39.46 15.432-59.199 23.127-18.613 7.257-37.516 13.801-55.503 22.598-1.015.496-2.014 1.027-3.02 1.541l.166.349 8.642-1.367c-1.874.708-3.794 1.082-5.702 1.513-1.837.417-3.683.82-5.485 1.363-1.748.527-3.445 1.223-5.165 1.844 2.24.684 4.3.71 6.274 1.137 5.008 1.08 9.954 2.458 14.968 3.509 16.048 3.362 31.347 1.618 45.668-6.818 5.85-3.446 11.733-6.858 17.766-9.963 2.907-1.496 6.123-2.725 9.332-3.224 5.18-.807 10.462-1.076 15.713-1.269 6.288-.23 11.333-6.229 10.045-12.535-6.364 4.57-13.485 7.277-20.899 9.298.782-.46 1.641-.74 2.455-1.117 5.802-2.695 11.611-5.375 17.367-8.164.678-.329 1.32-1.229 1.503-1.98.443-1.822.632-3.71.855-5.58.03-.252-.327-.549-.507-.825h-.007l.005-.002.004.002 3.186-5.105-30.57 12.33-.226-.548c.579-.264 1.149-.552 1.738-.79 8.042-3.245 16.02-6.663 24.155-9.654 4.472-1.644 7.918-4.476 11.169-7.8-21.632 7.612-42.049 18.34-63.166 25.088 12.63-5.278 25.947-10.946 39.346-16.41 10.382-4.233 20.9-8.132 31.293-12.336h-.299zm-53.066 0c1.159-.827 2.358-1.605 3.466-2.496.895-.72 1.726-1.52 2.569-2.303l-15.225 1.926-.036-.305c4.6-.57 9.2-1.15 13.804-1.698.488-.058.99.004 1.493.043l.458-.422a7.12 7.12 0 0 1-.076-.007l.097-.012.037.024.008.005 1.56-.94c-5.6-.382-11.166.121-16.598-.516-14.46-1.694-28.855-3.929-43.28-5.92-3.083-.425-6.182-.735-9.273-1.097a5.363 5.363 0 0 1-.004.011l11.724 7.571.076-.069-3.743-4.93.367-.28-.122-.163c.06.04.118.081.176.122l.151-.116c.14.179.28.357.422.535a19.099 19.099 0 0 1 3.66 3.648c1.825 2.393 3.476 4.92 5.2 7.39h-.523c1.423 1.675 3.046 3.135 5.082 4.137 2.587 1.274 5.43 2.643 8.211 2.767 4.488.199 9.034-.48 13.53-1.008 2.936-.345 5.827-1.08 8.738-1.64l-.1-.678c-6.031.224-12.017.078-17.755-2.072.956.1 1.893.31 2.829.526 8.46 1.96 16.63 2.408 23.87-2.033h-.793zm491.918-83.494l.213.246a3.091 3.091 0 0 1-.213-.246zm-329.875 83.078zm-75.296-64c-.02.35-.194.807-.036 1.031 1.791 2.545 3.633 5.054 5.462 7.572l.26-.173c-.586-.87-1.171-1.742-1.757-2.614-.007-.573.214-1.307-.058-1.692-1.665-2.357-3.441-4.635-5.18-6.94l-.346.254 1.655 2.562zM91.188 288.442c-.519-.141-1.031-.266-1.47-.188l1.249.624c-.877-.237-1.734-.43-2.253.323a3.29 3.29 0 0 0-.118.396c2.512.811 4.96 1.678 7.458 2.357.59.16 1.298-.118 1.974-.275-.1-.534-.198-1.068-.296-1.602-1.056-5.235-3.882-7.73-8.524-7.54l.578 5.205 1.402.7zm35.407-54.395l1.562.622.052-.124c-1.094-.596-2.452-.955-3.238-1.828-3.438-3.825-7.9-4.57-12.562-4.048-3.722.416-7.33 1.937-11.051 2.265-2.572.227-4.782 1.983-6.102 4.438a11.1 11.1 0 0 0-.675 7.749l.58-1.358v.083l.222-.519v11.653l.697.167c.206-.499.43-.976.67-1.433 2.4-4.899 6.65-7.545 11.769-9.293 1.796-.614 3.436-1.87 4.955-3.076 2.519-1.999 5.186-3.536 8.216-4.221-1.755.244-3.504.513-5.232.881-1.696.361-3.258 1.348-4.897 1.989.67-.461 1.351-.878 2.043-1.252-.604.287-1.207.575-1.821.815 4.473-3.074 9.416-4.198 14.796-3.512-.655.097-1.312.188-1.968.277.397.022.797.054 1.2.096.259-.127.517-.267.777-.371l-.009-.002.018-.002-.003.004h-.006l.01-.004zm-1.813.691a1.78 1.78 0 0 0 .535-.107l-.872.12c.112-.006.224-.01.337-.013zm105.329 71.776l18.637 3.836.07-.201c-7.807-3.85-15.435-7.985-22.214-13.48a288.978 288.978 0 0 0 5.58 3.532 78.91 78.91 0 0 1-5.359-3.968c7.808 5.06 15.783 9.793 24.44 13.69-8.495-6.629-16.95-12.906-24.95-19.718-10.332-8.798-20.277-20.689-21.974-25.324.406.543.816 1.082 1.228 1.617-.456-.789-.798-1.485-1.012-2.067 7.433 9.955 15.997 18.469 25.387 26.15-10.728-11.467-20.577-23.614-29.082-36.533 0 .247.002.494.004.741.636 3.54.896 6.923-.58 9.807-.716 1.766-2.076 3.157-3.816 4.276l.804 1.447c-.32-.254-.59-.47-.825-.65l.604 1.086c-1.112-.6-1.867-2.326-3.484-1.331 5.974 9.87 11.762 19.823 20.194 27.86 3.945 3.761 8.238 7.07 13.456 8.915.89.315 1.924.22 2.892.315zm53.549 15.921c1.112-1.928 2.093-4.345 3.688-6.246.688-.82 1.25-1.65 1.693-2.486 1.657-3.447 1.335-7.035-.396-10.813-.689-1.504-1.36-3.107-2.425-4.33-3.413-3.921-7.033-7.662-10.522-11.519-4.04-4.464-8.587-8.598-11.929-13.54-9.912-14.664-15.957-31.065-20.243-48.154-.174-.692-.397-1.373-.682-2.348-3.398 1.196-6.506 2.33-9.642 3.378-.552.184-.936.41-1.165.721-.076.33-.04.721.062 1.184 1.287 5.814 2.305 11.697 3.807 17.454 4.222 16.18 9.54 31.95 18.425 46.287.076.123-.008.344-.043 1.048l-.163-.266c-.016.156-.043.378-.06.702-12.585-20.605-18.763-42.936-23.367-66.185-2.751 1.531-5.401 2.943-7.967 4.493a.966.966 0 0 0-.29.292 5.603 5.603 0 0 0-.26.994c-.48 2.672-.614 5.434-1.367 8.02-1.54 5.29-.651 10.05 1.982 14.79 1.518 2.734 2.854 5.716 3.51 8.751 2.224 10.27 6.191 19.688 12.595 28.04 2.848 3.714 6.04 7.075 10.073 9.554l-4.575-6.649.25-.135.638.727-.731-1.047.254-.175 8.105 9.214c-1.307-2.288-2.84-4.377-4.247-6.549-1.723-2.657-3.288-5.421-4.842-8.183-1.539-2.732-2.978-5.52-4.46-8.284a26.866 26.866 0 0 1 1.627 2.207c-.466-.877-.93-1.755-1.4-2.63 3.332 4.986 6.27 10.176 9.38 15.26 5.812 9.495 12.976 17.705 23.228 22.58 3.295 1.567 6.924 2.431 10.845 3.731l-.363-1.91.584 1.984.147.05c-.254-1.123-.404-1.787-.55-2.44l.796 2.428zm-102.015-73.594c-.065.21-.248.48-.177.622 2.093 4.198 4.21 8.383 6.403 12.725.1-.13.189-.255.266-.378.774-1.623-.475-2.752-.96-4.004.182.047.336.075.466.086a5.473 5.473 0 0 1-.245-.523c.434.112.708.115.874.049-.026-.33-.233-.747-.27-.984-.562-3.574-1.221-7.133-1.833-10.698-1.43-8.333-2.732-16.677-1.663-25.173.346-2.75-.038-5.336-1.027-7.952-.95-2.515-1.463-5.195-2.167-7.802h.118c-2.39-9.453-3.488-19.077-2.812-28.966-.17 12.522 1.94 24.614 6.521 36.863.25-.286.301-.533.36-.777.568-2.374 1.139-4.747 1.709-7.12h.038l2.38-10.165.002.01c.044.315.125.625.306 1.491 4.15-10.173 9.46-18.968 16.887-26.427-1.061-1.935-2.232-3.71-3.056-5.633-3.954-9.234-4.905-18.393-.64-27.585l-9.648 8.08a40.594 40.594 0 0 0-3.004 5.247c-3.23 6.747-4.363 13.914-4.1 21.346-.882-9.247.838-23.912 5.391-31.443 6.118-6.594 15.132-12.02 22.68-12.71l-2.662 2.23c2.763-1.232 5.589-2.338 8.385-3.47 8.697-3.523 10.945-2.533 16.474 4.968 3.556 4.823 11.004 6.83 15.615-.664-4.43-.167-7.858-2.418-11.072-5.14-2.19-1.853-4.325-3.782-6.617-5.5-3.903-2.925-8.157-3.387-12.568-1.217-2.639 1.3-5.202 2.75-7.796 4.139-3.986 2.132-8.185 3.045-12.68 2.19-2.814-.535-5.652-.994-8.422-1.708-7.892-2.035-14.546-.229-20.123 5.839-8.156 8.874-14.514 18.891-19.496 29.823-.068.15.037.378.084.752l1.805-2.254c-1.2 2.797-2.643 5.423-4.144 8.014-4.025 6.947-5.379 14.425-2.814 22.005 2.963 8.76 6.505 17.346 10.18 25.84 4.747 10.973 11.822 20.873 14.663 32.756 1.249 5.222 5.733 9.71 10.975 12.228-.216-.456-.41-.86-.624-1.252-1.661-3.043-3.413-6.04-4.995-9.123-7.29-14.21-14.533-28.443-21.793-42.667h.494c-2.251-4.963-3.987-10.111-4.525-15.65-.672-6.905.047-13.626 2.652-20.09.074.298.02.576-.06.845-3.216 10.868-2.698 21.587 2.17 31.792 5.638 11.82 11.74 23.418 17.688 35.088 2.065 4.052 4.268 8.034 6.407 12.047zm396.862-127.549c3.428-.651 5.743.12 7.061 3.306 1.241 2.998 1.712 6.322 2.447 9.52.318 1.379.45 2.802.735 4.652 2.693-1.828 3.599-3.882 3.809-6.293.475-5.455-2.32-9.24-6.536-12.118-6.322-4.314-13.468-5.084-20.846-4.278-10.38 1.135-20.131 4.621-29.702 8.532-30.032 12.272-55.291 31.057-75.873 56.134-.465.566-.99 1.083-1.489 1.622 5.966-8.637 12.947-16.348 20.61-23.433 19.857-18.362 42.606-31.851 68.293-40.36 8.353-2.767 16.81-4.978 25.724-4.365 2.33.16 4.638.636 7.228 1.006-2.466-2.85-4.566-5.64-7.053-8.027-1.753-1.682-3.905-3.087-6.11-4.124-2.454-1.153-5.027-.744-7.245.998-2.557 2.007-5.103 4.028-7.686 6.067 1.49 0 3.073-.065 4.65.018 1.503.08 2.998.313 4.497.478-23.406-.04-44.298 7.178-62.891 21.303 9.163-9.27 20.402-14.936 32.895-18.92-.61-.762-1.01-1.393-1.533-1.896-5.505-5.29-12.115-6.708-19.456-5.465-6.682 1.133-12.514 4.31-18.203 7.754-19.258 11.66-35.784 26.722-52.16 41.971-6.325 5.89-9.3 13.207-9.663 21.73-.034.8-.126 1.944-.638 2.32-2.242 1.65-2.6 4.285-3.69 6.512-3.486 7.131-7.691 13.747-12.832 19.804a104.01 104.01 0 0 1-1.253 1.556c-2.934 3.487-5.561 7.174-7.623 11.18-.432.848-.84 1.707-1.226 2.575a42.091 42.091 0 0 0-1.187 3.025c-.873 2.506-1.588 5.067-2.282 7.636a58.735 58.735 0 0 0-.85 4.932c.692-.66 1.357-1.352 2.03-2.029l.848-1.138c.36-.228.725-.45 1.087-.675.262-.221.53-.434.805-.636a93.41 93.41 0 0 1 2.575-1.824c1.553-1.21 3.11-2.41 4.84-3.214.76-.498 1.519-.998 2.273-1.503 1.613-1.08 3.484-1.916 4.784-3.292 4.334-4.586 8.514-9.317 12.717-14.026.882-1.167 1.761-2.337 2.65-3.498h.31c.278-.354.555-.708.838-1.057l.562.504-7.902 9.102-8.113 9.768c3.564-1.115 6.468-3.4 8.868-6.43l-.407 1.01c2.724-1.788 5.147-3.88 7.544-6 10.116-8.945 21.504-15.824 34.14-20.517 4.488-1.666 9.19-2.954 13.905-3.749 5.042-.85 9.333-2.307 12.268-6.88 5.603-8.727 13.59-14.235 23.716-16.494 4.117-.918 8.306-1.508 12.46-2.257 6.714-1.21 12.667-3.666 17.026-9.34 1.197-1.56 3.266-2.711 5.17-3.42 7.025-2.615 12.09-7.225 15.335-13.945 2.233-4.626 4.01-9.535 8.357-13.352l-1.35.114c.913-.196 1.825-.4 2.742-.574zm-162.073 42.113a1.775 1.775 0 0 0-.02.016l.043.09-.023-.106zm-2.667-10.674c.113-1.076 1.006-2.534 1.919-2.917.745-.312 2.195.53 3.07 1.203.839.646 1.34 1.73 2.384 3.165-.11-1.46-.078-2.336-.258-3.166-.718-3.312-1.591-6.593-2.231-9.92-.395-2.055-.672-4.174-.633-6.258.033-1.814 1.179-3.11 3.104-3.335 1.734-.202 2.698.919 3.126 2.385.798 2.739 1.466 5.516 2.135 8.29 1.511 6.275 2.99 12.557 4.483 18.836 1.544-3.785 2.554-7.485 3.63-11.166 2.825-9.656 5.23-19.433 5.12-29.54-.122-11.386-.403-22.796-1.309-34.14-1.524-19.097-3.478-38.161-5.493-57.214-.798-7.54-2.724-14.852-7.328-21.139-2.181-2.979-4.82-5.469-8.497-6.435-2.016-.53-4.185-1.02-5.761 1.11l-4.848 1.064V4.9l-.253-.007V2.65c-2.273-.979-4.008-.037-5.3 1.507-2.175 2.601-4.254 5.304-6.145 8.118-19.589 29.154-32.471 61.024-38.436 95.646-1.344 7.803-2.537 15.652-1.627 23.636.683 5.985 1.67 11.972 1.806 17.973.14 6.168-.491 12.364-.965 18.533-.58 7.559.728 14.693 4.044 21.517 6.482 13.335 12.978 26.68 12.799 42.058-.006.439.515 1.085.952 1.29 1.301.61 2.676 1.062 4.224 1.644.117-.382.24-.778.27-1.18.356-4.728.65-9.46 1.015-14.187.194-2.499.403-4.996.617-7.493.417-6.63.817-13.261 1.106-19.897.21-4.833-.384-9.499-3.672-13.62-1.508-1.888-2.164-4.635-2.666-7.103-.622-3.056 1.433-4.564 4.336-3.54.324.114.657.2 1.58.478-1.134-4.495-2.327-8.53-3.149-12.64-1.213-6.065-5.32-10.65-7.902-16.008-1.321-2.744-3.279-5.23-5.217-7.615-1.897-2.333-4.204-4.329-6.202-6.587-1.766-1.996-2.618-4.393-2.353-7.105.228-2.329 1.193-3.167 3.271-2.196 2.695 1.258 5.512 2.628 7.66 4.616 5.215 4.828 9.399 10.406 9.604 18.177 2.453-.994 4.601-3.511 7.462-.294l1.087-10.293.363.03-.604 8.538c4.419-.56 5.073-.075 8.065 6.114-1.08-25.972 3.989-50.484 10.487-74.785-1.892 10.357-3.952 20.686-5.924 31.031-1.837 9.64-4.145 28.09-3.48 31.305.46-.555.837-1.121 1.322-1.572 1.59-1.482 3.406-2.276 5.563-1.358 1.981.843 2.455 2.572 2.268 4.503-.517 5.326.864 10.292 2.55 15.265 1.486 4.38-.068 6.199-5.299 5.816 6.269 14.679 4.041 29.34.749 44.024.6-.848 1.036-1.72 1.494-2.58 4.534-8.525 9.014-17.078 13.653-25.545.99-1.806 1.85-3.412.853-5.425l.028-.025c-1.614-3.386-3.048-6.862-2.647-10.69zm3.468 9.913c.113-.907.04-1.838.04-2.76l.674-.025c.09.769.134 1.546.278 2.304.738 3.887 1.247 7.844 2.367 11.62.54 1.82 2.055 3.504 3.508 4.837.739.678 2.637.958 3.426.47.765-.472 1.203-2.23 1.024-3.294-.267-1.58-1.19-3.053-1.859-4.56-1.55-3.5-3.137-6.98-4.663-10.49-1.137-2.618-2.034-5.357-3.384-7.855-.492-.91-1.984-1.28-3.02-1.896-.344 1.006-.809 1.99-.991 3.024-.125.708.09 1.496.243 2.23.498 2.39 1.034 4.771 1.556 7.156.3-.25.766-.479.8-.76zM556.622 318.9c.263-.027.377-.006.406-.046.14-.195.283-.39.404-.596 5.924-11.839 8.429-24.379 7.494-37.606-.792-11.22-4.107-21.774-8.887-31.858-7.355-15.515-15.907-30.336-26.391-43.985h.4c-6.052-7.328-13.398-12.9-22.89-15.046-14.437-3.265-28.347-.917-41.918 4.328-8.909 3.444-16.28 9.298-23.622 15.152-.865.822-1.672 1.559-2.365 2.12-8.813 7.134-17.747 14.004-28.355 18.474-3.137 1.323-5.712 4.074-8.364 6.38-.326.745-.47 1.638-.333 2.288.133.626 1.864 1.27 2.89 1.292 5.727.12 11.457.057 17.186.05a6423.44 6423.44 0 0 0 18.295-.035c.37-.002.741-.05 1.112-.101h-12.64c3.351-.245 6.716-.327 10.07-.473h-9.798c6.26-.423 12.569-.304 18.755-1.115 11.363-1.491 22.652-3.545 33.977-5.33 2.235-.353 4.489-.598 6.742-.814 2.154-.207 4.319-.312 6.479-.462l-.02.058-5.476.743c1.76-.2 3.52-.4 5.28-.614l.028.302-19.366 2.619.005.236c10.45-.838 20.497.66 30.064 4.942 9.487 4.246 17.507 10.359 23.832 18.616-.736-.488-1.34-1.131-1.948-1.77a85.05 85.05 0 0 0-1.796-1.833 80.263 80.263 0 0 1 3.525 3.962c-.776-.456-1.417-1.14-2.065-1.817-12.832-13.425-28.44-21.168-47.09-20.55-12.5.415-24.936 2.715-37.4 4.192l.012.31h14.422l-.003.639h-.249l-.001.405h-30.21l-.014.218 53.419 5.842c-4.437-.239-8.854-.637-13.266-1.084-2.662-.27-5.326-.524-7.99-.778l20.894 2.285c-3.925-.186-7.82-.586-11.714-1.006-13.352-1.44-26.713-2.808-40.053-4.35-11.28-1.305-22.56-2.144-33.873-.668-6.215.811-11.052 4.08-14.147 9.48a10.047 10.047 0 0 0-1.037 2.52c-.365 1.858-.03 3.625 1.149 5.08 1.374 1.7 3.58 3.522 5.588 3.75 4.514.511 9.167.385 13.709-.054 13.303-1.284 26.577-2.784 39.985-2.248 9.163.367 18.214 1.428 27.019 4.042 22.88 6.794 41.075 20.399 55.684 38.96 5.036 6.399 9.365 13.351 14.201 19.914 1.585 2.15 3.553 4.147 5.707 5.717 2.74 1.997 6.868 1.696 8.936-.832 1.204-1.472 2.394-3.003 3.281-4.67 1.11-2.205 1.684-4.605 1.027-7.337-1.475-6.137-3.282-12.194-4.962-18.282-.14-.504-.42-.968-.607-1.461-.18-.475-.322-.964-.48-1.446a95.566 95.566 0 0 1 1.934 4.09c-.53-1.647-1.07-3.323-1.612-5.042 3.689 8.008 6.48 15.835 7.031 24.303zM242.634 192.917c-.816.317-1.63.643-2.45.951-7.665 2.884-14.827 6.523-21.468 10.94h.241c-5.632 4.66-11.442 9.125-16.843 14.039-1.367 1.244-2.657 2.552-3.812 3.946-2.504 3.13-4.371 6.603-4.84 10.776-.235 2.096-.303 4.216-.356 6.327-.161 6.407-.879 12.728-2.744 18.986.54-.29.794-.771 1.166-1.13 7.774-7.487 15.192-15.4 23.432-22.335 12.706-10.695 27.752-15.83 44.368-16.49 14.98-.594 29.26 2.45 43.099 7.913 13.85 5.468 27.739 10.682 42.873 11.388 7.817.365 15.54-.12 23.213-1.56.265-.05.547-.093.82-.155.422-.304.834-.665 1.262-.94-.753-.421-1.458-1.003-2.265-1.24-10.082-2.954-20.276-5.564-30.243-8.865-8.717-2.887-17.28-6.304-25.73-9.916-3.821-1.633-7.977-3.8-12.118-6.007a1204.61 1204.61 0 0 1-11.426-5.446c-8.382-4.038-17.069-7.288-26.402-8.412-12.761-1.536-24.202 2.179-34.744 9.037l-.13.085h.038l-11.758 9.068-.187-.194.383-.317-.051.038c2.972-2.714 6.01-5.374 9.26-7.731.33-.289.66-.577.992-.864h.23c10.046-6.933 21.053-10.998 33.47-10.327 9.177.496 17.775 3.3 26.102 6.958 11.187 4.915 22.302 9.995 33.462 14.973 1.588.709 3.23 1.296 4.856 1.917-.402-.39-.852-.637-1.308-.875-8.08-4.217-20.125-10.872-28.206-15.087-8.278-4.122-16.698-7.953-25.51-10.977.486-.021.912.095 1.333.23 14.088 4.514 27.108 11.395 40.079 18.329 13.992 7.48 28.017 14.785 43.648 18.344 3.695.841 7.346 1.877 11.28 2.904l-1.25-1.864c-.028-.275.035-.608-.097-.817-3.38-5.296-7.65-12.8-11.622-19.55-10.896-15.913-24.858-28.258-43.272-35.498-12.393-4.874-25.305-7.854-38.226-10.797-10.379-2.364-20.803-4.511-31.556-4.278-9.103.197-17.659 2.176-25.254 7.402-7.625 5.247-13.34 12.246-17.844 20.225-5.016 8.888-8.304 18.079-9.89 27.556-.71 4.647-1.075 9.7-1.102 14.678.07 4.868.56 9.805 1.465 14.808.647 3.574 1.661 7.081 2.525 10.616.062.126.124.25.188.371l.63-.046c.347-3.244.71-6.067.888-8.903.245-3.893.229-7.803.47-11.696a16.018 16.018 0 0 1 1.18-5.082c.743-2.063 1.884-3.96 3.346-5.648l.63-.726a68.125 68.125 0 0 1 6.273-6.765 78.261 78.261 0 0 1 3.287-3.095 86.935 86.935 0 0 1 9.108-7.058l.255-.222h.077c8.141-5.427 17.09-9.373 26.775-11.892zm82.661 25.087a487.98 487.98 0 0 1-10.16-5.137c3.35 1.8 6.72 3.551 10.129 5.212l.031-.075zM235.055 77.81l-.07-.554c-2.01.152-4.018.383-6.032.44-3.579.1-5.088 2.194-3.614 5.47.826 1.839 2.086 3.485 3.175 5.202 3.333 5.253 8.07 7.173 14.18 6.142 6.424-1.083 11.421 1.33 14.921 6.725 1.305 2.01 2.644 4.154 3.258 6.428 1.843 6.828 3.84 13.677 4.85 20.652 1.521 10.518 4.964 20 11.955 28.101 3.948 4.575 8.241 8.189 14.498 9.713 11.39 2.774 22.303 7.065 32.269 13.392 4.259 2.704 8.425 5.585 12.414 8.67 3.745 2.896 7.2 6.166 9.129 7.838-6.772-12.94-14.586-28.03-20.966-43.797 4.888 9.351 9.64 18.767 14.309 28.224 7.491 15.176 15.668 29.953 25.354 43.856 1.43 2.053 3.024 3.99 4.546 5.978l.335-.473c.12-.238.334-.486.423-.721l.027-.357c-.521-4.658-.624-9.437-2.975-13.669-1.933-3.48-4.071-6.846-6.119-10.262h.454l3.755 5.647.063-.035c-1.079-1.93-2.278-3.824-3.533-5.704l3.753 5.293c.027-.132.045-.26.055-.385-.473-1.15-1.203-3.206-1.916-5.204-.702-1.544-1.43-3.074-2.284-4.53-6.607-11.265-8.445-23.366-7.037-36.219.598-5.461.755-11.018.536-16.509-.17-4.256-.263-8.965-2.093-12.62-4.764-9.511-10.505-18.493-18.423-25.894-3.12-2.917-6.19-6.095-8.457-9.677-5.544-8.76-12.477-16.099-20.777-22.204-4.013-2.952-8.042-5.897-12.212-8.618-2.991-1.951-6.379-2.8-9.529-.403-3.528 2.684-6.824 5.675-10.269 8.574 7.98 1.855 14.804 6.09 20.91 11.497 13.483 11.939 24.942 25.647 34.99 40.558.16.237.211.548.312.825-.824-.672-1.421-1.445-2.006-2.228-9.66-12.923-20.28-24.988-32.231-35.843-7.182-6.524-14.968-12.153-24.89-13.51-6.361-.87-11.255-3.55-15.192-8.713-3.732-4.894-7.85-5.528-13.124-2.21-4.133 2.6-7.833 5.889-11.746 8.843-.447.337-1.03.491-1.55.73 5.87.757 11.182.83 16.357 1.706 12.545 2.125 24.171 6.616 33.852 15.15 10.097 8.902 18.411 19.354 25.782 30.578.76 1.157 1.486 2.338 2.228 3.508-.488-.009-.692-.2-.843-.426-6.009-9.012-12.799-17.396-20.226-25.273-5.783-6.133-11.885-11.922-19.673-15.408-5.179-2.318-10.55-4.245-15.939-6.038-2.834-.943-5.869-1.44-8.853-1.736-2.896-.288-5.842-.063-8.766-.063l.001-.294 2.653-.163zM89.136 314.728l.317-.465c8.682 4.016 16.786 9.484 26.585 10.886-1.484-1.162-2.908-2.302-4.044-3.897-2.237-3.143-4.882-5.89-5.643-9.98-.627-3.365-1.933-6.633-3.19-9.846-.968-2.477-2.61-4.571-5.5-4.947-1.706-.221-3.494-.294-5.189-.048-6.777.987-13.554 2.011-20.29 3.252-3.838.707-7.735 1.2-9.358 5.93a12.546 12.546 0 0 0-.092.279c-.391 1.25-.706 2.369-.763 3.444.011.74.202 1.48.697 2.237.99 1.515 2.304 2.904 2.93 4.556 1.318 3.473 3.915 4.256 7.233 4.465 7.002.44 13.99 1.1 20.98 1.708 3.09.269 6.171.62 9.256.939l-14.123-8.09a89.792 89.792 0 0 1 3.843 1.656l-3.649-2.08zm-8.575-28.05l.037-.046c-1.695-2.335-3.593-4.555-5.012-7.046-1.68-2.949-4.113-4.274-7.294-5.057-8.812-2.17-17.83-1.973-26.77-2.652-10.05-.764-19.93-2.272-29.31-6.212-2.191-.92-4.417-1.876-6.722-2.362-1.012-.214-2.21.459-3.348.838.267 1.11.326 2.472 1.03 3.05 3.438 2.821 5.16 6.315 5.572 10.716.238 2.535 1.738 3.268 4.193 2.74 2.78-.598 5.256-2.065 8.433-1.55 2.648.43 5.506-.623 8.284-.767 10.692-.552 21.419-1.692 31.85 2.092 3.752 1.36 7.64 2.34 11.44 3.568 2.561.827 5.08 1.787 7.617 2.688zM246.657 136.31l-.57-.662c-6.76-.474-7.688-.916-11.198-5.329-4.144-5.209-7.293-6.072-13.358-3.194-4.423 2.1-8.688 4.533-13.003 6.855-2.622 1.41-4.062 3.725-4.848 6.532-1.28 4.577-1.592 9.215-.821 13.895.816 4.954 2.54 9.556 5.854 13.65.448-.74.74-1.494.705-2.233-.157-3.38-.698-6.766-.566-10.13.322-8.209 6.183-14.738 14.196-16.22 4.886-.905 9.222.373 13.264 3.15.752.516 2.34.916 2.845.508 2.624-2.12 5.023-4.52 7.5-6.822zM84.01 272.647l.292-.255c-.509-.829-.95-1.714-1.567-2.453-3.196-3.827-4.706-8.33-5.714-13.131-.52-2.477-1.341-4.973-2.505-7.21-1.024-1.97-2.564-3.486-4.913-4.102 4.992 2.38 6.228 7.043 6.51 12.266a16.061 16.061 0 0 1-.22-.69c.001.401-.013.81-.042 1.23-.63-2.22-1.132-4.344-1.842-6.395-.657-1.898-1.791-3.467-3.795-4.67l1.551 3.269a8.826 8.826 0 0 1-.883-1.028l.727 1.491c-.951-.84-1.462-1.967-2.286-2.774-1.377-1.35-2.813-2.796-5.105-1.621-1.222.626-2.137 1.39-2.668 2.325-.384.934-.414 2.022-.03 3.293.818 2.707 1.927 5.423 3.429 7.807 4.424 7.022 9.045 13.923 13.722 20.78 1.565 2.295 3.44 4.403 5.364 6.415.551.577 1.636.645 2.534.89.179-.659.412-1.336.236-1.88-.914-2.823-2.037-5.578-3.083-8.358l.314-.143-.094-.247.452-.19 3.62 8.555c-.165-1.997-.53-3.955-1.248-5.775-.904-2.295-2.114-4.517-3.499-6.562-1.29-1.905-2.984-3.536-4.5-5.287l.507-.488-.092-.126.453-.494 4.375 5.558zM68.158 244.91l.037.012c.138.001.274.004.409.008a8.668 8.668 0 0 0-.446-.02zm2.208 1.632l-.154.183c.631.429 1.207.874 1.729 1.34-.518-.512-1.07-1.002-1.575-1.523zm192.942-122.193c-12.68 9.038-24.327 18.335-31.536 32.7 3.013-.155 5.408-.424 7.793-.36 2.39.066 4.218-.1 5.403-2.778.734-1.66 2.511-3.023 4.105-4.096 2.24-1.507 4.708-2.694 7.144-3.885 3.438-1.681 6.591-3.706 8.875-6.845.408-.561.841-1.386.734-1.995-.705-3.995-1.555-7.964-2.518-12.741zM387.252 277.78c.33 2.685.089 5.435.201 8.151.151 3.653.396 7.301.6 10.952 7.324-11.687 16.123-21.805 26.95-30.659.88-.827 1.758-1.659 2.629-2.5-.528 0-1.133-.049-1.728.008a6160.8 6160.8 0 0 0-24.121 2.31c-.418.041-1.055.192-1.184.476-.975 2.155-2.446 4.312-3.063 6.505-.111.458-.2.922-.265 1.394a6.322 6.322 0 0 0-.019.281c-.034.765-.058 1.53-.074 2.295.017.26.041.522.074.787zm-176.54-111.71c.741-.456 1.323-.765 1.85-1.147 4.137-2.994 8.626-5.382 13.623-6.365 3.242-.638 4.999-2.123 6.14-5.208.894-2.42 2.68-4.514 4.097-6.735.464-.727 1.015-1.4 1.544-2.12-1.074-.671-1.896-1.197-2.73-1.705-9.005-5.489-20.679-1.351-24.123 8.606-1.643 4.752-1.394 9.591-.401 14.674zM82.384 213.403a22.623 22.623 0 0 0-2.608-.287c.792.187 1.582.42 2.369.69-.584 0-1.174.06-1.75-.01-7.381-.883-13.557 2.249-19.521 5.948-1.232.763-2.482 1.704-2.97 3.04-.06.41-.015.846.173 1.308.864 2.126 3.586 2.349 5.824 1.911 4.286-.838 8.594-1.659 12.784-2.862 7.765-2.23 15.13-6.314 23.684-4.643.493.096 1.404-.405 1.83-.913.087-.608-.528-1.597-1.082-2.108-.627-.578-1.573-.887-2.433-1.125a418.595 418.595 0 0 0-10.476-2.77c-6.932-1.729-13.818-1.712-20.339 1.449-3.056 1.481-5.846 3.513-8.731 5.348-.04.063-.077.132-.113.201.176-.067.351-.135.526-.205 7.082-4.298 14.129-8.1 22.833-4.972zm270.242 35.807c3.008 2.95 6.135 5.81 9.452 8.398 2.46 1.921 5.422 2.885 8.68 2.7.742-.042 1.269-.173 1.567-.457.087-.354.021-.843-.218-1.518-2.325-6.556-3.16-13.168.068-20.118-10.2 2.14-20.162 2.888-30.63 1.94 4.375 2.309 7.68 5.72 11.081 9.055zm-125.94 29.024l.426-.224c-.295-1.419-.656-2.83-.837-4.262-.806-6.399-2.116-12.626-5.546-18.23-2.7-4.41-2.742-9.123-1.57-14.004.607-2.526.975-5.11 1.45-7.666l-.787-.512-14.783 12.115 21.647 32.783zM39.608 322.056c6.298 5.067 13.44 8.564 21.15 10.927a6.334 6.334 0 0 0 1.775.268c1.137.01 2.008-.432 2.467-1.133.233-.632.184-1.407-.22-2.228-.518-1.053-1.349-1.99-2.176-2.847-1.182-1.225-2.49-2.33-3.743-3.486l.179-.173 1.29.866c-.417-.375-.835-.749-1.246-1.128l.182-.179 2.469 1.695c-.077-.377-.234-.646-.463-.82-2.498-1.899-4.95-3.878-7.573-5.591-2.015-1.315-3.917-2.474-4.049-5.249-.125-2.644-1.024-3.233-3.66-2.728-3.933.754-6.254 3.36-8.14 6.703l2.018-4.8c-1.265 1.002-2.176 2.014-2.737 3.024-1.072 2.357-.236 4.696 2.477 6.879zm341.547-169.89l.198-.202c.4.808.704 1.686 1.23 2.402.415.565 1.115 1.298 1.665 1.28.55-.02 1.245-.79 1.557-1.396.321-.624.293-1.443.352-2.183.103-1.282.155-2.567.229-3.851l.998.172c-.536 2.402-.704 4.99-1.78 7.118-.454.897-2.824.824-4.45 1.223.362 1.922 1.095 4.19 1.162 6.478.162 5.578 1.583 10.619 5.122 15.021.938 1.167 1.606 2.55 2.398 3.834.861-4.139 1.28-8.107 1.68-12.078.052-.516.007-1.041.007-1.707-2.836-.256-3.565-2.285-3.819-4.566a54.869 54.869 0 0 1-.339-6.099c.003-4.601-.101-9.225 3.107-13.129.314-.382-.228-1.908-.797-2.483-1.18-1.192-3.983-.831-5.924.515-1.627 1.128-2.312 2.68-1.463 4.51.723 1.56 1.77 2.968 2.654 4.408-2.825-.764-4.601-3.834-3.754-7.001.264-.984 1.086-1.975 1.92-2.616 1.962-1.509 4.232-1.727 6.832-1.07-.893-1.385-2.18-3.439-3.087-3.282-2.016.348-3.842 1.802-5.234 2.536-.317-.427-.834-1.837-1.548-1.945-2.167-.33-4.724 2.223-4.42 4.408.252 1.815 1.081 3.55 1.84 5.894.44-1.01.547-1.257.662-1.524.375 3.187 1.589 5.959 3.98 8.222l-.978-2.889zM93.285 325.91c-1.336-.034-2.683-.091-4.039-.172 1.495.168 2.99.33 4.484.497-9.304-.122-18.443-1.311-27.475-3.662l.797.374-.143.383-1.106-.414.966.47-.155.37-5.375-2.048-.16.225c.74.622 1.418 1.449 2.268 1.71 3.445 1.055 6.906 2.24 10.451 2.751 7.239 1.045 14.56 1.511 21.802 2.533 10.894 1.537 21.741 3.411 32.628 5.005 3.019.442 6.084.56 9.138.76l-21.41-4.327.1-.516.056.01.088-.463 17.43 3.414c-21.35-7.656-43.734-9.327-66.348-11.127l-.015.11.495.144 25.524 3.973zM266.34 140.25c-1.72 1.467-3.269 3.036-5.061 4.246-1.779 1.201-3.794 2.056-5.72 3.034-1.68.852-3.46 1.534-5.053 2.523-2.51 1.559-4.406 3.724-5.753 6.318 5.427.776 10.565 1.55 15.719 2.2.704.089 1.626-.256 2.208-.709 2.382-1.852 4.7-3.791 6.97-5.781.379-.333.689-1.181.535-1.616-1.2-3.392-2.52-6.74-3.845-10.215zm-22.04 84.15c2.653 11.344 6.758 22.178 11.474 32.803 3.01 6.777 6.68 13.144 11.43 18.856.866 1.041 1.847 1.993 2.832 2.927.732.695 1.513 1.34 2.286 1.99-6.117-8.54-11.003-17.717-14.787-27.494-3.928-10.144-6.368-20.67-7.923-31.669l-5.567 1.108c.1.627.157 1.058.256 1.48zm154.638-27.764c-.17-.195-.34-.39-.508-.585-1.305.814-3.317 1.335-3.795 2.49-2.21 5.347-4.417 10.762-5.831 16.353-2.176 8.603-3.699 17.37-5.508 26.066-.277 1.33-.604 2.649-.914 4.001 2.362-1.212 4.516-2.25 6.587-3.431.108-.062.211-.153.306-.265.161-.333.268-.715.305-1.038.581-5.092.715-10.265 1.703-15.272.084-.423.17-.845.258-1.268a106.727 106.727 0 0 1 2.35-10.226c.486-1.72.988-3.435 1.5-5.147.308-1.168.613-2.336.91-3.506.053 0 .104-.01.156-.028.826-2.715 1.662-5.427 2.48-8.144zm21.703-19.114c-5.071 8.365-10.182 16.552-15.044 24.884a129.99 129.99 0 0 0-2.795 5.033c.058-.071.07-.07.023.022-1.723 3.347-3.322 6.74-4.695 10.214-1.358 3.55-2.467 7.2-3.25 10.974-.781 3.771-1.156 7.627-1.741 11.62 1.526-.352 2.37-.571 2.872-.953.378-.499.605-1.14.718-1.953.815-5.85 2.308-11.523 4.315-17.044a96.775 96.775 0 0 1 5.822-13.273c4.406-8.317 9.346-16.35 14.035-24.519.914-1.592 2.701-3.225-.26-5.005zm-45.802 81.214l.522.2c.244-.256.484-.52.697-.792.171-.254.343-.508.495-.766a2.7 2.7 0 0 0 .247-.708c1.674-8.865 3.55-17.711 4.725-26.647 1.023-7.783 1.369-15.656 1.946-23.499.036-5.78-.11-11.572-.195-17.352-.022-1.467-1.216-2.918-1.898-4.443 0 3.493.118 6.656-.023 9.809-.105 2.351-.217 4.702-.335 7.053-.034.866-.085 1.844-.148 2.891-.237 4.526-.495 9.051-.767 13.575-.556 9.246-.841 18.503-4.302 27.345-1.653 4.223-2.106 8.79-.964 13.334zm19.682-62.5c1.19-.55 2.179-.794 2.811-1.406.253-.245-.067-1.484-.483-1.96-4.543-5.189-8.5-10.774-12.057-16.688-1.428-2.375-3.475-4.416-5.454-6.395-.496-.495-1.947-.446-2.722-.107-.529.231-.9 1.406-.885 2.15.019.941.29 2.019.82 2.785 4.353 6.304 8.684 12.629 13.285 18.75 1.022 1.358 3.088 1.93 4.685 2.871zm33.433-25.907c.341-.213.5-.265.586-.376.135-.173.22-.386.327-.582 2.297-4.193 1.453-8.398.209-12.683-1.317-4.535-2.42-9.133-3.58-13.712-.608-2.404-1.016-4.865-1.76-7.223-.281-.895-1.165-1.676-1.93-2.326-1.007-.856-1.982-.47-2.19.748-.26 1.52-.45 3.144-.193 4.642.999 5.84 2.009 11.69 3.363 17.456.968 4.124 2.457 8.13 3.801 12.158.237.712.908 1.278 1.367 1.898zM39.58 266.34l.196-.042c.492 1.004.919 2.05 1.511 2.991l-4.93-19.898c.223.388.43.781.622 1.179l-.4-1.617c3.48 6.078 3.113 13.374 5.597 19.831l-.35.097c.042.114.084.227.128.34l-.592.164c.248.25.781.32 1.172.481.143-.38.305-.765.23-1.096-.467-2.055-1.063-4.08-1.596-6.12-1.104-4.222-2.035-8.498-3.373-12.644-.526-1.629-1.69-3.284-3.018-4.374-2.003-1.641-4.328-1.158-5.366.66a4.568 4.568 0 0 0-.316 1.556c-.065 1.842.1 3.85.782 5.531 1.952 4.813 4.293 9.467 6.33 14.247.808 1.898 1.973 2.498 3.776 2.056l-.64-2.806.266-.086.12.259-.149-.709zm334.988-127.32c1.529-7.442-11.193-22.328-18.094-21.877.225 1.66.051 3.49.76 4.866.979 1.899 2.424 3.675 4.02 5.115 4.677 4.219 8.428 9.036 10.728 14.937.185.475.611.857.925 1.282.297-.08.594-.158.89-.236l-.633-7.635.17-.074 1.234 3.622zm-81.591 90.307c8.945 4.159 18.174 7.304 28.01 8.48 1.573.188 3.145.42 4.724.512 1.233.073 2.472.038 3.71.024-1.01-.242-2.028-.457-3.002-.797-9.383-3.273-18.77-6.535-28.122-9.892-7.092-2.545-14.291-4.615-22.168-5.781 5.76 2.523 11.347 4.897 16.848 7.454zm106.563-35.259c2.38-9.358 3.18-18.68 2.316-28.038-.352-3.815-1.86-7.556-3.115-11.237-.467-1.367-1.719-2.466-2.936-4.129-.426 3.587-1.238 6.45.678 9.185.57.814.872 1.99.875 3.003.02 8.28.163 16.571-.235 24.836-.127 2.646.493 4.455 2.417 6.38zm1.21-61.73l1.182-.494c-.882-1.138-1.543-2.674-2.7-3.321-1.709-.955-3.234.24-4.152 1.711-.656 1.05-1.146 2.331-1.282 3.557-.727 6.503 1.485 11.985 6.113 16.529.47.46 1.07.86 1.684 1.092 1.534.578 2.348-.046 2.044-1.648-.25-1.313-.962-2.547-1.152-3.862-.654-4.51-1.17-9.041-1.737-13.564zM49.527 270.648c3.679.2 7.362.453 11.02.872 3.623.416 7.217 1.07 10.823 1.62l.07-.079c-1.197-1.075-2.243-2.539-3.646-3.084-4.746-1.846-9.565-3.576-14.48-4.894-3.364-.902-6.922-1.089-10.447-1.58.073 5.182 1.84 6.885 6.66 7.146zm368.557-99.332c-7.593 12.134-14.098 24.503-17.906 37.655 6.442-10.262 13.089-20.834 19.695-31.432.268-.43.353-1.169.182-1.641-.531-1.473-1.226-2.888-1.971-4.582zm-21.976 48.233c4.507-17.202 10.923-33.517 21.089-48.234.594-.861.42-2.253.604-3.398l-.623-.133c-.176.229-.39.438-.523.69-4.233 7.993-8.581 15.93-12.658 24.003-6.462 12.797-11.542 26.055-12.32 40.587-.11 2.058-.051 4.125-.028 6.209.355-2.09.441-4.203.963-6.203.223-.857.45-1.71.68-2.559.801-3.677 1.858-7.304 2.816-10.962zm-206.202 42.51c-.16 1.383-.14 3.044.501 4.2.835 1.507 2.572 1.932 4.373 1.559 2.014-.417 3.41-1.476 4.29-3.07a8.61 8.61 0 0 0 .447-1.188c1.142-3.838.33-7.576-.642-11.845-2.8 2.961-5.255 5.49-7.618 8.104-.4.443-.83.955-1.14 1.492a2.663 2.663 0 0 0-.211.747zm11.376-9.098c7.908 11.45 16.426 22.411 25.802 32.699l-24.932-36.878c-.604.56-1.058 1.019-1.368 1.434-.325.782-.261 1.646.498 2.745zm221.82-72.999c-5.42 10.185-12.024 19.554-16.474 30.085 7.409-8.875 15.888-17.046 18.853-28.843l-2.378-1.242zm-42.594 63.823l.438.058c.176-.545.363-1.088.477-1.646 1.25-6.133 2.618-12.248 3.718-18.407 1.417-8.858 2.77-17.726 4.146-26.59.102-.654.297-1.566-.03-1.967-1.511-1.854-3.192-3.57-4.724-5.239v24.093l1.335-9.278h.002l1.101-10.356c.053 16.719-3.79 32.953-6.463 49.332zm12.986-83.759l.845-.025c0-3.723.096-7.45-.072-11.167-.039-.862-.792-2.1-1.541-2.433-1.436-.637-2.216.375-2.73 1.785-1.96 5.374-1.348 10.833-.575 16.272.099.691 1.4 1.76 2.022 1.682.708-.089 1.73-1.218 1.814-1.983.16-1.448-.257-2.96-.417-4.446-.012-.106.118-.227.219-.406l.435.721zM286.133 325.552c-.294.662.748 1.816.642 2.678-.641 5.218 3.259 5.47 6.917 6.514-1.084-5.365-4.31-10.362-1.867-15.825l-2.25-2.832a6.945 6.945 0 0 0-.1.107c-.342.5-.66.9-.921 1.262-1.433 2.495-1.288 5.54-2.421 8.096zM88.667 223.134c-1.507-.182-2.998-.305-4.488-.246l.01.063 4.385.613c-3.49-.289-6.96-.627-10.396 1.167l9.114.603c-.38.299-.747.271-1.107.307-.117.011-.234.03-.351.051l1.205.08-.021.255-.37.027c5.159.96 10.069 4.28 15.627 1.371-5.34-1.738-10.672-3.503-16.034-5.171-.542-.168-1.219.098-1.857.24l4.283.64zm-.947 54.394c.194.483.72.984 1.209 1.17 1.675.635 3.397 1.147 5.174 1.723.005-1.968.032-3.766-.027-5.56-.016-.47-.241-1.158-.591-1.358-3.101-1.778-6.246-3.48-9.307-5.16 1.187 3.118 2.328 6.167 3.542 9.185zm-3.029-11.221c3.039 1.904 6.196 3.62 9.464 5.506.026-.602.02-1.133.195-1.596.83-2.209-.455-2.978-2.175-3.805-2.244-1.078-4.72-1.525-6.78-3.225-1.267-1.047-3.272-1.198-5.225-1.758.519 2.288.744 2.51 4.521 4.878zm186.095-114.446l-8.086 6.931c5.928 2.06 7.065 1.852 11.269-1.851l-3.183-5.08zm124.322 12.478c-1.16 1.517-1.866 2.344-2.454 3.248-.344.528-.665 1.166-.715 1.778-.35 4.285-.707 8.573-.877 12.867-.045 1.155.549 2.335.85 3.504l1.171-.123 2.025-21.274zM43.887 262.05c3.304.281 6.679.406 9.867 1.217 4.58 1.164 9.04 2.8 13.833 4.365-.451-.656-.89-1.345-1.507-1.602-7.59-3.158-15.482-5.108-23.72-5.66-.212 1.132.238 1.57 1.527 1.68zm330.049-118.643c.07 1.243-.09 1.984.172 2.517 3.42 6.964 5.239 14.383 6.486 21.987.139.842.832 1.592 1.269 2.386.362-9.7-2.87-18.19-7.927-26.89zm-1.403 98.046c-.355 3.332-.243 6.718-.233 10.081.003.794.27 1.588.4 2.07 1.362-5.5 2.697-10.898 4.032-16.296l-.371-.448c-1.015.74-2.481 1.259-2.97 2.256-.324.66-.593 1.323-.815 1.989-.016.115-.03.231-.043.348zm-11.882 51.58c1.272 1.554 2.644 2.551 4.68 2.04-1.656-6.551-4.38-8.293-8.241-5.777 1.203 1.233 2.474 2.41 3.56 3.737zm30.054-97.24l-.688.258-1.731 14.635c.464-.153.643-.382.708-.64 1.023-4.077 2.096-8.144 2.965-12.254.118-.553-.81-1.327-1.254-2zm5.742-13.558c.57-7.733 2.132-15.548-1.227-23.062-.316 1.13-.458 2.286-.288 3.393.43 2.8 1.259 5.562 1.451 8.371.257 3.75.064 7.531.064 11.298zm-1.028-8.18l-.106.05c-.55 3.858-.965 7.743-1.713 11.563-.322 1.646.298 2.312 1.819 3.136v-14.75zm-120.22-15.594l-3.382 2.518 7.47 1.68-4.087-4.198zm55.103 171.577l.453-.002v12.215h-.297c-.64 10.165-3.92 19.745-9.608 28.778l9.185-40.603c.104.79.193 1.577.267 2.361v-2.749zm80.98-327.56l-.001.217c.216.718.58 1.453.504 2.139-.811 7.244-1.712 14.477-3.037 21.665.823-6.927 1.66-13.852 2.457-20.783.079-.686.08-1.975.075-2.785l-.001.484a45.41 45.41 0 0 1 0-.726 4.992 4.992 0 0 1-.054-.195l.057-.015zM209.24 314.635l1.431-.063c-10.195-1.823-20.554-3.102-30.4-6.078-10.686-3.229-20.76-8.478-30.925-13.322 1.253.423 2.515.82 3.761 1.264a735.28 735.28 0 0 0-3.537-1.7c1.467.495 2.947.952 4.395 1.495 1.553.583 3.078 1.24 4.61 1.875 6.547 2.714 13.028 5.601 19.654 8.104 8.541 3.225 17.578 4.242 26.58 5.245a300.665 300.665 0 0 1 55.3 11.471c.356.11.688.292 1.01.554-1.47-.358-2.938-.718-4.407-1.077a299.7 299.7 0 0 1 3.172.958c.355.11.688.292 1.134.485-8.733-1.941-17.274-4.145-25.933-5.679-8.585-1.52-17.289-2.364-26.039-3.069l3.49-.186c-.429-.08-.859-.159-1.29-.237-.667-.02-1.336-.033-2.006-.04zm-58.833-27.258c22.3 10.793 45.437 19.073 69.695 23.984l-38.496-11.908c.05-.156.098-.313.147-.47l9.602 2.898a451.71 451.71 0 0 1-9.265-3.301l52.601 15.873c-.874-.09-1.748-.185-2.62-.286l2.09.63c-14.105 1.616-62.204-13.723-83.894-27a337.91 337.91 0 0 0 7.244 3.418 234.736 234.736 0 0 1-7.104-3.838zm84.511 24.683c-4.865-.779-9.483-2.196-13.822-4.313a50.265 50.265 0 0 0 13.545 4.87c-.218.023-.44.08-.654.059-.298-.03-.59-.118-.884-.182-12.692-2.802-22.845-9.63-30.816-19.743-4.531-5.75-8.83-11.683-13.18-17.572-5.048-6.833-10.61-13.163-17.392-18.387a44.095 44.095 0 0 1 3.074 2.087c-.97-.834-1.945-1.663-2.909-2.503l.423-.473c3.234 2.979 6.838 5.65 9.624 9 5.979 7.19 11.458 14.792 17.295 22.103 3.197 4.005 6.508 7.957 10.115 11.588 6.536 6.582 14.588 10.597 23.536 12.877.687.174 1.364.391 2.045.589zm-113.515-35.592l33.566 17.044zm38.84 51.602l15.92-1.218c.01.127.018.254.026.382l-15.926 1.143-.02-.307zM107.6 296.475l2.275 10.163-.314.074.105.472-.382.085-2.282-10.23.297-.067-.091-.406.392-.09zm235.92-32.056l-8.526 12.357-11.637 16.891c4.015-10.414 9.131-20.068 17.825-27.253.752-.684 1.53-1.35 2.338-1.995zm63.859 15.607l7.03-6.415-6.756 6.602-.274-.187zm23.427 3.73l3.18-3.117 2.125-2.191.128.126-3.574 3.425.72-.743-1.474 1.466.754-.723-2.105 2.17-.072-.083.33-.317a2.677 2.677 0 0 0-.012-.013zm20.273 2.994l7.834-7.804.05.05-.382.387.08-.08.099.107-7.889 7.788-.071-.156.287-.283-.008-.009zm-322.51 52.192l-.036-.306c4.675-.58 9.35-1.167 14.028-1.725.465-.055.947.034 1.43.078l-15.421 1.953zM144.125 337c.001 0 .001 0 0 0zm320.018-98.153c42.299-1.08 64.911 17.856 76.753 53.371-.35-.785-.697-1.572-1.045-2.36.332.958.653 1.93.966 2.917-2.068-4.42-3.977-8.811-6.142-13.072-6.202-12.204-14.416-22.645-26.468-29.652-5.845-3.4-12.094-5.785-18.601-7.537a2.279 2.279 0 0 0-.345-.061c12.483 4.656 23.27 11.784 32.126 21.785a101.478 101.478 0 0 0-9.135-8.129c3.218 2.562 6.138 5.51 9.018 8.493-7.746-7.594-16.337-13.945-26.224-18.484-9.869-4.53-20.193-6.965-31.115-6.735a110.32 110.32 0 0 1 9.297-.038 70.157 70.157 0 0 0-9.085-.498zm62.493 10.767c10.357 8.868 17.302 20.158 22.964 32.358l-1.273-1.794c.352.73.7 1.464 1.042 2.202l-22.958-32.336c.478.41.95.826 1.415 1.247zM405.746 8.234c-.245 1.287-.355 2.617-.754 3.854-5.602 17.36-10.442 34.92-13.763 52.87-1.3 7.033-2.41 14.101-3.71 21.129 3.041-26.628 9.706-52.433 18.227-77.853zm-36.45 191.137c-2.809-9.114-5.815-18.177-7.158-27.666zm4.873 18.838l-.718-2.775.328 1.38c.136.573.197 1.164.127 1.783-1.304-4.596-3.655-14.123-4.959-18.72.14 0 .662 1.33 1.16 2.67.107.436.225.898.378 1.423l-.348-1.344c.29.777.568 1.55.757 2.06 1.296 4.456 2.459 8.945 3.275 13.523zm-4.874-18.838c.33 1.07.507 1.88.71 2.745zm27.477-146.235c2.473-13.777 6.007-29.036 10.736-41.424zM434.546 117l-1.66 25.071zm.93-14.074l-.93 14.074.93-14.074zm-45.189 27.556c-.394-8.829-.105-18.87 1.664-27.825zm7.742-8.69l1.568-15.87.474.045-1.575 15.869-.467-.044zM227.286 212.01l.3-.22-.637.297-.128-.193 2.434-1.28c6.056-4.111 12.674-6.973 19.89-8.405 12.061-2.391 23.758-.536 35.167 3.496 5.644 1.994 11.131 4.431 16.69 6.668l-.215.52c-3.718-1.576-7.407-3.226-11.16-4.714-8.747-3.467-17.75-5.927-27.199-6.4-7.233-.363-14.073.736-20.587 3.03h.701l-14.367 6.706c-.297.164-.594.328-.89.495zm76.102-11.254c18.002 7.925 36.523 14.713 53.84 24.13zm-102.91 13.26a51.663 51.663 0 0 1 5.373-4.183l2.36-2.058.325.346a57 57 0 0 1 .373-.221c-.428.37-.858.74-1.285 1.112-.584.512-1.17 1.022-1.756 1.532-3.338 2.941-6.674 5.884-10.02 8.815-2.365 2.072-4.193 4.344-5.155 6.95-.566 1.834-.664 3.838-.223 6.026.16.796.095 1.636.135 2.456l-.24.019-.003.283c0 .064-.073.127-.08.138-.947-2.99-1.053-5.747-.379-8.279.35-1.849 1.218-3.52 2.539-4.983.703-.9 1.527-1.764 2.468-2.593a110.09 110.09 0 0 1 5.567-5.36zM262.604 86.21c21.245 14.844 36.987 34.71 51.123 56.042zm86.32 103.985l17.196 31.731-.4.218.446.83c-.243-.16-.593-.264-.715-.491-3.188-5.883-6.351-11.78-9.519-17.674h.286l-7.81-14.4.516-.214zm-29.538-33.258l14.527 25.56-.465.263-14.547-25.55.485-.273zm149.556 22.177c11.113-14.303 24.154-26.521 39.228-36.54-4.648 3.666-9.419 7.189-13.909 11.038a218.667 218.667 0 0 0-13.09 12.176c-4.237 4.282-8.166 8.871-12.23 13.326zm-28.318.257l-29.347 38.015-2.746 4.011c.394-.866.676-1.807 1.2-2.587 2.712-4.046 5.494-8.046 8.228-12.078.405-.597 2.097-2.705 2.433-3.348.302 0-.81 1.425-.507 1.425l-.579.845a372.61 372.61 0 0 1 21.318-26.283zm50.177 1.106c5.9-6.963 11.814-14.08 20.847-16.983 4.834-1.554 10.018-2.013 15.035-3.01 1.971-.391 3.92-.903 5.99-.865-2.963.647-5.904 1.704-8.894 1.87-12.465.692-21.963 6.737-29.88 15.886-.953 1.102-2.062 2.07-3.098 3.102zm84.556-58.529a13.26 13.26 0 0 1-1.123.453c.346-.18.706-.347 1.08-.497l.043.044zm-7.26 6.557c-1.886 2.897-3.869 5.73-5.81 8.592l-.587-.408c3.106-4.23 6.088-8.56 9.4-12.622.69-.846 1.94-1.233 3.134-1.666-2.643 1.378-4.505 3.6-6.136 6.104zM441.524 177.9l6.377-5.973-6.014 6.312-.363-.339zM275.789 313.22a375.244 375.244 0 0 1-2.396-2.907l2.106 3.4c-13.367-14.94-24.906-31.043-31.22-50.381l1.059 1.709c-.277-.704-.548-1.412-.813-2.124zm7.062 6.734c-.069-.159-.136-.32-.202-.48 0 .304.002.608.026.902-1.192-2.73-1.993-5.73-3.653-8.136-4.5-6.523-9.365-12.793-14.082-19.167-.48-.65-.936-1.317-1.163-2.188.252.285.517.561.77.846a4.884 4.884 0 0 1-.546-1.283c.407.462.846.9 1.217 1.39 4.422 5.843 8.929 11.626 13.201 17.577 1.697 2.363 2.954 5.064 4.23 7.7.383.793.153 1.883.202 2.844-.002.006 0-.005 0-.005zM55.368 274.57l-20.68-1.199zm-29.63-3.504l-8.363-2.79.105-.32 8.375 2.756-.117.354zM426.54 242.61l9.96 1.089a474.292 474.292 0 0 0-9.952-1.206l-.008.117zM318.534 377.197c-.27-.098-.54-.22-.809-.341.27.12.538.235.81.34zM607.94 252.21zM442.167 446.185a64.975 64.975 0 0 1 0-5.12v5.12zM298.86 341.971c.125.079.248.159.368.242l.004.007a8.957 8.957 0 0 1-.372-.25zm18.865 34.885zM66.201 403.952l.055.047-.008-.007.005.004a38.879 38.879 0 0 0-.193-.005l.139-.038c-.38-.304-.738-.646-1.154-.89-3.824-2.242-8.037-2.962-12.384-3.006-7.776-.078-14.896 1.481-19.667 8.416-2.008 2.919-3.926 5.9-5.846 8.877-.424.657-.684 1.42-1.019 2.134l.377.26 4.494-4.84c-1.43 2.476-3.381 4.547-4.755 6.948-1.508 2.634-3.333 5.52-3.512 8.391-.355 5.712.322 11.49.573 17.24l.583.074 3.25-4.39c-.576 1.742-1.731 3.196-2.249 4.85-.509 1.626-1.036 3.756-.406 5.144 3.56 7.858 8.82 14.39 16.362 18.826 2.635 1.55 5.528 1.987 8.508 1.002 2.512-.83 2.689-1.257 1.744-3.762-.532-.94-.921-2.006-1.621-2.797-1.922-2.175-3.975-4.234-5.975-6.339-1.317-3.707-2.231-7.451-1.94-11.464.468-6.432 2.787-12.3 5.23-18.14 4.258-10.174 11.839-16.322 22.667-18.372 3.082-.584 6.219-.876 9.33-1.302-6.77-2.727-13.21-1.4-19.553 1.381 4.574-3.044 9.635-3.981 15.23-3.852l-8.265-4.39zm137.827 60.526c-16.778 8.9-34.377 9.962-52.408 4.671 3.552 3.586 8.12 5.021 20.096 6.428-3.674-.137-7.511.075-10.94-1.007-10.15-3.203-17.786-9.947-23.83-18.542-1.45-2.062-2.52-4.391-3.896-6.83-.414 2.475.33 5.939 2.27 9.685 3.12 6.028 6.285 12.039 9.666 17.92.73 1.271 2.331 2.483 3.755 2.846 13.236 3.38 26.193 2.293 38.766-3.019 6.611-2.792 12.356-6.797 16.52-12.152zm-74.734-75.608c-1.941 1.17-4.01 2.334-5.994 3.63-11.786 7.698-24.73 11.268-38.71 9.857-7.151-.722-14.202-2.6-21.248-4.183-5.744-1.29-9.987-1.701-13.631-.526 10.162.613 18.05 5.366 26.042 9.923 1.87 1.067 3.992 1.83 6.094 2.326 7.452 1.764 14.862 1.071 22.126-1.053 11.076-3.239 20.235-9.052 25.321-19.974zm108.867-52.646c-4.355-1.384-8.732-.75-13.103-.133 9.798 1.215 19.298 5.07 28.317 3.151-5.321.357-10.238-1.436-15.214-3.018zm107.11 14.318l.01-.25-9.409-1.308-.31 3.463 9.71-1.905zM233.37 339.585l-.002.015.133.062 1.079.274c-.403-.11-.807-.227-1.21-.351zm99.668-98.236l11.031 2.988c-3.377-2.319-6.547-4.947-11.03-2.988zM42.313 280.146c1.709 1.821 3.496 1.785 4.534 0h-4.534zm327.692-78.03l.132.51-.03-.08-.102-.43zm73.571 225.352v-13.02h.179v12.937l-.179.083zm14.962 60.287l4.024 8.096-.32.155-4.11-8.11.406-.14zM259.765 415.52c1.862-4.576 3.474-9.275 5.634-13.706 5.435-11.147 12.822-20.698 23.594-27.266.69-.421 1.465-.7 2.201-1.046-2.834 2.096-5.776 4.062-8.483 6.312-9.52 7.915-15.44 18.343-20.292 29.49-.899 2.065-1.77 4.144-2.654 6.216zm-25.084-62.116c-11.78.642-22.926 3.845-33.816 8.13 7.086-3.316 14.366-6.178 22.093-7.376 12.738-1.973 25.436-4.046 37.812-7.757 1.042-.312 2.164-.362 3.335-.21-2.493.764-4.981 1.54-7.479 2.29-2.598.779-5.213 1.504-7.806 2.299-10.588 3.243-21.277 6.2-31.73 9.834-14.083 4.895-26.529 12.936-38.7 21.388-.668.464-1.35.907-2.349.924 3.529-2.565 6.996-5.221 10.604-7.668 3.681-2.497 7.426-4.923 11.284-7.132 3.79-2.17 7.684-4.195 11.667-5.982 4.05-1.815 8.223-3.384 12.42-4.837 4.171-1.445 8.44-2.613 12.665-3.903zm15.1-7.35c-5.513 2.414-11.366 3.3-17.293 3.82-8.785.773-17.578 1.457-26.357 2.296-2.063.197-4.08.866-6.119 1.318l-.12-.674c4.714-.782 9.403-1.795 14.147-2.295 8.77-.925 17.585-1.433 26.356-2.362 3.167-.335 6.26-1.382 9.387-2.104zm29.39-21.243l-24.465-6.058.133-.55 24.475 6.017-.143.591zm-103.283 2.883l-15.852 1.111-.02-.302 15.835-1.21.037.401zM304.722 392.1c.063.076.123.157.182.239l-.223-.194zm10.173 9.11c6.51 7.405 10.33 16.43 14.177 25.392 3.212 7.484 6.485 14.942 9.728 22.413.109.25.18.518-.149.957-1.644-3.587-3.312-7.164-4.93-10.764-4.11-9.146-7.94-18.43-12.372-27.416-2.899-5.878-6.744-11.102-11.608-15.441 1.828 1.523 3.602 3.093 5.154 4.859zm-9.472-8.286c-.208-.146-.362-.368-.52-.585.6.52 1.211 1.03 1.826 1.537a48.113 48.113 0 0 0-1.306-.952zm4.318 3.427c-.997-.831-2.01-1.648-3.012-2.475a47.716 47.716 0 0 1 3.012 2.475zm103.711 125.78c12.12 9.048 23.712 18.688 33.744 30.079zM304.68 392.143a13.148 13.148 0 0 0-.145-.133l.187.088-.042.045zm-9.276-4.418c3.27.926 6.507 1.933 9.13 4.285l-9.13-4.285zm21.822-19.842c-3.513-10.199-3.989-20.76-3.175-31.451zm-34.55-47.499l-.001-.01.002.007-.001.003zm-119.594 41.463c3.411-1.993 6.596-4.548 10.887-4.372l-10.887 4.372zm-75.574 20.327l7.692-1.997.148.558-7.57 2.003-.27-.564zm326.948-107.869l-6.95 6.517-.016-.02 6.87-6.645.096.148zm-250.82 68.663c-.264.141-.519.304-.793.42-19 8.084-38.002 16.165-57.004 24.246l-.223-.524 57.787-24.68.232.538zm-120.26 117.23l1.674 3.156c-.36-.238-.83-.397-1.066-.725-7.396-10.307-8.165-25.07-1.097-35.665-.29.683-.56 1.375-.875 2.046-4.584 9.734-4.546 19.467.024 29.187.338.718.888 1.336 1.34 2.001zm14.962-54.095c2.627-1.972 5.144-2.18 7.722-2.113l-7.722 2.113zm-1.777-130.763l-22.892-1.15.021-.421 22.883 1.31-.012.26zm-39.203-6.918l8.3 2.728-.11.346-8.391-2.768.201-.306z"/></g></g></svg>