<svg xmlns="http://www.w3.org/2000/svg" width="542" height="391" viewBox="0 0 542 391"><g><g clip-path="url(#clip-4494)"><path fill="#acc9d4" d="M92.181 342.782c-.12-.155-.235-.314-.349-.477-3.43-3.63-7.603-6.125-11.797-8.76-4.755-2.985-9.624-5.627-15.013-7.25-.381-.115-.767-.214-1.533-.419.532.902.888 1.581 1.355 2.172 1.273 1.608 2.118 3.346 1.007 5.242-.065.148-.141.297-.23.447-1.205 2.047-3.233 1.947-5.236 1.424-8.003-2.089-15.267-5.688-21.684-10.9-3.573-2.9-4.45-6.17-2.668-9.228.614-1.243 1.656-2.459 3.122-3.613 2.991-2.355 6.705-3.606 10.775-3.444l-1.449.381c.451-.014.914-.012 1.388.007l-1.49.398c2.306.803 3.083 2.341 2.976 4.567-.025.51.55 1.33 1.046 1.538 4.274 1.804 8.593 3.5 12.899 5.229.086-.12.173-.238.26-.357-1.004-1.784-1.802-3.735-3.072-5.303-2.264-2.794-1.968-6.955-.233-10.089 1.127-2.257 2.986-4.066 5.183-4.627 4.21-1.076 8.514-1.784 12.77-2.679 3.885-.815 7.765-1.653 11.64-2.51.428-.095.827-.36 1.21-.594a.663.663 0 0 0 .17-.158c-.344-.285-.586-.532-.88-.632-4.855-1.643-9.662-3.449-14.496-5.163a2819.866 2819.866 0 0 0-13.684-4.353 94.999 94.999 0 0 0-8.441-1.864c-1.413-.242-2.828-.481-4.25-.666-1.777-.23-3.295-.405-4.611 1.589-1.398 2.117-4.538 1.372-6.072-.96-.415-.631-1.301-1.407-1.93-1.372-7.83.433-15.655.989-23.477 1.563-.807.06-1.59.44-2.384.671-3.063.89-4.992-.178-5.8-3.252-.211-.8-.151-1.7-.483-2.432a77.592 77.592 0 0 0-3.007-5.94c-.353-.628-1.096-1.028-1.61-1.58-1.343-1.445-2.26-3.05-1.415-4.982a3.26 3.26 0 0 1 .433-.9c1.123-1.648 3.528-1.828 6.436-.624a101.762 101.762 0 0 0 12.206 4.179c2.276.543 4.555 1.073 6.835 1.6 2.281.447 4.585.814 6.91 1.097.488.06.988.026 1.665.014-1.849-3.958-3.59-7.711-5.358-11.453-1.398-2.958-2.577-5.955-2.375-9.326.04-.671.122-1.322.285-1.922.213-1.41 1.081-2.635 2.657-3.24 2.203-.845 4.6-.696 6.026 1.204 1.637 2.181 2.859 4.735 3.912 7.272.77 1.854.885 3.97 1.486 5.909.181.585 1.023 1.394 1.544 1.38 7.331-.182 14.182 1.763 20.88 4.474.225.091.47.135.794.2-.858-1.485-1.728-2.962-2.563-4.459-1.57-2.812-2.692-5.74-2.305-9.06.095-.814.268-1.52.53-2.127.537-1.927 2.126-2.987 4.451-3.336 7.085-1.06 10.35.962 12.616 7.9.68 2.085.72 4.72 1.856 6.312.39.414.84.776 1.341 1.094 1.548.719 3.798.73 5.52 1.415 2.929 1.166 5.738 2.631 8.545 3.952-.599-5.703.316-11.666-1.749-17.392-.705-1.957-.951-4.126-1.115-6.222-.268-3.423.354-6.58 2.427-9.322.392-.736.8-1.48 1.175-2.245-6.768-1.464-13.221-3.098-19.772-4.083-2.865-.43-5.948.652-8.94.978-1.72.188-3.455.348-5.181.329-2.435-.026-4.538-.96-5.41-3.361-.517-1.419-.395-2.714.153-3.88.28-.776.759-1.493 1.408-2.114 6.407-6.122 13.863-10.338 22.95-9.36 6.166.663 12.2 2.607 18.269 4.08 1.062.258 2.248.805 2.934 1.6.314.364.635.84.878 1.336.426.682.522 1.434.331 2.22-.44 1.82-2.09 2.258-5.564 2.171-2.84-.07-5.69.238-8.43.732 5.346 2.036 10.642 4.117 16.008 5.996 1.02.358 2.373-.095 3.542-.325 7.165-1.414 13.257.478 18.945 5.103 6.435 5.231 14.024 8.595 21.837 11.253 7.888 2.685 15.894 5.023 23.354 7.347-3.574-13.6-11.76-25.616-17.882-38.603-1.057-2.244-1.937-4.57-2.9-6.86h.082c-2.17-4.99-4.047-10.107-5.459-15.403-2.16-8.102-1.86-15.987 2.554-23.415.57-.958.905-2.067 1.267-3.134 4.42-13.044 11.261-24.674 20.31-35.044 5.992-6.87 13.331-9.268 22.198-7.085 2.634.648 5.316 1.1 7.97 1.677 4.426.963 8.528.055 12.466-2.023 2.601-1.373 5.199-2.77 7.885-3.958 4.836-2.139 9.482-1.576 13.652 1.65 2.383 1.844 4.54 3.98 6.787 5.997 2.664 2.394 5.439 4.693 9.126 5.118 1.273.147 2.793-.314 3.946-.955 2.69-1.495 5.225-3.268 8.097-5.102-1.438-7.172-2.783-14.662-7.164-21.146-2.882-4.266-6.803-6.518-12.098-6.074a57.79 57.79 0 0 1-6.09.183c-3.4-.075-6.248-1.617-8.129-4.304-2.135-3.05-3.95-6.36-5.578-9.715-.777-1.602.123-3.199 1.575-4.346 2.88-2.274 5.713-4.606 8.59-6.883 2.247-1.778 4.406-3.71 6.824-5.222 6.023-3.768 10.768-2.915 15.352 2.454 1.127 1.321 2.256 2.655 3.511 3.85 4.51 4.291 11.365 4.474 16.081.428 1.315-1.128 2.473-2.438 3.713-3.655 4.588-4.499 8.695-5.294 14.06-1.867 12.92 8.253 25.011 17.355 33.246 30.846 3.016 4.94 7.406 9.133 11.58 13.25 4.84 4.776 8.872 10.075 12.28 15.907.374.642.794 1.258 1.51 2.386.153-3.335.172-6.143.427-8.93 1.521-16.618 5.357-32.743 10.684-48.515 7.982-23.634 19.2-45.592 34.36-65.468a22.684 22.684 0 0 1 2.247-2.544c2.563-2.48 4.473-2.662 7.464-.794 5.166-4.219 11.31-3.903 17.245 2.3 5.15 5.383 7.643 12.18 8.706 19.336 1.807 12.164 3.361 24.378 4.559 36.616 1.301 13.299 2.182 26.642 3.05 39.98.885 13.626-.146 27.155-2.77 40.556-1.08 5.523-2.244 11.03-3.237 15.897 7.312-6.777 14.88-14.016 22.694-20.981 12.207-10.88 24.963-21.042 39.79-28.238 6.46-3.135 13.162-5.277 20.516-4.394 5.48.658 10.138 2.874 13.744 7.087.908 1.061 1.738 1.345 3.125.987 4.446-1.145 8.931-2.146 13.412-3.152 2.957-.664 5.449-2.05 7.621-4.187 5.651-5.563 11.403-5.52 16.954.23 1.98 2.052 3.63 4.438 5.315 6.756 1.8 2.476 3.848 4.475 6.678 5.902 6.852 3.458 10.202 9.248 9.158 15.65-.301 1.848-1.288 3.688-2.357 5.262-.558.825-2.265 1.717-2.937 1.418-1.01-.449-1.916-1.82-2.233-2.974-.451-1.642-.085-3.502-.507-5.157-.624-2.45-1.344-4.964-2.556-7.154-1.38-2.494-3.846-2.857-5.925-.9-1.719 1.62-3.102 3.676-4.322 5.725-1.501 2.521-2.62 5.267-4.008 7.86-3.238 6.052-8.102 10.283-14.591 12.534-2.652.92-4.795 2.36-6.599 4.54-4.309 5.207-10.139 7.57-16.668 8.568-3.65.558-7.262 1.363-10.912 1.923-9.816 1.505-16.643 7.384-22.237 15.076-1.441 1.98-2.752 4.056-4.244 6.266 3.77.383 7.227.55 10.619 1.112 11.469 1.899 20.609 7.932 27.355 17.113 5.93 8.071 11.073 16.727 16.414 25.22 1.024 1.627 1.902 2.016 3.776 1.685 15.436-2.726 30.817-3.069 45.876 2.085 12.84 4.395 23.294 11.978 30.429 23.745.31.512.572 1.054.913 1.492a143.688 143.688 0 0 1-1.848-2.198c.229.359.454.721.676 1.088.379.624.698 1.284 1.136 2.095-2.689-3.35-5.024-6.742-7.836-9.678-9.667-10.098-21.765-15.5-35.426-17.638-11.25-1.761-22.443-.989-33.592.973-.541.095-1.068.272-1.588.429.447 1.72 1.386 2.405 3.422 2.37 8.3-.147 16.61-.216 24.908.015 9.587.266 18.602 2.855 26.958 7.621.246.14.47.32.647.603-5.04-2.583-10.16-5.096-15.69-6.146 5.402 1.354 10.57 3.552 15.466 6.621-7.976-4.79-16.332-6.82-24.869-7.619-2.044-.15-4.091-.273-6.14-.381-7.531-.26-15.164.143-22.765.188.182 1.697 1.563 1.46 2.476 1.636 6.815 1.312 13.743 2.163 20.447 3.89 11.16 2.878 22.181 6.298 33.258 9.5.351.101.669.316.972.587a314.015 314.015 0 0 0-26.754-7.667c8.26 2.209 16.467 4.629 24.64 7.17-17.427-5.395-35.13-9.608-53.726-12.105.488 1.022.858 1.802 1.234 2.579 4.758 9.818 8.665 19.918 10.304 30.783 2.306 15.289.05 29.765-6.833 43.44-.45.908-.92 1.814-1.411 2.716-.377.693-.73 1.406-1.053 2.133-.281.654-.532 1.32-.736 1.994a11.799 11.799 0 0 1-.927 2.202c-2.9 5.843-10.471 9.602-16.747 2.505-3.686-4.168-6.869-8.812-10.01-13.425-10.833-15.909-24.094-29.23-40.917-38.788-3.144-1.786-6.44-3.317-9.728-4.829-.682-.313-1.937-.372-2.428.043-6.517 5.509-13.076 10.982-19.355 16.755-2.215 2.036-3.895 4.368-5.19 6.9-1.629 3.326-2.615 6.98-3.288 10.748-2.151 12.043-4.104 24.113-4.357 36.385h-.203c-.004.21-.008.42-.01.631-.159 11.415 2.244 22.499 4.644 33.572 2.56 11.811 5.305 23.627 4.738 35.816-.33 7.078-1.211 14.135-1.983 21.186-1.04 9.49-2.193 19.074.844 28.308 1.963 5.965 4.995 11.606 7.83 17.25 3.28 6.532 7.274 12.73 10.234 19.395 4.441 10 3.616 20.014-1.629 29.63-.357.655-.836 1.244-1.259 1.863.147-.426.234-.885.45-1.272 6.416-11.512 5.814-23.004-.342-34.335-3.457-6.363-7.27-12.532-10.919-18.79-4.64-7.961-7.751-16.453-7.533-25.748.189-7.985 1.096-15.95 1.548-23.932.387-6.847 1.38-13.789.673-20.538-1.099-10.469-3.21-20.85-5.272-31.192-2.187-10.971-4.764-21.944-4.022-33.162.712-10.746 2.47-21.42 3.717-32.133.684-5.877 2.41-11.13 5.14-15.804 2.68-4.795 6.384-9.03 11.248-12.66 4.324-3.227 8.296-6.924 12.869-10.815-5.066-1.423-9.645-2.777-14.271-3.939-.887-.222-2.15.067-2.937.582-10.962 7.166-20.74 15.571-28.175 26.533-4.448 6.558-8.177 13.37-10.796 20.613-3.148 9.342-3.999 19.091-4.519 28.941h-.204a324.472 324.472 0 0 0 .655 44.992c.214 2.55 1.037 4.579 2.403 6.637 10.863 16.359 20.546 33.3 25.516 52.527.078.302.379.546.947 1.326v-1.547c.374 9.416 2.826 18.336 7.253 26.849l-3.614-6.72c1.05 7.93 2.114 15.243 2.97 22.58 1.89 16.192 3.652 32.399 5.54 48.59.225 1.934.905 3.816 1.375 5.721.48 3.258.943 6.519 1.446 9.773.928 6.001 3.292 11.33 6.919 16.251 5.06 6.868 9.785 13.983 14.654 20.992.173.249.351.493.52.743 2.117 3.145 1.645 6.65-1.16 8.614-2.696 1.889-5.697 1.228-7.955-1.99-7.985-11.373-15.97-22.747-23.818-34.214-3.837-5.607-7.054-11.66-11.15-17.056-2.787-3.671-6.315-6.96-10.041-9.7-6.799-4.998-13.635-10.147-21.089-14.012-17.196-8.915-30.932-21.733-43.442-36.153-16.162-18.63-28.797-39.468-39.105-61.812-4.564-9.896-9.757-19.48-17.612-27.254-2.284-2.262-4.844-4.395-7.627-5.971-6.317-3.578-12.432-2.05-18.099 1.762-5.912 3.977-10.262 9.348-12.993 15.93-2.513 6.056-4.834 12.191-7.24 18.292.061-.525.042-1.075.196-1.57 2.971-9.525 6.419-18.838 11.8-27.334 5.908-9.328 14.33-15.822 23.645-21.36 4.075-2.424 8.112-4.913 12.12-7.344-.843-2.94-.843-2.94-2.641-2.934 2.026-1.16.22-2.084-.33-2.795-2.753-3.553-6.387-6.621-5.773-11.781-.41-.044-.653-.138-.851-.08-11.713 3.423-21.374 9.503-26.64 21.038-6.246 13.681-8.76 28.334-10.926 43.061-.031.208.406.485.625.73-.65 3.002-1.353 5.994-1.911 9.013-.122.658.273 1.411.43 2.12-.33 1.072-.662 2.143-.993 3.215l-.331-.03c0-2.29-.261-4.615.045-6.862 1.212-8.878 2.3-17.791 4.022-26.576 1.328-6.776 3.31-13.453 5.401-20.047 4.47-14.093 14.353-22.837 28.34-26.722 4.036-1.12 4.857-3.99 6.21-6.856.2-.421-.692-1.357-1.105-2.067l.067.042a8.565 8.565 0 0 0-.07-.05 2.89 2.89 0 0 1-.016-.025l1.746.868 2.429-4.66c-1.149 3.887-2.58 7.652-4.332 11.26-1.749 3.604-1.153 6.785 1.339 9.61 3.073 3.486 5.535 7.29 7.26 11.606 1.255 3.142 3.872 4.367 7.051 4.885.948.155 1.853.575 2.76.983-.49-.216-.981-.405-1.478-.421-4.089-.132-7.576-1.284-9.463-5.208-13.217 6.003-31.107 19.344-32.572 24.333 1.398-1.08 2.661-2.145 4.012-3.083 7.558-5.25 15.353-5.19 22.581.51 2.943 2.32 5.621 5.056 8.072 7.902 6.766 7.857 11.371 17.07 15.76 26.354 8.817 18.65 19.414 36.176 32.48 52.157 13.607 16.642 28.492 31.71 47.864 41.952 21.583 11.411 38.359 28.141 50.948 49.059.75 1.246 1.528 2.475 2.294 3.713l-.225.124-13.245-18.797-.63.424c.322.564.615 1.149.972 1.69 2.573 3.912 5.08 7.87 7.759 11.707 6.44 9.226 12.946 18.406 19.464 27.577 1.426 2.007 3.158 2.35 4.838 1.162 1.673-1.183 2.095-3.367.985-5.24-.307-.518-.692-.99-1.037-1.485l-12.942-18.593c-.502-.72-1.008-1.44-1.512-2.16l-.422.21.86 2.233c-.392-.698-.897-1.356-1.162-2.1-5.506-15.426-8.271-31.459-10.327-47.625-2.114-16.622-3.796-33.301-6.059-49.902-1.981-14.534-5.372-28.775-11.041-42.372-7.964-19.101-19.495-36.086-31.573-52.724-5.361-7.384-12.296-13.109-20.842-16.18-9.623-3.458-19.529-6.165-29.395-8.898-5.112-1.416-10.315-.944-15.384.815-1.468.51-1.933 1.223-1.357 2.789 9.415-.785 18.578.718 27.668 3.14 8.356 2.227 21.492 8.51 24.876 12.743-.524-.374-.883-.64-1.251-.893-14.971-10.294-31.545-15.116-49.697-14.601-1.416.04-1.964.464-2.374 1.968-.64 2.347-1.804 4.574-2.929 6.756-.48.933-1.423 1.628-2.239 2.523 6.7 3.722 11.568 9.002 15.32 15.187a733.468 733.468 0 0 1 16.27 28.243c8.672 15.845 18.604 30.715 31.377 43.624 11.368 11.489 20.865 24.462 29.244 38.268 11.298 18.617 20.417 38.343 29.594 58.039 2.189 4.697 4.346 9.409 6.518 14.114.27-.86.1-1.558-.189-2.206-8.856-19.906-17.296-40.013-26.71-59.653-9.786-20.419-22.414-39.014-39.23-54.479-.706-.65-1.44-1.27-2.16-1.903 1.44.49 2.51 1.326 3.536 2.212 13.195 11.392 23.609 25.06 32.2 40.106 15.241 26.69 26.807 54.988 36.195 84.208-2.004-4-4.019-7.994-6.011-12-7.957-15.998-15.699-32.109-23.913-47.974-10.7-20.67-23.302-40.113-39.65-56.835-11.927-12.198-21.803-25.804-29.907-40.77-4.886-9.022-9.836-18.012-14.91-26.93-3.672-6.45-7.837-12.563-13.692-17.318-4.267-3.465-4.258-3.476-8.749-.612.748-.72 1.416-1.552 2.256-2.14 4.473-3.13 7.191-7.248 7.427-12.816.07-1.659.178-3.32.154-4.98-.054-3.595.557-6.772 2.089-9.432h-.15c1.297-2.861 3.79-4.429 6.396-5.845 2.728-1.482 4.673-3.521 5.92-6.1.28-.676.519-1.38.725-2.103 1.437-5.049.578-10.03-.239-15.03-.79-4.839-1.79-9.679-.677-14.598.402-1.772.964-3.418 1.744-4.879 1.544-3.131 4.014-5.473 7.932-6.517 3.956-1.054 6.41.489 7.446 4.401.274 1.033.661 2.036 1.15 3.518 8.082-7.397 15.147-14.992 19.587-24.095.629-1.332 1.199-2.696 1.704-4.096-3.072-1.58-6.073-2.589-8.356-4.469-1.812-1.491-3.24-1.822-5.248-1.09a57.954 57.954 0 0 0-8.32 3.805 950.14 950.14 0 0 0-4.487 2.76 64.996 64.996 0 0 0-5.558 4.218 21.071 21.071 0 0 1 1.71-1.838l-1.704 1.052-.183-.233 5.264-3.541c.273-.189.549-.374.828-.557l6.854-4.61c-6.31-.955-8.004-.508-12.95 3.357-2.549 1.993-4.995 4.168-7.215 6.519-2.45 2.593-4.587 5.482-6.86 8.241.146-.24.295-.48.445-.72l-.225.273c4.742-7.79 10.856-14.166 18.88-18.636a1.708 1.708 0 0 0-.324-.01c-.525.042-1.052.11-1.566.22-9.262 1.992-16.106 7.483-21.07 15.258a107.682 107.682 0 0 0-6.46 11.673c-2.29 5.095-4.17 10.376-5.94 15.697-4.096 12.316-6.46 24.95-6.439 37.975h-.453c.043-.757.08-1.515.113-2.273a249.533 249.533 0 0 1-.381 3.815c.223-5.934.305-11.91 1.05-17.802 1.87-14.773 6.147-28.805 12.978-41.908a124.162 124.162 0 0 1 3.282-5.965c4.962-8.462 11.855-14.83 21.749-17.216 1.283-.31 2.595-.502 3.9-.72-.628-.354-1.178-.608-1.762-1.223-2.007-2.11-4.521-3.736-6.814-5.577-4.924-3.955-10.526-5.238-16.595-3.77-3.012.73-5.864 2.124-8.538 3.124.247-.197.495-.387.742-.569-.239.13-.478.26-.716.393 5.997-4.302 12.503-5.682 19.637-3.713-4.657-2.923-9.058-5.39-14.262-5.445-9.63-.101-17.099 4.184-22.553 12.075-1.086 1.57-2.248 3.086-3.376 4.626l-.048.087.074-.095-.894 1.605 3.831-.83c-.287.214-.61.414-.96.596l.739-.16c-1.805 1.352-5.054 2.127-7.975 1.74-1.03-.137-1.853-.097-2.356.626-.026.078-.05.16-.073.248-1.316 5.246-2.802 10.452-3.988 15.726-1.192 5.309.228 10.323 2.466 15.1 1.656 3.535 3.55 6.958 5.337 10.43a158.92 158.92 0 0 1-1.676-2.358c.488.93.975 1.861 1.455 2.795-4.467-6.194-8.676-12.544-9.212-20.455-.17-2.509.105-5.132.671-7.587 1.047-4.535 2.449-8.99 3.726-13.47.11-.385.25-.734.43-1.034.476-1.124 1.336-1.78 2.764-1.412 2.368.61 4.28.033 5.791-1.813.392-.839.794-1.675 1.216-2.498 2.07-4.125 4.584-7.992 8.523-10.46 4.3-2.694 9.135-4.535 13.702-6.66a11.93 11.93 0 0 0-1.19-.048c-12.584.073-24.521-2.642-35.94-7.954a372.94 372.94 0 0 0-21.198-9.079c-6.681-2.619-13.661-2.736-20.622-1.538a3.798 3.798 0 0 1-.006.019c.224 1.623.416 3.124.651 4.619 2.987 18.976 9.294 36.715 20.404 52.478 3.627 5.146 8.314 9.532 12.32 14.426 4.796 5.857 8.726 12.063 5.962 20.22-.451 1.332 2.04 3.722 3.293 3.242 3.725-1.431 7.043-3.45 9.187-6.945.259-.636.338-1.382.53-2.06.05-.057.1-.114.152-.17.021-.09.044-.179.069-.266l1.646-1.876c-.057.411-.065.933-.206 1.415a16.405 16.405 0 0 1-1.156 2.913c-1.763 3.725-4.822 6.224-8.732 7.96-1.698.754-2.812 1.54-3.436 2.56-.52 1.168-.495 2.65-.08 4.769.608 3.099 1.569 6.127 2.286 9.206.723 3.11 1.743 5.999 4.686 7.72-.628-.35-1.384-.628-2.008-.98.378.401.804.775 1.286 1.115-1.123-.707-2.416-1.296-3.11-2.3-2.215-3.202-5.762-3.25-8.93-4.196-.275-.082-.875.628-1.202 1.062-.329.437-.656.874-.981 1.312-.973 1.455-1.906 2.938-2.864 4.403h-.38c-2.04 2.773-4.092 5.533-6.264 8.196-2.545 3.12-6.117 4.996-10.068 5.712-16.384 2.97-31.417 9.485-46.03 17.186-11.414 6.014-23.02 11.678-34.298 17.934-9.46 5.247-17.822 11.98-23.733 21.27-1.568 2.464-2.686 5.211-4.085 7.789-.822 1.516-1.768 2.969-2.699 4.424-.65 1.016-1.459 1.937-2.037 2.989-1.422 2.582-.929 3.508 1.94 3.828 4.937.55 8.766 2.807 12.312 6.41 4.31 4.377 7.251 9.388 9.603 14.911.406.956 1.043 1.844 1.708 2.652 1.332 1.62 3.137 2.115 4.836.9 6.066-4.337 10.718-9.812 12.119-17.35.771-4.153-1.564-7.64-5.543-9.314-2.231-.94-2.665-1.785-2.068-3.025.698.71 1.36 1.916 2.338 2.29 5.44 2.084 8.17 6.835 6.584 12.638-1.835 6.715-5.905 12.048-11.5 16.09-3.477 2.514-6.888 1.74-9.042-1.984-1.616-2.79-2.737-5.865-4.103-8.803-.3-.646-.706-1.243-1.555-1.648l4.607 12.337-.232.133c-1.053-2.11-2.185-4.185-3.137-6.34-1.004-2.274-1.831-4.627-2.741-6.943-3.062-7.794-8.862-11.584-17.156-11.452-4.978.079-9.949.561-14.928.664-4.838.1-9.472-.819-13.522-3.747l-.555.388c1.489 2.219 2.81 4.576 4.504 6.626 3.097 3.747 7.384 5.77 11.946 6.984 8.263 2.198 15.175 6.405 21.114 12.551 2.689 2.781 6.057 4.905 9.101 7.452-2.278-1.485-4.928-2.611-6.769-4.52-7.527-7.798-16.314-13.28-26.839-16.033-2.03-.53-3.862-1.822-5.86-2.642 6.597 5.629 11.584 13.216 20.2 16.333-7.32-2.182-12.481-7.319-17.41-12.779 5.636 13.228 13.82 23.575 29.105 25.791 11.394 1.652 22.64.563 33.585-2.757 15.33-4.65 17.06-20.533 10.679-29.88-.21-.306-.464-.58-.91-.883 5.172 9.98 5.03 18.84-5.29 25.52.284-.316.537-.668.856-.943 8.687-7.494 9.388-17.691 1.831-26.483-3.084-3.589-7.088-5.698-11.396-7.568.865.217 1.745.39 2.594.657 16.368 5.172 21.854 22.817 11.427 36.842-6.782 9.122-16.225 14.038-27.006 16.639-9.79 2.361-19.6 2.216-29.375-.287-2.052-.525-3.51-1.635-4.475-3.49-3.167-6.09-6.437-12.128-9.478-18.28-1.056-2.138-1.784-4.503-2.268-6.846-1.065-5.16-3.385-9.643-6.668-13.694-8.601-10.615-10.543-22.203-5.08-34.87.26-.603.494-1.217.813-2.006-3.42 1.97-6.559 3.967-9.86 5.645-7.54 3.836-15.842 4.824-24.064 5.85-6.808.85-13.692 1.074-20.525 1.75-6.545.65-11.48 4.165-14.91 9.581-4.86 7.67-8.225 15.967-8.907 25.131-.335 4.49.67 8.733 3.573 12.312 2.406 2.966 6.225 4.96 5.888 10.073-2.605 2.594-6.299 2.985-10.317 1.655-3.996-1.324-7.036-4.073-9.902-6.99a43.366 43.366 0 0 1-4.349-5.215c-2.643-3.707-4.798-7.554-5.013-12.37-.251-5.645-1.354-11.26-1.46-16.898-.052-2.803.923-5.802 2.097-8.414 2.067-4.596 4.407-9.11 7.063-13.391 3.774-6.085 9.065-10.462 15.616-13.628 12.281-5.934 21.053-15.49 26.875-27.786.096-.204.17-.42.25-.631 4.597-12.115 13.94-17.464 26.327-18.482.703-.057 1.4-.192 1.993-.276-2.738-1.998-5.968-3.465-7.887-5.945a26.69 26.69 0 0 0-1.288-1.54h-.092zm474.506-105.76c-4.578-.203-9.173-.037-13.787-.037l-.002.056c.42.092.901.126 1.445.118 4.18-.06 8.363-.119 12.545-.127l-.201-.01zm-120.5 35.364c2.998-2.345 6.126-4.524 9.308-6.848-.285-.116-.494-.217-.715-.263-.96-.2-1.921-.409-2.892-.55-9.239-1.338-18.528-1.307-27.82-.907-.972.041-2.052.512-2.855 1.097-11.499 8.373-21.117 18.446-28.71 30.36a105.588 105.588 0 0 0-3.14 5.407c-.503.926-.774 2.197-.617 3.225 1.027 6.706 1.983 13.437 3.39 20.069 1.343 6.326 3.205 12.542 4.84 18.806h-.542c3.987 14.288 8.887 28.3 14.35 42.142.179.455.399.893.6 1.34.345-.67.385-1.25.339-1.823-1.32-16.22-1.057-32.428-.028-48.66.83-13.107 4.157-25.21 10.45-36.118 5.972-10.583 14.169-19.551 24.042-27.277zm-65.254 16.067c.434 1.333.341 2.836.503 4.26 1.923 16.862 4.743 33.568 8.736 50.07h-.265a552.417 552.417 0 0 0 4.398 17.53c2.19 8.178 6.789 14.345 12.787 20.73-12.657-33.722-22.635-67.402-22.181-103.341-1.222 1.26-1.972 2.598-2.998 3.671l-.112.12c-1.207 1.99-1.767 4.193-.868 6.96zm6.971 54.33c-.336-1.668-.675-3.335-1.012-5.002l-4.549-19.145c-2.64 7.867-3.964 15.875-3.51 24.146h-.38c.011 5.198.415 10.416 1.049 15.646.067.554.53 1.275 1.014 1.53 4.581 2.423 9.208 4.762 13.27 6.842l-5.706-24.018h-.176zm-37.958-35.743c.537 4.267 1.36 8.503 1.751 12.781.373 4.084.025 7.82-1.42 11.033-1.347 3.303-3.808 6.064-7.82 8.03-.666.327-1.302.736-1.907 1.176-.871.856-1.661 1.875-2.538 2.722h-.176a10.061 10.061 0 0 0-1.72 4.945l41.188 10.49c-.067-.821-.13-1.861-.24-2.895-1.315-12.426-1.128-24.776 2.672-36.744.299-1.068.619-2.131.96-3.192.8-3.368.768-6.631.101-10.047-.36-1.848-.544-3.731-.775-5.602-.543-4.392-1.067-8.786-1.587-13.086-3.345 3.16-6.534 6.252-9.813 9.244-2.998 2.735-6.231 2.422-8.814-.737-.382-.466-.697-.986-1.051-1.475-2.132-2.941-4.342-2.9-6.418.149-.354.52-.67 1.047-.95 1.581-1.764 3.612-1.954 7.56-1.443 11.627zm-9.043-57.871c-1.17.014-2.305.123-3.413.314 2.432-.203 5.307-.071 8.899.366-1.734-.479-3.563-.703-5.486-.68zm-64.122 93.613c1.931-1.836 3.887-3.648 5.792-5.51.36-.412.723-.818 1.095-1.21.224-.238-.23-1.52-.704-1.942-1.494-1.333-3.147-2.488-4.738-3.712l.257-.415-.014-.011.385-.612 5.953 3.419c.77-2.88-1.014-7.022-3.845-8.207-6.818-2.853-13.686-5.591-20.459-8.549-5.96-2.603-12.197-3.895-18.625-4.176-13.666-.599-24.809-6.144-33.825-16.384-6.336-7.194-11.282-15.307-16.243-23.424-6.94-11.356-16.79-18.793-29.6-22.384-9.83-2.756-19.456-6.036-28.21-11.46-.093-.058-.208-.08-.36-.097.445.615.773 1.156 1.252 1.442 2.375 1.418 1.248 3.399.959 5.241-.04.253-.179.602-.353.792-.101.257-.372.546-.598.614-1.617.485-3.271.845-4.887 1.333-3.063.927-5.564 2.736-7.042 5.498-1.266 2.577-2.528 5.344-2.86 8.136-.584 4.935-3.15 9.931-.271 14.949.589.512 1.177 1.025 1.764 1.54 11.33 5.75 22.492 11.417 33.054 16.78l-33.054-16.78c2.722 2.383 5.434 4.78 8.22 7.088 1.319 1.093 2.885 1.889 4.339 2.819l-.258.413.037.024-.319.509c-2.777-1.821-5.727-3.432-8.28-5.526-2.278-1.869-4.118-4.272-6.15-6.439-.25.101-.636.176-.857.283-.41 2.276-.397 4.425 1.846 6.012 3.717 2.63 7.366 5.355 11.043 8.04l-.273.399.052.037-.307.45-12.59-8.85c.263 1.413.343 2.762.992 3.731 2.46 3.675 4.846 7.51 7.91 10.647 5.637 5.77 12.944 9.024 20.317 12.027l2.934 1.192 2.619 1.068c-1.36-.352-2.71-.721-4.044-1.113 1.298.535 2.597 1.07 3.89 1.616-13.57-3.535-26.065-8.742-33.685-21.988 0 .864.125 1.66.259 2.455 3.021 17.873 20.607 36.606 44.943 32.72 9.458-1.51 18.91-3.076 28.4-4.366 8.568-1.165 17.155-.982 25.71.453 14.333 2.403 28.328 6.67 42.95 7.539 4.214.25 8.23 1.84 11.027 3.451-.606-.13-1.235-.28-1.883-.441.59.285 1.146.579 1.661.873-3.83-.82-8.549-2.475-13.34-2.722-11.126-.575-22.09-1.867-32.886-4.626-10.044-2.566-20.252-3.538-30.553-2.234-8.602 1.089-17.152 2.592-25.729 3.89-6.29.953-12.6 1.526-18.938.478-7.79-1.289-14.33-4.986-19.924-10.47-8.536-8.368-13.208-18.89-16.673-30.082l1.314 2.86c-.372-1.085-.732-2.178-1.08-3.278.974 2.129 1.95 4.258 2.925 6.386.02-.025.037-.05.055-.074a.959.959 0 0 0 .017-.51c-2.344-11.315-1.585-22.565 1.164-33.662.46-1.856 1.1-3.568 1.942-5.097 2.01-3.894 5.275-6.712 10.276-7.793.952-.206 1.887-.526 2.796-.881.642-.251 1.096-.565 1.361-.948.16-.525.036-1.143-.35-1.844-1.19-2.157-2.95-3.62-5.33-4.252-5.087-1.351-9.46.216-13.587 3.19-2.485 1.79-5.044 3.653-7.852 4.778-4.31 1.726-7.701 4.178-9.81 8.369-1.884 4.042-1.46 8.287-.886 12.438.366 2.652 1.693 5.171 2.588 7.75l-.193.106-.41-.735c.13.34.257.68.377 1.022l-.212.106-3.208-5.716c-.053 2.802-.322 5.25.101 7.571.601 3.293 1.681 6.54 2.91 9.666 1.345 3.425 3.244 6.63 4.628 10.044 1.348 3.326 2.834 6.713 3.41 10.214 1.447 8.8 5.464 15.715 13.748 19.343 5.212 2.282 10.736 3.952 16.248 5.417 4.407 1.172 8.975 2.395 13.615 1.21 8.55-2.185 17.208-1.97 25.887-1.371 9.358.645 18.69.95 28.011-.598 12.218-2.028 24.16-1.878 35.524 4.14 4.93 2.61 10.41 3.39 16.046 2.982 2.701-.195 5.434-.075 8.146.04 4.254.181 9.7 1.623 11.824 3.153-.216-.07-.432-.136-.647-.199-2.518-.035-4.953-.521-7.314-.28-3.131.32-6.294.964-9.278 1.961-9.251 3.092-18.304 2.965-27.456-.514-5.496-2.089-11.192-3.785-17.21-3.354-6.24.448-12.19 1.858-17.882 4.034l-.225.098h-.03c-3.736 1.446-7.36 3.221-10.884 5.27-4.58 2.665-8.337 6.275-9.53 11.78-.269 1.241-.236 2.548-.342 3.825l.7.369c4.259-9.56 12.378-14.033 21.623-17.027-9.007 3.952-17.698 8.27-21.418 18.356l-.925-1.076c-.12 1.269-.071 2.118-.295 2.888-.901 3.094-1.227 6.658-3.048 9.086-1.47 1.96-4.68 2.893-7.302 3.634-2.716.767-5.645.879-8.494 1.056-5.124.32-10.28.366-14.978 2.866-11.42 6.078-17.716 16.039-21.096 28.12-.826 2.953-1.383 6.035-.26 9.246 2.882-9.593 8.49-17.097 16.127-23.167-.604.815-1.35 1.513-2.085 2.223-5.226 5.044-9.38 10.847-12.213 17.545-1.07 2.53-1.766 5.126-.315 7.84 2.651 4.96 10.728 7.893 15.962 5.772 4.186-1.696 7.424-4.58 10.23-8.014 1.19-1.456 2.303-2.973 3.452-4.463-3.063 5.824-7.218 10.562-13.892 13.315 9.964.057 11.975-1.075 16.669-9.067.344-.585.664-1.186.976-1.788 1.176-2.275 2.285-4.586 3.526-6.824 5.978-10.786 14.973-18.58 25.51-24.495 11.443-6.423 23.213-12.264 34.871-18.299 1.905-.986 3.819-1.949 5.742-2.883l-48.949 22.663c23.425-12.803 47.65-23.872 72.5-33.568l-16.396 7.592c10.04-4.406 20.416-7.89 31.391-9.733 2.171-.365 4.292-1.42 6.267-2.47 3.338-1.778 5.33-4.799 7.228-8.42-3.069.708-5.63.761-8.045-.508 1.138-.14 2.255-.018 3.373-.022 2.152-.007 3.875-.642 5.362-1.622h-.278zm-157.367-66.677l-.03.012c.073.144.152.288.234.432l.962.838a64.477 64.477 0 0 0-1.166-1.282zm129.7 66.677l11.564-2.52c.258-.13.51-.265.757-.404-8.536 1.83-17.075 2.946-25.625.923l7.861 2.001h-.295c2.71.289 5.478.288 8.122 0h-2.384zm-58.51 0c7.772-4.075 16.176-6.003 24.78-7.179 3.44-.47 6.903-.759 10.36-1.097-14.14-.294-27.423 2.758-40.476 7.126-.94.392-1.88.782-2.828 1.15h-2.735c-6.532 1.873-13.048 3.8-19.57 5.709 5.499-1.876 10.979-3.836 16.48-5.709h-1.432c16.142-5.34 32.35-10.34 49.539-10.293-13.195-1.537-25.972 1.841-39.021 4.032l2.01-.73c-.547.093-1.094.186-1.64.275l3.498-1.334c-1.292-.274-2.558-.355-3.825-.395-9.942-.314-19.875-1.799-29.833-.266-.966.15-2.07.144-2.851.628-3.75 2.325-7.586 4.567-11.063 7.262-5.947 4.61-12.61 7.415-19.971 8.392-7.475.992-15 1.617-22.514 2.302-11.326 1.032-19.912 5.8-24.43 16.844-2.56 6.258-6.463 11.763-11.175 16.65-.999 1.037-2.031 2.041-3.048 3.06l.293.353 21.054-16.08.326.446-20.235 15.717c.85-.128 1.583-.464 2.316-.8 6.1-2.798 12.075-5.914 18.32-8.338 25.654-9.96 51.379-19.74 77.103-29.518 6.759-2.57 13.61-4.899 20.418-7.338-.583.31-1.142.68-1.752.919-19.73 7.718-39.46 15.432-59.199 23.127-18.613 7.257-37.516 13.801-55.503 22.598-1.015.496-2.014 1.027-3.02 1.542l.166.348 8.642-1.367c-1.874.708-3.794 1.082-5.702 1.513-1.837.417-3.683.82-5.485 1.363-1.748.527-3.445 1.223-5.165 1.844 2.24.684 4.3.71 6.274 1.137 5.008 1.081 9.954 2.458 14.968 3.508 16.048 3.363 31.347 1.62 45.668-6.817 5.85-3.446 11.732-6.858 17.766-9.963 2.907-1.496 6.123-2.725 9.332-3.224 5.18-.807 10.462-1.076 15.713-1.269 6.288-.23 11.333-6.229 10.045-12.535-6.364 4.57-13.485 7.277-20.899 9.298.782-.46 1.641-.74 2.455-1.117 5.802-2.695 11.611-5.375 17.367-8.164.677-.329 1.32-1.229 1.502-1.98.444-1.822.632-3.71.856-5.58.03-.252-.328-.55-.507-.825h-.007l.005-.002.004.003 3.186-5.106-30.57 12.33-.226-.548c.579-.264 1.149-.551 1.738-.79 8.042-3.245 16.02-6.663 24.155-9.654 4.472-1.644 7.918-4.476 11.169-7.8-21.632 7.613-42.049 18.34-63.166 25.088 12.63-5.278 25.947-10.946 39.346-16.41 10.382-4.232 20.899-8.132 31.293-12.336h-.299zm-53.066 0c1.159-.827 2.358-1.605 3.466-2.496.895-.72 1.726-1.52 2.569-2.303l-15.225 1.926-.036-.304c4.6-.57 9.2-1.151 13.804-1.699.488-.058.99.005 1.492.044.153-.142.306-.283.46-.423a7.182 7.182 0 0 1-.076-.007l.096-.012.036.023.009.006 1.56-.94c-5.6-.382-11.166.121-16.598-.516-14.46-1.694-28.855-3.928-43.28-5.92-3.083-.425-6.182-.734-9.273-1.097l-.004.011 11.724 7.572.076-.07-3.743-4.93.367-.28-.122-.163.176.122.151-.116c.14.179.28.357.422.535a19.1 19.1 0 0 1 3.66 3.648c1.825 2.393 3.476 4.92 5.2 7.39h-.523c1.423 1.675 3.046 3.135 5.082 4.137 2.587 1.274 5.43 2.644 8.211 2.767 4.488.199 9.034-.48 13.53-1.008 2.936-.345 5.827-1.08 8.738-1.64l-.101-.677c-6.03.223-12.016.077-17.754-2.073.956.1 1.893.31 2.828.527 8.46 1.96 16.63 2.407 23.87-2.034h-.792zm491.917-83.495l.214.247a3.078 3.078 0 0 1-.214-.247zM299.58 342.366zm-75.295-64c-.02.35-.194.807-.036 1.032 1.79 2.544 3.633 5.053 5.461 7.571l.26-.173-1.756-2.614c-.007-.573.214-1.307-.058-1.692-1.665-2.357-3.441-4.635-5.18-6.94l-.346.254 1.655 2.562zM91.188 288.973c-.519-.14-1.031-.265-1.47-.187l1.248.623c-.876-.237-1.733-.429-2.252.324a3.29 3.29 0 0 0-.118.395c2.512.811 4.96 1.678 7.458 2.357.59.16 1.298-.118 1.973-.275l-.295-1.602c-1.056-5.235-3.882-7.73-8.524-7.54l.578 5.204 1.402.7zm35.407-54.395l1.562.622.052-.124c-1.094-.596-2.452-.955-3.238-1.828-3.439-3.825-7.9-4.57-12.562-4.048-3.723.416-7.33 1.937-11.051 2.265-2.572.227-4.782 1.983-6.102 4.438a11.1 11.1 0 0 0-.675 7.749l.58-1.357v.082l.222-.519v11.653l.697.167c.207-.5.431-.978.673-1.436 2.4-4.897 6.648-7.542 11.766-9.29 1.796-.614 3.436-1.87 4.955-3.076 2.519-1.999 5.187-3.536 8.216-4.221-1.754.244-3.504.513-5.232.881-1.696.361-3.258 1.348-4.897 1.988.67-.46 1.35-.876 2.04-1.25-.602.286-1.205.574-1.818.814 4.473-3.074 9.416-4.198 14.797-3.512-.656.097-1.313.188-1.97.277.398.022.798.054 1.2.096.26-.127.519-.267.778-.372h-.008l.017-.003zm-1.813.692c.179-.005.357-.046.534-.108l-.871.12c.111-.005.224-.01.337-.012zm105.329 71.775l18.637 3.836.07-.201c-7.807-3.85-15.435-7.985-22.214-13.48a289.32 289.32 0 0 0 5.582 3.533 78.91 78.91 0 0 1-5.36-3.97c7.807 5.061 15.782 9.794 24.44 13.692-8.496-6.63-16.951-12.907-24.95-19.72-10.333-8.797-20.279-20.688-21.975-25.323.406.543.816 1.082 1.228 1.617-.456-.789-.798-1.485-1.012-2.067 7.433 9.955 15.997 18.47 25.388 26.15-10.73-11.467-20.578-23.614-29.083-36.533 0 .247.002.494.004.742.636 3.54.896 6.922-.58 9.806-.716 1.766-2.076 3.158-3.816 4.276l.804 1.447c-.32-.254-.59-.47-.825-.65l.604 1.086c-1.112-.6-1.867-2.326-3.484-1.331 5.974 9.87 11.762 19.823 20.193 27.86 3.946 3.761 8.24 7.07 13.457 8.915.89.315 1.924.22 2.892.315zm53.549 15.921c1.112-1.928 2.093-4.345 3.688-6.246.689-.821 1.25-1.65 1.694-2.487 1.655-3.447 1.334-7.034-.397-10.812-.689-1.504-1.361-3.107-2.425-4.33-3.413-3.921-7.033-7.662-10.522-11.518-4.04-4.465-8.587-8.599-11.93-13.542-9.911-14.662-15.956-31.064-20.242-48.153-.174-.692-.397-1.372-.682-2.348-3.398 1.197-6.506 2.33-9.642 3.378-.552.184-.936.41-1.166.721-.075.33-.04.722.063 1.184 1.286 5.814 2.304 11.697 3.807 17.454 4.221 16.18 9.54 31.95 18.425 46.287.075.123-.008.344-.044 1.048l-.162-.266c-.016.157-.043.378-.06.702-12.585-20.605-18.763-42.936-23.367-66.185-2.751 1.531-5.401 2.943-7.967 4.494a.966.966 0 0 0-.29.29 5.607 5.607 0 0 0-.26.995c-.48 2.672-.615 5.434-1.367 8.02-1.54 5.29-.651 10.05 1.982 14.79 1.518 2.734 2.854 5.717 3.51 8.752 2.223 10.269 6.191 19.688 12.595 28.039 2.848 3.714 6.04 7.075 10.073 9.554l-4.575-6.649.25-.135.638.727-.731-1.047.254-.175 8.105 9.214c-1.307-2.287-2.84-4.377-4.247-6.549-1.723-2.657-3.288-5.421-4.842-8.183-1.539-2.732-2.978-5.52-4.46-8.284a26.862 26.862 0 0 1 1.627 2.207c-.466-.877-.93-1.755-1.4-2.63 3.332 4.986 6.27 10.176 9.38 15.259 5.812 9.496 12.976 17.706 23.228 22.581 3.295 1.567 6.924 2.432 10.845 3.731l-.363-1.91.584 1.984.147.05-.551-2.44.797 2.428zm-102.015-73.593c-.065.21-.248.478-.177.62 2.093 4.199 4.21 8.384 6.403 12.726.1-.13.189-.255.266-.379.774-1.622-.475-2.75-.96-4.003.182.047.336.075.466.086a5.472 5.472 0 0 1-.245-.523c.434.112.708.115.874.049-.026-.329-.233-.747-.27-.984-.562-3.574-1.221-7.132-1.833-10.698-1.43-8.333-2.732-16.677-1.663-25.173.346-2.75-.038-5.336-1.027-7.953-.95-2.514-1.463-5.194-2.168-7.801h.119c-2.39-9.453-3.488-19.077-2.812-28.966-.17 12.522 1.94 24.614 6.521 36.864.25-.287.301-.534.36-.778.568-2.374 1.139-4.747 1.709-7.12h.038l2.38-10.165.002.01c.044.316.125.625.306 1.49 4.15-10.172 9.46-18.967 16.887-26.426-1.061-1.935-2.232-3.71-3.056-5.633-3.954-9.234-4.905-18.393-.639-27.586l-15.174 8.081c5.563-8.598 17.15-16.707 26.492-17.56l-2.663 2.23c2.763-1.231 5.59-2.337 8.386-3.47 8.697-3.523 10.945-2.533 16.474 4.968 3.555 4.823 11.004 6.83 15.615-.664-4.43-.167-7.859-2.418-11.072-5.139-2.19-1.854-4.325-3.783-6.617-5.502-3.903-2.924-8.157-3.386-12.568-1.215-2.639 1.298-5.202 2.75-7.797 4.138-3.985 2.132-8.184 3.045-12.679 2.19-2.815-.535-5.652-.994-8.422-1.708-7.892-2.035-14.547-.229-20.123 5.839-8.156 8.874-14.514 18.892-19.496 29.823-.068.15.037.379.084.752l1.805-2.254c-1.2 2.798-2.643 5.422-4.144 8.013-4.025 6.949-5.379 14.426-2.814 22.006 2.963 8.76 6.505 17.346 10.18 25.84 4.747 10.974 11.822 20.873 14.663 32.756 1.249 5.222 5.733 9.71 10.974 12.228a24.53 24.53 0 0 0-.623-1.252c-1.661-3.043-3.413-6.04-4.995-9.123-7.29-14.21-14.533-28.443-21.793-42.667h.494c-2.252-4.962-3.987-10.111-4.525-15.65-.672-6.905.047-13.626 2.652-20.09.074.299.02.576-.06.845-3.217 10.867-2.698 21.587 2.17 31.793 5.638 11.819 11.74 23.417 17.688 35.087 2.065 4.052 4.267 8.034 6.407 12.048zm8.828-99.015c-3.23 6.747-4.363 13.914-4.1 21.346-.867-9.093.781-17.348 5.166-24.78.798-.573 1.471-1.145 1.872-1.714a40.622 40.622 0 0 0-2.938 5.148zm1.066-3.435c-.367.263-.762.527-1.168.79l1.393-1.167-.225.377zm-6.666 5.395c.276-1.503 3.099-3.05 5.498-4.605zm8.538-7.108zm385.096-23.387c3.427-.65 5.743.121 7.061 3.306 1.241 2.998 1.712 6.322 2.447 9.52.318 1.379.45 2.801.734 4.652 2.694-1.828 3.6-3.882 3.81-6.293.475-5.455-2.32-9.24-6.536-12.118-6.322-4.313-13.468-5.084-20.846-4.278-10.38 1.134-20.132 4.622-29.702 8.532-30.032 12.272-55.291 31.057-75.873 56.134-.465.566-.991 1.083-1.489 1.622 5.966-8.637 12.947-16.348 20.61-23.433 19.857-18.362 42.606-31.85 68.293-40.36 8.353-2.767 16.81-4.977 25.724-4.365 2.33.16 4.638.636 7.228 1.006-2.466-2.85-4.566-5.64-7.053-8.027-1.754-1.682-3.905-3.086-6.11-4.123-2.454-1.154-5.027-.744-7.245.997-2.557 2.007-5.103 4.028-7.686 6.067 1.49 0 3.073-.065 4.65.019 1.503.079 2.998.312 4.497.477-23.406-.04-44.298 7.178-62.891 21.304 9.163-9.27 20.402-14.937 32.895-18.92-.61-.763-1.01-1.394-1.533-1.897-5.505-5.29-12.115-6.708-19.456-5.464-6.682 1.132-12.514 4.309-18.203 7.753-19.258 11.66-35.784 26.721-52.16 41.971-6.325 5.89-9.3 13.207-9.663 21.73-.034.8-.126 1.944-.638 2.32-2.242 1.651-2.6 4.285-3.69 6.512-3.486 7.132-7.691 13.747-12.832 19.804-.584.734-1.055 1.32-1.253 1.556-2.936 3.489-5.564 7.177-7.626 11.185-.43.845-.836 1.7-1.22 2.564-.433.99-.831 2-1.19 3.031-.873 2.506-1.588 5.067-2.282 7.636a58.73 58.73 0 0 0-.85 4.931c.692-.659 1.357-1.35 2.03-2.028l.848-1.138c.36-.228.725-.449 1.087-.675.262-.22.53-.434.805-.636a93.482 93.482 0 0 1 2.577-1.825c1.552-1.21 3.108-2.408 4.837-3.211.76-.5 1.52-1 2.274-1.505 1.613-1.08 3.484-1.916 4.784-3.292 4.334-4.586 8.515-9.318 12.718-14.027.882-1.167 1.76-2.336 2.65-3.497h.31c.277-.354.554-.708.836-1.057l.563.504-7.9 9.1-8.115 9.77c3.564-1.116 6.468-3.4 8.868-6.43l-.407 1.01c2.724-1.788 5.147-3.88 7.544-6 10.115-8.945 21.504-15.823 34.14-20.517 4.488-1.666 9.19-2.954 13.905-3.749 5.042-.85 9.333-2.307 12.268-6.88 5.603-8.728 13.59-14.235 23.716-16.493 4.117-.919 8.306-1.51 12.46-2.258 6.714-1.21 12.667-3.666 17.025-9.34 1.198-1.56 3.267-2.711 5.17-3.42 7.026-2.615 12.091-7.225 15.336-13.945 2.233-4.626 4.01-9.535 8.357-13.352l-1.351.114c.913-.196 1.826-.4 2.743-.574zm-162.073 42.113a1.664 1.664 0 0 0-.02.017l.043.09-.023-.107zm-2.667-10.675c.112-1.075 1.006-2.534 1.919-2.916.745-.312 2.195.53 3.07 1.203.839.646 1.34 1.73 2.384 3.165-.11-1.46-.078-2.336-.258-3.166-.718-3.312-1.591-6.593-2.231-9.92-.395-2.055-.672-4.174-.633-6.258.033-1.814 1.179-3.11 3.104-3.335 1.734-.201 2.698.919 3.125 2.385.799 2.739 1.467 5.517 2.135 8.29 1.512 6.275 2.992 12.557 4.484 18.836 1.543-3.785 2.554-7.485 3.63-11.166 2.825-9.656 5.23-19.433 5.12-29.54-.122-11.385-.404-22.796-1.309-34.14-1.524-19.096-3.478-38.162-5.493-57.214-.798-7.54-2.724-14.852-7.328-21.138-2.182-2.98-4.82-5.47-8.497-6.436-2.016-.53-4.186-1.02-5.761 1.11l-4.848 1.064v1.347l-.253-.007V3.181c-2.273-.979-4.008-.037-5.3 1.507-2.175 2.601-4.255 5.304-6.145 8.119-19.589 29.153-32.471 61.023-38.436 95.645-1.344 7.803-2.537 15.652-1.627 23.636.683 5.985 1.67 11.972 1.806 17.973.139 6.169-.491 12.364-.965 18.534-.58 7.558.728 14.692 4.044 21.516 6.482 13.336 12.978 26.68 12.798 42.058-.005.438.516 1.085.953 1.29 1.3.61 2.676 1.063 4.224 1.644.117-.382.24-.778.27-1.18.356-4.728.65-9.46 1.015-14.187.194-2.498.403-4.994.616-7.49.418-6.631.818-13.263 1.107-19.9.21-4.833-.384-9.499-3.673-13.62-1.507-1.888-2.163-4.635-2.665-7.102-.622-3.057 1.433-4.566 4.336-3.541.324.114.657.2 1.58.478-1.134-4.494-2.327-8.53-3.149-12.64-1.213-6.065-5.32-10.65-7.902-16.008-1.321-2.743-3.279-5.23-5.217-7.614-1.897-2.334-4.204-4.33-6.202-6.587-1.766-1.996-2.618-4.394-2.353-7.106.228-2.329 1.193-3.167 3.271-2.196 2.695 1.259 5.512 2.628 7.66 4.616 5.215 4.828 9.399 10.406 9.604 18.177 2.453-.993 4.601-3.512 7.462-.294l1.087-10.293.363.03-.604 8.537c4.419-.56 5.073-.073 8.065 6.115-1.08-25.972 3.989-50.484 10.486-74.785-1.89 10.357-3.95 20.685-5.923 31.031-1.837 9.64-4.145 28.09-3.48 31.305.46-.555.837-1.121 1.322-1.572 1.59-1.482 3.406-2.276 5.563-1.358 1.981.843 2.455 2.572 2.268 4.503-.517 5.326.864 10.293 2.55 15.264 1.486 4.381-.068 6.2-5.299 5.816 6.269 14.68 4.041 29.34.749 44.025.6-.848 1.036-1.72 1.494-2.58 4.534-8.525 9.014-17.078 13.653-25.545.99-1.806 1.85-3.412.853-5.425l.028-.024c-1.614-3.387-3.048-6.863-2.647-10.692zm3.468 9.914c.112-.907.04-1.837.04-2.759l.674-.026c.09.769.134 1.546.278 2.305.738 3.886 1.247 7.843 2.367 11.618.54 1.82 2.055 3.506 3.508 4.838.739.679 2.637.957 3.426.47.765-.472 1.203-2.23 1.024-3.294-.267-1.58-1.19-3.052-1.859-4.56-1.55-3.5-3.137-6.98-4.663-10.49-1.137-2.618-2.034-5.357-3.385-7.855-.491-.91-1.983-1.28-3.019-1.896-.344 1.006-.809 1.99-.991 3.024-.125.708.09 1.496.243 2.23.497 2.39 1.034 4.772 1.556 7.156.3-.25.766-.479.8-.761zM556.622 319.43c.263-.027.377-.006.406-.046.14-.194.283-.389.404-.595 5.924-11.839 8.429-24.38 7.494-37.607-.792-11.22-4.107-21.774-8.887-31.858-7.355-15.515-15.907-30.336-26.391-43.985h.4c-6.053-7.327-13.398-12.9-22.89-15.046-14.437-3.265-28.347-.917-41.918 4.328-8.909 3.444-16.28 9.298-23.621 15.151-.865.823-1.673 1.56-2.366 2.12-8.813 7.135-17.747 14.005-28.355 18.476-3.137 1.322-5.712 4.072-8.364 6.38-.326.744-.47 1.637-.333 2.287.133.626 1.864 1.27 2.89 1.292 5.727.12 11.457.057 17.185.05 6.099-.006 12.198-.012 18.296-.035.37-.002.74-.049 1.109-.1h-12.638c3.352-.245 6.718-.328 10.072-.474h-9.799c6.26-.423 12.569-.304 18.755-1.115 11.363-1.491 22.652-3.545 33.977-5.33 2.235-.353 4.489-.598 6.742-.814 2.154-.207 4.319-.312 6.479-.462l-.02.058-5.481.744c1.762-.201 3.524-.401 5.285-.615l.028.303-19.366 2.618.005.236c10.45-.838 20.497.66 30.064 4.942 9.487 4.246 17.507 10.36 23.832 18.616-.736-.488-1.34-1.131-1.948-1.77a85.019 85.019 0 0 0-1.796-1.832 80.27 80.27 0 0 1 3.525 3.961c-.776-.456-1.418-1.14-2.065-1.817-12.832-13.425-28.44-21.168-47.09-20.55-12.5.415-24.936 2.715-37.4 4.192l.012.31h14.422l-.003.64h-.249l-.001.404h-30.21l-.014.218 53.419 5.842c-4.438-.239-8.854-.637-13.266-1.084-2.66-.27-5.323-.524-7.985-.778l20.89 2.285c-3.926-.186-7.822-.586-11.715-1.006-13.352-1.439-26.713-2.808-40.053-4.35-11.28-1.305-22.56-2.144-33.873-.668-6.215.811-11.052 4.08-14.147 9.48a10.047 10.047 0 0 0-1.038 2.52c-.364 1.858-.028 3.625 1.15 5.08 1.374 1.7 3.58 3.522 5.588 3.75 4.514.512 9.167.385 13.709-.054 13.303-1.284 26.577-2.784 39.985-2.247 9.163.366 18.213 1.427 27.019 4.042 22.88 6.793 41.075 20.398 55.684 38.96 5.036 6.398 9.365 13.35 14.201 19.913 1.585 2.15 3.553 4.147 5.707 5.717 2.74 1.997 6.868 1.696 8.936-.832 1.204-1.473 2.396-3.005 3.283-4.673 1.108-2.204 1.682-4.603 1.025-7.334-1.475-6.137-3.282-12.195-4.962-18.282-.14-.504-.42-.968-.607-1.461-.18-.475-.322-.964-.48-1.446a95.574 95.574 0 0 1 1.934 4.091c-.53-1.648-1.07-3.323-1.612-5.042 3.689 8.008 6.48 15.834 7.031 24.302zM242.634 193.448c-.816.317-1.63.643-2.45.952-7.665 2.883-14.827 6.522-21.468 10.94h.241c-5.632 4.66-11.442 9.124-16.843 14.038-1.368 1.245-2.66 2.554-3.815 3.949-2.502 3.13-4.368 6.602-4.837 10.773-.235 2.096-.303 4.216-.356 6.327-.161 6.407-.879 12.729-2.744 18.987.54-.291.794-.772 1.166-1.13 7.774-7.488 15.192-15.4 23.432-22.336 12.706-10.695 27.752-15.83 44.368-16.49 14.98-.594 29.26 2.451 43.099 7.914 13.85 5.467 27.739 10.681 42.873 11.387 7.817.365 15.54-.12 23.213-1.56.265-.05.547-.093.82-.155.422-.304.834-.665 1.262-.94-.753-.421-1.458-1.003-2.265-1.24-10.082-2.954-20.276-5.564-30.243-8.865-8.717-2.886-17.28-6.304-25.73-9.915-3.821-1.634-7.977-3.8-12.117-6.008-3.82-1.79-7.625-3.614-11.427-5.446-8.382-4.038-17.069-7.288-26.402-8.411-12.761-1.538-24.202 2.178-34.744 9.036a61.06 61.06 0 0 0-.13.085h.038l-11.758 9.068-.187-.193.383-.318-.051.038c2.972-2.714 6.01-5.374 9.261-7.732.33-.288.66-.577.991-.863h.23c10.046-6.933 21.053-10.998 33.47-10.328 9.177.497 17.775 3.3 26.102 6.959 11.187 4.915 22.302 9.995 33.462 14.973 1.588.709 3.23 1.296 4.856 1.917-.402-.39-.852-.637-1.308-.875-8.08-4.217-20.125-10.872-28.206-15.087-8.278-4.122-16.699-7.952-25.51-10.976.486-.022.912.094 1.332.228 14.089 4.515 27.11 11.396 40.08 18.33 13.992 7.48 28.017 14.785 43.648 18.344 3.695.842 7.346 1.877 11.28 2.904l-1.25-1.865c-.028-.274.035-.607-.097-.815-3.38-5.298-7.65-12.802-11.624-19.554-10.895-15.911-24.856-28.255-43.27-35.495-12.393-4.874-25.305-7.854-38.226-10.797-10.379-2.364-20.803-4.511-31.556-4.278-9.103.197-17.659 2.176-25.254 7.403-7.625 5.246-13.34 12.246-17.844 20.224-5.017 8.888-8.305 18.08-9.89 27.558-.71 4.645-1.075 9.695-1.102 14.671.07 4.87.559 9.808 1.465 14.812.647 3.575 1.662 7.083 2.525 10.618.062.126.124.249.187.37l.63-.046c.348-3.244.71-6.068.889-8.903.245-3.893.229-7.803.47-11.696a16.017 16.017 0 0 1 1.18-5.083c.744-2.063 1.884-3.96 3.346-5.647l.631-.727a68.134 68.134 0 0 1 6.273-6.766 78.272 78.272 0 0 1 3.286-3.093 86.934 86.934 0 0 1 9.108-7.058l.255-.222h.077c8.141-5.427 17.09-9.373 26.775-11.892zm82.661 25.087a488.171 488.171 0 0 1-10.163-5.139c3.351 1.8 6.722 3.553 10.132 5.215l.031-.076zm-90.24-140.193l-.07-.554c-2.01.152-4.019.383-6.032.44-3.579.1-5.088 2.194-3.614 5.47.826 1.839 2.085 3.485 3.175 5.202 3.333 5.253 8.07 7.173 14.18 6.143 6.424-1.084 11.421 1.329 14.921 6.724 1.305 2.01 2.644 4.154 3.258 6.428 1.843 6.827 3.84 13.677 4.85 20.652 1.521 10.517 4.964 20 11.955 28.101 3.948 4.575 8.241 8.189 14.498 9.713 11.39 2.774 22.303 7.065 32.269 13.392 4.258 2.704 8.425 5.585 12.414 8.67 3.745 2.896 7.2 6.166 9.129 7.838-6.772-12.94-14.586-28.03-20.966-43.797 4.888 9.351 9.64 18.767 14.309 28.224 7.491 15.176 15.668 29.953 25.354 43.857 1.43 2.052 3.024 3.989 4.546 5.977l.335-.472c.12-.238.333-.487.423-.722l.027-.358c-.522-4.658-.625-9.435-2.975-13.667-1.933-3.48-4.071-6.846-6.119-10.263h.454l3.755 5.647.063-.034c-1.079-1.93-2.278-3.825-3.533-5.705l3.753 5.293c.027-.132.045-.26.055-.385-.473-1.15-1.203-3.206-1.916-5.205-.703-1.544-1.43-3.073-2.284-4.528-6.607-11.266-8.445-23.367-7.037-36.22.598-5.461.755-11.018.536-16.509-.17-4.256-.263-8.965-2.093-12.62-4.764-9.511-10.505-18.493-18.423-25.894-3.12-2.917-6.19-6.095-8.457-9.677-5.544-8.76-12.477-16.099-20.777-22.204-4.014-2.952-8.042-5.897-12.212-8.618-2.991-1.95-6.379-2.8-9.529-.403-3.528 2.684-6.824 5.675-10.269 8.574 7.98 1.855 14.803 6.09 20.91 11.497 13.483 11.939 24.942 25.647 34.99 40.559.16.236.21.547.312.824-.824-.672-1.421-1.445-2.006-2.228-9.66-12.923-20.28-24.988-32.231-35.843-7.183-6.524-14.968-12.153-24.89-13.51-6.362-.87-11.255-3.55-15.192-8.713-3.732-4.894-7.85-5.528-13.124-2.21-4.133 2.6-7.833 5.889-11.747 8.843-.446.337-1.03.492-1.55.73 5.871.757 11.183.83 16.358 1.706 12.545 2.125 24.17 6.616 33.852 15.15 10.097 8.901 18.411 19.354 25.782 30.578.76 1.157 1.486 2.338 2.227 3.508-.487-.009-.691-.2-.842-.426-6.009-9.012-12.799-17.396-20.226-25.273-5.783-6.133-11.885-11.922-19.673-15.408-5.179-2.318-10.55-4.245-15.939-6.037-2.835-.943-5.869-1.44-8.853-1.737-2.896-.288-5.842-.063-8.766-.063l.001-.294 2.653-.163zM89.136 315.259l.317-.465c8.682 4.016 16.786 9.484 26.585 10.886-1.484-1.162-2.908-2.302-4.044-3.898-2.237-3.142-4.882-5.888-5.643-9.978-.627-3.366-1.933-6.634-3.19-9.847-.968-2.477-2.61-4.572-5.5-4.947-1.706-.221-3.494-.294-5.189-.048-6.777.987-13.554 2.012-20.29 3.252-3.825.705-7.709 1.197-9.341 5.88a12.715 12.715 0 0 0-.109.329c-.391 1.25-.706 2.369-.763 3.444.011.74.202 1.48.697 2.237.99 1.516 2.304 2.904 2.93 4.556 1.318 3.473 3.915 4.256 7.233 4.465 7.002.44 13.99 1.1 20.98 1.708 3.089.269 6.17.62 9.255.939l-14.122-8.09a89.786 89.786 0 0 1 3.844 1.656l-3.65-2.08zm-8.576-28.05l.038-.046c-1.695-2.335-3.593-4.554-5.012-7.046-1.68-2.95-4.113-4.274-7.294-5.057-8.812-2.17-17.83-1.973-26.77-2.652-10.05-.764-19.93-2.272-29.31-6.212-2.192-.92-4.417-1.875-6.722-2.362-1.012-.214-2.21.459-3.348.838.267 1.11.326 2.473 1.03 3.05 3.438 2.821 5.16 6.315 5.572 10.716.238 2.535 1.738 3.267 4.193 2.74 2.78-.598 5.256-2.065 8.433-1.549 2.648.43 5.506-.624 8.284-.768 10.692-.552 21.418-1.692 31.85 2.093 3.751 1.36 7.64 2.339 11.44 3.567 2.561.827 5.08 1.787 7.616 2.688zM246.657 136.84l-.57-.662c-6.76-.474-7.688-.916-11.198-5.328-4.144-5.21-7.293-6.073-13.358-3.194-4.423 2.098-8.688 4.532-13.003 6.854-2.622 1.41-4.062 3.725-4.848 6.532-1.28 4.577-1.592 9.215-.821 13.895.816 4.954 2.54 9.556 5.854 13.65.448-.74.74-1.494.705-2.233-.158-3.38-.698-6.766-.566-10.13.322-8.21 6.183-14.738 14.196-16.22 4.886-.904 9.222.373 13.264 3.15.752.517 2.34.916 2.845.508 2.624-2.12 5.022-4.52 7.5-6.822zM84.01 273.178l.292-.255c-.509-.829-.95-1.714-1.567-2.453-3.196-3.826-4.707-8.33-5.714-13.131-.52-2.477-1.341-4.973-2.505-7.21-1.025-1.97-2.565-3.487-4.914-4.103 4.993 2.38 6.229 7.043 6.511 12.267a16.076 16.076 0 0 1-.22-.689c.001.4-.014.81-.042 1.229-.63-2.221-1.132-4.344-1.842-6.394-.657-1.9-1.791-3.467-3.795-4.672l1.551 3.27a8.833 8.833 0 0 1-.884-1.028l.728 1.491c-.951-.84-1.462-1.966-2.286-2.774-1.377-1.35-2.813-2.796-5.105-1.621-1.221.625-2.137 1.39-2.667 2.324-.385.934-.415 2.023-.031 3.294.818 2.707 1.927 5.423 3.429 7.807 4.424 7.022 9.045 13.923 13.722 20.78 1.565 2.295 3.44 4.403 5.364 6.415.551.577 1.636.645 2.534.89.179-.659.412-1.336.236-1.88-.914-2.823-2.038-5.578-3.083-8.358l.314-.143-.094-.247.452-.19 3.62 8.555c-.165-1.996-.53-3.955-1.248-5.775-.905-2.295-2.114-4.516-3.499-6.562-1.29-1.904-2.984-3.536-4.5-5.287l.507-.488-.092-.126.453-.494 4.375 5.558zM68.158 245.44l.037.012c.136.001.27.003.403.008a8.682 8.682 0 0 0-.44-.02zm2.208 1.632l-.154.183c.631.429 1.208.875 1.73 1.34-.519-.512-1.07-1.002-1.576-1.523zM263.308 124.88c-12.68 9.039-24.327 18.335-31.536 32.7 3.013-.155 5.408-.424 7.793-.36 2.39.066 4.218-.1 5.403-2.779.734-1.658 2.511-3.022 4.105-4.095 2.24-1.507 4.708-2.694 7.144-3.885 3.438-1.68 6.591-3.706 8.875-6.845.408-.561.841-1.386.734-1.995-.705-3.995-1.555-7.964-2.518-12.74zm123.944 153.434c.33 2.684.089 5.434.201 8.15.151 3.653.396 7.302.6 10.952 7.323-11.686 16.122-21.804 26.949-30.657.88-.827 1.758-1.66 2.63-2.502-.528 0-1.133-.049-1.728.007-8.042.757-16.083 1.523-24.121 2.311-.418.042-1.055.193-1.184.476-.975 2.156-2.446 4.312-3.063 6.505-.111.458-.2.922-.265 1.394a6.325 6.325 0 0 0-.019.281c-.034.765-.058 1.53-.074 2.295.017.26.041.522.074.788zm-176.54-111.71c.741-.457 1.323-.765 1.85-1.148 4.137-2.994 8.626-5.382 13.623-6.365 3.242-.638 4.999-2.123 6.14-5.208.894-2.42 2.68-4.514 4.097-6.735.464-.727 1.015-1.399 1.544-2.12-1.074-.671-1.896-1.197-2.73-1.705-9.005-5.49-20.679-1.351-24.123 8.606-1.644 4.752-1.394 9.591-.401 14.674zM82.384 213.934a22.62 22.62 0 0 0-2.608-.288c.792.187 1.582.42 2.368.69-.583 0-1.173.06-1.748-.01-7.382-.883-13.558 2.249-19.522 5.948-1.232.764-2.482 1.704-2.97 3.04-.06.41-.015.846.173 1.308.864 2.126 3.586 2.35 5.824 1.911 4.286-.839 8.594-1.659 12.784-2.862 7.765-2.23 15.13-6.315 23.684-4.643.493.096 1.404-.405 1.83-.913.087-.608-.528-1.597-1.082-2.108-.628-.578-1.574-.887-2.433-1.125a419.157 419.157 0 0 0-10.476-2.77c-6.932-1.729-13.818-1.712-20.339 1.449-3.056 1.481-5.846 3.512-8.73 5.348-.042.063-.078.132-.114.201a39.3 39.3 0 0 0 .527-.205c7.081-4.298 14.128-8.1 22.832-4.971zm270.242 35.806c3.008 2.95 6.135 5.81 9.452 8.398 2.46 1.92 5.422 2.885 8.68 2.7.742-.042 1.269-.172 1.566-.457.088-.353.022-.843-.218-1.518-2.324-6.556-3.16-13.168.07-20.118-10.201 2.139-20.163 2.888-30.632 1.94 4.376 2.309 7.68 5.72 11.082 9.055zm-125.94 29.024l.425-.224c-.294-1.419-.655-2.83-.836-4.262-.806-6.398-2.116-12.626-5.546-18.23-2.7-4.41-2.742-9.123-1.57-14.005.607-2.525.975-5.108 1.45-7.665l-.787-.512-14.783 12.115 21.647 32.783zM39.608 322.586c6.298 5.068 13.44 8.565 21.15 10.928a6.317 6.317 0 0 0 1.775.268c1.137.01 2.008-.432 2.466-1.132.234-.633.185-1.408-.219-2.229-.518-1.053-1.35-1.99-2.176-2.847-1.182-1.225-2.49-2.33-3.743-3.486l.179-.173 1.289.865c-.417-.374-.834-.748-1.245-1.127l.182-.179 2.469 1.695c-.077-.377-.234-.646-.463-.82-2.499-1.899-4.95-3.878-7.573-5.59-2.015-1.316-3.917-2.475-4.049-5.25-.125-2.644-1.024-3.233-3.66-2.727-3.933.753-6.254 3.36-8.14 6.702l2.018-4.801c-1.266 1.003-2.177 2.016-2.738 3.027-1.07 2.356-.235 4.694 2.478 6.877zm341.547-169.889l.197-.202c.4.808.705 1.686 1.23 2.402.416.565 1.116 1.298 1.666 1.28.55-.02 1.245-.79 1.557-1.396.321-.624.293-1.443.352-2.182.103-1.283.155-2.568.229-3.852l.998.172c-.536 2.402-.704 4.99-1.78 7.118-.454.897-2.824.824-4.45 1.223.362 1.922 1.095 4.19 1.162 6.478.162 5.578 1.583 10.62 5.122 15.021.938 1.167 1.606 2.55 2.398 3.834.861-4.139 1.28-8.107 1.68-12.078.052-.516.007-1.041.007-1.707-2.836-.256-3.565-2.285-3.819-4.566a54.871 54.871 0 0 1-.339-6.099c.003-4.6-.101-9.225 3.107-13.129.314-.381-.228-1.908-.797-2.483-1.18-1.191-3.983-.831-5.924.515-1.628 1.128-2.312 2.681-1.463 4.51.723 1.56 1.77 2.968 2.653 4.408-2.824-.764-4.6-3.834-3.753-7.001.263-.983 1.086-1.975 1.92-2.616 1.962-1.509 4.232-1.727 6.832-1.07-.893-1.385-2.18-3.44-3.087-3.283-2.016.349-3.842 1.803-5.234 2.536-.318-.426-.834-1.836-1.548-1.944-2.167-.33-4.724 2.223-4.42 4.408.252 1.815 1.081 3.55 1.84 5.894.44-1.01.546-1.257.662-1.524.375 3.187 1.589 5.959 3.98 8.222l-.978-2.889zM93.285 326.441a116.69 116.69 0 0 1-4.038-.172c1.495.168 2.989.33 4.483.497-9.304-.122-18.443-1.311-27.476-3.662l.798.374-.143.383-1.105-.414.965.47-.155.37-5.375-2.048-.16.225c.74.622 1.418 1.45 2.268 1.71 3.445 1.055 6.906 2.24 10.451 2.75 7.238 1.046 14.56 1.512 21.802 2.534 10.894 1.538 21.741 3.411 32.628 5.005 3.018.442 6.084.56 9.137.76l-21.41-4.327.1-.516.057.011.088-.464 17.431 3.414c-21.35-7.656-43.735-9.327-66.349-11.127l-.015.11.495.145 25.524 3.972zm173.053-185.659c-1.719 1.467-3.268 3.036-5.06 4.246-1.779 1.201-3.794 2.056-5.72 3.034-1.68.852-3.461 1.535-5.053 2.523-2.51 1.559-4.406 3.724-5.754 6.318 5.428.776 10.566 1.55 15.72 2.2.704.09 1.626-.256 2.207-.708a152.363 152.363 0 0 0 6.97-5.782c.38-.333.69-1.181.536-1.616-1.2-3.391-2.52-6.74-3.846-10.215zm-22.038 84.15c2.652 11.344 6.757 22.178 11.473 32.803 3.01 6.778 6.68 13.144 11.43 18.856.866 1.041 1.847 1.993 2.832 2.927.732.695 1.513 1.34 2.286 1.991-6.117-8.54-11.003-17.718-14.787-27.494-3.928-10.145-6.368-20.67-7.924-31.67l-5.566 1.108c.1.627.157 1.058.256 1.48zm154.636-27.764l-.507-.585c-1.305.814-3.317 1.335-3.795 2.491-2.21 5.346-4.417 10.761-5.831 16.352-2.176 8.603-3.699 17.37-5.508 26.066-.277 1.33-.604 2.649-.914 4 2.362-1.21 4.516-2.249 6.587-3.43.108-.062.211-.153.306-.265.16-.333.268-.715.305-1.038.581-5.092.715-10.265 1.703-15.272.084-.423.17-.845.258-1.267a106.726 106.726 0 0 1 2.35-10.227c.486-1.72.989-3.437 1.5-5.15.309-1.167.614-2.334.91-3.503.053 0 .104-.01.156-.027.826-2.716 1.662-5.428 2.48-8.145zm21.704-19.114c-5.071 8.365-10.182 16.552-15.044 24.884a129.947 129.947 0 0 0-2.795 5.032c.058-.07.07-.07.022.023-1.723 3.347-3.321 6.74-4.695 10.215-1.357 3.55-2.466 7.199-3.248 10.973-.782 3.771-1.157 7.627-1.742 11.62 1.527-.352 2.37-.571 2.872-.953.378-.499.605-1.14.718-1.953.815-5.85 2.307-11.521 4.314-17.042a96.775 96.775 0 0 1 5.822-13.275c4.407-8.317 9.347-16.35 14.036-24.519.914-1.592 2.701-3.224-.26-5.005zm-45.802 81.214l.522.2c.244-.255.483-.518.695-.79.173-.255.345-.51.498-.769a2.7 2.7 0 0 0 .246-.707c1.674-8.865 3.55-17.71 4.725-26.647 1.023-7.783 1.369-15.656 1.946-23.498.036-5.782-.11-11.573-.195-17.353-.022-1.467-1.216-2.918-1.898-4.443 0 3.493.118 6.657-.023 9.809-.105 2.35-.217 4.698-.335 7.047-.034.87-.085 1.853-.149 2.906-.236 4.523-.494 9.045-.766 13.566-.556 9.246-.841 18.503-4.302 27.345-1.653 4.223-2.106 8.79-.964 13.334zm19.682-62.5c1.19-.55 2.179-.794 2.811-1.406.253-.245-.067-1.484-.483-1.96-4.543-5.189-8.5-10.774-12.057-16.688-1.428-2.375-3.475-4.416-5.454-6.395-.496-.495-1.947-.446-2.722-.107-.529.231-.9 1.406-.885 2.15.019.941.29 2.02.82 2.785 4.352 6.304 8.684 12.63 13.285 18.75 1.021 1.358 3.088 1.93 4.685 2.872zm33.433-25.907c.341-.213.5-.265.586-.375.135-.174.22-.387.327-.583 2.297-4.193 1.453-8.398.208-12.683-1.316-4.535-2.42-9.132-3.579-13.712-.608-2.404-1.016-4.865-1.76-7.223-.282-.895-1.165-1.676-1.93-2.326-1.007-.856-1.982-.47-2.19.748-.26 1.52-.45 3.144-.193 4.642.999 5.841 2.009 11.69 3.363 17.456.968 4.124 2.457 8.13 3.8 12.158.238.712.909 1.279 1.368 1.898zM39.58 266.87l.196-.042c.492 1.005.919 2.05 1.511 2.992l-4.93-19.899c.223.388.43.782.622 1.18l-.4-1.617c3.48 6.077 3.113 13.373 5.596 19.83l-.35.097c.043.114.085.227.129.34l-.592.164c.248.25.781.32 1.172.481.143-.38.305-.765.23-1.096-.467-2.055-1.063-4.08-1.596-6.12-1.104-4.222-2.036-8.498-3.373-12.644-.526-1.629-1.69-3.284-3.018-4.373-2.003-1.642-4.328-1.16-5.365.658a4.567 4.567 0 0 0-.317 1.557c-.065 1.842.1 3.85.782 5.531 1.952 4.813 4.293 9.467 6.33 14.248.808 1.897 1.973 2.497 3.776 2.056l-.64-2.807.266-.086.12.259-.149-.709zm334.988-127.32c1.529-7.442-11.193-22.327-18.094-21.877.225 1.66.051 3.49.76 4.866.979 1.899 2.424 3.675 4.02 5.115 4.677 4.22 8.428 9.036 10.728 14.937.185.476.611.857.925 1.282.297-.08.594-.158.89-.236l-.633-7.635.17-.074 1.234 3.622zm-81.591 90.307c8.945 4.159 18.174 7.304 28.01 8.48 1.573.188 3.145.42 4.724.513 1.233.073 2.472.037 3.71.023-1.009-.242-2.027-.457-3.002-.797-9.383-3.273-18.77-6.535-28.122-9.892-7.092-2.545-14.291-4.615-22.168-5.781 5.76 2.523 11.347 4.897 16.848 7.454zM399.539 194.6c2.38-9.358 3.18-18.679 2.316-28.038-.352-3.815-1.86-7.556-3.116-11.237-.466-1.367-1.718-2.466-2.935-4.129-.426 3.587-1.238 6.45.678 9.185.57.814.872 1.99.875 3.003.02 8.28.163 16.572-.235 24.835-.127 2.647.493 4.456 2.417 6.381zm1.21-61.73l1.182-.494c-.883-1.138-1.543-2.674-2.7-3.321-1.709-.955-3.234.24-4.152 1.711-.656 1.05-1.146 2.331-1.283 3.557-.726 6.503 1.486 11.985 6.114 16.53.47.46 1.07.86 1.684 1.09 1.534.58 2.348-.045 2.044-1.646-.25-1.314-.962-2.548-1.152-3.863-.654-4.51-1.17-9.041-1.737-13.564zM49.527 271.179c3.679.2 7.361.453 11.02.872 3.623.416 7.217 1.07 10.823 1.62l.07-.079c-1.197-1.075-2.243-2.539-3.646-3.084-4.746-1.845-9.566-3.576-14.48-4.894-3.364-.902-6.922-1.088-10.447-1.58.073 5.182 1.84 6.885 6.66 7.146zm368.556-99.332c-7.592 12.134-14.097 24.503-17.906 37.655 6.443-10.262 13.09-20.834 19.696-31.431.268-.43.353-1.17.182-1.642-.531-1.473-1.227-2.888-1.972-4.582zm-21.975 48.233c4.507-17.202 10.923-33.516 21.089-48.234.594-.861.42-2.253.604-3.398l-.623-.133c-.176.229-.39.438-.523.69-4.233 7.994-8.581 15.93-12.658 24.003-6.462 12.797-11.542 26.055-12.32 40.587-.11 2.058-.051 4.126-.028 6.21.354-2.09.441-4.204.963-6.204.223-.856.45-1.708.68-2.557.8-3.677 1.858-7.306 2.816-10.964zm-206.202 42.51c-.16 1.383-.14 3.044.501 4.2.835 1.507 2.572 1.932 4.373 1.559 2.014-.417 3.41-1.476 4.29-3.07a8.61 8.61 0 0 0 .447-1.188c1.142-3.838.33-7.576-.642-11.845-2.8 2.962-5.255 5.49-7.618 8.104-.4.443-.83.956-1.14 1.492a2.663 2.663 0 0 0-.211.747zm11.375-9.098c7.909 11.45 16.427 22.411 25.803 32.7l-24.932-36.878c-.604.558-1.058 1.018-1.368 1.433-.325.782-.261 1.646.497 2.745zm221.822-72.999c-5.42 10.185-12.025 19.554-16.475 30.085 7.409-8.875 15.888-17.045 18.853-28.843l-2.378-1.242zm-42.595 63.823l.438.058c.176-.545.363-1.087.477-1.645 1.25-6.134 2.618-12.247 3.718-18.406 1.227-7.672 2.406-15.352 3.594-23.03l.001-.006.551-3.556c.102-.654.297-1.566-.03-1.967-1.512-1.854-3.192-3.57-4.724-5.239v24.093l1.335-9.278h.002l1.101-10.356c.053 16.719-3.79 32.953-6.463 49.332zm12.986-83.759l.845-.024c0-3.724.096-7.452-.072-11.168-.039-.862-.792-2.1-1.541-2.433-1.436-.637-2.216.375-2.73 1.786-1.96 5.373-1.348 10.832-.575 16.271.098.691 1.4 1.76 2.022 1.682.708-.089 1.73-1.218 1.814-1.983.16-1.448-.257-2.96-.418-4.446-.01-.106.12-.227.22-.406l.435.721zM286.133 326.083c-.294.662.748 1.816.642 2.678-.641 5.218 3.259 5.47 6.917 6.514-1.084-5.365-4.31-10.362-1.867-15.825l-2.25-2.832-.1.105c-.342.502-.66.903-.922 1.265-1.432 2.495-1.287 5.54-2.42 8.095zM88.667 223.666c-1.508-.182-2.998-.305-4.488-.247l.01.063 4.385.613c-3.49-.289-6.96-.627-10.396 1.167l9.114.603c-.38.299-.747.271-1.107.306-.118.012-.235.03-.352.053l1.206.08-.021.254-.37.027c5.159.96 10.068 4.28 15.627 1.371-5.34-1.738-10.672-3.502-16.034-5.17-.541-.17-1.218.097-1.856.24l4.282.64zm-.947 54.393c.194.483.72.984 1.209 1.17 1.675.635 3.397 1.148 5.174 1.723.005-1.968.032-3.766-.028-5.56-.015-.47-.24-1.158-.59-1.358-3.101-1.778-6.246-3.48-9.307-5.16 1.187 3.119 2.328 6.167 3.542 9.185zm-3.029-11.221c3.039 1.905 6.196 3.62 9.464 5.506.026-.602.02-1.133.194-1.596.832-2.209-.454-2.978-2.174-3.805-2.244-1.078-4.721-1.525-6.78-3.225-1.267-1.046-3.272-1.198-5.225-1.758.519 2.288.744 2.51 4.521 4.878zm186.095-114.446l-8.086 6.931c5.928 2.06 7.065 1.852 11.269-1.85l-3.183-5.08zm124.322 12.478c-1.16 1.517-1.866 2.344-2.454 3.248-.344.528-.665 1.166-.715 1.778-.35 4.285-.707 8.573-.877 12.867-.046 1.155.549 2.335.85 3.504l1.171-.123 2.025-21.274zM43.887 262.581c3.304.282 6.678.406 9.866 1.217 4.581 1.163 9.042 2.8 13.835 4.365-.452-.656-.89-1.345-1.508-1.602-7.59-3.158-15.482-5.108-23.72-5.66-.212 1.132.238 1.57 1.527 1.68zm330.049-118.644c.07 1.244-.09 1.985.172 2.518 3.42 6.964 5.239 14.383 6.486 21.987.138.842.832 1.592 1.268 2.386.363-9.7-2.869-18.19-7.926-26.89zm-1.403 98.047c-.355 3.332-.244 6.718-.233 10.081.003.794.269 1.588.4 2.07l4.032-16.296-.371-.448c-1.016.74-2.481 1.259-2.97 2.256-.324.66-.593 1.323-.815 1.99-.017.115-.03.23-.043.347zm-11.882 51.58c1.272 1.554 2.643 2.551 4.68 2.04-1.656-6.551-4.38-8.293-8.241-5.777 1.203 1.233 2.474 2.41 3.56 3.737zm30.054-97.24l-.688.258-1.731 14.635c.464-.153.643-.382.708-.64 1.023-4.077 2.096-8.144 2.965-12.254.117-.553-.81-1.327-1.254-2zm5.742-13.558c.57-7.733 2.132-15.549-1.227-23.062-.316 1.13-.458 2.286-.288 3.393.43 2.8 1.259 5.562 1.451 8.372.257 3.75.064 7.53.064 11.297zm-1.028-8.18l-.106.05c-.55 3.858-.965 7.743-1.713 11.563-.322 1.646.298 2.312 1.819 3.136v-14.75zm-120.22-15.594l-3.382 2.518 7.47 1.68-4.087-4.198zm55.103 171.577l.453-.002v12.215h-.297c-.64 10.165-3.92 19.745-9.608 28.778l9.185-40.603c.104.79.193 1.578.267 2.362v-2.75zm80.98-327.56l-.001.217c.215.718.58 1.453.504 2.139-.811 7.244-1.712 14.477-3.038 21.665.824-6.927 1.662-13.852 2.458-20.783.079-.686.08-1.975.075-2.785l-.001.484a45.342 45.342 0 0 1 .002-.72v.236l-.002-.242a4.984 4.984 0 0 1-.054-.195l.057-.015zM209.239 315.166l1.433-.063c-10.195-1.823-20.554-3.102-30.401-6.078-10.686-3.229-20.76-8.478-30.925-13.322 1.253.423 2.515.821 3.761 1.264a736.796 736.796 0 0 0-3.537-1.7c1.467.495 2.947.952 4.395 1.495 1.553.583 3.078 1.24 4.61 1.876 6.547 2.713 13.028 5.6 19.654 8.103 8.541 3.225 17.578 4.242 26.58 5.245a304.08 304.08 0 0 1 17.433 2.454c-20.21-3.494-54.583-15.466-71.975-26.111a337.96 337.96 0 0 0 7.247 3.419 234.732 234.732 0 0 1-7.107-3.84c22.3 10.794 45.438 19.073 69.696 23.984l-38.497-11.908.147-.47 9.604 2.898a452.65 452.65 0 0 1-9.267-3.3l52.601 15.872c-.875-.09-1.75-.185-2.621-.286l2.09.631c-2.728.313-6.729-.01-11.565-.828a299.778 299.778 0 0 1 37.515 8.956c.355.11.687.292 1.009.554-1.47-.358-2.94-.718-4.409-1.078 1.06.314 2.117.634 3.174.96.355.109.688.292 1.134.485-8.733-1.942-17.274-4.146-25.933-5.68-8.585-1.52-17.289-2.364-26.039-3.069l3.49-.186-1.29-.237c-.667-.02-1.336-.033-2.007-.04zm25.679-2.575c-4.865-.779-9.484-2.196-13.822-4.313a50.264 50.264 0 0 0 13.545 4.87c-.218.023-.44.08-.655.06-.297-.03-.589-.119-.883-.183-12.693-2.802-22.845-9.63-30.816-19.743-4.531-5.75-8.83-11.683-13.18-17.572-5.048-6.833-10.61-13.163-17.392-18.387a44.098 44.098 0 0 1 3.073 2.086c-.97-.834-1.944-1.662-2.908-2.502l.423-.473c3.233 2.979 6.838 5.65 9.624 9 5.978 7.19 11.458 14.792 17.295 22.103 3.197 4.005 6.508 7.957 10.115 11.588 6.536 6.582 14.588 10.597 23.536 12.877.687.174 1.364.391 2.045.589zm-113.515-35.591l7.459 3.787zm7.459 3.787l26.107 13.256-26.107-13.256zm150.536 44.121l-.115-.028-.112.463-24.465-6.058.133-.55 24.475 6.017-.03.128zM160.243 328.6l15.92-1.218.026.382-15.926 1.143-.02-.307zM107.6 297.006l2.275 10.163-.314.074.105.472-.382.086-2.282-10.231.297-.067-.091-.405.392-.092zm235.92-32.056l-8.501 12.32-11.662 16.928c4.015-10.412 9.13-20.066 17.822-27.25a48.219 48.219 0 0 1 2.34-1.998zm63.859 15.607l7.03-6.415-6.756 6.602-.274-.187zm23.427 3.73l3.181-3.12 2.124-2.188.128.125-3.573 3.425.72-.742-1.473 1.464.753-.722-2.106 2.17-.072-.082.33-.317a2.8 2.8 0 0 1-.012-.013zm20.273 2.994l7.834-7.804.05.05-.382.386.08-.078.099.106-7.889 7.789-.071-.157c.096-.095.191-.19.287-.283l-.008-.009zm-322.51 52.192l-.036-.306c4.675-.58 9.35-1.167 14.028-1.725.465-.055.948.034 1.43.078l-15.422 1.953zm15.556-1.942c.001.002.001.001 0 0zm320.018-98.152c42.299-1.08 64.911 17.857 76.752 53.372-.35-.786-.696-1.573-1.043-2.36.33.958.653 1.93.965 2.917-2.068-4.421-3.977-8.812-6.142-13.073-6.202-12.204-14.416-22.645-26.468-29.652-5.846-3.4-12.094-5.785-18.602-7.537a2.278 2.278 0 0 0-.344-.061c12.483 4.656 23.27 11.784 32.126 21.785-2.9-2.9-5.931-5.614-9.114-8.112 3.21 2.558 6.123 5.5 8.997 8.476-7.746-7.594-16.337-13.945-26.224-18.484-9.869-4.53-20.193-6.964-31.115-6.735 3.165-.143 6.266-.157 9.297-.039a70.153 70.153 0 0 0-9.086-.497zm62.493 10.767c10.357 8.868 17.302 20.158 22.964 32.358l-1.273-1.794c.352.73.7 1.464 1.042 2.202l-22.958-32.336c.479.41.95.826 1.415 1.247zM405.746 8.765c-.245 1.287-.355 2.617-.754 3.854-5.602 17.36-10.442 34.92-13.763 52.87-1.3 7.033-2.41 14.101-3.71 21.129 3.041-26.628 9.706-52.434 18.226-77.853zm-36.45 191.137c-2.809-9.114-5.815-18.177-7.158-27.666zm4.872 18.838l-.718-2.776.329 1.38c.136.574.197 1.165.127 1.784-1.304-4.596-3.655-14.123-4.959-18.72.223 0 1.016 2.686 1.538 4.093l-1.19-4.599c1.912 6.206 3.733 12.435 4.873 18.838zm22.604-165.073c2.473-13.777 6.007-29.036 10.736-41.423zm38.705 49.79l-2.59 39.145zm-45.19 27.555c-.394-8.827-.105-18.869 1.664-27.824zm7.741-8.69l1.569-15.868.474.044-1.575 15.869-.468-.044zm-170.742 90.219l.3-.22-.637.297-.128-.193 2.434-1.28c6.055-4.111 12.674-6.974 19.89-8.405 12.061-2.391 23.758-.536 35.167 3.496 5.644 1.994 11.131 4.431 16.69 6.668l-.215.521c-3.718-1.577-7.407-3.227-11.16-4.715-8.747-3.467-17.75-5.927-27.199-6.4-7.233-.363-14.073.736-20.587 3.03h.701l-14.368 6.706c-.296.165-.594.328-.888.495zm76.102-11.254c18.001 7.925 36.523 14.713 53.84 24.13zm-102.91 13.26a51.642 51.642 0 0 1 5.373-4.183l2.36-2.058.325.346.373-.222c-.428.372-.858.74-1.285 1.114-.59.516-1.182 1.032-1.774 1.547-3.332 2.936-6.662 5.874-10.003 8.8-2.364 2.07-4.193 4.344-5.155 6.95-.565 1.834-.663 3.837-.222 6.026.16.795.095 1.635.135 2.455l-.24.019-.003.283c0 .063-.073.127-.08.137-.947-2.99-1.054-5.746-.379-8.278.35-1.849 1.218-3.52 2.539-4.983a19.35 19.35 0 0 1 2.469-2.594 110.047 110.047 0 0 1 5.566-5.359zm62.126-127.806c21.246 14.844 36.988 34.71 51.124 56.042zm86.321 103.985l17.196 31.731-.4.218.446.83c-.243-.16-.593-.264-.715-.491-3.188-5.883-6.351-11.78-9.519-17.674h.286l-7.81-14.4.516-.214zm-29.538-33.259l14.527 25.56c-.155.089-.31.176-.465.263l-14.547-25.549.485-.274zm149.555 22.178c11.114-14.303 24.155-26.521 39.23-36.54-4.649 3.666-9.42 7.189-13.91 11.039a218.583 218.583 0 0 0-13.09 12.175c-4.238 4.282-8.166 8.871-12.23 13.326zm-28.318.257l-29.345 38.013-2.747 4.013c.394-.866.676-1.807 1.2-2.587 2.712-4.046 5.494-8.046 8.228-12.078.405-.597 2.097-2.705 2.433-3.348.302 0-.81 1.425-.508 1.425l-.578.846a372.657 372.657 0 0 1 21.317-26.284zm50.178 1.106c5.9-6.962 11.814-14.079 20.847-16.983 4.834-1.555 10.018-2.013 15.035-3.01 1.971-.391 3.919-.903 5.99-.865-2.963.647-5.904 1.704-8.894 1.87-12.465.693-21.964 6.737-29.88 15.885-.954 1.103-2.062 2.072-3.098 3.103zm84.556-58.529c-.354.167-.735.312-1.121.452.345-.18.704-.346 1.078-.496l.043.044zm-7.26 6.558c-1.886 2.896-3.869 5.73-5.81 8.591l-.587-.408c3.106-4.23 6.088-8.56 9.4-12.622.69-.846 1.94-1.234 3.136-1.667-2.644 1.379-4.506 3.6-6.139 6.106zm7.26-6.558zm-133.835 55.952l6.377-5.973-6.014 6.313-.363-.34zm-165.735 135.32a375.349 375.349 0 0 1-2.395-2.906l2.106 3.398c-13.367-14.938-24.906-31.042-31.22-50.38l1.059 1.709c-.277-.704-.548-1.412-.813-2.124zm7.063 6.734zm-18.85-29.506c.407.462.846.9 1.217 1.39 4.422 5.843 8.928 11.626 13.201 17.576 1.697 2.364 2.954 5.065 4.23 7.7.382.792.154 1.88.202 2.84-.069-.159-.136-.32-.202-.48 0 .305.002.609.026.902-1.192-2.73-1.993-5.729-3.653-8.136-4.5-6.523-9.365-12.793-14.082-19.167-.48-.65-.936-1.317-1.163-2.188.252.285.516.561.769.846a4.883 4.883 0 0 1-.545-1.283zm18.85 29.511c-.002.006 0-.004 0-.005v.005zM50.29 274.806l-15.6-.905zm5.079.294l-5.079-.294 5.079.294zm-29.63-3.504l-8.363-2.79.105-.32c2.792.92 5.583 1.838 8.375 2.756l-.117.354zm400.803-28.455l9.96 1.089a474.059 474.059 0 0 0-9.952-1.206l-.008.117zM318.534 377.728a11.398 11.398 0 0 1-.8-.337c.266.118.532.232.8.337zm289.42-124.981zm-165.787 193.97a64.973 64.973 0 0 1 0-5.12v5.12zM298.858 342.5c.126.08.25.16.37.243l.004.007a8.967 8.967 0 0 1-.374-.25zm18.876 34.89l-.269-.12c.09.039.18.08.269.12zM66.2 404.483l.055.047-.007-.006.004.004a39.041 39.041 0 0 0-.193-.006l.139-.038c-.38-.304-.738-.646-1.154-.89-3.824-2.242-8.037-2.962-12.384-3.006-7.776-.078-14.896 1.481-19.667 8.416-2.008 2.919-3.926 5.9-5.846 8.878-.424.657-.684 1.42-1.019 2.133l.377.26 4.494-4.84c-1.43 2.477-3.381 4.547-4.755 6.948-1.508 2.634-3.333 5.52-3.512 8.391-.355 5.713.322 11.49.573 17.24l.583.074 3.25-4.39c-.576 1.742-1.732 3.196-2.25 4.85-.508 1.626-1.035 3.756-.405 5.144 3.56 7.857 8.82 14.39 16.362 18.826 2.635 1.55 5.528 1.987 8.508 1.002 2.512-.83 2.689-1.256 1.744-3.762-.532-.94-.921-2.005-1.621-2.797-1.922-2.174-3.975-4.234-5.975-6.34-1.317-3.706-2.232-7.45-1.94-11.462.468-6.433 2.787-12.302 5.23-18.141 4.258-10.174 11.839-16.321 22.667-18.372 3.082-.584 6.218-.876 9.33-1.301-6.77-2.728-13.21-1.4-19.553 1.38 4.574-3.044 9.635-3.981 15.23-3.852l-8.265-4.39zm137.826 60.526c-16.777 8.9-34.376 9.962-52.407 4.671 3.552 3.586 8.12 5.021 20.096 6.428-3.674-.137-7.511.075-10.94-1.007-10.15-3.203-17.786-9.947-23.83-18.542-1.45-2.062-2.52-4.391-3.896-6.83-.414 2.475.33 5.939 2.27 9.686 3.12 6.027 6.284 12.038 9.666 17.92.73 1.27 2.331 2.482 3.754 2.845 13.236 3.38 26.194 2.293 38.767-3.018 6.611-2.793 12.356-6.798 16.52-12.153zm-74.733-75.608c-1.941 1.17-4.01 2.334-5.994 3.63-11.786 7.698-24.73 11.268-38.71 9.857-7.151-.722-14.202-2.6-21.248-4.182-5.744-1.292-9.987-1.702-13.631-.527 10.162.613 18.05 5.366 26.042 9.923 1.87 1.067 3.992 1.829 6.093 2.326 7.453 1.764 14.863 1.071 22.127-1.053 11.076-3.239 20.235-9.052 25.32-19.974zm108.866-52.646c-4.354-1.384-8.731-.75-13.102-.133 9.797 1.215 19.296 5.068 28.314 3.152-5.32.355-10.236-1.437-15.212-3.019zm107.111 14.318l.01-.25-9.409-1.309-.31 3.465 9.71-1.906zM233.37 340.116l-.002.015.132.062 1.072.272c-.4-.109-.802-.225-1.202-.35zm99.668-98.236l11.031 2.988c-3.377-2.318-6.547-4.947-11.03-2.988zM42.313 280.677c1.709 1.821 3.496 1.785 4.534 0h-4.534zm401.263 147.322v-13.02h.179v12.937l-.179.083zm14.962 60.287l4.024 8.096-.32.155-4.11-8.11.406-.14zm-198.773-72.235c1.862-4.576 3.474-9.275 5.634-13.706 5.435-11.147 12.822-20.698 23.594-27.266.69-.42 1.465-.7 2.201-1.046-2.834 2.096-5.776 4.062-8.483 6.313-9.52 7.914-15.44 18.343-20.292 29.489-.899 2.065-1.77 4.144-2.654 6.216zm-25.084-62.116c-11.78.642-22.926 3.845-33.816 8.13 7.086-3.316 14.366-6.178 22.092-7.375 12.74-1.974 25.437-4.047 37.813-7.758 1.042-.313 2.164-.362 3.335-.21-2.493.764-4.981 1.541-7.479 2.29-2.598.779-5.213 1.504-7.806 2.299-10.588 3.243-21.277 6.2-31.73 9.834-14.083 4.895-26.529 12.936-38.7 21.388-.668.464-1.35.907-2.349.924 3.529-2.565 6.995-5.221 10.604-7.668 3.681-2.497 7.426-4.923 11.284-7.132 3.79-2.17 7.684-4.195 11.667-5.982 4.05-1.815 8.223-3.384 12.42-4.837 4.171-1.445 8.44-2.613 12.665-3.903zm15.1-7.35c-5.513 2.414-11.367 3.3-17.293 3.82-8.785.773-17.578 1.457-26.357 2.296-2.063.197-4.08.866-6.119 1.318l-.12-.674c4.714-.782 9.403-1.795 14.147-2.295 8.77-.925 17.585-1.433 26.356-2.362 3.167-.335 6.26-1.381 9.387-2.104zm-73.893-18.36l-15.852 1.112-.02-.303 15.835-1.21.037.401zM304.72 392.63c.064.076.124.158.183.24l-.223-.195zm10.174 9.11c6.51 7.405 10.33 16.43 14.177 25.392 3.212 7.485 6.485 14.942 9.728 22.413.108.25.18.518-.149.958-1.644-3.588-3.312-7.165-4.93-10.765-4.11-9.146-7.94-18.429-12.372-27.416-2.899-5.878-6.744-11.101-11.608-15.441 1.828 1.523 3.602 3.094 5.154 4.86zm-9.472-8.286c-.207-.146-.361-.367-.519-.584.6.519 1.21 1.03 1.823 1.536a48.14 48.14 0 0 0-1.304-.952zm4.318 3.427c-.997-.831-2.011-1.649-3.014-2.475 1.045.789 2.05 1.614 3.014 2.475zm103.711 125.78c12.119 9.049 23.712 18.688 33.744 30.079zM304.68 392.674c-.048-.045-.097-.09-.146-.133l.188.088-.042.045zm-.146-.133l-9.13-4.286c3.27.927 6.506 1.934 9.13 4.286zm12.692-24.127c-3.513-10.199-3.989-20.76-3.175-31.451zm-34.55-47.499l-.001-.009.002.006s-.001.005-.002.003zM163.081 362.38c3.411-1.993 6.596-4.548 10.887-4.372l-10.887 4.372zm-75.574 20.327l7.692-1.997.148.559-7.57 2.002-.27-.564zm326.948-107.869l-6.95 6.517-.016-.02 6.87-6.645.096.148zM163.636 343.5c-.264.141-.519.304-.793.42-19 8.084-38.003 16.165-57.004 24.246l-.223-.524 57.787-24.68.232.538zM43.375 460.73l1.674 3.156c-.36-.238-.83-.397-1.066-.725-7.396-10.307-8.165-25.069-1.097-35.665-.29.683-.56 1.375-.875 2.046-4.584 9.734-4.546 19.467.024 29.186.338.719.888 1.338 1.34 2.002zm14.962-54.094c2.627-1.972 5.143-2.182 7.722-2.114l-7.722 2.114zm-1.777-130.764l-22.892-1.15.02-.421 22.884 1.31-.012.26zm-39.203-6.918c2.767.91 5.534 1.82 8.3 2.728l-.11.346-8.391-2.768.201-.306z"/></g></g></svg>