<svg xmlns="http://www.w3.org/2000/svg" width="74" height="70" viewBox="0 0 74 70"><g><g><path fill="#acc9d4" d="M22.965 60.85l-2.261 2.113-2.177-2.319 2.262-2.117 2.176 2.322zM71.65 43.581a8416.277 8416.277 0 0 1-17.525 11.277c-1.365.876-2.88 1.222-4.498 1.22-6.41-.012-12.819.011-19.229-.021-1.512-.008-2.65.59-3.617 1.777l2.964 2.756L21.96 70l-2.387-1.979 5.889-7.136L9.296 45.16 2.342 50.8.38 48.394l9.492-7.707 1.536 1.874c1.653-1.438 3.182-2.715 4.65-4.059 2.144-1.96 4.422-3.691 7.163-4.75a.36.36 0 0 0 .148-.127s3.38-.994 3.386-.923c1.073-.094 2.075-.253 3.077-.257 6.803-.024 13.606-.022 20.41-.012 1.908.002 3.462 1.705 3.27 3.604-.092.895-.325 1.775-.5 2.7 1.608.123 3.19-.1 4.684-.83 1.039-.508 2.058-1.06 3.114-1.526.098-.043 4.196-1.771 4.269-1.82 0 0 1.41-.599 2.595-.5 1.782.15 3.363.713 4.669 1.943 2.218 2.089 1.868 5.924-.694 7.577zM70.508 38.6c-1.188-1.589-2.964-2.057-4.79-1.19-1.889.897-3.736 1.881-5.626 2.777-.996.473-2.023.898-3.07 1.238-1.986.646-4.053.395-6.091.45-.323.009-.692.082-.955.254-1.364.89-2.845 1.318-4.468 1.314-3.329-.008-6.657.001-9.985 0-.264 0-.527-.026-.802-.041v-3.085h1.436c3.426-.01 6.854.04 10.278-.055 2.23-.062 3.882-1.89 3.982-4.104.022-.493-.125-.64-.613-.64-6.68.015-13.363-.044-20.042.036-3.824.046-7.219 1.392-10.107 3.943-.98.864-1.972 1.714-2.955 2.575-.976.854-1.948 1.713-2.982 2.623l11.001 10.722c-.066.05.04-.011.123-.095 1.654-1.666 3.645-2.382 5.998-2.364 6.36.047 12.72.034 19.08-.015.777-.006 1.663-.199 2.308-.607 5.997-3.79 11.954-7.644 17.917-11.49.943-.607 1.042-1.338.363-2.246zm-12.77-9.988h-31.36a5.352 5.352 0 0 1-5.346-5.347V5.894A5.352 5.352 0 0 1 26.378.547h31.36a5.352 5.352 0 0 1 5.346 5.347v17.371a5.352 5.352 0 0 1-5.346 5.347zM26.378 3.506a2.39 2.39 0 0 0-2.388 2.388v17.371a2.39 2.39 0 0 0 2.388 2.388h31.36a2.39 2.39 0 0 0 2.388-2.388V5.894a2.39 2.39 0 0 0-2.388-2.388zm5.753 18.847h-3.632v-2.958h3.632zm6.485 0h-3.632v-2.958h3.632zm6.485 0H41.47v-2.958h3.632zm6.486 0h-3.632v-2.958h3.632zM36.8 15.12h-7.209a1.48 1.48 0 0 1-1.479-1.48V8.671c0-.817.662-1.48 1.48-1.48H36.8a1.48 1.48 0 0 1 1.48 1.48v4.968a1.48 1.48 0 0 1-1.48 1.48zm-5.73-2.959h4.251v-2.01h-4.25z"/></g></g></svg>