<svg xmlns="http://www.w3.org/2000/svg" width="55" height="36" viewBox="0 0 55 36"><g><g><path fill="#acc9d4" d="M39.122 3.693h.836c2.306 0 4.613.007 6.92-.002 1.405-.005 1.925.563 2.929 1.916 1.858 2.557 2.668 3.681 4.434 6.376.211.321.36.664.491.996.107.271.143.586.143.88.01 4.48.01 8.96.005 13.44-.003 1.911-1.252 3.16-3.152 3.17-.798.005-3.575.024-4.372-.008-.432-.018-.616.103-.758.546-1.092 3.406-4.253 5.26-7.686 4.46-2.396-.56-3.952-2.106-4.702-4.437-.133-.411-.276-.575-.738-.572-4.01.022-8.019.017-12.028.005-.393 0-.584.071-.718.506-.89 2.875-3.3 4.672-6.191 4.676-2.91.004-5.305-1.76-6.217-4.638-.141-.445-.327-.562-.759-.546-.86.031-3.63.023-4.492.005-1.657-.034-2.95-1.313-2.952-2.973C.104 19.395.103 11.297.115 3.2.118 1.45 1.435.228 3.263.227 12.984.223 24.612.225 34.333.225c1.1 0 2.2-.006 3.298.002.974.007 1.467.494 1.488 1.471.014.64.003 1.28.003 1.995zM2.737 17.49h33.729V2.836c-.183-.009-.311-.021-.44-.021-10.216-.001-22.338.002-32.555-.01-.605-.001-.778.235-.776.806.015 4.458.008 8.916.01 13.374 0 .149.018.297.032.505zm33.776 2.667H2.708c0 2.443-.01 4.848.025 7.253.002.16.35.438.548.45.859.05 3.63.04 4.49.004.165-.006.39-.197.471-.36.277-.555.43-1.182.76-1.7 1.451-2.282 3.576-3.358 6.25-3.047 2.793.323 4.608 1.967 5.482 4.629.106.323.187.506.585.505 4.093-.016 8.187-.013 12.28-.003.34 0 .472-.106.567-.442a6.454 6.454 0 0 1 2.053-3.217c.123-.105.28-.264.282-.4.022-1.222.012-2.443.012-3.672zm2.64 2.607c3.985-.266 6.059 1.078 7.538 4.804.06.15.34.291.522.3.752.033 3.486.016 4.24.013.772-.003.833-.063.833-.86.002-3.828.001-7.657 0-11.486-.001-.185-.026-.371-.039-.545H39.153v7.774zm.024-16.471v5.992h12.121c-1.652-2.344-2.07-3.262-4.04-5.675-.103-.125-.33-.303-.504-.304-2.56-.02-4.973-.013-7.577-.013zM18.379 29.14a3.856 3.856 0 0 0-3.87-3.841c-2.144 0-3.909 1.777-3.883 3.91.025 2.123 1.77 3.848 3.886 3.843a3.863 3.863 0 0 0 3.867-3.912zm18.156-.003c-.017 2.143 1.678 3.891 3.797 3.915a3.903 3.903 0 0 0 3.957-3.84c.032-2.1-1.71-3.886-3.816-3.913-2.173-.027-3.92 1.676-3.938 3.838z"/></g></g></svg>