<svg xmlns="http://www.w3.org/2000/svg" width="43" height="30" viewBox="0 0 43 30"><g><g><path fill="#adc9d4" d="M21.43 30.007H2.516c-1.442 0-2.109-.655-2.11-2.088 0-8.573-.001-17.146.005-25.72 0-.367.023-.752.132-1.098.223-.71.89-1.119 1.752-1.121C4.64-.027 6.984-.025 9.33-.025H31.89c2.874 0 5.748-.003 8.622.005 1.243.003 1.933.698 1.934 1.955.005 6.927.003 13.855.004 20.782 0 1.746.004 3.493 0 5.239-.003 1.382-.677 2.05-2.06 2.05-6.32.002-12.64.001-18.96.001zM6.39 26.464h30.077L25.648 16.27c-.921.74-1.836 1.47-2.747 2.204-.965.778-1.726.772-2.693-.016-.942-.767-1.89-1.525-2.863-2.31L6.389 26.465zm.837-22.96l14.339 11.541L35.96 3.505H7.226zM3.942 5.37v18.578L14.576 13.93 3.942 5.369zm34.984.258L28.417 14.06l10.51 9.896V5.627z"/></g></g></svg>