<svg xmlns="http://www.w3.org/2000/svg" width="546" height="373" viewBox="0 0 546 373"><g><g clip-path="url(#clip-4400)"><path fill="#acc9d4" d="M81.208 120.191c.066-.184.137-.368.213-.552 1.196-4.848 1.035-9.708.98-14.66-.063-5.615-.476-11.14-2.028-16.549-.11-.382-.235-.76-.477-1.516-.471.936-.85 1.603-1.093 2.315-.664 1.94-1.667 3.591-3.861 3.683-.16.026-.327.043-.502.05-2.374.094-3.387-1.666-4.032-3.633-2.575-7.86-3.48-15.916-2.57-24.133.505-4.573 2.779-7.08 6.314-7.237 1.378-.157 2.965.061 4.73.67 3.599 1.24 6.661 3.686 8.727 7.196l-1.105-1.012c.256.371.505.761.746 1.171l-1.14-1.036c.571 2.372-.302 3.858-2.231 4.972-.442.255-.82 1.183-.727 1.713.796 4.57 1.707 9.12 2.584 13.675l.44.026c.958-1.81 2.167-3.536 2.797-5.453 1.125-3.416 4.784-5.42 8.359-5.656 2.507-.274 5.035.31 6.695 1.854 3.183 2.959 6.108 6.193 9.164 9.29 2.789 2.824 5.592 5.633 8.41 8.428.312.308.75.5 1.155.696a.662.662 0 0 0 .225.056c.054-.442.13-.78.055-1.08-1.246-4.973-2.329-9.99-3.504-14.983a2812.873 2812.873 0 0 0-3.745-13.862 94.995 94.995 0 0 0-3.002-8.109c-.561-1.32-1.125-2.639-1.74-3.934-.768-1.619-1.443-2.99-3.832-3.018-2.537-.03-3.609-3.073-2.478-5.625.306-.69.479-1.856.109-2.366-4.603-6.35-9.305-12.628-14.02-18.895-.487-.646-1.232-1.098-1.856-1.641-2.405-2.095-2.55-4.294-.404-6.638.559-.61 1.348-1.047 1.784-1.723a77.446 77.446 0 0 0 3.367-5.742c.338-.638.272-1.478.459-2.209.487-1.911 1.34-3.55 3.42-3.887.316-.09.648-.132.994-.123 1.993.053 3.446 1.978 4.007 5.075a101.747 101.747 0 0 0 3.092 12.523 938.237 938.237 0 0 0 2.354 6.613 96.581 96.581 0 0 0 2.817 6.407c.214.443.513.845.89 1.408 2.327-3.697 4.54-7.193 6.73-10.705 1.731-2.776 3.614-5.389 6.558-7.044.585-.33 1.177-.613 1.77-.8 1.3-.585 2.8-.517 4.161.48 1.904 1.396 3.076 3.492 2.25 5.72-.948 2.556-2.434 4.966-3.998 7.224-1.142 1.65-2.859 2.893-4.164 4.448-.394.47-.618 1.615-.326 2.046 4.122 6.066 6.194 12.88 7.54 19.98.045.237.14.466.261.774.784-1.525 1.555-3.056 2.362-4.568 1.515-2.842 3.37-5.37 6.371-6.842.737-.361 1.424-.597 2.075-.705 1.912-.592 3.664.17 5.215 1.937 4.726 5.384 4.793 9.224.185 14.883-1.385 1.701-3.58 3.16-4.303 4.978a6.913 6.913 0 0 0-.194 1.72c.233 1.69 1.442 3.588 1.797 5.407.605 3.094.893 6.25 1.301 9.324 4.473-3.59 9.981-6.048 13.679-10.883 1.264-1.652 2.955-3.033 4.628-4.305 2.733-2.078 5.725-3.264 9.152-3.005.832-.068 1.678-.128 2.524-.226-2.431-6.484-4.55-12.795-7.267-18.837-1.189-2.642-3.767-4.649-5.661-6.987-1.089-1.344-2.162-2.717-3.08-4.18-1.297-2.061-1.649-4.335-.103-6.368.914-1.201 2.07-1.8 3.345-1.97.804-.185 1.667-.17 2.54.04 8.617 2.073 16.197 6.061 20.292 14.232 2.78 5.544 4.41 11.67 6.457 17.57.358 1.033.54 2.326.242 3.334-.136.46-.363.987-.648 1.46-.343.728-.923 1.216-1.688 1.481-1.768.614-3.029-.536-4.837-3.505-1.477-2.426-3.28-4.655-5.178-6.691 1.182 5.596 2.298 11.176 3.622 16.705.251 1.052 1.364 1.944 2.191 2.803 5.066 5.26 6.772 11.406 5.962 18.692-.916 8.242.363 16.444 2.355 24.453 2.012 8.086 4.38 16.083 6.462 23.614 9.501-10.365 15.175-23.753 22.783-35.929 1.314-2.103 2.795-4.103 4.198-6.15l.045.068c3.022-4.526 6.309-8.873 9.998-12.926 5.645-6.202 12.436-10.218 21.072-10.526 1.113-.04 2.227-.357 3.32-.63 13.362-3.343 26.843-3.885 40.46-1.89 9.02 1.323 15.009 6.195 17.972 14.832.881 2.567 1.952 5.067 2.903 7.61 1.586 4.244 4.57 7.201 8.449 9.388 2.562 1.445 5.143 2.872 7.595 4.488 4.416 2.91 6.458 7.12 6.001 12.373-.26 3.002-.889 5.972-1.37 8.953-.571 3.536-1.002 7.113.636 10.443.566 1.15 1.776 2.18 2.938 2.802 2.713 1.453 5.576 2.625 8.673 4.047 5.253-5.09 10.823-10.275 13.905-17.468 2.027-4.733 1.798-9.248-1.441-13.46a57.779 57.779 0 0 1-3.45-5.022c-1.777-2.9-2.02-6.13-.78-9.165 1.41-3.447 3.21-6.765 5.15-9.95.927-1.52 2.757-1.627 4.507-1.027 3.47 1.191 6.965 2.312 10.437 3.498 2.712.928 5.505 1.698 8.085 2.913 6.427 3.025 8.279 7.476 6.244 14.237-.5 1.663-1.01 3.334-1.336 5.036-1.168 6.115 2.388 11.978 8.343 13.754 1.66.495 3.388.76 5.082 1.144 6.266 1.423 9.158 4.447 9.18 10.812.053 15.331-1.057 30.424-7.945 44.651-2.522 5.21-3.671 11.17-4.875 16.908-1.395 6.655-3.669 12.913-6.73 18.935-.336.662-.627 1.348-1.188 2.562 2.887-1.677 5.259-3.181 7.74-4.475 14.797-7.714 30.432-13.216 46.578-17.273 24.193-6.078 48.729-8.53 73.647-6.539 1.126.09 2.257.256 3.355.513 3.473.813 4.659 2.32 4.707 5.846 6.345 2.061 9.403 7.398 7.4 15.746-1.74 7.245-6.106 13.019-11.548 17.786-9.25 8.103-18.68 16.02-28.322 23.65-10.479 8.292-21.222 16.255-31.968 24.202-10.98 8.12-22.914 14.574-35.602 19.622-5.23 2.08-10.49 4.083-15.12 5.88 9.656 2.482 19.84 4.928 29.926 7.729 15.754 4.376 31.203 9.602 45.28 18.176 6.131 3.734 11.56 8.212 14.797 14.873 2.413 4.964 3.07 10.081 1.48 15.392-.401 1.339-.19 2.19.86 3.163 3.37 3.119 6.639 6.349 9.91 9.573 2.158 2.126 4.673 3.471 7.646 4.141 7.736 1.742 10.812 6.602 8.981 14.381-.653 2.776-1.767 5.455-2.804 8.126-1.108 2.853-1.68 5.658-1.349 8.81.802 7.633-2.255 13.584-8.203 16.171-1.716.746-3.798.912-5.7.866-.996-.024-2.67-.976-2.782-1.703-.17-1.092.494-2.597 1.292-3.487 1.136-1.268 2.9-1.967 4.063-3.218 1.722-1.85 3.446-3.816 4.632-6.021 1.35-2.51.32-4.78-2.45-5.469-2.293-.569-4.77-.619-7.154-.536-2.932.102-5.847.647-8.778.884-6.842.553-13.031-1.248-18.436-5.486-2.21-1.732-4.58-2.755-7.39-3.092-6.71-.805-11.852-4.428-16.226-9.379-2.444-2.767-5.076-5.369-7.522-8.135-6.578-7.439-15.217-9.998-24.712-10.54-2.446-.139-4.9-.118-7.566-.176 1.718 3.377 3.449 6.374 4.812 9.53 4.61 10.672 4.484 21.623.415 32.264-3.578 9.355-8.073 18.364-12.323 27.452-.815 1.742-.667 2.691.626 4.088 10.646 11.504 19.259 24.252 23.075 39.705 3.254 13.176 2.535 26.07-3.498 38.438-.263.538-.577 1.052-.76 1.576.271-.917.557-1.832.848-2.745-.178.386-.36.772-.549 1.158-.32.656-.702 1.282-1.148 2.09 1.363-4.075 2.95-7.875 3.898-11.828 3.259-13.594 1.254-26.69-4.341-39.335-4.608-10.413-11.316-19.407-19-27.72-.372-.404-.805-.751-1.22-1.104-1.203 1.307-1.272 2.467-.14 4.16 4.615 6.901 9.171 13.851 13.468 20.953 4.964 8.206 7.667 17.187 8.181 26.794.015.282-.014.567-.157.87-.555-5.637-1.213-11.303-3.325-16.523 1.786 5.276 2.736 10.812 2.805 16.592-.29-9.3-3.104-17.425-7.053-25.035-.98-1.801-1.985-3.59-3.003-5.372-3.858-6.473-8.327-12.673-12.478-19.04-1.33 1.072-.382 2.105-.036 2.968 2.586 6.44 5.619 12.727 7.794 19.3 3.622 10.941 6.71 22.06 10.013 33.107.104.35.095.734.031 1.135-2.292-9-4.947-17.87-8.033-26.65 2.612 8.139 5.019 16.347 7.304 24.594-4.894-17.57-10.932-34.735-18.895-51.72-.595.963-1.05 1.697-1.5 2.434-5.68 9.314-12.06 18.066-20.309 25.325-11.604 10.21-24.993 16.148-40.21 17.762-1.013.114-2.034.21-3.063.285-.788.059-1.578.148-2.363.27-.703.117-1.398.266-2.076.46-.756.214-1.545.352-2.348.412-6.483.727-13.748-3.605-11.176-12.727 1.51-5.355 3.693-10.545 5.872-15.682 7.514-17.72 11.539-36.08 10.471-55.4-.2-3.61-.696-7.21-1.204-10.793-.105-.743-.736-1.83-1.35-2.019-8.16-2.499-16.311-5.051-24.565-7.207-2.91-.76-5.781-.911-8.61-.63-3.68.43-7.286 1.58-10.818 3.053-11.291 4.709-22.498 9.599-32.953 16.028l-.11-.171c-.18.11-.358.221-.537.333-9.684 6.044-17.704 14.064-25.716 22.075-8.547 8.545-16.996 17.247-27.553 23.368-6.13 3.554-12.541 6.632-18.888 9.798-8.543 4.263-17.226 8.48-23.347 16.031-3.954 4.879-7.056 10.48-10.268 15.92-3.717 6.294-6.768 13.006-10.77 19.102-6.005 9.147-14.873 13.873-25.797 14.667-.744.054-1.499-.03-2.248-.05.438-.108.87-.282 1.313-.31 13.153-.836 22.49-7.562 28.687-18.87 3.48-6.352 6.603-12.897 9.892-19.352 4.182-8.21 9.639-15.423 17.573-20.269 6.816-4.163 14.005-7.711 20.962-11.651 5.967-3.38 12.342-6.302 17.634-10.55 8.208-6.59 15.794-13.983 23.375-21.314 8.043-7.777 15.874-15.883 25.71-21.33 9.42-5.217 19.348-9.517 29.031-14.265 5.311-2.605 10.66-3.997 16.069-4.231 5.483-.343 11.05.48 16.735 2.606 5.054 1.89 10.313 3.229 16.06 4.968-1.546-5.03-2.885-9.613-4.412-14.132-.293-.866-1.22-1.771-2.079-2.155-11.958-5.34-24.318-9.011-37.56-9.331-7.924-.192-15.672.36-23.182 2.08-9.557 2.408-18.214 6.968-26.776 11.86l-.11-.17a324.436 324.436 0 0 0-37.478 24.9c-2.03 1.56-3.29 3.35-4.28 5.613-7.878 17.988-16.883 35.299-30.361 49.884-.212.229-.254.614-.603 1.514l1.305-.84c-7.717 5.411-13.892 12.302-18.655 20.632l3.695-6.675c-6.1 5.175-11.674 10.027-17.38 14.718-12.592 10.353-25.267 20.605-37.86 30.955-1.505 1.236-2.719 2.827-4.067 4.253-2.48 2.168-4.97 4.321-7.435 6.506-4.544 4.028-7.746 8.9-9.921 14.613-3.036 7.972-6.462 15.796-9.72 23.684-.116.28-.225.561-.344.839-1.498 3.482-4.702 4.982-7.871 3.687-3.048-1.246-4.116-4.127-2.633-7.767 5.243-12.87 10.485-25.74 15.88-38.546 2.638-6.26 5.988-12.24 8.308-18.606 1.579-4.33 2.435-9.077 2.722-13.693.524-8.422 1.153-16.958.369-25.317-1.81-19.285 1.534-37.772 6.89-56.096 6.917-23.673 17.602-45.575 30.812-66.336 5.85-9.194 11.1-18.748 13.386-29.56.665-3.145 1.074-6.452.893-9.645-.41-7.248-5.005-11.564-11.277-14.266-6.544-2.819-13.415-3.57-20.427-2.304-6.453 1.165-12.869 2.533-19.3 3.812.474-.233.926-.547 1.426-.685 9.618-2.657 19.314-4.798 29.371-4.871 11.041-.08 21.06 3.487 30.759 8.322 4.243 2.115 8.52 4.162 12.734 6.217 2.016-2.3 2.016-2.3 1.038-3.809 2.072 1.077 1.872-.942 2.172-1.79 1.498-4.237 2.11-8.954 6.782-11.23-.186-.37-.238-.624-.393-.76-9.219-7.996-19.56-12.83-32.11-11.015-14.884 2.153-28.566 7.97-42.122 14.118-.191.087-.188.604-.275.921-2.877 1.078-5.773 2.106-8.614 3.27-.619.255-1.039.994-1.55 1.51l-3.24.905-.155-.295c1.925-1.239 3.74-2.717 5.796-3.675 8.12-3.786 16.204-7.696 24.523-11.002 6.418-2.55 13.104-4.497 19.78-6.307 14.27-3.87 26.972-.292 37.808 9.367 3.128 2.788 5.985 1.925 9.127 1.512.462-.06.767-1.317 1.14-2.048v.079l.004-.087.013-.026.215 1.939 5.234-.48c-3.89 1.137-7.831 1.97-11.814 2.451-3.976.48-6.329 2.703-7.356 6.327-1.267 4.47-3.134 8.6-5.83 12.386-1.962 2.756-1.576 5.62-.291 8.573.384.884.52 1.876.668 2.862-.084-.532-.19-1.051-.447-1.48-2.102-3.51-3.02-7.066-.742-10.776-12.201-7.865-33.101-15.688-38.09-14.22 1.664.592 3.244 1.077 4.764 1.705 8.505 3.515 12.673 10.102 11.793 19.265-.359 3.73-1.21 7.462-2.277 11.063-2.944 9.942-8.2 18.801-13.631 27.516-10.91 17.508-19.913 35.904-26.28 55.541-6.63 20.448-11.243 41.12-9.372 62.953 2.086 24.324-2.903 47.485-13.679 69.392-.642 1.305-1.255 2.625-1.88 3.938l-.227-.122 8.638-21.31-.697-.301c-.3.577-.634 1.14-.896 1.733-1.896 4.28-3.868 8.53-5.645 12.86-4.272 10.408-8.47 20.848-12.655 31.292-.915 2.286-.266 3.927 1.642 4.697 1.9.767 3.965-.06 4.94-2.008.269-.538.457-1.117.687-1.675l8.63-20.946c.334-.812.665-1.627.997-2.44l-.404-.242-1.412 1.933c.374-.709.655-1.49 1.137-2.115 9.991-12.978 21.977-23.98 34.458-34.459 12.833-10.773 25.948-21.214 38.683-32.102 11.149-9.532 21.288-20.09 29.654-32.217 11.752-17.034 19.793-35.923 27.247-55.084 3.308-8.505 4.368-17.434 2.325-26.282-2.3-9.964-5.385-19.759-8.426-29.534-1.576-5.065-4.79-9.185-9.012-12.495-1.222-.959-2.074-.963-3.08.368 5.757 7.492 9.452 16.011 12.334 24.966 2.65 8.23 4.476 22.677 2.749 27.814.03-.643.06-1.089.073-1.535.554-18.16-4.36-34.707-14.618-49.692-.8-1.17-1.454-1.4-2.94-.93-2.32.731-4.822.957-7.267 1.193-1.044.1-2.138-.316-3.332-.518.495 7.649-1.31 14.6-4.48 21.102a733.743 733.743 0 0 1-14.943 28.967c-8.631 15.867-15.76 32.267-19.701 49.994-3.509 15.777-9.277 30.784-16.353 45.302-9.54 19.576-21.191 37.92-32.786 56.296-2.766 4.383-5.56 8.747-8.341 13.12.868-.238 1.364-.76 1.752-1.353 11.946-18.22 24.285-36.2 35.706-54.744 11.873-19.28 20.675-39.963 24.579-62.473.164-.946.288-1.898.431-2.847.367 1.476.243 2.828.053 4.171-2.438 17.26-8.295 33.415-16.297 48.783-14.194 27.26-31.73 52.3-51.22 76.01 2.279-3.85 4.547-7.706 6.837-11.55 9.146-15.35 18.503-30.578 27.4-46.072 11.588-20.184 21.118-41.304 26.33-64.102 3.804-16.63 9.9-32.298 18.098-47.213 4.943-8.991 9.823-18.019 14.575-27.112 3.438-6.579 6.324-13.39 7.153-20.886.605-5.463.619-5.462-4.22-7.688 1.01.239 2.071.35 3.02.739 5.054 2.067 9.987 2.124 14.796-.691 1.434-.84 2.89-1.648 4.27-2.566 2.995-1.991 5.997-3.197 9.063-3.348l-.081-.127c3.108-.457 5.776.79 8.377 2.216 2.722 1.491 5.489 2.023 8.333 1.676.719-.13 1.44-.31 2.16-.529 5.024-1.523 8.748-4.942 12.51-8.334 3.641-3.284 7.17-6.744 11.909-8.47 1.707-.621 3.393-1.04 5.043-1.174 3.47-.397 6.777.412 9.776 3.142 3.028 2.756 3.059 5.654.33 8.643-.721.79-1.355 1.659-2.336 2.871 10.594 2.793 20.805 4.624 30.862 3.43 1.46-.192 2.916-.451 4.366-.784-.334-3.438-1.11-6.508-.765-9.445.274-2.33-.221-3.71-1.924-5.002a57.957 57.957 0 0 0-7.703-4.939 955.995 955.995 0 0 0-4.75-2.28 65.006 65.006 0 0 0-6.552-2.389c.841.099 1.663.25 2.469.443l-1.806-.864.097-.28 5.811 2.504c.316.132.631.267.945.408l7.574 3.262c-2.613-5.823-3.905-7.005-9.832-9.072-3.056-1.065-6.209-1.944-9.387-2.54-3.507-.656-7.092-.89-10.643-1.308.282-.007.564-.012.845-.015a86.766 86.766 0 0 1-.35-.041c9.117-.229 17.788 1.461 25.89 5.79a1.707 1.707 0 0 0-.168-.278 11.95 11.95 0 0 0-1.032-1.198c-6.688-6.71-15.01-9.494-24.234-9.46-4.493.017-8.929.323-13.312.885-5.523.833-10.982 2.11-16.414 3.501-12.573 3.221-24.475 8.071-35.417 15.139l-.246-.382c.66-.374 1.318-.753 1.974-1.135a249.21 249.21 0 0 1-3.415 1.744c5.11-3.024 10.18-6.19 15.538-8.75 13.43-6.422 27.538-10.42 42.247-11.768 2.255-.218 4.525-.375 6.808-.47 9.802-.408 18.887 1.942 26.248 8.97.955.912 1.826 1.911 2.717 2.89-.043-.72-.127-1.319.074-2.143.688-2.83.694-5.823 1.002-8.749.66-6.28-1.292-11.685-5.812-15.994-2.244-2.138-4.96-3.78-7.247-5.488.3.101.594.206.881.317a47.867 47.867 0 0 0-.72-.39c6.864 2.714 11.545 7.438 13.75 14.502-.062-5.497-.37-10.533-3.14-14.939-5.126-8.153-12.772-12.114-22.36-12.43-1.906-.063-3.81-.22-5.716-.335l-.1.006.12.011-1.833.118 2.772 2.771a6.895 6.895 0 0 1-1.022-.485l.535.535c-2.113-.786-4.524-3.098-5.779-5.764-.443-.94-.921-1.61-1.802-1.642-.08.02-.162.044-.248.073-5.123 1.732-10.305 3.3-15.382 5.158-5.11 1.87-8.557 5.778-11.363 10.245-2.076 3.306-3.93 6.75-5.882 10.134a158.9 158.9 0 0 1 1.076-2.685c-.518.913-1.037 1.826-1.563 2.734 2.791-7.107 5.853-14.084 12.216-18.816 2.017-1.5 4.37-2.69 6.742-3.542 4.38-1.574 8.884-2.806 13.344-4.157a4.343 4.343 0 0 1 1.102-.199c1.203-.207 2.22.161 2.683 1.56.768 2.322 2.288 3.618 4.658 3.89a75.813 75.813 0 0 1 2.758-.33c4.589-.492 9.202-.471 13.41 1.506 4.592 2.158 8.757 5.226 13.015 7.917a11.954 11.954 0 0 0-.604-1.027c-6.871-10.542-11.049-22.049-12.762-34.527a373.058 373.058 0 0 0-3.838-22.737c-1.414-7.036-5.093-12.97-9.867-18.173a3.427 3.427 0 0 1-.02.005c-1.243 1.067-2.402 2.04-3.532 3.047-14.34 12.781-25.843 27.685-33.085 45.559-2.364 5.835-3.516 12.15-5.463 18.168-2.33 7.202-5.42 13.865-13.776 15.956-1.364.34-2.026 3.73-.943 4.523 3.219 2.359 6.712 4.056 10.812 3.967.675-.127 1.345-.464 2.018-.67l.226.036c.087-.03.174-.06.26-.086l2.469.37c-.377.174-.82.45-1.301.592-1.044.308-2.07.508-3.078.605-4.085.533-7.841-.687-11.417-3.035-1.553-1.02-2.816-1.531-4.013-1.503-1.263.194-2.495 1.017-4.053 2.513-2.277 2.188-4.303 4.635-6.504 6.904-2.224 2.292-4.101 4.713-3.955 8.12-.045-.718-.221-1.504-.262-2.22a8.495 8.495 0 0 0-.242 1.686c-.013-1.327-.218-2.734.25-3.86 1.494-3.597-.385-6.604-1.304-9.78-.08-.276-1.002-.397-1.544-.437-.545-.04-1.09-.078-1.636-.115-1.749-.03-3.5-.013-5.25-.025l-.206-.32c-3.435-.214-6.867-.446-10.282-.83-4.001-.452-7.512-2.44-10.252-5.376-11.366-12.17-24.98-21.284-39.363-29.405-11.235-6.342-22.279-13.037-33.644-19.134-9.531-5.114-19.719-8.502-30.73-8.445-2.92.015-5.836.561-8.76.78-1.72.13-3.454.12-5.181.125-1.206.004-2.418-.178-3.616-.096-2.94.203-3.453 1.119-2.169 3.705 2.21 4.448 2.384 8.889 1.274 13.822-1.35 5.992-3.97 11.178-7.342 16.144-.584.86-.986 1.876-1.306 2.873-.64 1.996-.08 3.781 1.862 4.553 6.929 2.753 14.05 3.702 21.148.8 3.909-1.6 5.577-5.45 4.832-9.702-.418-2.384.058-3.207 1.424-3.376-.22.972-.875 2.18-.66 3.206 1.192 5.702-1.326 10.569-7.064 12.376-6.64 2.09-13.327 1.555-19.754-.961-3.996-1.565-5.19-4.852-3.226-8.678 1.472-2.87 3.452-5.476 5.182-8.214.381-.603.664-1.267.545-2.2l-7.88 10.55-.238-.122c1.204-2.028 2.336-4.103 3.633-6.07 1.37-2.075 2.9-4.044 4.354-6.062 4.898-6.794 4.945-13.721.346-20.624-2.76-4.144-5.857-8.063-8.637-12.194-2.703-4.014-4.439-8.408-4.168-13.399l-.627-.256c-1.06 2.453-2.327 4.84-3.134 7.374-1.475 4.632-.856 9.331.592 13.824 2.625 8.138 2.827 16.227.874 24.548-.884 3.766-.846 7.748-1.341 11.686.016-2.72-.471-5.557.137-8.138 2.484-10.55 2.338-20.906-1.043-31.246-.653-1.995-.559-4.234-.95-6.357-1.163 8.593-4.843 16.893-2.803 25.824-2.126-7.335-.6-14.456 1.324-21.556-8.073 11.9-12.345 24.381-5.935 38.433 4.777 10.476 11.78 19.343 20.495 26.75 12.207 10.374 26.5 3.232 30.905-7.192.144-.342.237-.705.25-1.243-5.592 9.75-13.12 14.425-24.323 9.364.42.067.853.09 1.257.209 11.004 3.248 19.957-1.681 23.26-12.794 1.349-4.535.956-9.044.196-13.679.286.845.618 1.678.852 2.537 4.51 16.563-7.359 30.726-24.796 29.549-11.341-.766-20.585-6.047-28.607-13.705-7.284-6.953-12.47-15.281-15.657-24.856-.669-2.009-.525-3.837.513-5.651 3.406-5.96 6.714-11.977 10.242-17.863 1.225-2.046 2.82-3.938 4.529-5.612 3.763-3.69 6.276-8.066 7.906-13.02 4.27-12.977 12.965-20.881 26.572-23.143.648-.108 1.292-.244 2.128-.402-3.508-1.809-6.886-3.368-10.084-5.236-7.307-4.265-12.63-10.71-17.943-17.069-4.399-5.265-8.313-10.933-12.58-16.311-4.089-5.153-9.715-7.4-16.126-7.354-9.08.065-17.878 1.726-25.953 6.112-3.957 2.149-6.98 5.29-8.419 9.668-1.192 3.628-.801 7.919-5.283 10.402-3.592-.786-5.92-3.68-6.975-7.78-1.05-4.076-.383-8.12.517-12.108a43.383 43.383 0 0 1 2.033-6.48c1.686-4.228 3.755-8.123 7.689-10.91 4.61-3.267 8.734-7.232 13.418-10.373 2.329-1.562 5.378-2.365 8.21-2.79 4.983-.75 10.046-1.225 15.083-1.309 7.16-.12 13.704 1.96 19.911 5.756 11.637 7.115 24.42 9.32 37.91 7.56.224-.029.445-.083.667-.13 12.674-2.692 22.228 2.269 29.789 12.135.429.56.919 1.073 1.31 1.526.199-3.383-.316-6.893.731-9.85a26.69 26.69 0 0 0 .598-1.916l-.05-.077zm345.74 341.766c-2.306-3.96-4.933-7.733-7.43-11.613a5.71 5.71 0 0 0-.048.028c.15.404.382.826.683 1.28a1009.59 1009.59 0 0 1 6.894 10.475l-.099-.17zm-94.952-82.187c3.594 1.251 7.12 2.703 10.796 4.12-.057-.302-.086-.532-.167-.742-.352-.916-.695-1.838-1.102-2.73-3.875-8.493-8.928-16.288-14.294-23.885-.56-.795-1.541-1.448-2.467-1.806-13.263-5.138-26.938-7.774-41.065-7.71-2.074.033-4.157.127-6.25.284-1.05.08-2.265.538-3.044 1.227-5.084 4.493-10.226 8.94-15.041 13.713-4.593 4.552-8.812 9.483-13.195 14.247l-.293-.455c-9.857 11.085-18.988 22.79-27.67 34.874-.286.397-.536.82-.802 1.23.749-.072 1.259-.352 1.716-.702 12.924-9.888 26.696-18.438 40.902-26.358 11.473-6.396 23.453-10.15 36.032-10.761 12.13-.705 24.106 1.334 35.944 5.454zm-48.827-46.175c-.886 1.086-2.2 1.821-3.31 2.728-13.138 10.743-25.66 22.156-37.374 34.444l-.144-.223a552.409 552.409 0 0 0-12.361 13.186c-5.691 6.268-8.388 13.473-10.51 21.972 21.505-28.894 44.426-55.512 74.892-74.58-1.72-.347-3.251-.253-4.71-.535a6.7 6.7 0 0 0-.163-.03c-2.325.063-4.48.784-6.32 3.038zm-41.912 35.265l3.659-3.559 13.636-14.186c-8.045 2.038-15.494 5.259-22.204 10.117l-.206-.319c-4.364 2.822-8.534 5.986-12.589 9.35-.43.356-.784 1.135-.738 1.68.443 5.164.98 10.32 1.429 14.862l17.108-17.797-.095-.148zm9.512-51.262c-3.297 2.76-6.414 5.745-9.8 8.39-3.233 2.524-6.564 4.253-10.048 4.776-3.505.656-7.158.08-10.983-2.229a13.032 13.032 0 0 0-2.02-.967c-1.192-.27-2.476-.383-3.663-.661l-.095-.148a10.06 10.06 0 0 0-5.09 1.23l13.472 40.31c.654-.5 1.494-1.115 2.305-1.767 9.735-7.831 20.22-14.357 32.338-17.639a85.615 85.615 0 0 1 3.21-.921c3.265-1.15 5.99-2.944 8.502-5.353 1.358-1.303 2.842-2.476 4.29-3.684 3.4-2.833 6.81-5.651 10.146-8.416-4.468-1.103-8.794-2.111-13.085-3.249-3.922-1.04-5.409-3.929-4.15-7.81.185-.574.451-1.12.671-1.683 1.32-3.384.089-5.22-3.598-5.316a16.098 16.098 0 0 0-1.843.057c-3.992.472-7.415 2.448-10.56 5.08zm43.769-38.925a21.602 21.602 0 0 0-2.111-2.7c1.487 1.935 2.931 4.424 4.508 7.68-.536-1.717-1.337-3.376-2.397-4.98zm-113.422-3.255c2.588.63 5.169 1.293 7.764 1.888.542.08 1.082.165 1.615.266.321.06 1.153-1.017 1.251-1.643.313-1.977.39-3.992.557-5.993l.489-.009.001-.017.723-.008.347 6.857c2.837-.912 5.355-4.654 4.82-7.675-1.29-7.278-2.706-14.535-3.884-21.83-1.036-6.421-3.326-12.365-6.568-17.922-6.893-11.816-8.26-24.187-4.53-37.31 2.62-9.221 6.765-17.771 10.906-26.336 5.793-11.983 6.716-24.29 2.803-37.005-3.003-9.757-5.455-19.628-5.631-29.923-.002-.11-.046-.22-.113-.355-.277.706-.555 1.274-.536 1.833.093 2.764-2.182 2.888-3.888 3.642-.235.104-.603.176-.858.132-.27.054-.66-.017-.84-.17-1.282-1.098-2.48-2.294-3.765-3.388-2.438-2.076-5.315-3.2-8.44-2.946-2.85.33-5.857.767-8.383 1.999-4.467 2.179-10.056 2.724-12.717 7.862-.112.772-.226 1.544-.34 2.316l3.78 36.876-3.78-36.876c-.531 3.58-1.08 7.157-1.513 10.748-.205 1.701-.026 3.448-.021 5.174l-.487.007v.044l-.6.008c.028-3.32-.214-6.673.165-9.954.338-2.926 1.363-5.774 2.085-8.657-.22-.155-.492-.438-.701-.566-2.136.887-3.936 2.06-4.057 4.806-.2 4.549-.516 9.092-.784 13.637l-.483-.014-.003.064-.544-.015.628-15.376c-1.046.986-2.137 1.784-2.601 2.853-1.759 4.058-3.692 8.14-4.672 12.415-1.8 7.861-.582 15.768.883 23.593l.585 3.112.52 2.78c-.44-1.334-.86-2.668-1.253-4.002.252 1.381.506 2.762.747 4.145-4.372-13.323-6.757-26.649.258-40.225-.727.468-1.33 1.003-1.925 1.546-13.394 12.214-19.628 37.14-3.19 55.5 6.389 7.137 12.822 14.237 19.043 21.519 5.616 6.573 10.11 13.893 13.533 21.863 5.736 13.353 9.722 27.432 16.906 40.198 2.07 3.678 2.907 7.915 3.065 11.14-.218-.58-.432-1.19-.647-1.823.08.65.133 1.277.165 1.87-1.385-3.665-2.546-8.529-4.932-12.692-5.537-9.666-10.385-19.585-13.909-30.156-3.277-9.835-7.985-18.944-14.656-26.9-5.572-6.645-11.463-13.021-17.196-19.53-4.206-4.774-8.103-9.77-10.651-15.667-3.132-7.247-3.563-14.747-1.98-22.42 2.417-11.706 8.737-21.33 16.273-30.3l-1.695 2.653c.711-.9 1.436-1.795 2.172-2.684l-3.787 5.917.092.006a.96.96 0 0 0 .438-.262c8.247-8.095 18.118-13.545 28.937-17.24 1.81-.618 3.597-1.007 5.34-1.126 4.36-.416 8.496.805 12.111 4.424.688.69 1.464 1.302 2.255 1.874.558.404 1.068.616 1.533.632.528-.15.98-.588 1.36-1.293 1.17-2.168 1.447-4.44.691-6.783-1.616-5.008-5.3-7.837-10.035-9.698-2.85-1.122-5.802-2.264-8.267-4.017-3.787-2.692-7.686-4.216-12.355-3.72-4.415.607-7.752 3.26-10.93 5.987-2.032 1.743-3.432 4.222-5.116 6.37l-.194-.104.397-.744c-.216.295-.434.586-.657.871l-.203-.121 3.07-5.79c-2.385 1.471-4.59 2.57-6.312 4.182-2.443 2.288-4.589 4.952-6.553 7.677-2.152 2.986-3.82 6.318-5.94 9.328-2.068 2.935-4.113 6.017-6.745 8.396-6.616 5.98-10.256 13.1-8.824 22.03.902 5.617 2.487 11.166 4.239 16.593 1.4 4.34 2.843 8.844 6.351 12.104 6.464 6.006 10.97 13.404 15.163 21.026 4.522 8.219 9.317 16.23 15.663 23.231 8.317 9.176 14.654 19.298 15.745 32.111.473 5.56 2.783 10.59 6.176 15.108 1.626 2.165 3.004 4.528 4.376 6.871 2.15 3.675 3.884 9.035 3.747 11.65a20.86 20.86 0 0 0-.182-.652c-1.334-2.137-2.243-4.448-3.723-6.303-1.963-2.46-4.218-4.77-6.671-6.74-7.606-6.106-12.4-13.787-14.428-23.365-1.218-5.753-2.874-11.46-6.493-16.287-3.754-5.006-8.16-9.246-13.071-12.854l-.203-.136-.017-.025c-3.237-2.359-6.691-4.446-10.322-6.3-4.72-2.41-9.788-3.615-15.063-1.638-1.19.446-2.27 1.18-3.401 1.782l.068.789c10.345-1.594 18.5 2.813 26.02 8.967-8.197-5.435-16.532-10.406-27.027-8.076l.405-1.36c-1.132.586-1.82 1.086-2.588 1.314-3.09.918-6.263 2.572-9.29 2.356-2.444-.175-4.966-2.37-7.008-4.174-2.115-1.868-3.794-4.27-5.485-6.57-3.042-4.137-5.872-8.448-10.516-11.045-11.293-6.313-23.075-6.216-35.064-2.52-2.93.904-5.822 2.103-7.915 4.786 9.627-2.769 18.972-2.114 28.209 1.022-1.012-.067-2.003-.316-2.997-.55-7.07-1.664-14.199-2.017-21.364-.774-2.707.47-5.266 1.29-6.763 3.978-2.735 4.913-.831 13.293 3.785 16.546 3.692 2.602 7.87 3.764 12.276 4.265 1.868.212 3.747.328 5.62.487-6.554.577-12.787-.352-18.714-4.475 5.345 8.41 7.385 9.488 16.646 9.11a37.705 37.705 0 0 0 2.032-.148c2.549-.242 5.092-.56 7.646-.728 12.305-.81 23.728 2.535 34.404 8.195 11.594 6.146 22.876 12.881 34.26 19.419a252.963 252.963 0 0 1 5.532 3.267l-45.55-28.894c23.445 12.768 45.864 27.148 67.466 42.797l-15.263-9.682c9.141 6.059 17.687 12.899 25.18 21.132 1.48 1.628 3.515 2.84 5.468 3.932 3.3 1.845 6.919 1.884 10.992 1.521-2.256-2.197-3.688-4.321-3.928-7.04.735.881 1.236 1.887 1.844 2.825 1.17 1.806 2.638 2.911 4.266 3.63l-.15-.233zm-29.1-168.414a1.562 1.562 0 0 1-.028-.02c-.08.14-.16.285-.236.432-.06.421-.122.842-.184 1.262.156-.557.307-1.115.447-1.674zm14.126 145.15l8.379 8.36c.249.147.498.286.749.418-6.16-6.19-11.721-12.767-14.647-21.055l2.573 7.7-.16-.25a38.299 38.299 0 0 0 4.397 6.832l-1.29-2.005zm-31.666-49.2c7.633 4.33 13.803 10.352 19.448 16.951 2.256 2.638 4.374 5.394 6.53 8.118-7.407-12.05-17.163-21.569-27.902-30.181a127.831 127.831 0 0 1-2.495-1.754l-1.48-2.299c-5.11-4.48-10.257-8.916-15.392-13.367 4.553 3.609 9.168 7.156 13.72 10.768l-.775-1.204c13.227 10.683 26.203 21.605 35.466 36.086-5.849-11.927-15.604-20.843-24.51-30.63l1.704 1.295c-.375-.409-.75-.82-1.12-1.23l3.016 2.22c-.47-1.236-1.087-2.344-1.739-3.43-5.117-8.531-9.244-17.687-15.922-25.23-.649-.732-1.242-1.664-2.072-2.059-3.984-1.894-7.945-3.907-12.094-5.372-7.095-2.506-13.059-6.59-17.865-12.251-4.88-5.75-9.478-11.74-14.12-17.686-6.998-8.966-15.654-13.604-27.386-11.428-6.648 1.234-13.39.933-20.05-.384-1.412-.28-2.815-.604-4.222-.908l-.138.438 24.917 9-.199.516-24.168-8.509c.567.646 1.247 1.08 1.926 1.515 5.654 3.615 11.509 6.953 16.927 10.892 22.26 16.182 44.405 32.52 66.55 48.86 5.819 4.293 11.485 8.792 17.22 13.197-.575-.323-1.189-.592-1.72-.976a55812.221 55812.221 0 0 1-51.486-37.262c-16.176-11.725-31.91-24.078-49.041-34.442-.968-.585-1.954-1.138-2.932-1.706l-.203.33 5.827 6.527c-1.61-1.193-2.963-2.606-4.358-3.976-1.345-1.32-2.683-2.653-4.115-3.874-1.389-1.186-2.893-2.236-4.346-3.346.637 2.253 1.73 4 2.44 5.89 1.801 4.797 3.32 9.7 5.15 14.486 5.858 15.315 15.605 27.236 30.45 34.712 6.063 3.054 12.116 6.154 17.992 9.547 2.831 1.634 5.605 3.674 7.762 6.102 3.481 3.92 6.567 8.216 9.57 12.526 3.598 5.162 11.372 6.16 15.978 1.663-7.288-2.878-13.417-7.401-19.13-12.541.81.408 1.51.98 2.269 1.46 5.406 3.42 10.803 6.854 16.264 10.184.643.392 1.747.445 2.477.192 1.773-.613 3.463-1.477 5.156-2.3.228-.111.284-.573.419-.873l-.003-.006.004.003v.005l6.017-.085-26.913-19.031.339-.488c.535.344 1.085.668 1.605 1.035 7.08 5.005 14.273 9.864 21.19 15.086 3.804 2.871 8.05 4.235 12.605 5.17-18.11-14.07-38.18-25.432-55.283-39.537 11.274 7.765 23.247 15.894 35.093 24.205 9.178 6.439 18.15 13.172 27.31 19.637l-.162-.251zm-28.72-44.624c1.323.528 2.626 1.115 3.975 1.564 1.09.364 2.211.63 3.327.914l-9.86-11.76.236-.195c2.97 3.56 5.948 7.114 8.9 10.688.312.38.531.835.771 1.279l.604.157a7.203 7.203 0 0 1-.036-.068l.063.076v.053l1.634.803c-2.71-4.916-6.145-9.324-8.55-14.236-6.4-13.076-12.312-26.39-18.444-39.598-1.311-2.822-2.728-5.596-4.097-8.391l-.011.002-.021 13.957.098.026 2.12-5.815.434.156.072-.19-.008.213.18.065c-.075.214-.149.429-.222.644a19.103 19.103 0 0 1-1.086 5.053c-1.025 2.83-2.256 5.584-3.4 8.371l-.283-.44c-.639 2.104-.988 4.258-.729 6.513.33 2.865.716 5.996 2.118 8.402 2.262 3.882 5.292 7.337 8.17 10.831 1.879 2.282 4.062 4.316 6.108 6.46l.515-.45c-3.451-4.95-6.568-10.063-7.866-16.051.433.858.764 1.759 1.088 2.663 2.931 8.175 6.976 15.287 14.629 18.971l-.43-.667zM442.197 526.79l-.092.312c.024-.104.055-.209.092-.312zM193.805 294.365zm13.066-97.953c-.305.172-.784.274-.887.528-1.17 2.884-2.283 5.79-3.411 8.69.095.043.19.084.286.126l1.248-2.892c.478-.316 1.214-.528 1.391-.965 1.082-2.675 2.036-5.402 3.032-8.111l-.4-.154-1.259 2.778zM125.918 90.234c-.162-.513-.335-1.011-.638-1.339l.151 1.389c-.274-.866-.577-1.69-1.49-1.72a3.29 3.29 0 0 0-.398.115c.678 2.552 1.274 5.079 2.056 7.547.184.582.8 1.028 1.298 1.51l1.188-1.115c3.83-3.72 4.4-7.448 1.726-11.248l-4.063 3.302.17 1.559zm64.903.333l.322 1.65.132-.023c-.091-1.243-.524-2.579-.214-3.712 1.355-4.961-.434-9.115-3.396-12.754-2.364-2.905-5.596-5.116-7.886-8.067-1.581-2.038-4.252-2.946-7.029-2.729a11.1 11.1 0 0 0-6.886 3.626l1.456-.246-.07.044.556-.093-9.798 6.306.236.676c.53-.096 1.05-.166 1.562-.21 5.421-.636 9.947 1.505 14.19 4.864 1.489 1.179 3.433 1.878 5.268 2.503 3.044 1.036 5.78 2.448 7.997 4.625-1.155-1.344-2.328-2.67-3.573-3.924-1.222-1.23-2.897-2.01-4.322-3.041.75.314 1.468.66 2.156 1.04-.567-.353-1.136-.704-1.67-1.09 5.006 2.097 8.627 5.646 10.962 10.542-.436-.5-.868-1.002-1.299-1.506.197.346.387.7.57 1.061.246.15.504.291.732.453 0-.003-.002-.006-.003-.008l.011.013zm-1.563-1.15c.1.148.232.276.38.392l-.573-.668c.065.09.13.183.193.276zm-3.35 127.415l6.86 17.748.208-.05c-.988-8.648-1.639-17.3-.688-25.975-.006 2.203.007 4.404.05 6.604.055-2.217.194-4.434.437-6.654-.029 9.304.307 18.571 1.715 27.96.977-10.731 1.68-21.238 3.078-31.65 1.807-13.45 6.422-28.249 9.402-32.184-.237.635-.468 1.27-.695 1.907.417-.81.816-1.474 1.19-1.969-4.348 11.638-6.872 23.447-8.249 35.5 3.836-15.227 8.72-30.083 14.98-44.226-.207.133-.415.268-.621.404-2.632 2.45-5.336 4.5-8.56 4.82-1.872.353-3.778-.037-5.661-.895l-.781 1.46c.04-.407.075-.75.099-1.046l-.586 1.095c-.097-1.26.945-2.828-.766-3.65-5.066 10.366-10.304 20.62-12.498 32.06-1.028 5.353-1.487 10.753-.214 16.14.217.918.856 1.737 1.3 2.601zm15.594 53.646c2.223-.108 4.786-.592 7.248-.28a14.28 14.28 0 0 0 3.01.079c3.793-.474 6.636-2.685 8.875-6.185.892-1.393 1.876-2.826 2.328-4.383 1.45-4.992 2.637-10.06 3.992-15.082 1.567-5.813 2.582-11.874 4.93-17.36 6.965-16.27 17.486-30.23 29.536-43.082.488-.521.939-1.077 1.605-1.845-2.845-2.209-5.48-4.21-8.059-6.28-.453-.364-.85-.565-1.237-.589-.318.115-.628.356-.962.693-4.192 4.229-8.588 8.269-12.616 12.647-11.321 12.308-21.702 25.315-28.95 40.545-.063.13-.294.18-.905.531l.136-.28c-.14.07-.341.168-.623.329 10.515-21.734 25.95-39.016 43.007-55.47-2.776-1.484-5.397-2.948-8.09-4.267a.966.966 0 0 0-.402-.086c-.337.07-.688.2-.977.32-2.505 1.042-4.902 2.424-7.484 3.19-5.28 1.569-8.802 4.892-11.364 9.672-1.477 2.756-3.262 5.493-5.458 7.688-7.433 7.427-13.205 15.86-16.762 25.766-1.582 4.405-2.68 8.908-2.582 13.64l3.115-7.444.249.136c-.09.31-.178.62-.266.93l.484-1.181.285.119-3.362 11.802c1.217-2.337 2.144-4.757 3.208-7.116 1.303-2.887 2.78-5.698 4.261-8.5 1.465-2.772 3.03-5.492 4.552-8.234-.282.88-.613 1.731-.976 2.564.486-.867.973-1.733 1.455-2.602-2.39 5.5-5.164 10.78-7.754 16.147-4.84 10.026-7.866 20.493-6.417 31.753.465 3.618 1.703 7.138 2.732 11.138l1.41-1.339-1.353 1.565.038.15a6289.8 6289.8 0 0 0 1.754-1.784l-1.611 1.985zm6.672-125.612c-.212.059-.537.05-.618.187-2.398 4.032-4.77 8.078-7.235 12.27.162.015.315.022.46.02 1.785-.227 2.058-1.888 2.849-2.975.059.179.119.324.18.439.096-.17.197-.335.307-.488.14.424.286.657.432.76.262-.2.502-.6.68-.76 2.702-2.406 5.337-4.886 8.005-7.33 6.233-5.713 12.544-11.324 20.267-15.022 2.5-1.197 4.467-2.92 6.132-5.168 1.6-2.16 3.576-4.041 5.387-6.045l.064.1c6.656-7.126 14.154-13.258 22.835-18.042-10.622 6.634-19.648 14.953-27.469 25.435.376.055.612-.035.85-.119 2.303-.807 4.607-1.61 6.91-2.416l.022.032 9.835-3.5a5.224 5.224 0 0 0-.008.008c-.24.207-.457.443-1.087 1.063 10.8-2.015 21.07-2.31 31.36-.102 1.054-1.94 1.912-3.885 3.084-5.618 5.624-8.323 12.812-14.08 22.85-15.468l-12.017-3.74a40.59 40.59 0 0 0-6.037.314c-7.422.936-14.061 3.861-20.17 8.104 7.3-5.745 15.277-12.803 24.073-13.05 10.104.31 22.634 5.57 28.247 12.76l-3.314-1.032c2.53 1.656 4.99 3.434 7.455 5.173 7.67 5.406 8.054 7.832 4.739 16.541-2.132 5.6.212 12.949 9.01 12.771-2.258-3.815-2.221-7.917-1.672-12.091.374-2.845.84-5.685 1.045-8.543.347-4.864-1.567-8.692-5.78-11.226-2.52-1.515-5.128-2.886-7.699-4.316-3.95-2.197-6.99-5.234-8.705-9.476-1.073-2.656-2.222-5.291-3.12-8.007-2.56-7.738-7.681-12.356-15.801-13.761-11.877-2.056-23.741-1.98-35.63-.253-.163.024-.298.236-.586.477l2.871.298c-3.002.505-5.99.713-8.98.853-8.022.376-15.042 3.284-20.028 9.543-5.763 7.234-11.065 14.858-16.22 22.546-6.657 9.93-11.152 21.237-19.607 30.058-3.715 3.876-5.063 10.075-4.342 15.845.266-.428.5-.809.715-1.202 1.66-3.043 3.231-6.138 4.968-9.137 8.003-13.82 16.051-27.614 24.083-41.417l.268.415c2.954-4.579 6.344-8.825 10.71-12.275 5.443-4.302 11.483-7.335 18.33-8.643-.212.223-.474.33-.744.408-10.88 3.176-19.613 9.414-25.56 19.03-6.887 11.138-13.336 22.546-19.931 33.863-2.29 3.93-4.446 7.937-6.663 11.909zM530.215 409.55c2.403 2.53 3.007 4.895 1.042 7.727-1.85 2.665-4.39 4.86-6.68 7.209-.989 1.014-2.114 1.895-3.515 3.135 2.994 1.276 5.212.926 7.353-.202 4.844-2.553 6.515-6.952 6.652-12.054.206-7.651-3.014-14.077-7.685-19.845-6.57-8.114-14.78-14.427-23.25-20.358-26.572-18.612-56.038-29.685-88.264-33.42-.728-.084-1.447-.247-2.17-.374 10.492.342 20.753 2.039 30.858 4.647 26.188 6.76 49.842 18.59 70.9 35.584 6.847 5.526 13.283 11.44 17.592 19.269 1.126 2.046 1.976 4.244 3.067 6.622 1.061-3.616 2.27-6.892 2.931-10.275.466-2.385.483-4.954.161-7.37-.357-2.688-2.095-4.63-4.76-5.552-3.071-1.064-6.148-2.111-9.26-3.18.805 1.253 1.717 2.55 2.5 3.92.747 1.307 1.36 2.69 2.032 4.04-12.633-19.703-30.01-33.364-51.95-41.354 12.754 2.688 23.601 9.072 33.712 17.421.311-.925.626-1.603.766-2.315 1.468-7.492-.917-13.818-5.936-19.318-4.568-5.006-10.396-8.19-16.37-11.11-20.228-9.884-41.838-15.629-63.524-21.146-8.375-2.13-16.138-.671-23.501 3.635-.693.405-1.703.947-2.298.72-2.6-.992-5.01.132-7.471.422-7.883.927-15.72.972-23.595-.072-.934-.094-1.685-.173-1.99-.212-4.53-.582-9.063-.795-13.557-.357-.927.095-1.85.213-2.77.356a42.104 42.104 0 0 0-3.215.643c-2.58.623-5.122 1.407-7.657 2.214a58.732 58.732 0 0 0-4.605 1.955c.928.225 1.87.409 2.804.609l1.415.096c.387.18.77.367 1.156.549.328.1.652.211.972.333a93.3 93.3 0 0 1 2.928 1.179c1.858.65 3.709 1.31 5.32 2.33.83.37 1.661.737 2.495 1.098 1.78.771 3.496 1.892 5.357 2.24 6.2 1.163 12.44 2.117 18.674 3.103 1.46.11 2.92.216 4.379.336l.167.26c.448.042.896.084 1.343.132l-.12.745-11.93-1.718-12.605-1.535c2.867 2.393 6.36 3.598 10.206 3.977l-1.07.204c2.978 1.323 6.048 2.228 9.129 3.096 12.996 3.665 24.944 9.52 35.73 17.605 3.829 2.871 7.456 6.127 10.677 9.662 3.443 3.78 6.992 6.6 12.425 6.594 10.372-.012 19.326 3.723 26.705 11.016 3 2.964 5.764 6.167 8.642 9.255 4.652 4.99 9.938 8.667 17.068 9.261 1.96.164 4.047 1.28 5.673 2.496 6.002 4.493 12.62 6.258 20.027 5.349 5.098-.626 10.188-1.79 15.75-.199l-.827-1.075c.659.662 1.324 1.32 1.967 1.997zM407.087 296.056a1.81 1.81 0 0 0-.024-.007l-.053.085.077-.078zm7.533-8.02c.965-.487 2.675-.524 3.49.036.666.458.742 2.133.65 3.233-.088 1.054-.73 2.063-1.37 3.717 1.168-.883 1.922-1.33 2.522-1.93 2.396-2.397 4.683-4.906 7.134-7.245 1.514-1.444 3.147-2.824 4.92-3.92 1.543-.953 3.253-.691 4.484.806 1.108 1.35.688 2.766-.314 3.92-1.87 2.152-3.845 4.218-5.816 6.281-4.457 4.667-8.94 9.311-13.411 13.964 4.017-.75 7.675-1.903 11.353-2.99 9.649-2.851 19.171-6.12 27.612-11.682 9.507-6.265 18.95-12.677 27.999-19.578 15.233-11.617 30.206-23.579 45.137-35.584 5.909-4.752 11.015-10.329 13.81-17.602 1.324-3.448 1.99-7.015.812-10.628-.646-1.982-1.408-4.072-4.052-4.244-1.134-1.13-2.27-2.26-3.518-3.5l-1.132.728-.132-.216 1.888-1.215c-.408-2.441-2.139-3.39-4.137-3.64-3.364-.422-6.762-.708-10.152-.775-35.116-.693-68.887 5.723-101.228 19.445-7.29 3.093-14.536 6.338-20.756 11.424-4.664 3.813-9.163 7.883-14.137 11.246-5.111 3.455-10.662 6.278-16.106 9.218-6.67 3.603-11.961 8.564-15.904 15.047-7.706 12.667-15.41 25.352-28.44 33.524-.371.233-.633 1.02-.569 1.498.191 1.425.555 2.826.903 4.443.385-.11.785-.22 1.14-.412 4.167-2.26 8.306-4.574 12.478-6.825a921.3 921.3 0 0 1 6.635-3.537c5.8-3.237 11.593-6.49 17.33-9.837 4.178-2.44 7.779-5.464 9.464-10.46.773-2.29 2.727-4.328 4.53-6.086 2.234-2.177 4.614-1.266 5.325 1.73.079.334.187.66.453 1.588 3.165-3.386 5.913-6.574 8.925-9.49 4.442-4.302 6.074-10.237 9.183-15.307 1.592-2.597 2.624-5.588 3.58-8.509.935-2.858 1.364-5.878 2.182-8.78.722-2.565 2.278-4.58 4.702-5.824 2.081-1.068 3.308-.71 3.617 1.562.4 2.948.773 6.057.263 8.939-1.238 6.999-3.663 13.536-10.086 17.914 2.163 1.525 5.442 1.968 4.285 6.115l9.243-4.656.172.322-7.506 4.112c2.862 3.413 2.808 4.226-.777 10.091 21.256-14.964 44.61-23.969 68.561-31.657-9.732 4.015-19.532 7.873-29.299 11.814-9.1 3.672-25.864 11.717-28.207 14.016.716.087 1.396.098 2.037.26 2.107.536 3.757 1.634 4.153 3.944.363 2.122-.835 3.456-2.56 4.344-4.758 2.448-8.186 6.297-11.455 10.406-2.88 3.62-5.25 3.297-7.758-1.308-8.951 13.215-22.485 19.277-36.615 24.456 1.038.045 2.007-.06 2.979-.14 9.621-.801 19.239-1.663 28.87-2.345 2.053-.145 3.87-.29 5.022-2.219l.037.01c1.974-3.19 4.12-6.276 7.557-8.011zm-6.46 8.282c.824-.396 1.568-.96 2.342-1.459l.387.552c-.598.492-1.228.95-1.788 1.481-2.868 2.724-5.92 5.294-8.488 8.28-1.239 1.439-1.836 3.624-2.17 5.567-.17.989.622 2.736 1.459 3.136.81.387 2.526-.195 3.324-.922 1.184-1.08 1.922-2.654 2.829-4.031 2.103-3.197 4.172-6.417 6.297-9.598 1.585-2.374 3.403-4.61 4.773-7.098.5-.906.003-2.36-.04-3.565-1.032.255-2.111.397-3.08.803-.662.278-1.208.886-1.743 1.412-1.74 1.711-3.452 3.45-5.175 5.18.373.119.817.386 1.073.262zm-55.955 201.777c.165.207.209.314.259.316.24.013.481.028.72.017 13.161-1.425 25.061-6.107 35.678-14.05 9.005-6.739 16.086-15.239 21.978-24.716 9.066-14.581 16.9-29.794 22.704-45.997l.217.336c2.886-9.055 3.596-18.248.263-27.39-5.068-13.907-14.57-24.334-26.326-32.906-7.717-5.628-16.63-8.658-25.525-11.664-1.16-.281-2.217-.562-3.063-.84-10.77-3.55-21.381-7.345-30.881-13.845-2.81-1.923-6.516-2.599-9.892-3.58-.802.128-1.632.49-2.103.957-.455.45-.06 2.256.477 3.13 2.998 4.88 6.153 9.664 9.258 14.478 3.306 5.125 6.612 10.25 9.933 15.365.2.31.44.596.684.878l-6.84-10.626c2.02 2.687 3.912 5.472 5.85 8.214l-5.304-8.241c3.744 5.035 7.058 10.404 11.088 15.167 7.404 8.748 15.24 17.13 22.87 25.686 1.507 1.688 2.933 3.451 4.334 5.229 1.34 1.7 2.6 3.462 3.895 5.198l-.06.014-3.59-4.205c1.122 1.372 2.244 2.746 3.376 4.11l-.239.188-12.683-14.868-.196.132c6.36 8.334 10.538 17.594 12.115 27.955 1.564 10.276.765 20.328-2.756 30.115.012-.883.227-1.738.435-2.596.203-.835.392-1.668.568-2.5a80.268 80.268 0 0 1-1.423 5.107c-.036-.9.191-1.809.41-2.72 4.344-18.056 2.408-35.372-8.206-50.72-7.113-10.286-15.778-19.499-23.766-29.18l-.254.178 7.805 12.127-.538.344-.135-.21-.341.219-16.35-25.403-.191.106 23.998 48.08c-2.2-3.86-4.256-7.79-6.268-11.741a1372.23 1372.23 0 0 0-3.672-7.144l9.39 18.81c-1.97-3.4-3.74-6.893-5.495-10.394-6.016-12.007-12.096-23.982-18.019-36.035-5.007-10.19-10.407-20.13-17.77-28.844-4.046-4.787-9.412-7.086-15.629-6.766-.969.05-1.865.219-2.679.491-1.76.699-3.065 1.938-3.652 3.717-.685 2.075-1.023 4.917-.128 6.728 2.013 4.073 4.638 7.917 7.464 11.499 8.28 10.491 16.725 20.842 23.531 32.406 4.651 7.903 8.657 16.088 11.224 24.907 6.67 22.917 5.078 45.58-2.623 67.91-2.655 7.698-6.159 15.1-9.06 22.72-.95 2.496-1.564 5.23-1.719 7.892-.196 3.385 2.291 6.693 5.536 7.064 1.89.215 3.822.388 5.705.231 2.453-.26 4.782-1.076 6.723-3.107 4.362-4.562 8.478-9.36 12.687-14.067.35-.39.587-.877.9-1.301.303-.408.637-.792.957-1.187a95.566 95.566 0 0 1-2.394 3.842c1.1-1.338 2.216-2.699 3.369-4.086-4.738 7.436-9.808 14.02-16.631 19.066zm-63.997-332.213c-.709-.514-1.423-1.021-2.126-1.544-6.573-4.885-13.51-8.938-20.819-12.132l.131.204c-6.967-2.214-13.865-4.684-20.92-6.567-1.786-.476-3.585-.853-5.383-1.07-3.986-.41-7.917-.1-11.679 1.763-1.89.937-3.709 2.028-5.513 3.125-5.475 3.332-11.179 6.15-17.45 7.969.536.296 1.078.25 1.58.369 10.504 2.484 21.173 4.44 31.464 7.615 15.87 4.896 28.33 14.769 37.878 28.384 8.608 12.275 13.775 25.93 16.672 40.524 2.899 14.605 6.03 29.106 13.627 42.214 3.925 6.771 8.513 13.002 13.876 18.675.185.196.374.41.573.606.485.19 1.011.341 1.475.552-.054-.86.054-1.768-.184-2.574-2.972-10.077-6.295-20.062-8.913-30.23-2.29-8.892-4.052-17.943-5.588-27.002-.694-4.098-1.122-8.764-1.507-13.44-.56-4.181-1.087-8.368-1.604-12.557-1.141-9.234-3.11-18.297-7.216-26.753-5.614-11.563-14.93-19.173-26.403-24.325a65.792 65.792 0 0 0-.141-.063l.02.03-13.988-4.978.06-.262.476.15-.06-.022c3.89 1.03 7.77 2.146 11.513 3.603.42.121.842.242 1.263.366l.124.192c11.267 4.696 20.643 11.752 26.798 22.556 4.55 7.986 6.846 16.732 8.276 25.715 1.922 12.067 3.665 24.163 5.52 36.241.263 1.719.658 3.417 1.016 5.121.11-.549.075-1.061.028-1.573-.827-9.077-1.75-22.807-2.58-31.884v.001c-1.013-9.192-2.35-18.346-4.576-27.392.281.397.415.818.529 1.244 3.829 14.29 5.09 28.963 6.279 43.622 1.283 15.814 2.73 31.562 8.197 46.632 1.292 3.562 2.397 7.193 3.663 11.056l.89-2.06c.217-.172.531-.299.635-.523 2.625-5.708 6.623-13.36 10.15-20.355 7.484-17.774 10.308-36.195 6.43-55.597-2.61-13.06-7.09-25.53-11.61-37.988-3.628-10.006-7.465-19.934-13.48-28.85-5.093-7.548-11.388-13.671-19.893-17.23-8.539-3.572-17.518-4.59-26.664-4.058-10.188.591-19.695 2.801-28.522 6.596-4.293 1.919-8.74 4.347-12.942 7.02-4.055 2.692-7.941 5.775-11.658 9.244-2.654 2.479-5.055 5.23-7.56 7.869-.073.12-.143.24-.21.359l.379.505c2.916-1.464 5.487-2.687 7.967-4.072 3.406-1.9 6.685-4.03 10.09-5.935a16.018 16.018 0 0 1 4.912-1.758c2.137-.492 4.35-.559 6.56-.243.317.045.634.09.951.137 3.08.327 6.103.881 9.082 1.613 1.473.323 2.936.683 4.384 1.09a86.937 86.937 0 0 1 10.864 3.838c.109.031.217.062.325.095l.041.064c8.97 3.91 17.131 9.299 24.491 16.078zm23.642 83.087c-.444-3.77-.824-7.549-1.18-11.33.3 3.793.652 7.577 1.1 11.344l.08-.014zm69.047-151.757l.428-.358c-1.216-1.608-2.497-3.171-3.634-4.833-2.022-2.955-4.6-3.092-6.557-.079-1.098 1.69-1.8 3.64-2.655 5.485-2.613 5.646-1.664 10.669 2.509 15.248 4.388 4.815 5.064 10.324 2.421 16.186-.984 2.186-2.062 4.472-3.642 6.219-4.744 5.245-9.422 10.631-14.741 15.254-8.02 6.973-14.132 15-17.16 25.262-1.71 5.796-2.425 11.363-.32 17.449 3.832 11.08 6.129 22.577 6.203 34.382.031 5.044-.137 10.108-.572 15.131-.408 4.716-1.288 9.392-1.65 11.919 7.215-12.698 15.676-27.436 25.481-41.334-5.218 9.172-10.563 18.264-15.989 27.308-8.707 14.512-16.707 29.386-23.156 45.055-.952 2.313-1.718 4.702-2.566 7.058l.578.026c.265-.028.59.017.836-.034l.315-.172c3.635-2.96 7.597-5.632 9.883-9.898 1.88-3.51 3.553-7.13 5.319-10.7l.245.381-2.717 6.214.064.035c1.039-1.952 1.983-3.986 2.884-6.059l-2.419 6.02c.126-.048.243-.103.354-.161.71-1.02 2.044-2.747 3.339-4.429.918-1.426 1.81-2.865 2.572-4.37 5.897-11.654 15.078-19.748 26.647-25.52 4.917-2.453 9.675-5.329 14.173-8.485 3.488-2.446 7.397-5.073 9.48-8.59 5.42-9.154 9.864-18.842 11.802-29.506.765-4.202 1.775-8.504 3.56-12.348 4.367-9.403 6.785-19.205 7.427-29.488.31-4.973.606-9.954.637-14.934.022-3.57-1.098-6.879-4.817-8.23-4.168-1.515-8.466-2.667-12.768-3.995 2.759 7.714 2.89 15.744 1.649 23.805-2.743 17.799-8.067 34.853-15.168 51.374-.113.263-.347.473-.524.708.118-1.056.445-1.977.787-2.893 5.639-15.116 10.036-30.576 12.696-46.5 1.598-9.571 2.118-19.164-2.11-28.242-2.711-5.82-3.106-11.386-.896-17.49 2.096-5.788.4-9.594-5.244-12.232-4.424-2.068-9.191-3.4-13.793-5.092-.525-.193-.971-.6-1.454-.908 2.541 5.346 5.355 9.852 7.42 14.678 5.002 11.7 7.517 23.906 5.58 36.665-2.02 13.308-6.31 25.956-11.758 38.229-.562 1.266-1.162 2.514-1.745 3.772-.256-.416-.206-.69-.097-.94 4.326-9.93 7.7-20.177 10.305-30.686 2.027-8.181 3.592-16.446 2.309-24.881-.854-5.61-2.14-11.17-3.55-16.67-.74-2.895-1.965-5.715-3.33-8.385-1.326-2.59-3.11-4.946-4.692-7.405l.248-.158 1.573 2.142zm-278.192 5.523l.562.015c1.322 9.475 1.11 19.249 5.234 28.247.174-1.877.362-3.691 1.089-5.51 1.432-3.582 2.31-7.293 5.336-10.146 2.492-2.349 4.533-5.216 6.554-8.01 1.56-2.156 2.432-4.67 1.184-7.303-.738-1.555-1.644-3.098-2.769-4.39-4.498-5.165-9.027-10.31-13.715-15.3-2.724-2.901-5.293-5.974-10.336-4.587-1.263.347-2.374.688-3.309 1.222a4.083 4.083 0 0 0-1.503 1.796c-.739 1.654-1.196 3.51-2.246 4.93-2.207 2.987-1.46 5.596.16 8.499 3.419 6.126 6.647 12.359 9.919 18.566 1.446 2.743 2.819 5.524 4.22 8.291l-.84-16.254c.264 1.37.486 2.748.686 4.128l-.226-4.194zm18.945-22.392l.059.007c1.046-2.69 1.885-5.486 3.212-8.028 1.57-3.01 1.368-5.771.305-8.87-2.944-8.585-7.99-16.06-12.258-23.947-4.797-8.864-8.876-17.988-10.64-28.007-.412-2.342-.813-4.73-1.651-6.931-.368-.967-1.583-1.611-2.517-2.362-.788.825-1.903 1.612-2.007 2.516-.512 4.419-2.518 7.758-5.996 10.486-2.002 1.572-1.806 3.23-.034 5.008 2.007 2.014 4.58 3.303 5.866 6.253 1.072 2.46 3.505 4.292 5.129 6.55 6.25 8.693 13.015 17.096 15.48 27.916.885 3.89 2.166 7.689 3.19 11.55.69 2.601 1.246 5.238 1.862 7.86zm216.335 58.286l.248-.838c-3.26-5.94-3.39-6.96-1.58-12.3 2.138-6.303 1.16-9.418-4.543-12.96-4.158-2.583-8.513-4.853-12.8-7.225-2.606-1.44-5.332-1.4-8.118-.54-4.541 1.399-8.61 3.647-12.128 6.829-3.725 3.367-6.661 7.308-8.31 12.31.864-.024 1.657-.187 2.26-.616 2.756-1.962 5.311-4.249 8.21-5.958 7.078-4.172 15.74-2.778 21.324 3.159 3.404 3.619 4.677 7.956 4.53 12.858-.028.911.495 2.463 1.112 2.667 3.203 1.059 6.519 1.777 9.795 2.614zm-202.67-62.98l.372.108c.422-.877.928-1.727 1.215-2.645 1.488-4.759 4.458-8.467 7.95-11.912 1.8-1.777 3.455-3.82 4.707-6.01 1.101-1.926 1.543-4.042.79-6.35.7 5.486-2.552 9.049-6.792 12.113.15-.189.303-.374.46-.557-.336.217-.688.426-1.055.628 1.526-1.731 3.04-3.302 4.38-5.009 1.24-1.58 1.946-3.382 1.874-5.719l-1.91 3.073c.092-.451.232-.88.386-1.299l-.86 1.419c.192-1.255.862-2.294 1.095-3.424.39-1.888.83-3.878-1.4-5.17-1.187-.688-2.326-1.044-3.399-.984-.993.182-1.924.745-2.785 1.756-1.833 2.153-3.517 4.555-4.709 7.108-3.51 7.521-6.812 15.142-10.047 22.786-1.083 2.558-1.84 5.276-2.491 7.982-.187.776.343 1.725.623 2.613.651-.207 1.346-.377 1.709-.82 1.879-2.296 3.587-4.731 5.36-7.116l.29.188.157-.213.404.277-5.236 7.674c1.59-1.22 3.04-2.587 4.182-4.175 1.44-2.002 2.653-4.222 3.624-6.493.903-2.116 1.358-4.423 2.01-6.646l.685.162.056-.146.66.114-2.305 6.687zm14.745-28.342l.01.039c.074.116.146.232.215.348a8.669 8.669 0 0 0-.225-.387zm-.177 2.74l-.238-.03a16.573 16.573 0 0 1-.19 2.176c.15-.712.263-1.44.428-2.145zm207.173 96.11c-14.463-5.77-28.584-10.534-44.565-8.821 1.761 2.45 3.284 4.318 4.52 6.36 1.239 2.045 2.368 3.49 5.26 3.038 1.793-.28 3.902.476 5.667 1.236 2.479 1.068 4.813 2.5 7.132 3.904 3.275 1.982 6.684 3.537 10.56 3.758.693.04 1.62-.042 2.075-.462 2.978-2.755 5.855-5.618 9.35-9.013zm-61.94 187.263c-2.08 1.73-4.522 3.016-6.745 4.58-2.99 2.104-5.926 4.285-8.884 6.432 13.79-.167 27.06 1.756 40.364 6.07 1.172.292 2.347.58 3.527.856-.286-.443-.572-.978-.942-1.448-4.988-6.353-9.984-12.7-14.998-19.033-.26-.33-.732-.783-1.04-.738-2.343.347-4.954.277-7.134.947-.442.153-.877.328-1.305.528a6.34 6.34 0 0 0-.251.138c-.662.385-1.319.78-1.971 1.181-.21.154-.417.316-.621.487zm-1.61-208.91c.785.377 1.359.7 1.966.937 4.756 1.858 9.193 4.34 12.725 8.009 2.29 2.38 4.49 3.055 7.702 2.344 2.519-.557 5.246-.19 7.88-.2.864-.003 1.727.097 2.618.152-.016-1.266-.018-2.243-.042-3.219-.258-10.542-10.056-18.12-20.292-15.627-4.886 1.19-8.82 4.02-12.558 7.605zM184.251 42.219a22.622 22.622 0 0 0-1.17-2.35c.27.769.503 1.56.702 2.367-.316-.49-.685-.955-.939-1.476-3.252-6.685-9.228-10.183-15.566-13.197-1.309-.622-2.776-1.164-4.163-.852-.379.171-.72.446-1.007.853-1.32 1.879-.035 4.288 1.545 5.933 3.024 3.15 6.046 6.328 9.326 9.2 6.078 5.323 13.497 9.305 16.722 17.403.185.467 1.1.961 1.758 1.045.558-.256 1.057-1.309 1.187-2.05.146-.841-.106-1.804-.37-2.655a418.337 418.337 0 0 0-3.342-10.308c-2.297-6.765-6.038-12.547-12.225-16.32-2.9-1.768-6.118-3.014-9.223-4.447-.075 0-.153.007-.23.014.152.112.305.223.458.332 7.446 3.629 14.457 7.496 16.537 16.508zm116.15 246.623c-.853 4.125-1.566 8.302-1.948 12.492-.283 3.108.51 6.121 2.428 8.761.437.6.832.973 1.232 1.07.345-.118.72-.438 1.159-1.006 4.255-5.502 9.362-9.783 16.954-10.83-7.32-7.42-13.34-15.391-18.209-24.708.427 4.93-.653 9.554-1.617 14.22zm-92.567-90.194l.419.237c1.033-1.016 2.024-2.083 3.131-3.01 4.944-4.14 9.471-8.613 12.327-14.53 2.247-4.657 6.188-7.244 10.927-8.9 2.452-.856 4.823-1.945 7.23-2.929l.005-.939-18.188-5.874-15.851 35.945zM69.737 65.053c-.853 8.039.073 15.937 2.258 23.699.16.57.419 1.136.735 1.638.607.96 1.45 1.454 2.287 1.46.658-.146 1.283-.606 1.755-1.39.606-1.006.943-2.211 1.217-3.37.39-1.658.612-3.355.905-5.035l.243.057-.03 1.552c.089-.553.177-1.106.274-1.657l.249.056-.09 2.994c.276-.27.417-.546.44-.833.244-3.13.582-6.261.603-9.394.015-2.407-.04-4.633 2.222-6.246 2.155-1.536 2.164-2.61.313-4.554-2.762-2.9-6.21-3.44-10.041-3.217l5.128-.902c-1.528-.52-2.872-.74-4.026-.663-2.56.373-4.075 2.342-4.442 5.805zm327.707 195.255c.092.02.185.038.277.057-.463.774-1.036 1.505-1.354 2.335-.25.654-.488 1.64-.175 2.092.314.452 1.338.62 2.016.555.699-.068 1.373-.535 2.026-.885 1.134-.608 2.244-1.26 3.363-1.893l.395.932c-2.31.85-4.576 2.11-6.949 2.356-1 .104-2.22-1.93-3.436-3.08-1.42 1.345-2.931 3.19-4.819 4.483-4.603 3.155-8.072 7.078-9.859 12.437-.473 1.42-1.275 2.73-1.926 4.091 3.947-1.515 7.51-3.311 11.065-5.124.462-.236.88-.558 1.44-.918-1.32-2.523-.007-4.234 1.773-5.682a54.925 54.925 0 0 1 4.945-3.586c3.87-2.488 7.702-5.078 12.721-4.493.491.057 1.481-1.225 1.657-2.015.364-1.636-1.457-3.798-3.639-4.702-1.83-.758-3.506-.493-4.585 1.21-.92 1.453-1.537 3.096-2.27 4.617-.887-2.788.734-5.943 3.856-6.944.97-.311 2.248-.156 3.238.198 2.331.833 3.743 2.624 4.598 5.166.681-1.5 1.711-3.695 1.09-4.372-1.385-1.507-3.596-2.256-4.966-3.029.187-.498 1.093-1.695.798-2.354-.896-2.001-4.427-2.77-6.1-1.331-1.39 1.194-2.4 2.83-3.96 4.738l1.64-.269c-2.477 2.04-4.15 4.56-4.76 7.796l1.9-2.386zM95.547 112.276a116.693 116.693 0 0 1-2.042-3.491c.668 1.348 1.34 2.693 2.009 4.04-4.933-7.89-8.879-16.218-11.79-25.086l.117.873-.4.088-.25-1.152.126 1.064-.394.07-1.187-5.628-.275-.012c-.123.958-.452 1.975-.21 2.832.977 3.468 1.854 7.02 3.342 10.277 3.039 6.652 6.609 13.06 9.67 19.703 4.603 9.994 8.898 20.129 13.45 30.146 1.262 2.777 2.822 5.418 4.305 8.094-2.65-6.782-5.3-13.563-7.948-20.344l.488-.196.021.054.438-.178 6.563 16.506c-5.117-22.097-15.827-41.824-26.552-61.814l-.1.046c.048.165.096.33.146.495l10.473 23.613zm249.776 45.037c-2.164-.653-4.322-1.106-6.31-1.958-1.972-.846-3.782-2.077-5.646-3.168-1.626-.951-3.163-2.08-4.857-2.884-2.669-1.267-5.515-1.689-8.426-1.418 2.285 4.984 4.416 9.723 6.657 14.409.307.64 1.096 1.228 1.791 1.473a152.23 152.23 0 0 0 8.634 2.731c.486.14 1.366-.06 1.649-.424 2.203-2.844 4.304-5.767 6.508-8.761zm-82.688 27.01c-8.104 8.37-14.992 17.685-21.374 27.401-4.07 6.199-7.437 12.731-9.67 19.817-.406 1.291-.676 2.632-.928 3.965-.188.992-.308 1.997-.437 3 3.87-9.765 8.944-18.84 15.116-27.315 6.406-8.792 13.935-16.541 22.343-23.802l-3.944-4.081c-.474.423-.805.704-1.106 1.015zM369.673 299.33l.217-.744c-1.39-.657-2.918-2.066-4.148-1.842-5.692 1.035-11.44 2.11-16.907 3.946-8.411 2.826-16.608 6.29-24.9 9.476-1.267.487-2.553.926-3.858 1.397 2.297 1.33 4.336 2.58 6.45 3.682.11.057.243.094.388.113a3.377 3.377 0 0 0 1.038-.305c4.597-2.266 9.019-4.954 13.764-6.833.4-.158.801-.314 1.204-.469a106.727 106.727 0 0 1 9.873-3.56c1.709-.521 3.423-1.027 5.14-1.524 1.149-.372 2.296-.748 3.44-1.131a.472.472 0 0 0 .108.116c2.73-.775 5.463-1.54 8.191-2.322zm27.819 7.905c-9.78.263-19.43.397-29.067.818-1.92.083-3.836.204-5.744.373.09.01.096.02-.007.03-3.75.364-7.473.857-11.14 1.583-3.717.78-7.382 1.822-10.976 3.205-3.594 1.384-7.04 3.156-10.714 4.825 1.123 1.093 1.764 1.684 2.356 1.899.624.048 1.287-.109 2.03-.453 5.361-2.48 10.938-4.296 16.666-5.596a96.775 96.775 0 0 1 14.314-2.288c9.378-.796 18.808-.99 28.214-1.468 1.833-.093 4.173.526 4.068-2.928zm-93.08 5.44l.113.547c.348.067.7.126 1.045.157.306.007.612.014.91.002a2.7 2.7 0 0 0 .73-.175c8.36-3.39 16.814-6.6 24.964-10.449 7.099-3.352 13.906-7.322 20.813-11.08 4.88-3.1 9.671-6.357 14.485-9.556 1.223-.813 1.797-2.602 2.71-4-2.937 1.89-5.534 3.7-8.26 5.288a1274.653 1274.653 0 0 1-6.12 3.54c-.742.438-1.585.92-2.492 1.429a1729.47 1729.47 0 0 1-11.842 6.71c-8.076 4.536-16.014 9.306-25.323 11.181-4.445.896-8.53 2.986-11.733 6.407zm63.207-17.275c1.106.703 1.846 1.402 2.703 1.602.344.081 1.212-.86 1.386-1.466 1.906-6.629 4.46-12.979 7.509-19.171 1.224-2.486 1.833-5.312 2.425-8.047.148-.685-.678-1.878-1.383-2.347-.48-.32-1.67.004-2.287.42-.78.525-1.54 1.336-1.898 2.196-2.945 7.072-5.92 14.137-8.576 21.32-.59 1.593.048 3.64.12 5.493zm39.88 14.092c.363.172.493.277.632.29.22.019.444-.025.667-.04 4.769-.339 7.848-3.324 10.778-6.69 3.1-3.562 6.369-6.978 9.593-10.43 1.692-1.813 3.54-3.488 5.121-5.39.6-.721.779-1.887.911-2.882.175-1.31-.677-1.92-1.814-1.437-1.418.604-2.887 1.324-4.008 2.35-4.371 4.001-8.743 8.017-12.858 12.275-2.944 3.047-5.507 6.466-8.167 9.777-.47.585-.584 1.455-.856 2.177zM116.571 34.875l.141.142c-.578.957-1.227 1.882-1.697 2.89L129.08 22.99c-.206.397-.425.784-.655 1.16l1.142-1.21c-3.227 6.215-9.56 9.856-13.646 15.439l-.27-.242c-.074.097-.146.194-.218.292l-.457-.41c-.076.345.153.832.23 1.247.397-.086.808-.158 1.046-.4 1.475-1.505 2.855-3.102 4.282-4.655 2.953-3.212 6.044-6.31 8.806-9.678 1.086-1.324 1.848-3.2 2.045-4.906.297-2.572-1.368-4.266-3.459-4.154-.484.092-.983.28-1.48.575-1.584.943-3.182 2.168-4.227 3.652-2.99 4.246-5.637 8.733-8.554 13.034-1.158 1.706-1.033 3.01.314 4.287l2.014-2.057.216.177-.153.24.516-.507zm288.361 212.779c7.086-2.743 12.717-21.497 8.604-27.055-1.274 1.087-2.908 1.932-3.681 3.273-1.067 1.85-1.779 4.027-2.125 6.148-1.017 6.217-3.038 11.977-6.755 17.105-.3.413-.39.978-.577 1.472l.68.62 6.078-4.664.154.103-2.378 2.998zM284.837 227.92c1.344 9.773 3.694 19.236 8.03 28.143.692 1.425 1.348 2.872 2.124 4.25.606 1.076 1.307 2.098 1.988 3.132-.342-.98-.713-1.952-.954-2.956-2.326-9.66-4.663-19.319-6.902-29-1.698-7.342-3.854-14.516-7.136-21.77.996 6.21 2.023 12.191 2.85 18.201zm87.322 70.525c9.157-3.063 17.428-7.435 24.83-13.227 3.018-2.36 5.348-5.653 7.763-8.701.897-1.132 1.144-2.78 1.883-4.703-3.246 1.583-6.092 2.45-7.356 5.54-.376.921-1.202 1.812-2.051 2.361-6.952 4.5-13.847 9.106-21.012 13.244-2.294 1.326-3.48 2.826-4.057 5.486zm52.563-32.392l1.055.727c.48-1.358 1.414-2.744 1.331-4.067-.122-1.954-1.951-2.59-3.686-2.566-1.238.017-2.58.298-3.685.847-5.86 2.908-9.274 7.735-10.59 14.086a5.004 5.004 0 0 0-.007 2.007c.344 1.603 1.31 1.95 2.492.827.969-.921 1.621-2.187 2.624-3.059 3.439-2.991 6.97-5.876 10.466-8.802zM118.332 45.571c1.824 3.202 3.605 6.435 5.232 9.74 1.611 3.27 3.006 6.647 4.495 9.977l.104.015c.257-1.589.921-3.26.621-4.735-1.017-4.99-2.17-9.978-3.721-14.823-1.063-3.319-2.832-6.41-4.327-9.641-4.317 2.866-4.793 5.273-2.404 9.467zm282.996 256.154c-14.313.183-28.234 1.407-41.355 5.323 12.116-.137 24.603-.27 37.09-.45.506-.007 1.174-.336 1.479-.735.951-1.244 1.764-2.595 2.786-4.138zm-52.452 7.626c16.904-5.52 34.095-8.955 51.973-8.372 1.045.034 2.122-.866 3.184-1.33l-.226-.597c-.287-.024-.579-.09-.862-.066-9.014.766-18.04 1.406-27.035 2.347-14.259 1.492-28.156 4.396-40.797 11.606-1.79 1.02-3.497 2.19-5.236 3.337 1.95-.833 3.773-1.904 5.736-2.547a266.6 266.6 0 0 1 2.52-.813c3.526-1.317 7.149-2.392 10.743-3.565zM201.531 158.965c-1.25.614-2.635 1.53-3.261 2.695-.815 1.517-.232 3.208 1.056 4.521 1.44 1.468 3.086 2.068 4.903 1.945.406-.055.82-.145 1.24-.267 3.846-1.117 6.55-3.822 9.614-6.95-4.006-.751-7.461-1.448-10.937-2.02-.59-.097-1.254-.18-1.873-.151a2.663 2.663 0 0 0-.742.227zm13.807 4.641c-5.348 12.847-9.955 25.943-13.532 39.395l17.516-40.924c-.797-.205-1.429-.338-1.946-.373-.833.148-1.525.67-2.038 1.902zm181.435 147.02c-11.497.954-22.95.47-34.214 2.428 11.473 1.427 22.932 4.135 34.457.243l-.243-2.672zm-76.72-1.276l.188.4c.554-.147 1.111-.284 1.642-.49 5.834-2.267 11.714-4.427 17.488-6.835 8.216-3.602 16.406-7.265 24.606-10.905.605-.269 1.477-.598 1.637-1.09.742-2.275 1.275-4.616 1.849-6.808l-20.259 13.04a129114.458 129114.458 0 0 1 8.525-3.898l9.305-4.679c-14.03 9.093-29.762 14.647-44.98 21.265zm77.46-34.412l.477.697c3.132-2.015 6.318-3.952 9.352-6.104.704-.5 1.338-1.803 1.212-2.613-.241-1.552-1.514-1.66-2.978-1.33-5.58 1.261-9.84 4.73-13.994 8.324-.528.457-.723 2.128-.32 2.61.457.547 1.96.796 2.649.453 1.304-.65 2.349-1.819 3.513-2.758.083-.067.255-.023.46-.035l-.371.756zm-197.293-.694c-.716.112-1.123 1.613-1.905 1.99-4.735 2.285-2.836 5.7-1.734 9.342 3.925-3.816 6.38-9.233 12.297-10.136l1.163-3.424a7.011 7.011 0 0 0-.144-.027c-.606-.016-1.113-.066-1.56-.09-2.872.145-5.356 1.915-8.117 2.345zM179.47 52.77c-.663-1.367-1.367-2.687-2.222-3.908l-.048.043 1.858 4.018c-1.646-3.09-3.24-6.19-6.608-8.11l4.426 7.991c-.457-.158-.632-.481-.857-.765a4.136 4.136 0 0 0-.234-.267c.196.352.39.705.585 1.057l-.225.119-.224-.297c1.986 4.858 1.85 10.784 7.305 13.883-1.428-5.43-2.83-10.87-4.33-16.281-.15-.546-.741-.971-1.206-1.431l1.78 3.948zM133.218 81.41c-.3.424-.437 1.138-.329 1.649.373 1.753.874 3.478 1.352 5.284 1.657-1.06 3.183-2.011 4.66-3.033.387-.267.843-.828.822-1.231-.183-3.57-.453-7.136-.698-10.619-1.98 2.686-3.926 5.295-5.807 7.95zm7.797-8.62c.043 3.586.31 7.17.491 10.938.521-.304.964-.596 1.448-.7 2.307-.497 2.258-1.994 2.022-3.888-.307-2.47-1.272-4.796-.956-7.447.194-1.631-.764-3.4-1.35-5.345-1.644 1.674-1.708 1.984-1.655 6.442zm196.952 94.545l-10.204-3.049c1.476 6.1 2.267 6.943 7.655 8.474l2.549-5.425zm56.792 111.294c-1.903-.154-2.98-.3-4.058-.306-.631-.004-1.341.072-1.882.361-3.794 2.024-7.592 4.045-11.295 6.226-.996.587-1.667 1.725-2.487 2.61l.738.92 18.984-9.811zM122.51 36.175c1.552 2.93 3.274 5.836 4.318 8.955 1.5 4.482 2.538 9.118 3.816 13.996.307-.735.65-1.477.53-2.135-1.452-8.092-4.083-15.783-8.077-23.01-1.067.435-1.192 1.05-.587 2.194zm278.393 213.322c-1.008.732-1.717.999-2.024 1.508-4.005 6.644-9.26 12.19-14.978 17.353-.633.572-.889 1.562-1.32 2.358 8.354-4.945 13.743-12.258 18.322-21.22zm-83.205 51.884c-2.994 1.505-5.781 3.432-8.603 5.261-.666.432-1.19 1.085-1.524 1.457l15.885-5.43.176-.555c-1.172-.453-2.401-1.405-3.505-1.276-.73.085-1.433.218-2.114.391-.105.049-.21.1-.315.152zm-49.804 17.925c-.618 1.91-.714 3.604.817 5.039 4.613-4.938 4.604-8.17.398-10.056-.385 1.679-.686 3.384-1.215 5.017zm98.034-27.356l-.59-.439-13.243 6.465c.38.308.67.334.922.25 3.981-1.347 7.982-2.645 11.908-4.139.529-.2.678-1.4 1.003-2.137zm14.508-2.51c6.812-3.704 14.228-6.621 18.729-13.512-1.122.346-2.171.852-3.01 1.594-2.122 1.877-3.995 4.068-6.254 5.751-3.014 2.246-6.298 4.129-9.465 6.168zm6.322-5.291l-.099-.062c-3.542 1.626-7.034 3.38-10.65 4.818-1.56.62-1.783 1.502-1.654 3.227l12.403-7.983zm-51.951-109.53l-3.948-1.482 2.629 7.192 1.319-5.71zM220.352 313.813l.247.38-10.272 6.611-.16-.25c-8.894 4.963-18.726 7.39-29.4 7.496l39.114-14.251a64.406 64.406 0 0 1-1.841 1.502l2.312-1.488zm319.267-109.184l-.178.111c.044-.051.089-.102.134-.15 0 0 .045.039.044.04zm-1.708 1.698c-6.53 3.238-13.1 6.396-19.862 9.171 6.271-3.056 12.548-6.1 18.806-9.182.902-.444 1.73-1.037 2.586-1.576-.489.571-.91 1.28-1.53 1.587zm-370.126-2.65l.827 1.17c-3.985-9.56-8.515-18.963-11.342-28.853-3.068-10.733-4.106-22.045-5.535-33.215.323 1.284.672 2.56.973 3.848-.159-1.299-.319-2.598-.485-3.894.378 1.5.795 2.992 1.122 4.504.35 1.62.622 3.26.918 4.892 1.262 6.973 2.34 13.985 3.823 20.912 1.91 8.927 5.946 17.077 9.974 25.189a300.677 300.677 0 0 1 20.284 52.71c.1.358.127.737.08 1.148l-1.48-4.29c.31 1.06.614 2.123.912 3.188.1.358.127.736.206 1.216-3.094-8.395-5.863-16.77-9.26-24.88-3.368-8.042-7.369-15.818-11.511-23.557l2.044 2.834c-.165-.405-.331-.81-.499-1.213-.345-.572-.695-1.142-1.051-1.71zm-8.92-64.224c2.992 24.593 8.553 48.53 17.552 71.586l-10.822-38.815.475-.13 2.761 9.645a452.286 452.286 0 0 1-2.24-9.58l15.12 52.822c-.397-.785-.79-1.57-1.176-2.358l.6 2.098c-8.992-10.986-22.125-59.734-22.7-85.158.318 2.655.667 5.303 1.047 7.942a234.725 234.725 0 0 1-.618-8.052zm24.983 84.423c-1.979-4.512-3.287-9.162-3.854-13.955a50.262 50.262 0 0 0 3.235 14.023c-.137-.171-.306-.326-.404-.518-.136-.266-.22-.56-.325-.841-4.513-12.19-4.266-24.422-.076-36.598 2.382-6.922 5.045-13.748 7.642-20.594 3.014-7.942 5.327-16.045 6.05-24.575a44.085 44.085 0 0 1-.092 3.715c.176-1.267.346-2.536.53-3.802l.627.1c-.755 4.331-1.05 8.807-2.36 12.964-2.81 8.918-6.236 17.64-9.226 26.505-1.637 4.856-3.168 9.78-4.27 14.777-1.997 9.059-1.015 18.002 1.911 26.76.225.673.409 1.359.612 2.039zM152.34 109.16l3.834 37.45zm-22.37 60.588l9.64 12.728-.307.228-9.581-12.774.247-.182zm-1.925-61.366l-7.314 7.413-.232-.224-.34.344-.279-.275 7.368-7.456.217.214.291-.296.29.28zm154.638 181.032l-15.124-.485-20.382-.64c10.93-2.26 21.818-3.183 32.566.24a48.21 48.21 0 0 1 2.94.885zm21.438 62.145l9.199 2.44-9.208-2.108.01-.332zm9.543 21.718l4.346.988 2.989.6-.037.176-4.814-1.151 1.015.204-2.03-.447 1.015.243-2.965-.596.032-.106.444.107.005-.018zm8.454 18.668l10.802 2.364-.015.069-.541-.114.12.026-.037.142-10.818-2.419.093-.145.394.089.002-.012zM103.685 148.998l.237-.196c3.018 3.618 6.042 7.23 9.042 10.862.299.361.485.815.709 1.245L103.685 149zm10.051 12.03c0 .002 0 .001 0 0zm255.732 215.977c23.802 34.984 20.116 64.247-3.339 93.426.471-.72.945-1.438 1.419-2.156-.626.797-1.269 1.594-1.93 2.39 2.598-4.13 5.257-8.112 7.668-12.239 6.906-11.82 11.24-24.377 10.61-38.304-.305-6.756-1.681-13.3-3.73-19.721a2.28 2.28 0 0 0-.135-.324c2.84 13.017 2.685 25.946-.932 38.805.87-4.01 1.512-8.03 1.89-12.062-.414 4.087-1.31 8.132-2.26 12.161 2.194-10.623 2.885-21.284 1.351-32.054-1.532-10.751-5.072-20.75-11.177-29.81a110.321 110.321 0 0 1 5.065 7.797 70.151 70.151 0 0 0-4.5-7.909zm24.769 58.377c-1.851 13.508-7.586 25.458-14.781 36.823l.82-2.041c-.424.69-.854 1.38-1.288 2.067l14.766-36.806c-.086.625-.18 1.247-.283 1.865zm137.547-232.294c-1.215.491-2.393 1.119-3.649 1.453-17.63 4.685-35.015 10.118-51.907 17.04-6.617 2.713-13.16 5.606-19.774 8.316 24.036-11.854 49.343-20.216 75.33-26.809zm-180.452 72.796c6.144-7.294 12.138-14.727 19.39-20.992zm-13.204 14.293l1.949-2.11-.986 1.027a5.14 5.14 0 0 1-1.431 1.072c3.159-3.584 9.898-10.717 13.057-14.3.121.187-1.708 2.307-2.609 3.507l3.224-3.49c-4.184 4.967-8.437 9.87-13.204 14.294zm151.041-70.333c12.924-5.377 27.667-10.663 40.643-13.39zm-20.92 59.494l-34.318 19.007zm-47.628-23.087c7.21-5.109 15.81-10.3 24.298-13.659zm11.496 1.807l14.194-7.27.22.423-14.197 7.264-.217-.417zm-168.27-94.748l.348.134-.595-.375.093-.213 2.392 1.355c6.735 2.866 12.724 6.883 17.834 12.177 8.538 8.847 13.308 19.687 16.092 31.462 1.378 5.826 2.298 11.759 3.426 17.643l-.554.102c-.687-3.98-1.295-7.975-2.076-11.937-1.818-9.23-4.622-18.133-9.338-26.335-3.61-6.278-8.236-11.435-13.69-15.67l.38.59c-4.47-2.818-8.942-5.635-13.413-8.452-.3-.16-.599-.323-.9-.48zm50.65 57.903c3.079 19.426 7.395 38.675 8.849 58.332zm-66.846-79.36a51.65 51.65 0 0 1 6.426 2.255l3.007.871-.115.46.388.194c-.543-.16-1.087-.321-1.631-.478-.745-.215-1.49-.43-2.234-.647-4.281-1.215-8.563-2.428-12.84-3.656-3.022-.867-5.923-1.175-8.635-.573-1.848.517-3.585 1.518-5.187 3.074-.583.565-1.324.965-1.992 1.442l-.145-.19c-.081.049-.162.098-.24.15-.053.034-.147.007-.16.007 2.003-2.415 4.263-3.997 6.758-4.8 1.744-.705 3.618-.88 5.562-.562a19.35 19.35 0 0 1 3.52.673c2.525.513 5.039 1.092 7.518 1.78zm141.094-16.928c-.984 25.899-9.17 49.888-19.457 73.32zm-40.722 128.863l-17.375 31.634-.4-.22-.457.826c.004-.292-.098-.642.026-.868 3.222-5.864 6.468-11.716 9.71-17.57l.155.241 7.881-14.36.46.317zm11.98-42.838L346.373 237l-.474-.25 13.612-26.06.492.26zm62.293 137.762c18.041 1.605 35.374 5.958 51.957 13.211-5.598-1.924-11.143-4.03-16.81-5.722a218.626 218.626 0 0 0-17.322-4.417c-5.895-1.246-11.88-2.066-17.825-3.072zm-15.542-23.673l-47.85-4.103-4.859-.138c.942-.138 1.886-.41 2.825-.392 4.87.091 9.74.266 14.61.383.72.018 3.409.3 4.132.234.164.254-1.636.09-1.473.344l-1.024-.029a372.565 372.565 0 0 1 33.639 3.701zm26.226 42.792c9.048 1.194 18.233 2.315 25.564 8.339 3.923 3.223 7.114 7.334 10.667 11.013 1.397 1.447 2.881 2.807 3.97 4.569-2.148-2.141-4.628-4.042-6.386-6.466-7.328-10.107-17.552-14.823-29.529-16.528-1.443-.206-2.858-.614-4.286-.927zm94.98 39.426c-.333-.208-.661-.45-.989-.7.34.194.673.406 1.002.64l-.014.06zm-9.444-2.556c-3.456-.019-6.912-.152-10.369-.236l.025-.715c5.238.323 10.493.487 15.702 1.073 1.084.123 2.087.964 3.098 1.735-2.59-1.477-5.466-1.84-8.456-1.857zm-110.04-79.703l8.475 2.13-8.563-1.64.089-.49zm-203.485-66.126c.377-1.199.759-2.395 1.147-3.588l-1.718 3.61c5.327-19.324 12.624-37.743 25.467-53.519l-.864 1.816c.442-.614.891-1.225 1.347-1.833zm-1.841 9.583zm14.61-31.82c-.168.593-.3 1.199-.51 1.776-2.52 6.88-4.944 13.8-7.636 20.613-1.069 2.707-2.66 5.225-4.185 7.724-.46.75-1.498 1.147-2.279 1.707.097-.144.195-.287.295-.43-.257.165-.511.33-.745.51 1.65-2.48 3.74-4.776 4.865-7.474 3.05-7.314 5.689-14.8 8.495-22.216.286-.755.602-1.499 1.211-2.161-.104.366-.193.738-.295 1.104.201-.402.448-.79.784-1.153zm-14.614 31.823c-.006.001.003-.003.004-.003l-.004.003zm-95.133-233.89l10.184 18.037zm-2.906-8.775l-2.18-8.542.326-.085 2.215 8.533-.36.094zm240.848 321.629l4.474 8.964a473.996 473.996 0 0 0-4.371-9.02l-.103.056zM174.328 329.44c-.064-.282-.108-.576-.152-.87.045.292.094.583.152.87zm261.73 175.717zm-252.827-34.42a64.972 64.972 0 0 1 4.302-2.77l-4.302 2.77zM193.3 293.83c.001.148 0 .296-.004.441l-.004.008a8.96 8.96 0 0 1 .008-.449zm-19.125 34.74zM15.264 131.738l-.01.072.002-.01-.001.006-.1-.165.107.096c.05-.485.144-.97.124-1.452-.185-4.429-1.859-8.362-4.175-12.04-4.142-6.581-9.307-11.725-17.72-11.983-3.542-.109-7.087-.109-10.63-.112-.781 0-1.563.194-2.345.298l-.015.458 6.502 1.16c-2.856.137-5.653-.383-8.416-.24-3.03.159-6.446.186-8.956 1.59-4.996 2.792-9.487 6.488-14.187 9.811l.253.53 5.45.358c-1.776.458-3.624.274-5.295.733-1.642.453-3.718 1.163-4.546 2.443-4.68 7.245-7.325 15.205-6.974 23.948.123 3.055 1.321 5.723 3.762 7.696 2.058 1.663 2.512 1.58 4.107-.57.503-.955 1.188-1.86 1.475-2.876.788-2.794 1.41-5.634 2.096-8.456 2.406-3.113 5.059-5.909 8.59-7.835 5.663-3.088 11.853-4.314 18.085-5.42 10.86-1.926 20.131 1.122 27.716 9.117 2.159 2.276 4.102 4.755 6.144 7.141-1.37-7.168-5.972-11.865-11.744-15.694 5.036 2.199 8.563 5.947 11.482 10.72l-.781-9.324zm23.698 148.654C22.397 271.1 11.98 256.877 6.67 238.85c-1.092 4.927.173 9.545 5.472 20.377-1.874-3.163-4.129-6.275-5.075-9.744-2.799-10.268-1.262-20.34 2.695-30.074.949-2.335 2.328-4.496 3.634-6.972-2.305.991-4.814 3.492-6.915 7.15-3.38 5.887-6.722 11.8-9.838 17.827-.673 1.302-.825 3.304-.36 4.697 4.32 12.96 12.248 23.267 23.519 30.965 5.926 4.048 12.403 6.711 19.16 7.315zm23.131-103.763c-2.035-.999-4.133-2.11-6.296-3.076-12.852-5.744-22.86-14.696-29.24-27.215-3.263-6.405-5.5-13.35-7.982-20.13-2.023-5.53-3.974-9.32-6.935-11.749 4.984 8.878 5.257 18.082 5.75 27.27.115 2.15.623 4.346 1.342 6.383 2.55 7.221 7.143 13.077 12.861 18.035 8.718 7.561 18.563 12.117 30.5 10.482zm103.19 63.052c-1.194-4.41-4.096-7.748-6.98-11.09 4.28 8.897 6.181 18.971 12.675 25.517-3.18-4.282-4.333-9.386-5.696-14.427zm45.93 97.817l.215-.127-3.992-8.62-3.081 1.614 6.858 7.133zm-51.35-100.027l-.013.007.02.145.352 1.053a37.452 37.452 0 0 1-.359-1.205zm136.547 30.643l3.458 10.894c.122-4.095.616-8.183-3.458-10.894zM106.442 44.644c-.607 2.424.391 3.908 2.454 3.814l-2.454-3.813zm93.288 417.15c3.65-2.348 7.299-4.697 10.948-7.047l.097.15-10.878 7.002a49.45 49.45 0 0 0-.167-.105zm-42.597 45.21l-4.63 7.765-.304-.185 4.596-7.846.338.266zm-46.837-206.24c4.856-.912 9.679-2.1 14.574-2.68 12.315-1.463 24.344-.42 35.697 5.082.727.353 1.382.854 2.07 1.286-3.296-1.249-6.541-2.66-9.898-3.717-11.807-3.722-23.78-3.057-35.78-1.104-2.223.362-4.442.755-6.663 1.133zm38.657-54.71c-6.915-9.56-15.642-17.197-25.139-24.036 6.624 4.164 12.97 8.736 18.16 14.585 8.553 9.644 17.168 19.2 26.987 27.598.827.707 1.476 1.623 1.982 2.69-1.992-1.682-3.992-3.354-5.974-5.05-2.061-1.762-4.086-3.568-6.158-5.32-8.457-7.147-16.729-14.534-25.441-21.358-11.738-9.193-25.236-15.306-38.93-20.967-.752-.31-1.494-.644-2.048-1.475 4.066 1.58 8.176 3.057 12.186 4.767 4.092 1.744 8.158 3.58 12.104 5.628 3.877 2.012 7.686 4.191 11.345 6.574 3.718 2.423 7.295 5.083 10.789 7.825 3.473 2.726 6.765 5.682 10.137 8.538zm14.353 8.719c-5.015-3.33-8.927-7.773-12.573-12.474-5.403-6.97-10.738-13.994-16.194-20.92-1.283-1.629-2.937-2.963-4.42-4.433l.501-.466c3.209 3.54 6.599 6.936 9.587 10.654 5.524 6.875 10.722 14.012 16.25 20.884 1.996 2.482 4.55 4.516 6.85 6.755zm33.768 13.216l-8.146-23.851.534-.185 8.187 23.837-.575.2zM138.752 182.7l-9.514-12.728.244-.18 9.588 12.66-.318.248zm15.57 143.191a4.53 4.53 0 0 1-.103.283l.043-.292zm-2.155 13.486c-2.704 9.48-8.225 17.578-13.68 25.663-4.554 6.752-9.054 13.54-13.581 20.31-.152.228-.338.432-.886.394 2.127-3.325 4.232-6.663 6.384-9.971 5.466-8.406 11.2-16.652 16.358-25.243 3.373-5.618 5.685-11.677 6.701-18.116-.291 2.361-.652 4.703-1.296 6.963zm1.84-12.45c.011-.253.115-.503.212-.753a98.179 98.179 0 0 0-.305 2.364c.04-.534.072-1.071.094-1.61zm-.544 5.487c.16-1.289.298-2.584.451-3.876a47.724 47.724 0 0 1-.45 3.876zm-49.636 155.281c-1.05 15.089-2.882 30.054-7.031 44.654zm50.434-161.814l.033-.194-1.338-9.998c.99 3.251 1.896 6.518 1.338 9.998l.027.204-.06-.01zm27.19-2.58c6.675-8.474 15.298-14.59 24.729-19.692zm21.242-54.76l.007-.006c0 .002-.002.003-.003.005 0 0-.006.002-.004 0zm-99.591-78.125c3.522 1.79 7.394 3.086 9.569 6.79l-9.57-6.79zm-57.994-52.547l5.842 5.387-.39.427-5.78-5.283.328-.531zM312.76 354.415l-9.24-2.317.007-.025 9.306 2.18-.073.162zm-193.485-173.75c-.261-.146-.536-.272-.782-.44-17.081-11.602-34.16-23.207-51.239-34.812l.32-.47 52.028 35.235c-.11.162-.218.324-.326.486zm-163.663-37.679l-1.747 3.115c.005-.431-.116-.912.032-1.288 4.665-11.797 16.662-20.433 29.397-20.224-.731.125-1.46.273-2.194.37-10.666 1.415-18.83 6.714-24.53 15.817-.421.673-.643 1.47-.958 2.21zm53.585-16.695c3.08 1.142 4.618 3.145 5.957 5.35l-5.957-5.35zm108.996-72.265l-11.422-19.872.365-.21 11.282 19.951-.225.13zm-15.4-36.71l2.198 8.456-.351.095-2.214-8.554.367.004z"/></g></g></svg>