<svg xmlns="http://www.w3.org/2000/svg" width="629" height="317" viewBox="0 0 629 317"><g><g clip-path="url(#clip-4399)"><path fill="#0a222b" d="M92.181 342.251a12.6 12.6 0 0 1-.348-.477c-3.43-3.63-7.604-6.125-11.798-8.76-4.755-2.985-9.624-5.627-15.013-7.25-.381-.115-.767-.214-1.533-.419.532.902.888 1.582 1.355 2.172 1.272 1.608 2.118 3.345 1.007 5.24a4.18 4.18 0 0 1-.23.449c-1.205 2.047-3.233 1.947-5.236 1.424-8.003-2.089-15.267-5.688-21.684-10.9-3.572-2.9-4.45-6.17-2.668-9.228.614-1.243 1.656-2.459 3.122-3.613 2.991-2.355 6.705-3.606 10.775-3.444l-1.45.381a19.36 19.36 0 0 1 1.39.007l-1.49.398c2.305.803 3.082 2.341 2.975 4.567-.025.51.55 1.33 1.046 1.538 4.274 1.804 8.593 3.5 12.899 5.229.086-.12.173-.238.26-.357-1.004-1.784-1.802-3.735-3.072-5.303-2.264-2.794-1.968-6.955-.232-10.09 1.126-2.256 2.985-4.065 5.182-4.626 4.21-1.075 8.514-1.784 12.77-2.679 3.885-.816 7.765-1.653 11.64-2.51.428-.095.827-.36 1.21-.594a.66.66 0 0 0 .17-.158c-.344-.285-.586-.533-.88-.632-4.855-1.643-9.66-3.448-14.494-5.162-4.559-1.461-9.12-2.916-13.685-4.354a94.986 94.986 0 0 0-8.442-1.864c-1.413-.241-2.828-.481-4.25-.666-1.777-.23-3.295-.405-4.611 1.59-1.398 2.116-4.538 1.37-6.072-.962-.415-.63-1.301-1.406-1.93-1.372-7.83.434-15.655.99-23.477 1.564-.807.06-1.59.44-2.384.671-3.063.89-4.992-.178-5.8-3.252-.211-.8-.151-1.7-.483-2.432a77.561 77.561 0 0 0-3.007-5.94c-.353-.628-1.096-1.028-1.61-1.58-1.342-1.445-2.259-3.05-1.416-4.982.095-.314.24-.615.434-.9 1.123-1.648 3.528-1.828 6.436-.624a101.744 101.744 0 0 0 12.203 4.178c2.277.543 4.557 1.074 6.839 1.6 2.281.448 4.584.815 6.908 1.098.49.06.99.026 1.667.014-1.85-3.958-3.592-7.711-5.36-11.453-1.397-2.958-2.576-5.955-2.374-9.326.04-.672.122-1.322.285-1.922.213-1.41 1.081-2.635 2.657-3.24 2.203-.844 4.6-.696 6.026 1.205 1.637 2.18 2.859 4.734 3.912 7.271.77 1.854.885 3.97 1.486 5.909.181.585 1.023 1.394 1.544 1.38 7.331-.182 14.182 1.763 20.88 4.474.225.091.47.135.794.2-.858-1.485-1.728-2.962-2.563-4.459-1.57-2.812-2.692-5.74-2.305-9.06.095-.815.268-1.52.53-2.127.537-1.928 2.126-2.988 4.451-3.336 7.085-1.06 10.35.961 12.616 7.9.68 2.085.72 4.72 1.856 6.312.39.414.84.776 1.342 1.094 1.547.719 3.797.73 5.52 1.415 2.928 1.166 5.737 2.631 8.543 3.952-.598-5.704.317-11.666-1.747-17.392-.706-1.957-.952-4.126-1.116-6.222-.268-3.423.354-6.58 2.427-9.322.392-.736.8-1.48 1.175-2.245-6.768-1.465-13.221-3.099-19.772-4.083-2.865-.43-5.948.651-8.94.978-1.72.188-3.455.348-5.181.329-2.435-.026-4.538-.96-5.41-3.361-.517-1.419-.395-2.714.153-3.88.28-.776.759-1.492 1.408-2.113 6.407-6.124 13.863-10.34 22.95-9.362 6.166.664 12.2 2.608 18.269 4.08 1.062.259 2.248.806 2.935 1.601.313.363.634.84.877 1.336.426.682.522 1.433.331 2.22-.44 1.82-2.09 2.257-5.564 2.17-2.84-.07-5.69.239-8.43.733 5.346 2.036 10.642 4.117 16.008 5.996 1.02.358 2.373-.095 3.542-.326 7.165-1.413 13.257.479 18.945 5.104 6.435 5.231 14.024 8.594 21.837 11.253 7.888 2.685 15.894 5.023 23.354 7.347-3.574-13.6-11.76-25.616-17.882-38.603-1.057-2.244-1.937-4.57-2.9-6.86h.082c-2.17-4.99-4.047-10.107-5.459-15.403-2.16-8.103-1.86-15.987 2.554-23.415.57-.958.905-2.067 1.267-3.134 4.42-13.044 11.261-24.674 20.31-35.044 5.992-6.87 13.331-9.268 22.198-7.086 2.634.649 5.316 1.1 7.97 1.678 4.426.963 8.528.055 12.467-2.023 2.6-1.373 5.198-2.77 7.884-3.959 4.836-2.138 9.482-1.576 13.652 1.65 2.383 1.845 4.54 3.98 6.787 5.998 2.664 2.394 5.439 4.693 9.126 5.117 1.273.147 2.793-.313 3.946-.954 2.69-1.495 5.225-3.267 8.097-5.102-1.437-7.171-2.782-14.662-7.164-21.146-2.882-4.266-6.803-6.518-12.098-6.074a57.79 57.79 0 0 1-6.09.183c-3.4-.075-6.248-1.618-8.129-4.304-2.135-3.05-3.95-6.36-5.578-9.715-.777-1.602.123-3.2 1.575-4.346 2.88-2.274 5.713-4.606 8.59-6.883 2.247-1.778 4.406-3.71 6.824-5.223 6.023-3.766 10.768-2.914 15.352 2.455 1.127 1.32 2.256 2.655 3.511 3.85 4.51 4.291 11.365 4.474 16.081.428 1.315-1.128 2.473-2.439 3.713-3.655 4.588-4.498 8.695-5.294 14.06-1.867 12.92 8.252 25.011 17.355 33.246 30.846 3.016 4.94 7.406 9.133 11.58 13.25 4.84 4.776 8.872 10.074 12.28 15.907.374.642.794 1.258 1.51 2.386.153-3.335.172-6.143.427-8.93 1.521-16.618 5.357-32.742 10.684-48.516 7.982-23.633 19.2-45.592 34.36-65.467a22.729 22.729 0 0 1 2.247-2.544c2.563-2.48 4.473-2.661 7.464-.794 5.166-4.22 11.31-3.902 17.245 2.3 5.15 5.383 7.643 12.18 8.706 19.336 1.807 12.164 3.361 24.378 4.559 36.616 1.301 13.299 2.182 26.642 3.05 39.98.885 13.626-.146 27.155-2.77 40.556-1.08 5.523-2.244 11.03-3.237 15.897 7.312-6.777 14.88-14.017 22.694-20.981 12.207-10.88 24.963-21.042 39.79-28.238 6.46-3.135 13.162-5.277 20.516-4.394 5.48.657 10.139 2.874 13.744 7.087.908 1.061 1.738 1.345 3.125.987 4.446-1.146 8.931-2.146 13.412-3.152 2.957-.664 5.449-2.05 7.621-4.188 5.651-5.562 11.403-5.519 16.954.231 1.98 2.052 3.63 4.438 5.315 6.756 1.8 2.476 3.848 4.475 6.678 5.902 6.852 3.457 10.202 9.248 9.159 15.65-.302 1.848-1.29 3.687-2.358 5.262-.558.824-2.265 1.716-2.937 1.418-1.01-.449-1.916-1.82-2.233-2.974-.451-1.642-.085-3.502-.507-5.157-.624-2.45-1.344-4.964-2.556-7.155-1.38-2.493-3.846-2.856-5.925-.899-1.719 1.62-3.102 3.676-4.322 5.725-1.501 2.521-2.62 5.267-4.008 7.86-3.238 6.052-8.102 10.282-14.591 12.534-2.652.92-4.795 2.36-6.599 4.54-4.309 5.207-10.139 7.57-16.668 8.568-3.65.558-7.262 1.363-10.912 1.923-9.816 1.505-16.643 7.384-22.237 15.076-1.441 1.98-2.752 4.056-4.244 6.266 3.77.383 7.227.55 10.619 1.112 11.469 1.899 20.609 7.932 27.355 17.113 5.93 8.07 11.073 16.727 16.414 25.22 1.024 1.627 1.902 2.016 3.776 1.685 15.436-2.726 30.817-3.069 45.876 2.085 12.84 4.395 23.294 11.978 30.429 23.745.31.512.572 1.054.913 1.492-.623-.725-1.238-1.46-1.848-2.198.228.358.454.72.676 1.087.379.624.698 1.285 1.136 2.096-2.689-3.35-5.024-6.742-7.836-9.678-9.667-10.098-21.765-15.5-35.425-17.638-11.251-1.762-22.444-.988-33.593.973-.541.095-1.068.272-1.588.429.447 1.72 1.386 2.405 3.422 2.37 8.3-.146 16.61-.216 24.908.015 9.587.266 18.602 2.854 26.958 7.62.246.141.47.32.647.604-5.04-2.584-10.16-5.097-15.692-6.146 5.402 1.353 10.57 3.551 15.468 6.621-7.975-4.79-16.33-6.82-24.865-7.618-2.047-.151-4.097-.274-6.148-.383-7.53-.26-15.161.144-22.761.189.181 1.697 1.563 1.46 2.477 1.636 6.814 1.311 13.742 2.163 20.446 3.89 11.16 2.877 22.181 6.298 33.258 9.5.351.101.669.316.972.587a313.94 313.94 0 0 0-26.761-7.669c8.264 2.21 16.475 4.63 24.652 7.174-17.429-5.396-35.134-9.61-53.732-12.108.488 1.023.859 1.803 1.235 2.58 4.758 9.817 8.665 19.918 10.304 30.783 2.306 15.288.05 29.764-6.833 43.437-.45.91-.92 1.816-1.411 2.719-.377.693-.73 1.406-1.052 2.132-.282.655-.533 1.32-.737 1.995a11.8 11.8 0 0 1-.928 2.204c-2.9 5.842-10.47 9.6-16.746 2.503-3.686-4.168-6.869-8.812-10.01-13.425-10.833-15.909-24.094-29.23-40.917-38.787-3.144-1.787-6.44-3.317-9.728-4.83-.682-.313-1.937-.372-2.428.043-6.517 5.509-13.076 10.981-19.355 16.755-2.215 2.036-3.895 4.369-5.19 6.9-1.629 3.326-2.615 6.98-3.288 10.748-2.151 12.043-4.104 24.114-4.357 36.385h-.203c-.004.21-.008.42-.01.631-.159 11.415 2.244 22.499 4.644 33.572 2.56 11.811 5.305 23.627 4.738 35.816-.33 7.078-1.211 14.135-1.983 21.186-1.04 9.49-2.193 19.074.844 28.308 1.963 5.965 4.995 11.605 7.83 17.25 3.28 6.532 7.274 12.73 10.234 19.395 4.441 10 3.616 20.014-1.629 29.63-.357.655-.836 1.243-1.259 1.863.147-.426.234-.885.45-1.272 6.416-11.512 5.814-23.004-.342-34.335-3.457-6.363-7.27-12.532-10.919-18.791-4.64-7.96-7.751-16.452-7.533-25.747.189-7.985 1.096-15.95 1.548-23.932.387-6.847 1.38-13.79.673-20.539-1.099-10.468-3.21-20.849-5.272-31.191-2.187-10.971-4.764-21.944-4.022-33.162.712-10.746 2.47-21.421 3.717-32.133.684-5.876 2.409-11.128 5.139-15.803 2.68-4.796 6.385-9.031 11.249-12.661 4.324-3.227 8.296-6.925 12.868-10.815-5.065-1.423-9.644-2.777-14.27-3.939-.887-.222-2.15.067-2.937.582-10.962 7.166-20.74 15.571-28.175 26.533-4.449 6.558-8.177 13.37-10.796 20.615-3.148 9.341-3.999 19.09-4.519 28.94h-.204a324.467 324.467 0 0 0 .655 44.99c.214 2.551 1.037 4.58 2.403 6.638 10.863 16.359 20.546 33.3 25.516 52.527.078.302.379.546.947 1.326v-1.548c.374 9.416 2.826 18.337 7.253 26.85l-3.614-6.72c1.05 7.93 2.114 15.243 2.97 22.58 1.89 16.192 3.652 32.398 5.539 48.59.225 1.934.906 3.815 1.376 5.721.48 3.258.943 6.519 1.446 9.773.928 6.001 3.292 11.33 6.919 16.251 5.06 6.868 9.785 13.983 14.654 20.992.173.248.351.492.52.743 2.117 3.144 1.644 6.65-1.16 8.614-2.696 1.889-5.697 1.227-7.955-1.99-7.985-11.373-15.97-22.747-23.818-34.215-3.837-5.606-7.054-11.66-11.15-17.055-2.787-3.671-6.315-6.96-10.041-9.7-6.799-4.999-13.635-10.147-21.089-14.012-17.196-8.915-30.932-21.733-43.442-36.153-16.162-18.63-28.797-39.468-39.105-61.812-4.565-9.896-9.757-19.481-17.612-27.255-2.284-2.26-4.844-4.394-7.627-5.97-6.317-3.578-12.432-2.05-18.099 1.762-5.912 3.977-10.262 9.348-12.993 15.93-2.513 6.056-4.834 12.191-7.24 18.292.061-.525.041-1.075.196-1.57 2.971-9.526 6.419-18.838 11.8-27.335 5.908-9.327 14.33-15.821 23.645-21.36 4.075-2.423 8.112-4.912 12.12-7.343-.843-2.94-.843-2.94-2.641-2.934 2.026-1.16.22-2.084-.33-2.795-2.753-3.554-6.387-6.621-5.773-11.781-.411-.044-.653-.138-.851-.08-11.713 3.423-21.374 9.503-26.64 21.038-6.246 13.68-8.76 28.334-10.926 43.06-.031.209.406.485.625.73-.65 3.003-1.353 5.995-1.911 9.014-.122.658.273 1.411.43 2.12-.33 1.072-.662 2.143-.993 3.215l-.331-.03c0-2.29-.261-4.615.045-6.863 1.212-8.878 2.3-17.79 4.022-26.575 1.328-6.777 3.31-13.453 5.401-20.047 4.47-14.093 14.353-22.837 28.34-26.722 4.036-1.121 4.857-3.99 6.21-6.856.2-.421-.692-1.358-1.105-2.067l.067.042a8.555 8.555 0 0 0-.071-.05 3.367 3.367 0 0 1-.015-.025l1.746.868 2.429-4.66c-1.149 3.887-2.58 7.651-4.332 11.26-1.749 3.604-1.153 6.785 1.339 9.61 3.073 3.486 5.535 7.29 7.26 11.606 1.255 3.142 3.872 4.367 7.051 4.885.949.155 1.854.576 2.762.984-.491-.216-.983-.406-1.48-.422-4.089-.132-7.576-1.285-9.463-5.208-13.217 6.003-31.107 19.343-32.572 24.333 1.398-1.08 2.661-2.145 4.012-3.083 7.558-5.25 15.353-5.19 22.581.51 2.943 2.32 5.62 5.056 8.072 7.902 6.766 7.857 11.371 17.07 15.76 26.354 8.817 18.65 19.414 36.176 32.48 52.157 13.607 16.642 28.492 31.71 47.864 41.952 21.583 11.411 38.359 28.141 50.948 49.058.75 1.247 1.528 2.476 2.294 3.714l-.225.124-13.245-18.797-.63.424c.322.564.615 1.149.972 1.69 2.573 3.911 5.08 7.87 7.759 11.707 6.44 9.226 12.946 18.406 19.464 27.577 1.426 2.007 3.158 2.35 4.838 1.162 1.673-1.183 2.095-3.367.985-5.24-.307-.518-.692-.99-1.037-1.485l-12.942-18.593c-.502-.72-1.008-1.44-1.512-2.16l-.422.21.86 2.233c-.392-.698-.897-1.357-1.162-2.1-5.506-15.426-8.271-31.459-10.327-47.625-2.114-16.622-3.796-33.301-6.059-49.902-1.981-14.534-5.372-28.775-11.041-42.373-7.964-19.1-19.495-36.085-31.573-52.723-5.361-7.384-12.296-13.109-20.842-16.18-9.623-3.458-19.529-6.165-29.395-8.898-5.112-1.416-10.315-.944-15.385.815-1.467.51-1.932 1.223-1.356 2.789 9.415-.785 18.578.718 27.668 3.14 8.356 2.226 21.492 8.51 24.876 12.743-.524-.374-.883-.64-1.251-.893-14.971-10.294-31.545-15.117-49.697-14.602-1.416.04-1.964.465-2.374 1.969-.64 2.347-1.804 4.573-2.929 6.756-.48.933-1.423 1.628-2.239 2.522 6.7 3.723 11.568 9.003 15.32 15.188a733.453 733.453 0 0 1 16.27 28.243c8.672 15.845 18.604 30.715 31.377 43.623 11.368 11.49 20.865 24.462 29.244 38.269 11.298 18.617 20.417 38.342 29.594 58.038 2.189 4.698 4.346 9.41 6.518 14.115.27-.86.1-1.559-.189-2.206-8.856-19.906-17.296-40.013-26.71-59.653-9.786-20.419-22.414-39.014-39.23-54.48-.706-.649-1.44-1.269-2.16-1.903 1.44.49 2.51 1.327 3.536 2.214 13.195 11.39 23.609 25.06 32.2 40.105 15.241 26.689 26.807 54.988 36.195 84.208-2.004-4-4.019-7.994-6.011-12-7.957-15.999-15.699-32.11-23.913-47.975-10.7-20.668-23.302-40.112-39.65-56.834-11.927-12.198-21.803-25.804-29.908-40.77-4.885-9.022-9.835-18.012-14.91-26.93-3.67-6.45-7.836-12.564-13.69-17.318-4.268-3.466-4.259-3.476-8.75-.612.748-.72 1.416-1.553 2.256-2.14 4.473-3.13 7.191-7.248 7.427-12.816.07-1.659.178-3.32.154-4.98-.054-3.595.557-6.772 2.089-9.432h-.15c1.297-2.862 3.79-4.429 6.396-5.845 2.728-1.482 4.673-3.522 5.92-6.102a19.43 19.43 0 0 0 .725-2.101c1.437-5.049.578-10.03-.239-15.03-.79-4.839-1.79-9.679-.677-14.598.402-1.773.964-3.419 1.745-4.88 1.543-3.13 4.014-5.472 7.93-6.516 3.957-1.054 6.41.488 7.447 4.4.274 1.034.661 2.037 1.15 3.518 8.08-7.395 15.145-14.99 19.585-24.09.63-1.333 1.2-2.699 1.706-4.1-3.072-1.58-6.073-2.589-8.356-4.469-1.812-1.491-3.24-1.822-5.248-1.09a57.945 57.945 0 0 0-8.317 3.803c-1.5.916-2.996 1.838-4.492 2.762a65.02 65.02 0 0 0-5.556 4.217 21.07 21.07 0 0 1 1.709-1.837l-1.703 1.052-.183-.233 5.25-3.531a38.7 38.7 0 0 1 .856-.576l6.84-4.601c-6.31-.955-8.004-.508-12.95 3.357-2.549 1.993-4.995 4.169-7.215 6.519-2.45 2.593-4.587 5.482-6.86 8.241.146-.241.295-.481.445-.72l-.225.273c4.742-7.79 10.856-14.166 18.88-18.636a1.709 1.709 0 0 0-.324-.01c-.525.042-1.052.11-1.566.22-9.262 1.992-16.106 7.483-21.07 15.258a107.686 107.686 0 0 0-6.46 11.672c-2.29 5.096-4.17 10.377-5.94 15.698-4.096 12.316-6.46 24.95-6.439 37.975h-.453c.043-.757.08-1.515.113-2.273a249.525 249.525 0 0 1-.381 3.814c.223-5.934.305-11.91 1.05-17.8 1.87-14.78 6.15-28.815 12.984-41.921a124.178 124.178 0 0 1 3.276-5.953c4.961-8.463 11.855-14.83 21.749-17.217 1.283-.31 2.595-.501 3.9-.72-.628-.354-1.178-.607-1.762-1.222-2.007-2.11-4.521-3.736-6.814-5.578-4.924-3.954-10.526-5.237-16.595-3.769-3.013.73-5.864 2.124-8.538 3.124.248-.198.495-.387.743-.57-.24.13-.478.26-.717.394 5.997-4.302 12.504-5.682 19.638-3.713-4.657-2.922-9.059-5.39-14.263-5.444-9.63-.102-17.099 4.183-22.553 12.074-1.085 1.57-2.247 3.086-3.375 4.625l-.05.088c.026-.031.05-.063.075-.095l-.894 1.605 3.831-.83c-.287.214-.61.414-.962.596l.74-.16c-1.804 1.351-5.053 2.127-7.974 1.74-1.03-.137-1.853-.097-2.356.626-.026.078-.05.16-.073.248-1.316 5.246-2.802 10.452-3.988 15.726-1.192 5.309.228 10.323 2.466 15.1 1.656 3.535 3.55 6.958 5.337 10.43a158.94 158.94 0 0 1-1.675-2.357c.487.93.974 1.86 1.454 2.794-4.467-6.194-8.676-12.544-9.212-20.456-.17-2.508.105-5.13.671-7.586 1.047-4.535 2.449-8.99 3.726-13.47.11-.385.25-.734.43-1.034.476-1.124 1.336-1.78 2.764-1.412 2.368.61 4.28.033 5.79-1.813.392-.839.795-1.675 1.217-2.499 2.07-4.124 4.584-7.99 8.523-10.459 4.3-2.694 9.135-4.536 13.702-6.66a11.887 11.887 0 0 0-1.19-.048c-12.584.073-24.521-2.642-35.94-7.955a373.075 373.075 0 0 0-21.198-9.078c-6.681-2.619-13.661-2.736-20.622-1.538a3.786 3.786 0 0 1-.006.019c.224 1.622.416 3.124.651 4.619 2.987 18.976 9.294 36.715 20.404 52.478 3.627 5.146 8.314 9.532 12.32 14.426 4.796 5.857 8.726 12.063 5.962 20.22-.451 1.332 2.04 3.723 3.293 3.242 3.725-1.431 7.043-3.45 9.187-6.945.259-.636.337-1.382.53-2.06l.152-.17c.021-.09.044-.178.069-.266l1.646-1.876c-.057.412-.065.933-.206 1.415a16.405 16.405 0 0 1-1.156 2.913c-1.763 3.725-4.822 6.224-8.732 7.96-1.698.753-2.811 1.539-3.436 2.56-.52 1.168-.495 2.649-.08 4.77.608 3.098 1.569 6.126 2.286 9.206.723 3.11 1.743 5.998 4.687 7.72-.628-.351-1.384-.628-2.009-.981.379.402.805.775 1.287 1.115-1.123-.707-2.417-1.296-3.111-2.3-2.215-3.202-5.762-3.25-8.93-4.196-.275-.082-.875.628-1.202 1.062-.329.437-.656.875-.983 1.313-.972 1.455-1.905 2.937-2.862 4.402h-.38c-2.04 2.772-4.092 5.533-6.264 8.196-2.545 3.12-6.117 4.996-10.068 5.712-16.385 2.97-31.417 9.485-46.03 17.185-11.414 6.015-23.02 11.678-34.298 17.935-9.46 5.247-17.822 11.98-23.733 21.27-1.568 2.464-2.687 5.211-4.085 7.789-.822 1.517-1.768 2.969-2.699 4.424-.65 1.016-1.459 1.937-2.037 2.988-1.422 2.583-.929 3.51 1.94 3.829 4.937.55 8.766 2.807 12.312 6.41 4.31 4.377 7.251 9.388 9.603 14.911.406.956 1.043 1.844 1.708 2.652 1.332 1.62 3.136 2.115 4.836.9 6.066-4.337 10.718-9.812 12.119-17.35.771-4.153-1.564-7.64-5.543-9.315-2.231-.939-2.665-1.784-2.068-3.023.698.71 1.36 1.915 2.338 2.29 5.44 2.083 8.17 6.834 6.584 12.637-1.835 6.715-5.905 12.048-11.5 16.09-3.477 2.514-6.888 1.74-9.042-1.983-1.616-2.791-2.737-5.867-4.103-8.804-.3-.646-.706-1.243-1.555-1.649l4.607 12.338-.232.133c-1.053-2.11-2.185-4.185-3.137-6.34-1.004-2.274-1.831-4.627-2.741-6.943-3.062-7.795-8.862-11.584-17.156-11.452-4.978.079-9.949.561-14.928.664-4.838.1-9.472-.819-13.522-3.747l-.555.388c1.489 2.218 2.81 4.576 4.504 6.626 3.097 3.747 7.384 5.77 11.945 6.983 8.264 2.198 15.176 6.406 21.115 12.552 2.688 2.781 6.057 4.905 9.101 7.452-2.278-1.485-4.928-2.612-6.769-4.52-7.527-7.799-16.314-13.28-26.839-16.033-2.03-.531-3.862-1.822-5.86-2.642 6.597 5.629 11.584 13.215 20.2 16.333-7.32-2.182-12.481-7.32-17.41-12.779 5.636 13.228 13.82 23.575 29.105 25.791 11.394 1.652 22.64.563 33.585-2.757 15.33-4.65 17.06-20.534 10.679-29.88-.21-.306-.464-.58-.91-.883 5.172 9.98 5.029 18.84-5.29 25.52.284-.315.537-.668.856-.943 8.687-7.495 9.388-17.691 1.831-26.483-3.084-3.589-7.088-5.698-11.396-7.568.865.217 1.745.389 2.594.657 16.368 5.171 21.854 22.817 11.427 36.842-6.782 9.122-16.225 14.038-27.006 16.639-9.79 2.361-19.6 2.216-29.375-.287-2.052-.525-3.51-1.635-4.475-3.49-3.167-6.09-6.437-12.128-9.478-18.28-1.056-2.138-1.784-4.503-2.268-6.846-1.065-5.16-3.385-9.643-6.668-13.694-8.601-10.615-10.543-22.204-5.08-34.87.26-.604.494-1.218.813-2.007-3.42 1.972-6.559 3.968-9.86 5.647-7.54 3.835-15.842 4.824-24.064 5.85-6.808.848-13.692 1.072-20.525 1.75-6.545.65-11.48 4.164-14.91 9.58-4.86 7.67-8.225 15.967-8.907 25.13-.335 4.491.67 8.734 3.573 12.313 2.406 2.966 6.225 4.96 5.888 10.072-2.605 2.595-6.299 2.986-10.317 1.655-3.996-1.323-7.036-4.072-9.902-6.989a43.367 43.367 0 0 1-4.349-5.215c-2.643-3.707-4.798-7.555-5.013-12.371-.251-5.644-1.354-11.258-1.46-16.897-.053-2.803.923-5.802 2.097-8.414 2.067-4.596 4.407-9.11 7.063-13.391 3.774-6.085 9.065-10.463 15.616-13.628 12.281-5.934 21.053-15.49 26.875-27.786.096-.204.17-.42.25-.631 4.597-12.115 13.94-17.464 26.327-18.482.703-.058 1.4-.192 1.993-.276-2.738-1.998-5.968-3.465-7.887-5.945a26.688 26.688 0 0 0-1.288-1.54h-.092zm474.506-105.76c-4.578-.203-9.173-.037-13.787-.037l-.002.056c.42.092.901.126 1.445.118 4.179-.06 8.36-.12 12.542-.128l-.198-.008zm-120.5 35.364c2.998-2.346 6.126-4.524 9.308-6.848-.285-.116-.494-.217-.715-.263-.96-.2-1.921-.409-2.892-.55-9.239-1.338-18.528-1.307-27.82-.908-.972.043-2.052.514-2.855 1.098-11.498 8.372-21.115 18.444-28.707 30.358a105.59 105.59 0 0 0-3.144 5.41c-.502.925-.773 2.195-.616 3.224 1.027 6.706 1.983 13.437 3.39 20.069 1.343 6.326 3.205 12.542 4.84 18.806h-.542c3.987 14.288 8.887 28.3 14.35 42.142.179.455.399.893.6 1.34.345-.67.385-1.25.339-1.823-1.32-16.22-1.057-32.428-.028-48.66.831-13.113 4.16-25.223 10.46-36.134 5.97-10.576 14.164-19.54 24.032-27.261zm-65.254 16.067c.434 1.333.341 2.836.503 4.26 1.923 16.862 4.743 33.568 8.736 50.07h-.265a552.485 552.485 0 0 0 4.398 17.53c2.19 8.177 6.789 14.345 12.787 20.73-12.657-33.722-22.635-67.402-22.181-103.34-1.222 1.258-1.972 2.597-2.998 3.67a6.75 6.75 0 0 0-.113.122c-1.206 1.988-1.766 4.191-.867 6.958zm6.971 54.33c-.336-1.668-.675-3.335-1.012-5.001l-4.549-19.147c-2.64 7.869-3.964 15.875-3.51 24.147h-.38c.011 5.197.415 10.416 1.049 15.646.067.554.53 1.275 1.014 1.53 4.581 2.423 9.208 4.762 13.27 6.842l-5.706-24.018h-.176zm-37.958-35.743c.537 4.267 1.36 8.503 1.751 12.78.373 4.085.025 7.821-1.42 11.034-1.346 3.303-3.808 6.064-7.82 8.03-.666.327-1.302.736-1.908 1.176-.87.857-1.66 1.875-2.537 2.722h-.176a10.061 10.061 0 0 0-1.72 4.946l41.188 10.488c-.067-.82-.13-1.86-.24-2.895-1.315-12.425-1.128-24.775 2.672-36.743.299-1.068.619-2.132.96-3.192.8-3.368.768-6.631.101-10.048-.36-1.847-.544-3.73-.775-5.601-.543-4.392-1.067-8.786-1.587-13.086-3.345 3.16-6.534 6.251-9.813 9.244-2.998 2.735-6.231 2.422-8.814-.737-.382-.466-.697-.986-1.051-1.475-2.132-2.941-4.342-2.9-6.418.149-.354.52-.67 1.047-.95 1.582-1.764 3.61-1.954 7.558-1.443 11.626zm-9.043-57.871c-1.169.014-2.305.123-3.413.313 2.433-.202 5.307-.07 8.899.367-1.734-.48-3.563-.703-5.486-.68zm-64.122 93.613c1.93-1.836 3.885-3.647 5.79-5.508.36-.413.724-.82 1.097-1.213.224-.237-.23-1.52-.704-1.941-1.494-1.333-3.147-2.488-4.738-3.712l.257-.415-.014-.011.385-.612 5.954 3.419c.768-2.88-1.016-7.022-3.846-8.207-6.818-2.854-13.686-5.591-20.459-8.549-5.96-2.604-12.197-3.895-18.625-4.176-13.666-.599-24.809-6.144-33.825-16.383-6.336-7.194-11.282-15.308-16.243-23.425-6.94-11.356-16.79-18.793-29.6-22.384-9.83-2.756-19.456-6.037-28.21-11.46-.093-.058-.208-.08-.36-.097.445.615.773 1.156 1.252 1.442 2.375 1.418 1.248 3.399.959 5.241-.04.254-.179.602-.353.793-.101.257-.372.545-.598.613-1.617.485-3.271.846-4.887 1.334-3.064.926-5.566 2.736-7.043 5.5-1.266 2.577-2.527 5.342-2.858 8.132-.585 4.937-3.151 9.932-.272 14.95.589.511 1.177 1.025 1.764 1.539l9.681 4.915-9.681-4.915c2.722 2.384 5.434 4.781 8.22 7.09 1.319 1.092 2.885 1.887 4.339 2.818l-.258.413.037.024-.319.509c-2.777-1.821-5.727-3.432-8.28-5.526-2.278-1.869-4.118-4.272-6.15-6.439-.25.101-.636.176-.857.283-.41 2.276-.397 4.425 1.846 6.012 3.717 2.63 7.366 5.355 11.043 8.04l-.273.399.052.037-.307.45-12.59-8.85c.263 1.413.343 2.762.992 3.731 2.46 3.675 4.846 7.51 7.91 10.647 5.637 5.77 12.944 9.024 20.317 12.027l2.934 1.192 2.619 1.068a129.46 129.46 0 0 1-4.043-1.113c1.298.536 2.596 1.07 3.89 1.616-13.57-3.535-26.066-8.742-33.686-21.988 0 .864.125 1.66.259 2.455 3.021 17.873 20.607 36.606 44.943 32.72 9.458-1.51 18.91-3.076 28.4-4.366 8.568-1.165 17.155-.982 25.71.453 14.333 2.403 28.328 6.67 42.95 7.539 4.214.25 8.23 1.84 11.027 3.451-.606-.13-1.235-.28-1.883-.442.59.286 1.146.58 1.661.874-3.83-.82-8.549-2.475-13.34-2.722-11.126-.575-22.09-1.867-32.886-4.625-10.044-2.567-20.252-3.539-30.553-2.235-8.602 1.09-17.152 2.592-25.729 3.89-6.29.953-12.6 1.526-18.938.478-7.79-1.289-14.33-4.986-19.924-10.47-8.536-8.368-13.208-18.89-16.673-30.082l1.314 2.86a151.782 151.782 0 0 1-1.08-3.278c.974 2.129 1.95 4.258 2.925 6.386.02-.025.037-.05.054-.073a.958.958 0 0 0 .018-.51c-2.344-11.316-1.585-22.567 1.164-33.663.46-1.856 1.099-3.567 1.941-5.096 2.01-3.895 5.275-6.713 10.277-7.794.952-.206 1.887-.527 2.796-.882.642-.25 1.096-.565 1.361-.947.16-.525.036-1.143-.35-1.844-1.19-2.157-2.951-3.62-5.33-4.252-5.087-1.352-9.46.216-13.587 3.19-2.485 1.79-5.044 3.653-7.852 4.778-4.312 1.727-7.703 4.18-9.812 8.373-1.882 4.041-1.457 8.285-.884 12.434.366 2.652 1.693 5.17 2.588 7.75l-.193.106-.41-.735c.13.34.257.68.376 1.022l-.211.106-3.208-5.716c-.053 2.802-.322 5.25.101 7.571.601 3.293 1.681 6.54 2.91 9.666 1.345 3.425 3.244 6.63 4.628 10.043 1.348 3.327 2.833 6.715 3.41 10.215 1.447 8.8 5.464 15.715 13.748 19.343 5.212 2.282 10.736 3.952 16.247 5.417 4.408 1.172 8.976 2.395 13.616 1.21 8.549-2.185 17.208-1.97 25.887-1.371 9.358.645 18.69.95 28.011-.598 12.218-2.028 24.159-1.878 35.524 4.14 4.93 2.61 10.41 3.39 16.046 2.982 2.7-.195 5.434-.075 8.146.04 4.254.18 9.7 1.623 11.824 3.153a20.88 20.88 0 0 0-.646-.199c-2.52-.035-4.954-.521-7.315-.28-3.131.32-6.294.964-9.278 1.962-9.251 3.09-18.304 2.964-27.456-.515-5.497-2.089-11.192-3.785-17.21-3.354-6.241.448-12.192 1.858-17.884 4.035l-.223.097h-.03c-3.735 1.446-7.36 3.221-10.884 5.27-4.58 2.665-8.337 6.275-9.53 11.78-.269 1.242-.236 2.548-.342 3.825l.7.369c4.259-9.56 12.378-14.034 21.623-17.027-9.007 3.952-17.698 8.27-21.418 18.356l-.925-1.076c-.12 1.269-.071 2.118-.295 2.888-.901 3.094-1.227 6.658-3.048 9.086-1.47 1.96-4.68 2.893-7.302 3.634-2.716.767-5.645.879-8.494 1.056-5.124.32-10.28.366-14.978 2.866-11.42 6.078-17.716 16.039-21.096 28.12-.826 2.953-1.383 6.035-.26 9.246 2.882-9.593 8.49-17.097 16.127-23.167-.604.815-1.35 1.513-2.085 2.223-5.226 5.044-9.38 10.847-12.213 17.545-1.07 2.53-1.766 5.126-.315 7.84 2.651 4.96 10.728 7.893 15.962 5.772 4.186-1.697 7.424-4.58 10.23-8.014 1.19-1.456 2.303-2.973 3.452-4.463-3.063 5.824-7.218 10.562-13.892 13.314 9.964.058 11.975-1.075 16.669-9.066.344-.585.664-1.185.976-1.788 1.176-2.275 2.285-4.586 3.526-6.825 5.978-10.785 14.973-18.58 25.51-24.494 11.443-6.423 23.213-12.264 34.871-18.299a252.864 252.864 0 0 1 5.748-2.886l-48.955 22.666c23.425-12.803 47.65-23.872 72.5-33.568l-16.403 7.595c10.043-4.408 20.42-7.892 31.398-9.736 2.171-.365 4.292-1.42 6.267-2.471 3.338-1.777 5.33-4.798 7.228-8.42-3.069.709-5.63.762-8.045-.507 1.138-.14 2.255-.018 3.373-.022 2.152-.007 3.875-.642 5.362-1.622h-.278zm-157.367-66.677l-.03.012c.073.144.152.288.234.432l.962.838a64.505 64.505 0 0 0-1.166-1.282zm129.7 66.677l11.564-2.52c.258-.13.51-.265.757-.404-8.538 1.83-17.078 2.946-25.63.921l7.866 2.003h-.296c2.71.288 5.48.288 8.124 0h-2.385zm-58.51 0c7.772-4.075 16.176-6.003 24.78-7.179 3.439-.47 6.903-.759 10.36-1.097-14.14-.294-27.422 2.758-40.474 7.125-.941.392-1.882.783-2.83 1.151h-2.734c-6.532 1.873-13.049 3.8-19.571 5.709 5.499-1.876 10.979-3.836 16.48-5.709h-1.432c16.143-5.34 32.35-10.341 49.54-10.293-13.195-1.537-25.972 1.84-39.022 4.032l2.01-.73c-.547.093-1.094.186-1.64.276l3.498-1.336c-1.293-.273-2.558-.354-3.825-.394-9.942-.314-19.875-1.799-29.833-.266-.966.15-2.07.144-2.851.628-3.75 2.325-7.586 4.567-11.063 7.262-5.947 4.61-12.61 7.415-19.971 8.392-7.475.992-15 1.617-22.514 2.302-11.326 1.032-19.912 5.8-24.43 16.844-2.56 6.258-6.463 11.763-11.175 16.65-.999 1.037-2.031 2.041-3.048 3.06l.293.353 21.054-16.081c.108.15.217.298.326.447l-20.235 15.717c.85-.128 1.583-.463 2.316-.8 6.1-2.798 12.075-5.914 18.32-8.338 25.654-9.96 51.379-19.74 77.103-29.518 6.759-2.57 13.61-4.899 20.418-7.338-.583.309-1.142.68-1.752.919a55508.33 55508.33 0 0 1-59.199 23.127C100.89 374.423 81.987 380.967 64 389.764c-1.015.496-2.014 1.027-3.02 1.542l.166.348 8.642-1.367c-1.874.708-3.794 1.082-5.702 1.513-1.837.416-3.683.82-5.485 1.363-1.748.527-3.445 1.223-5.165 1.845 2.24.683 4.3.71 6.274 1.136 5.008 1.081 9.954 2.458 14.968 3.508 16.048 3.363 31.347 1.62 45.668-6.817 5.85-3.446 11.732-6.858 17.766-9.964 2.907-1.495 6.123-2.724 9.332-3.223 5.18-.807 10.462-1.076 15.713-1.269 6.288-.23 11.333-6.228 10.045-12.535-6.364 4.57-13.485 7.277-20.899 9.298.782-.46 1.641-.74 2.455-1.117 5.802-2.695 11.611-5.375 17.367-8.164.677-.329 1.32-1.229 1.502-1.98.444-1.822.632-3.71.856-5.58.03-.252-.328-.55-.507-.825h-.007l.005-.002.004.003 3.186-5.106-30.57 12.33-.226-.548c.579-.264 1.149-.552 1.738-.79 8.042-3.245 16.02-6.663 24.155-9.653 4.472-1.645 7.918-4.477 11.169-7.802-21.632 7.614-42.049 18.341-63.166 25.09 12.63-5.279 25.947-10.947 39.346-16.41 10.382-4.233 20.9-8.133 31.293-12.337h-.299zm-53.066 0c1.159-.827 2.358-1.605 3.466-2.496.895-.72 1.726-1.52 2.57-2.304l-15.226 1.927-.036-.304c4.6-.57 9.2-1.151 13.804-1.7.488-.057.99.006 1.492.045.153-.142.306-.283.46-.423a7.394 7.394 0 0 1-.078-.006l.098-.013.037.024.008.005 1.56-.94c-5.6-.382-11.166.121-16.598-.515-14.46-1.695-28.855-3.93-43.28-5.92-3.083-.426-6.182-.735-9.273-1.098l-.004.011 11.724 7.571.076-.068-3.743-4.93.367-.28-.122-.164c.06.04.118.081.176.122l.151-.116c.14.179.28.357.422.535a19.097 19.097 0 0 1 3.66 3.648c1.825 2.393 3.476 4.92 5.2 7.39h-.523c1.423 1.675 3.046 3.135 5.082 4.137 2.587 1.274 5.43 2.643 8.211 2.767 4.488.199 9.034-.48 13.53-1.008 2.936-.345 5.827-1.08 8.738-1.64l-.101-.677c-6.03.223-12.016.077-17.754-2.073.956.1 1.893.31 2.828.526 8.46 1.96 16.63 2.408 23.87-2.033h-.793zm491.917-83.495l.214.247a3.081 3.081 0 0 1-.214-.247zm-329.874 83.08zm-75.296-64c-.02.348-.194.806-.036 1.03 1.79 2.545 3.633 5.054 5.461 7.572l.261-.173c-.586-.87-1.171-1.742-1.757-2.614-.007-.573.214-1.307-.058-1.692-1.665-2.357-3.441-4.635-5.18-6.94l-.346.254 1.655 2.562zM91.188 288.441c-.519-.14-1.031-.266-1.47-.187l1.248.623c-.876-.237-1.733-.43-2.252.323a3.29 3.29 0 0 0-.118.396c2.512.811 4.96 1.678 7.458 2.357.59.16 1.298-.118 1.973-.275l-.295-1.602c-1.056-5.235-3.882-7.73-8.524-7.54l.578 5.205 1.402.7zm35.407-54.395l1.562.622.052-.124c-1.094-.596-2.452-.955-3.238-1.828-3.439-3.825-7.9-4.57-12.562-4.048-3.723.416-7.33 1.937-11.051 2.265-2.572.227-4.781 1.983-6.101 4.437a11.1 11.1 0 0 0-.676 7.75l.58-1.357v.082l.222-.519v11.653l.697.167c.206-.5.43-.977.672-1.435 2.4-4.897 6.648-7.543 11.767-9.292 1.796-.613 3.436-1.87 4.955-3.075 2.52-1.999 5.187-3.536 8.218-4.221-1.756.244-3.506.513-5.235.88-1.695.362-3.257 1.35-4.896 1.99.67-.461 1.352-.878 2.043-1.252-.603.286-1.207.575-1.821.815 4.473-3.074 9.416-4.197 14.796-3.511-.655.096-1.311.187-1.968.276.398.022.798.054 1.2.096.259-.127.517-.267.777-.371l-.009-.001.018-.003zm-1.813.691c.179-.004.357-.045.535-.107l-.873.12c.112-.005.224-.01.338-.013zm105.329 71.776l18.637 3.836.07-.201c-7.807-3.85-15.435-7.985-22.214-13.48a288.993 288.993 0 0 0 5.581 3.533 78.928 78.928 0 0 1-5.36-3.97c7.808 5.06 15.783 9.794 24.44 13.692-8.495-6.63-16.95-12.907-24.95-19.719-10.332-8.798-20.278-20.69-21.974-25.324.406.543.816 1.082 1.229 1.617-.457-.789-.8-1.485-1.013-2.067 7.432 9.955 15.996 18.469 25.387 26.149-10.729-11.467-20.577-23.614-29.082-36.532 0 .247.002.494.004.741.636 3.54.896 6.923-.58 9.807-.716 1.766-2.076 3.157-3.816 4.276l.804 1.447a59.85 59.85 0 0 0-.825-.649l.604 1.085c-1.112-.6-1.867-2.326-3.484-1.331 5.974 9.87 11.762 19.823 20.193 27.86 3.946 3.761 8.24 7.07 13.457 8.915.89.315 1.924.22 2.892.315zm53.549 15.921c1.112-1.928 2.093-4.345 3.688-6.246.689-.822 1.25-1.65 1.694-2.487 1.655-3.448 1.334-7.035-.397-10.812-.689-1.504-1.361-3.107-2.425-4.33-3.413-3.921-7.033-7.662-10.522-11.519-4.04-4.464-8.587-8.598-11.93-13.54-9.911-14.663-15.956-31.065-20.242-48.154-.174-.692-.397-1.372-.682-2.348-3.398 1.197-6.506 2.33-9.642 3.378-.552.184-.936.41-1.166.721-.075.33-.04.722.063 1.184 1.286 5.814 2.304 11.697 3.807 17.454 4.221 16.18 9.54 31.95 18.425 46.287.075.123-.008.344-.044 1.048a142.38 142.38 0 0 1-.162-.266c-.016.157-.043.378-.06.702-12.585-20.604-18.763-42.936-23.367-66.185-2.751 1.531-5.401 2.943-7.967 4.494a.965.965 0 0 0-.29.29 5.607 5.607 0 0 0-.26.995c-.48 2.672-.615 5.434-1.367 8.02-1.54 5.29-.651 10.05 1.982 14.79 1.518 2.734 2.854 5.716 3.51 8.751 2.223 10.27 6.191 19.688 12.595 28.04 2.848 3.714 6.04 7.075 10.073 9.553l-4.575-6.648.25-.136.637.727-.73-1.046.254-.175 8.105 9.214c-1.307-2.288-2.84-4.377-4.247-6.549-1.723-2.658-3.288-5.421-4.842-8.183-1.539-2.732-2.978-5.52-4.46-8.284a26.87 26.87 0 0 1 1.627 2.207c-.466-.877-.93-1.755-1.4-2.63 3.332 4.986 6.27 10.176 9.38 15.26 5.812 9.495 12.976 17.705 23.228 22.58 3.295 1.567 6.924 2.432 10.845 3.731l-.363-1.91.584 1.984.147.05-.551-2.44.797 2.428zm-102.015-73.593c-.065.21-.248.478-.177.62 2.093 4.199 4.21 8.384 6.403 12.726.1-.13.19-.256.267-.38.773-1.622-.476-2.75-.962-4.003.183.048.337.075.467.087a5.47 5.47 0 0 1-.245-.523c.434.112.708.115.874.049-.026-.329-.233-.747-.27-.984-.562-3.574-1.221-7.132-1.833-10.698-1.43-8.333-2.732-16.677-1.663-25.172.346-2.75-.038-5.337-1.027-7.954-.95-2.514-1.463-5.194-2.168-7.801h.119c-2.39-9.453-3.488-19.077-2.812-28.966-.17 12.522 1.94 24.614 6.521 36.864.25-.287.301-.533.36-.778.568-2.374 1.139-4.747 1.709-7.12h.038l2.38-10.165.002.01c.044.316.125.625.306 1.49 4.15-10.172 9.46-18.967 16.887-26.426-1.061-1.935-2.232-3.71-3.056-5.633-3.954-9.234-4.905-18.393-.64-27.585l-9.648 8.08a40.596 40.596 0 0 0-3.004 5.247c-3.23 6.747-4.363 13.914-4.1 21.346-.882-9.247.838-17.627 5.391-25.158l-6.891 5.772c1.96-10.68 17.607-23.675 29.57-24.766l-2.66 2.229c2.762-1.232 5.588-2.337 8.384-3.47 8.697-3.523 10.945-2.534 16.474 4.968 3.555 4.823 11.004 6.83 15.615-.664-4.43-.167-7.858-2.418-11.072-5.14-2.19-1.853-4.325-3.782-6.617-5.5-3.903-2.925-8.157-3.387-12.568-1.216-2.639 1.298-5.202 2.75-7.797 4.138-3.985 2.132-8.184 3.045-12.679 2.19-2.815-.535-5.652-.994-8.422-1.708-7.892-2.035-14.547-.229-20.123 5.839-8.156 8.874-14.514 18.891-19.496 29.823-.068.15.037.378.084.752l1.805-2.254c-1.2 2.798-2.643 5.423-4.144 8.014-4.025 6.947-5.379 14.426-2.814 22.005 2.963 8.76 6.505 17.346 10.18 25.84 4.747 10.974 11.822 20.873 14.663 32.756 1.249 5.222 5.733 9.71 10.975 12.228-.216-.456-.41-.86-.624-1.252-1.661-3.043-3.413-6.04-4.995-9.123-7.29-14.21-14.533-28.443-21.793-42.667h.494c-2.252-4.963-3.987-10.112-4.525-15.65-.672-6.905.047-13.626 2.652-20.09.074.298.02.576-.06.845-3.216 10.868-2.698 21.587 2.17 31.793 5.638 11.819 11.74 23.416 17.688 35.087 2.065 4.052 4.267 8.034 6.407 12.048zm396.862-127.55c3.427-.651 5.743.121 7.061 3.306 1.241 2.998 1.712 6.322 2.447 9.52.318 1.379.45 2.802.734 4.651 2.694-1.827 3.6-3.881 3.81-6.292.475-5.455-2.32-9.24-6.536-12.118-6.322-4.314-13.468-5.084-20.846-4.278-10.38 1.134-20.132 4.622-29.702 8.532-30.032 12.272-55.291 31.057-75.873 56.134-.465.566-.991 1.083-1.489 1.622 5.966-8.637 12.947-16.348 20.61-23.433 19.857-18.362 42.606-31.85 68.293-40.36 8.353-2.767 16.81-4.977 25.724-4.365 2.33.16 4.638.636 7.228 1.006-2.466-2.85-4.566-5.64-7.053-8.027-1.754-1.682-3.905-3.086-6.11-4.123-2.454-1.154-5.027-.744-7.245.997-2.557 2.007-5.103 4.027-7.686 6.067 1.49 0 3.073-.065 4.65.019 1.503.079 2.998.312 4.497.477-23.406-.04-44.298 7.177-62.891 21.304 9.163-9.27 20.402-14.937 32.895-18.92-.61-.763-1.01-1.394-1.533-1.897-5.505-5.29-12.115-6.708-19.456-5.464-6.682 1.131-12.514 4.309-18.203 7.753-19.258 11.66-35.784 26.722-52.16 41.971-6.325 5.89-9.3 13.207-9.663 21.73-.034.8-.126 1.944-.638 2.32-2.242 1.65-2.6 4.285-3.69 6.512-3.486 7.131-7.69 13.747-12.831 19.803-.584.734-1.056 1.322-1.254 1.557-2.938 3.492-5.568 7.184-7.631 11.195-.426.839-.83 1.687-1.211 2.545a42.102 42.102 0 0 0-1.194 3.04c-.873 2.506-1.588 5.067-2.282 7.636a58.734 58.734 0 0 0-.85 4.932c.692-.66 1.357-1.351 2.03-2.028l.848-1.139c.36-.228.726-.45 1.087-.676.262-.22.53-.433.805-.635a93.248 93.248 0 0 1 2.576-1.825c1.553-1.21 3.11-2.409 4.839-3.212.76-.499 1.519-.999 2.273-1.504 1.613-1.08 3.484-1.916 4.784-3.292 4.334-4.586 8.514-9.317 12.717-14.026.882-1.167 1.761-2.337 2.65-3.498h.31c.278-.354.555-.708.837-1.057l.563.504-7.902 9.102-8.113 9.768c3.564-1.115 6.468-3.4 8.868-6.43l-.407 1.01c2.724-1.788 5.147-3.88 7.544-6 10.115-8.945 21.504-15.823 34.14-20.517 4.488-1.666 9.19-2.954 13.905-3.749 5.042-.85 9.333-2.307 12.268-6.88 5.603-8.728 13.59-14.235 23.716-16.493 4.117-.919 8.306-1.51 12.46-2.258 6.714-1.21 12.667-3.666 17.025-9.34 1.198-1.56 3.267-2.711 5.17-3.42 7.026-2.615 12.091-7.225 15.336-13.946 2.233-4.625 4.01-9.534 8.357-13.351l-1.352.114c.914-.196 1.827-.4 2.744-.574zm-162.073 42.113a1.862 1.862 0 0 0-.02.016l.043.09-.023-.106zm-2.667-10.675c.112-1.075 1.006-2.533 1.919-2.916.745-.312 2.195.531 3.07 1.204.839.645 1.34 1.73 2.384 3.164-.11-1.46-.078-2.336-.258-3.166-.718-3.312-1.591-6.593-2.231-9.92-.395-2.055-.672-4.174-.633-6.258.033-1.813 1.179-3.11 3.104-3.334 1.734-.203 2.698.918 3.125 2.384.799 2.739 1.467 5.516 2.135 8.29 1.512 6.275 2.992 12.557 4.484 18.836 1.543-3.784 2.554-7.484 3.63-11.165 2.825-9.657 5.23-19.434 5.12-29.541-.122-11.386-.404-22.796-1.309-34.14-1.524-19.096-3.478-38.161-5.493-57.214-.798-7.54-2.724-14.852-7.328-21.138-2.182-2.98-4.82-5.47-8.497-6.436-2.016-.53-4.185-1.02-5.761 1.11l-4.848 1.064V4.9l-.253-.007V2.65c-2.273-.979-4.008-.037-5.3 1.507-2.175 2.601-4.255 5.304-6.145 8.118-19.589 29.154-32.471 61.024-38.436 95.646-1.344 7.804-2.537 15.653-1.627 23.636.683 5.985 1.67 11.972 1.806 17.974.139 6.167-.491 12.363-.965 18.532-.58 7.559.728 14.693 4.044 21.517 6.482 13.336 12.978 26.68 12.798 42.058-.005.439.516 1.085.953 1.29 1.3.61 2.676 1.062 4.224 1.644.117-.382.24-.778.27-1.18.356-4.728.65-9.46 1.015-14.187.194-2.498.403-4.994.616-7.49.418-6.631.818-13.263 1.107-19.9.21-4.834-.384-9.499-3.673-13.62-1.507-1.888-2.163-4.635-2.665-7.103-.622-3.056 1.433-4.564 4.336-3.54.324.114.657.2 1.58.478-1.134-4.495-2.327-8.53-3.149-12.64-1.213-6.065-5.32-10.65-7.902-16.008-1.321-2.744-3.279-5.23-5.217-7.615-1.897-2.333-4.204-4.328-6.202-6.587-1.766-1.995-2.618-4.393-2.353-7.105.228-2.329 1.193-3.167 3.271-2.196 2.695 1.259 5.512 2.628 7.66 4.616 5.215 4.829 9.399 10.406 9.604 18.177 2.453-.994 4.601-3.511 7.462-.294l1.087-10.293.363.03-.604 8.538c4.419-.56 5.073-.074 8.065 6.115-1.08-25.973 3.989-50.485 10.486-74.786-1.89 10.357-3.95 20.685-5.923 31.031-1.837 9.64-4.145 28.09-3.48 31.305.46-.555.837-1.121 1.322-1.572 1.59-1.482 3.406-2.276 5.563-1.358 1.981.843 2.455 2.572 2.268 4.503-.517 5.326.864 10.292 2.55 15.265 1.486 4.38-.069 6.199-5.299 5.815 6.269 14.68 4.041 29.341.749 44.025.6-.848 1.036-1.72 1.494-2.58 4.533-8.525 9.014-17.078 13.653-25.545.99-1.806 1.85-3.411.853-5.425a1.54 1.54 0 0 1 .028-.025c-1.614-3.386-3.048-6.862-2.647-10.69zm3.468 9.914c.112-.908.04-1.838.04-2.759l.674-.026c.09.769.134 1.546.278 2.304.738 3.887 1.247 7.844 2.367 11.62.54 1.82 2.055 3.504 3.508 4.837.739.678 2.637.958 3.426.47.765-.472 1.203-2.23 1.024-3.294-.267-1.58-1.19-3.052-1.859-4.56-1.55-3.5-3.137-6.981-4.663-10.49-1.137-2.617-2.034-5.357-3.385-7.855-.491-.91-1.983-1.28-3.019-1.896-.344 1.006-.809 1.99-.991 3.024-.125.708.09 1.496.243 2.23.497 2.39 1.034 4.772 1.556 7.156.3-.25.766-.479.8-.76zM556.622 318.9c.263-.026.377-.006.406-.046.14-.195.283-.39.404-.596 5.924-11.839 8.429-24.379 7.494-37.606-.792-11.22-4.107-21.774-8.887-31.858-7.355-15.515-15.907-30.336-26.391-43.985h.4c-6.053-7.328-13.398-12.9-22.89-15.046-14.437-3.265-28.347-.917-41.918 4.328-8.909 3.444-16.28 9.298-23.622 15.151-.864.823-1.672 1.56-2.365 2.12-8.813 7.135-17.747 14.005-28.355 18.475-3.137 1.322-5.712 4.073-8.364 6.38-.326.745-.47 1.638-.333 2.288.133.626 1.864 1.27 2.89 1.292 5.727.12 11.457.057 17.185.05 6.099-.005 12.198-.012 18.296-.035.37-.002.74-.05 1.11-.101h-12.639c3.352-.244 6.717-.327 10.071-.473h-9.798c6.26-.423 12.569-.304 18.755-1.115 11.363-1.491 22.652-3.545 33.977-5.33 2.235-.353 4.489-.598 6.742-.814 2.154-.207 4.319-.312 6.479-.462l-.02.059-5.48.742c1.762-.2 3.524-.4 5.284-.614l.028.302-19.366 2.619.005.236c10.45-.838 20.497.66 30.064 4.942 9.487 4.246 17.507 10.359 23.832 18.616-.736-.488-1.34-1.131-1.948-1.77a85.02 85.02 0 0 0-1.797-1.833 80.27 80.27 0 0 1 3.526 3.962c-.776-.456-1.418-1.14-2.065-1.817-12.832-13.424-28.44-21.168-47.09-20.55-12.5.415-24.937 2.715-37.4 4.192l.012.31h14.422l-.003.64h-.249l-.001.404h-30.21l-.014.218 53.419 5.842c-4.438-.239-8.854-.637-13.266-1.084-2.664-.27-5.33-.525-7.997-.779l20.901 2.286c-3.925-.186-7.82-.587-11.714-1.006-13.353-1.439-26.713-2.808-40.053-4.35-11.28-1.305-22.56-2.144-33.873-.668-6.215.811-11.052 4.08-14.147 9.48a10.047 10.047 0 0 0-1.037 2.52c-.365 1.858-.03 3.625 1.148 5.08 1.375 1.7 3.581 3.522 5.589 3.75 4.514.511 9.167.385 13.709-.054 13.303-1.284 26.577-2.784 39.985-2.248 9.163.367 18.213 1.428 27.019 4.043 22.88 6.793 41.075 20.398 55.684 38.959 5.036 6.399 9.365 13.351 14.201 19.914 1.585 2.15 3.553 4.147 5.707 5.717 2.74 1.997 6.868 1.696 8.936-.832 1.204-1.473 2.395-3.004 3.282-4.673 1.109-2.204 1.683-4.603 1.026-7.334-1.475-6.137-3.282-12.194-4.962-18.282-.14-.504-.42-.968-.607-1.461-.18-.475-.322-.964-.48-1.446a95.545 95.545 0 0 1 1.934 4.091c-.53-1.648-1.07-3.324-1.612-5.043 3.689 8.008 6.48 15.835 7.031 24.303zM242.634 192.917c-.816.317-1.63.643-2.45.951-7.665 2.884-14.827 6.523-21.469 10.94h.242c-5.632 4.66-11.442 9.125-16.843 14.039-1.366 1.242-2.655 2.55-3.809 3.942-2.505 3.131-4.374 6.606-4.843 10.78-.235 2.096-.303 4.216-.356 6.327-.161 6.407-.879 12.728-2.744 18.986.54-.29.794-.771 1.166-1.13 7.774-7.487 15.192-15.4 23.432-22.335 12.706-10.695 27.752-15.83 44.368-16.49 14.98-.594 29.26 2.451 43.098 7.914 13.851 5.467 27.74 10.681 42.874 11.387 7.817.365 15.54-.12 23.213-1.56.265-.05.547-.093.82-.155.422-.304.834-.665 1.262-.94-.753-.421-1.458-1.003-2.265-1.24-10.082-2.954-20.276-5.564-30.243-8.865-8.717-2.887-17.281-6.304-25.73-9.915-3.822-1.634-7.978-3.8-12.119-6.008-3.819-1.791-7.624-3.615-11.425-5.446-8.382-4.038-17.069-7.288-26.402-8.412-12.761-1.536-24.202 2.179-34.744 9.037l-.13.085h.038l-11.758 9.068-.187-.193.385-.32-.053.04c2.972-2.714 6.01-5.374 9.26-7.732.331-.288.66-.577.992-.863h.23c10.046-6.933 21.053-10.998 33.47-10.327 9.177.496 17.775 3.3 26.102 6.958 11.187 4.915 22.302 9.995 33.462 14.973 1.588.709 3.23 1.296 4.856 1.916-.402-.388-.852-.636-1.308-.874-8.08-4.217-20.125-10.872-28.206-15.087-8.278-4.122-16.699-7.953-25.51-10.976.486-.022.912.094 1.332.228 14.089 4.515 27.11 11.396 40.08 18.33 13.992 7.48 28.017 14.785 43.648 18.344 3.695.841 7.346 1.877 11.28 2.904l-1.25-1.864c-.028-.275.035-.608-.097-.816-3.38-5.298-7.65-12.801-11.623-19.553-10.896-15.912-24.857-28.256-43.27-35.496-12.394-4.873-25.306-7.854-38.227-10.797-10.379-2.364-20.803-4.511-31.556-4.278-9.103.197-17.659 2.176-25.254 7.402-7.625 5.247-13.34 12.247-17.844 20.225-5.017 8.889-8.305 18.081-9.89 27.559-.71 4.645-1.075 9.695-1.102 14.67.07 4.87.559 9.808 1.465 14.813.647 3.574 1.661 7.081 2.525 10.616.062.126.124.25.188.37l.63-.045c.347-3.244.71-6.068.888-8.903.245-3.893.229-7.803.47-11.697a16.017 16.017 0 0 1 1.18-5.084c.744-2.062 1.884-3.958 3.346-5.645.208-.241.418-.482.628-.723a68.139 68.139 0 0 1 6.276-6.77 78.3 78.3 0 0 1 3.286-3.093 86.941 86.941 0 0 1 9.109-7.059l.254-.221h.076c8.142-5.427 17.091-9.373 26.776-11.892zm82.661 25.087a488.057 488.057 0 0 1-10.164-5.139c3.352 1.8 6.723 3.552 10.133 5.215l.031-.076zM235.055 77.81l-.07-.554c-2.01.152-4.019.383-6.032.44-3.579.1-5.088 2.194-3.614 5.471.826 1.838 2.085 3.484 3.175 5.2 3.333 5.254 8.07 7.174 14.18 6.143 6.424-1.084 11.421 1.33 14.921 6.725 1.305 2.01 2.644 4.154 3.258 6.428 1.843 6.828 3.84 13.677 4.85 20.652 1.521 10.518 4.964 20 11.955 28.101 3.948 4.575 8.241 8.189 14.498 9.712 11.39 2.775 22.303 7.066 32.269 13.393 4.258 2.704 8.425 5.585 12.414 8.67 3.745 2.896 7.2 6.166 9.129 7.839-6.772-12.94-14.586-28.031-20.966-43.798 4.888 9.351 9.64 18.767 14.309 28.224 7.491 15.176 15.668 29.953 25.354 43.856 1.43 2.053 3.024 3.99 4.546 5.978l.335-.472c.12-.239.333-.487.423-.722l.027-.358c-.522-4.658-.625-9.436-2.975-13.667-1.933-3.48-4.071-6.846-6.119-10.263h.454l3.755 5.647.063-.035c-1.079-1.93-2.278-3.824-3.533-5.704l3.753 5.293c.027-.132.045-.26.055-.385-.473-1.15-1.203-3.205-1.916-5.204-.702-1.544-1.43-3.074-2.284-4.53-6.607-11.266-8.445-23.366-7.037-36.218.598-5.462.755-11.02.536-16.51-.17-4.257-.263-8.965-2.093-12.62-4.764-9.512-10.505-18.493-18.423-25.894-3.12-2.917-6.19-6.095-8.457-9.677-5.544-8.76-12.477-16.099-20.777-22.203-4.014-2.953-8.042-5.898-12.212-8.618-2.991-1.952-6.379-2.8-9.529-.404-3.528 2.684-6.824 5.675-10.269 8.574 7.98 1.855 14.803 6.09 20.91 11.497 13.483 11.939 24.942 25.647 34.99 40.559.16.236.21.547.312.824-.824-.671-1.421-1.445-2.006-2.228-9.66-12.923-20.28-24.988-32.231-35.843-7.183-6.524-14.968-12.153-24.89-13.51-6.362-.87-11.255-3.55-15.192-8.713-3.732-4.894-7.85-5.528-13.124-2.21-4.133 2.6-7.833 5.889-11.747 8.843-.446.336-1.03.492-1.55.73 5.871.757 11.183.83 16.358 1.706 12.545 2.125 24.17 6.616 33.852 15.15 10.097 8.902 18.411 19.354 25.782 30.578.76 1.157 1.486 2.338 2.227 3.508-.488-.009-.691-.2-.842-.426-6.009-9.012-12.799-17.396-20.226-25.273-5.783-6.133-11.885-11.922-19.673-15.408-5.179-2.318-10.55-4.245-15.939-6.038-2.835-.943-5.869-1.44-8.853-1.736-2.896-.288-5.842-.063-8.766-.063l.001-.294 2.653-.163zM89.136 314.728l.317-.465c8.682 4.016 16.787 9.484 26.585 10.886-1.484-1.162-2.908-2.301-4.044-3.897-2.237-3.143-4.882-5.89-5.643-9.979-.627-3.367-1.933-6.634-3.19-9.847-.968-2.477-2.61-4.571-5.5-4.947-1.706-.221-3.494-.294-5.189-.048-6.777.987-13.554 2.011-20.29 3.252-3.835.707-7.729 1.199-9.354 5.917a12.407 12.407 0 0 0-.096.292c-.391 1.25-.706 2.368-.763 3.444.011.74.202 1.48.697 2.236.99 1.517 2.304 2.906 2.93 4.557 1.318 3.473 3.915 4.256 7.233 4.465 7.002.44 13.99 1.1 20.98 1.708 3.241.282 6.474.654 9.711.986l.054-.334-10.788-6.147-3.65-2.08zm-8.576-28.05l.038-.046c-1.695-2.335-3.593-4.554-5.012-7.046-1.68-2.95-4.113-4.274-7.294-5.057-8.812-2.17-17.83-1.973-26.77-2.652-10.05-.764-19.93-2.272-29.31-6.212-2.192-.92-4.417-1.875-6.722-2.362-1.012-.214-2.21.459-3.348.838.267 1.11.326 2.472 1.03 3.05 3.438 2.821 5.16 6.316 5.572 10.716.238 2.535 1.738 3.267 4.193 2.74 2.78-.598 5.256-2.064 8.433-1.549 2.648.43 5.506-.624 8.284-.768 10.692-.552 21.418-1.692 31.85 2.093 3.751 1.36 7.64 2.339 11.44 3.567 2.561.827 5.08 1.787 7.616 2.688zM246.657 136.31l-.57-.662c-6.76-.474-7.688-.916-11.198-5.328-4.144-5.21-7.293-6.073-13.358-3.194-4.423 2.098-8.688 4.532-13.003 6.854-2.622 1.41-4.062 3.724-4.848 6.532-1.28 4.577-1.592 9.215-.821 13.895.816 4.954 2.54 9.557 5.854 13.65.448-.74.74-1.494.705-2.233-.158-3.38-.698-6.766-.566-10.13.322-8.209 6.183-14.738 14.196-16.22 4.886-.904 9.222.373 13.264 3.15.752.516 2.34.916 2.845.508 2.624-2.12 5.022-4.52 7.5-6.822zM84.01 272.648l.292-.256c-.509-.829-.95-1.714-1.567-2.453-3.196-3.827-4.707-8.33-5.714-13.131-.52-2.477-1.341-4.973-2.505-7.21-1.024-1.97-2.564-3.486-4.913-4.102 4.992 2.38 6.228 7.043 6.51 12.266a16.094 16.094 0 0 1-.22-.689c0 .4-.014.81-.042 1.229-.63-2.22-1.132-4.344-1.842-6.395-.657-1.898-1.791-3.466-3.795-4.67l1.551 3.269a8.822 8.822 0 0 1-.883-1.027l.727 1.49c-.951-.84-1.462-1.966-2.286-2.774-1.377-1.35-2.813-2.796-5.105-1.621-1.221.625-2.137 1.39-2.667 2.324-.385.934-.415 2.023-.031 3.294.818 2.707 1.927 5.423 3.429 7.807 4.424 7.022 9.045 13.923 13.722 20.78 1.565 2.295 3.44 4.403 5.364 6.415.551.577 1.636.645 2.534.89.179-.659.412-1.336.236-1.88-.914-2.823-2.038-5.578-3.083-8.358l.314-.143a148.02 148.02 0 0 1-.094-.248l.452-.19c1.206 2.853 2.413 5.705 3.62 8.556-.165-1.996-.53-3.955-1.248-5.775-.905-2.295-2.114-4.516-3.499-6.562-1.29-1.905-2.984-3.535-4.5-5.287l.507-.488-.092-.126.453-.494 4.375 5.559zm-15.852-27.74l.038.014c.14 0 .279.003.415.007-.149-.01-.3-.017-.453-.02zm2.208 1.633l-.155.183c.632.429 1.208.874 1.73 1.34-.518-.512-1.07-1.002-1.575-1.523zm192.942-122.193c-12.68 9.039-24.327 18.335-31.536 32.7 3.013-.155 5.408-.424 7.793-.36 2.39.066 4.218-.1 5.403-2.778.734-1.66 2.511-3.023 4.105-4.096 2.24-1.507 4.708-2.694 7.144-3.885 3.438-1.681 6.591-3.706 8.875-6.845.408-.561.841-1.386.734-1.995-.705-3.995-1.555-7.964-2.519-12.741zm123.944 153.434c.33 2.684.089 5.434.201 8.15.151 3.653.396 7.301.6 10.952 7.323-11.686 16.123-21.804 26.95-30.658.88-.827 1.758-1.66 2.629-2.5-.528 0-1.133-.05-1.728.006-8.042.757-16.083 1.523-24.121 2.311-.418.041-1.055.192-1.184.476-.975 2.156-2.446 4.312-3.063 6.506-.111.457-.2.921-.265 1.393a6.343 6.343 0 0 0-.019.281c-.034.765-.058 1.53-.074 2.295.017.26.041.522.074.788zm-176.54-111.71c.741-.457 1.323-.766 1.85-1.148 4.137-2.994 8.626-5.382 13.623-6.365 3.242-.638 4.999-2.123 6.14-5.208.894-2.42 2.68-4.514 4.097-6.735.464-.727 1.015-1.399 1.544-2.12-1.074-.671-1.896-1.197-2.73-1.705-9.005-5.489-20.679-1.351-24.123 8.606-1.644 4.752-1.394 9.591-.401 14.674zM82.384 213.402a22.625 22.625 0 0 0-2.609-.287c.792.187 1.583.42 2.37.69-.584 0-1.174.06-1.75-.01-7.381-.883-13.557 2.249-19.521 5.948-1.232.764-2.482 1.704-2.97 3.04-.06.41-.015.846.173 1.308.864 2.126 3.586 2.349 5.824 1.911 4.286-.838 8.594-1.659 12.784-2.862 7.765-2.23 15.13-6.315 23.684-4.643.493.096 1.404-.405 1.83-.913.087-.608-.528-1.597-1.082-2.108-.628-.578-1.574-.887-2.433-1.125a417.598 417.598 0 0 0-10.476-2.77c-6.932-1.729-13.818-1.712-20.339 1.449-3.056 1.481-5.846 3.512-8.731 5.348-.04.064-.077.132-.114.201.177-.067.352-.135.527-.205 7.081-4.298 14.128-8.1 22.833-4.972zm270.242 35.807c3.008 2.95 6.135 5.81 9.452 8.398 2.46 1.921 5.422 2.885 8.68 2.7.742-.042 1.269-.172 1.567-.457.087-.354.021-.842-.219-1.518-2.324-6.556-3.16-13.168.07-20.118-10.201 2.14-20.163 2.888-30.632 1.94 4.376 2.309 7.68 5.72 11.082 9.055zm-125.94 29.024l.425-.224c-.294-1.419-.655-2.829-.836-4.262-.806-6.399-2.116-12.626-5.546-18.23-2.7-4.41-2.742-9.123-1.57-14.004.607-2.526.975-5.109 1.45-7.666l-.787-.512-14.783 12.115 21.647 32.783zM39.608 322.055c6.298 5.068 13.44 8.565 21.15 10.928a6.333 6.333 0 0 0 1.775.268c1.137.01 2.008-.432 2.466-1.132.234-.633.185-1.407-.219-2.228-.518-1.054-1.35-1.99-2.176-2.848-1.182-1.225-2.49-2.33-3.743-3.486l.179-.173 1.289.865c-.417-.374-.834-.748-1.245-1.127l.182-.179 2.469 1.695c-.077-.377-.234-.646-.463-.82-2.499-1.899-4.95-3.878-7.573-5.591-2.015-1.315-3.917-2.474-4.049-5.249-.125-2.644-1.025-3.233-3.66-2.728-3.933.754-6.254 3.36-8.14 6.703l2.018-4.801c-1.265 1.003-2.177 2.016-2.737 3.026-1.072 2.356-.236 4.695 2.477 6.877zm341.547-169.889l.197-.202c.4.808.705 1.686 1.23 2.402.416.565 1.116 1.298 1.666 1.28.55-.02 1.245-.79 1.557-1.395.321-.624.293-1.444.352-2.183.103-1.282.155-2.568.229-3.852l.998.172c-.536 2.402-.704 4.99-1.78 7.118-.454.897-2.824.824-4.45 1.223.362 1.922 1.095 4.19 1.162 6.478.162 5.578 1.583 10.619 5.122 15.021.938 1.167 1.606 2.55 2.398 3.835.861-4.14 1.28-8.108 1.68-12.079.052-.516.007-1.041.007-1.707-2.836-.256-3.565-2.285-3.819-4.566a54.87 54.87 0 0 1-.339-6.099c.003-4.601-.101-9.225 3.107-13.129.314-.382-.228-1.908-.797-2.483-1.18-1.192-3.983-.831-5.924.515-1.628 1.127-2.312 2.68-1.463 4.51.723 1.56 1.77 2.968 2.653 4.408-2.824-.764-4.6-3.834-3.753-7.001.263-.983 1.086-1.975 1.92-2.616 1.962-1.509 4.232-1.727 6.832-1.07-.893-1.385-2.18-3.439-3.087-3.283-2.016.349-3.842 1.803-5.234 2.537-.318-.427-.834-1.837-1.548-1.945-2.167-.33-4.724 2.223-4.42 4.408.252 1.815 1.081 3.55 1.84 5.894.44-1.01.546-1.257.662-1.524.375 3.187 1.589 5.959 3.98 8.222l-.978-2.889zM93.285 325.91c-1.337-.034-2.686-.091-4.043-.173 1.496.168 2.992.331 4.488.498-9.305-.122-18.444-1.311-27.476-3.662l.798.374-.143.383-1.105-.414.965.47-.155.37-5.375-2.048-.16.225c.74.622 1.418 1.449 2.268 1.71 3.445 1.055 6.906 2.24 10.451 2.75 7.238 1.046 14.56 1.512 21.802 2.534 10.894 1.538 21.741 3.411 32.628 5.005 3.018.441 6.083.56 9.136.76l-21.409-4.327.1-.516.057.011.088-.464 17.43 3.414c-21.35-7.656-43.734-9.327-66.348-11.127l-.015.11.495.144 25.524 3.973zM266.339 140.25c-1.719 1.467-3.268 3.036-5.06 4.246-1.779 1.201-3.794 2.056-5.72 3.034-1.68.852-3.461 1.534-5.053 2.523-2.51 1.559-4.406 3.724-5.754 6.318 5.428.775 10.566 1.55 15.72 2.2.704.089 1.626-.256 2.207-.708a152.405 152.405 0 0 0 6.97-5.782c.38-.333.69-1.181.536-1.616-1.2-3.392-2.52-6.74-3.846-10.215zm-22.038 84.15c2.652 11.344 6.757 22.178 11.473 32.803 3.01 6.778 6.68 13.144 11.43 18.856.866 1.041 1.847 1.993 2.832 2.927.732.695 1.513 1.34 2.286 1.991-6.117-8.54-11.003-17.718-14.787-27.494-3.928-10.145-6.368-20.67-7.924-31.67l-5.566 1.108c.1.627.157 1.058.256 1.48zm154.636-27.764l-.507-.585c-1.305.814-3.317 1.335-3.795 2.491-2.21 5.346-4.417 10.761-5.831 16.352-2.176 8.603-3.699 17.37-5.508 26.066-.277 1.33-.604 2.649-.914 4.001 2.362-1.212 4.516-2.25 6.587-3.431.108-.061.21-.153.306-.265.16-.333.268-.715.305-1.038.581-5.092.715-10.265 1.703-15.271.084-.424.17-.846.258-1.268a106.734 106.734 0 0 1 2.35-10.227c.486-1.72.989-3.437 1.5-5.15.309-1.167.614-2.334.91-3.503.053 0 .104-.01.155-.027.827-2.716 1.663-5.428 2.481-8.145zm21.704-19.114c-5.071 8.365-10.182 16.552-15.044 24.884a129.98 129.98 0 0 0-2.795 5.032c.058-.07.07-.07.022.022-1.721 3.345-3.319 6.736-4.691 10.207-1.36 3.552-2.47 7.205-3.252 10.982-.782 3.771-1.157 7.627-1.742 11.62 1.526-.352 2.37-.571 2.871-.953.379-.499.606-1.14.719-1.953.815-5.85 2.307-11.521 4.314-17.042a96.77 96.77 0 0 1 5.822-13.275c4.407-8.317 9.347-16.35 14.036-24.519.914-1.592 2.701-3.225-.26-5.005zm-45.802 81.214l.522.2c.244-.255.483-.519.696-.792.172-.254.344-.508.497-.767a2.7 2.7 0 0 0 .246-.707c1.674-8.865 3.55-17.711 4.725-26.647 1.023-7.783 1.369-15.656 1.946-23.498.036-5.782-.11-11.573-.195-17.352-.022-1.468-1.216-2.92-1.898-4.444 0 3.493.118 6.657-.023 9.809-.105 2.349-.217 4.698-.335 7.047-.034.87-.085 1.853-.149 2.907a1734.47 1734.47 0 0 1-.766 13.565c-.556 9.246-.841 18.503-4.302 27.345-1.653 4.223-2.106 8.79-.964 13.334zm19.682-62.5c1.19-.55 2.179-.794 2.811-1.406.253-.245-.067-1.484-.483-1.96-4.543-5.189-8.5-10.774-12.057-16.688-1.428-2.375-3.475-4.416-5.454-6.395-.496-.495-1.947-.446-2.722-.107-.529.231-.9 1.406-.885 2.15.019.941.29 2.02.82 2.785 4.352 6.304 8.684 12.63 13.285 18.75 1.021 1.358 3.088 1.93 4.685 2.871zm33.433-25.907c.341-.213.5-.265.586-.375.135-.174.22-.387.327-.583 2.297-4.193 1.453-8.398.208-12.683-1.316-4.535-2.42-9.132-3.579-13.712-.608-2.404-1.016-4.865-1.76-7.223-.282-.896-1.165-1.676-1.93-2.326-1.007-.856-1.982-.47-2.19.748-.26 1.52-.45 3.144-.193 4.642.999 5.84 2.009 11.69 3.363 17.456.968 4.124 2.457 8.13 3.8 12.158.238.712.909 1.279 1.368 1.898zM39.58 266.34l.196-.042c.492 1.005.919 2.05 1.511 2.992l-4.93-19.9c.223.39.43.783.622 1.18l-.4-1.617c3.48 6.078 3.113 13.374 5.596 19.832l-.35.096c.043.114.085.227.129.34l-.592.164c.248.25.781.32 1.172.481.143-.38.305-.765.23-1.096-.467-2.055-1.063-4.08-1.596-6.12-1.104-4.222-2.036-8.498-3.373-12.644-.526-1.629-1.69-3.284-3.018-4.374-2.003-1.641-4.328-1.158-5.366.66a4.567 4.567 0 0 0-.316 1.556c-.065 1.842.1 3.85.782 5.531 1.952 4.813 4.293 9.467 6.33 14.247.808 1.898 1.973 2.498 3.776 2.056l-.64-2.806.266-.086.12.258-.149-.708zm334.988-127.32c1.529-7.442-11.194-22.327-18.094-21.877.225 1.66.051 3.49.76 4.866.979 1.899 2.424 3.675 4.02 5.115 4.677 4.219 8.428 9.036 10.728 14.937.185.476.611.856.925 1.282.297-.08.594-.158.89-.236l-.633-7.635.17-.074c.375 1.1.75 2.198 1.234 3.622zm-81.591 90.307c8.945 4.159 18.174 7.304 28.01 8.48 1.573.188 3.145.42 4.724.513 1.233.072 2.473.037 3.71.023-1.008-.242-2.027-.457-3.002-.797-9.383-3.273-18.77-6.535-28.122-9.892-7.093-2.546-14.292-4.615-22.169-5.781 5.761 2.523 11.348 4.897 16.849 7.454zm106.563-35.259c2.38-9.358 3.18-18.679 2.316-28.038-.352-3.815-1.86-7.556-3.116-11.237-.466-1.366-1.718-2.465-2.935-4.129-.426 3.587-1.238 6.45.678 9.185.57.814.872 1.99.875 3.003.02 8.28.163 16.571-.235 24.836-.127 2.646.493 4.455 2.417 6.38zm1.21-61.73l1.182-.494c-.883-1.139-1.543-2.674-2.7-3.32-1.709-.956-3.234.239-4.152 1.71-.656 1.05-1.146 2.331-1.283 3.557-.726 6.503 1.486 11.985 6.114 16.529.47.461 1.07.86 1.684 1.092 1.534.578 2.348-.046 2.044-1.647-.25-1.314-.962-2.548-1.152-3.863-.654-4.51-1.17-9.041-1.737-13.564zM49.527 270.648c3.679.2 7.361.453 11.02.872 3.623.416 7.217 1.07 10.823 1.62l.07-.079c-1.198-1.075-2.243-2.539-3.646-3.084-4.746-1.846-9.566-3.576-14.48-4.894-3.364-.902-6.922-1.088-10.447-1.58.073 5.182 1.84 6.885 6.66 7.146zm368.556-99.332c-7.592 12.134-14.097 24.503-17.906 37.655 6.443-10.262 13.09-20.834 19.696-31.432.268-.43.353-1.169.182-1.64-.531-1.474-1.227-2.889-1.972-4.583zm-21.975 48.232c4.507-17.2 10.923-33.516 21.089-48.233.594-.861.42-2.253.604-3.398l-.623-.133c-.176.229-.39.438-.523.69-4.233 7.994-8.581 15.93-12.658 24.003-6.462 12.798-11.542 26.055-12.32 40.587-.11 2.058-.051 4.126-.028 6.21.354-2.09.441-4.204.963-6.204.223-.856.45-1.708.68-2.557.8-3.678 1.858-7.306 2.816-10.965zm-206.202 42.51c-.16 1.384-.14 3.045.501 4.201.835 1.507 2.572 1.932 4.373 1.559 2.014-.417 3.41-1.477 4.29-3.072.173-.37.321-.766.447-1.186 1.142-3.838.33-7.576-.642-11.845-2.8 2.962-5.255 5.49-7.618 8.104-.4.444-.83.956-1.14 1.493a2.662 2.662 0 0 0-.211.746zm11.375-9.098c7.909 11.45 16.427 22.412 25.803 32.7l-24.932-36.878c-.604.56-1.058 1.019-1.368 1.435-.325.78-.261 1.645.497 2.743zm221.822-72.997c-5.42 10.184-12.025 19.553-16.475 30.084 7.409-8.875 15.888-17.046 18.853-28.843l-2.378-1.241zm-42.595 63.822l.438.058c.176-.545.363-1.088.477-1.646 1.25-6.133 2.618-12.247 3.718-18.407 1.227-7.672 2.406-15.352 3.595-23.03v-.003l.551-3.557c.102-.654.297-1.566-.03-1.967-1.512-1.854-3.192-3.57-4.724-5.239v24.093l1.335-9.278h.002l1.101-10.356c.053 16.719-3.79 32.953-6.463 49.332zm12.986-83.759l.845-.024c0-3.724.096-7.452-.072-11.168-.039-.862-.792-2.1-1.541-2.433-1.436-.637-2.216.375-2.73 1.785-1.96 5.374-1.348 10.833-.575 16.272.098.691 1.4 1.76 2.022 1.682.708-.089 1.73-1.218 1.814-1.983.16-1.448-.257-2.96-.418-4.446-.01-.106.12-.228.22-.406l.435.721zM286.133 325.552c-.294.662.748 1.816.642 2.678-.641 5.218 3.259 5.47 6.917 6.515-1.084-5.366-4.31-10.363-1.867-15.826l-2.25-2.833-.1.106c-.342.502-.66.903-.922 1.265-1.432 2.495-1.287 5.54-2.42 8.095zM88.667 223.135c-1.508-.182-2.998-.305-4.488-.247l.01.063 4.385.613c-3.49-.289-6.96-.627-10.396 1.167l9.114.603c-.38.299-.747.271-1.107.307-.117.011-.234.03-.351.052l1.205.08-.021.254-.37.027c5.159.96 10.069 4.28 15.627 1.371-5.34-1.738-10.672-3.503-16.034-5.171-.541-.168-1.218.098-1.856.24l4.282.64zm-.947 54.393c.194.483.72.984 1.209 1.17 1.675.635 3.397 1.148 5.174 1.723.005-1.968.032-3.766-.028-5.56-.015-.47-.24-1.158-.59-1.358-3.101-1.778-6.246-3.48-9.307-5.16 1.187 3.119 2.328 6.167 3.542 9.185zm-3.029-11.221c3.039 1.905 6.196 3.62 9.464 5.506.026-.602.02-1.133.194-1.596.832-2.209-.454-2.978-2.174-3.805-2.244-1.078-4.721-1.525-6.78-3.225-1.267-1.046-3.272-1.198-5.225-1.758.519 2.288.744 2.51 4.521 4.878zm186.095-114.445l-8.086 6.93c5.928 2.06 7.065 1.852 11.269-1.851l-3.183-5.08zm124.322 12.477c-1.16 1.518-1.866 2.344-2.454 3.248-.344.528-.665 1.166-.715 1.778-.35 4.285-.707 8.573-.877 12.867-.046 1.155.549 2.335.85 3.504l1.171-.123 2.025-21.274zM43.887 262.05c3.304.283 6.678.407 9.866 1.217 4.581 1.165 9.042 2.8 13.834 4.366-.451-.656-.89-1.345-1.507-1.602-7.59-3.158-15.482-5.108-23.72-5.66-.212 1.132.238 1.57 1.526 1.68zm330.049-118.643c.07 1.244-.09 1.985.172 2.518 3.42 6.964 5.239 14.383 6.486 21.987.138.842.832 1.593 1.268 2.386.363-9.7-2.869-18.19-7.926-26.89zm-1.403 98.047c-.355 3.332-.244 6.718-.233 10.08.003.795.269 1.589.4 2.07l4.032-16.295-.371-.448c-1.016.74-2.481 1.259-2.97 2.256-.324.66-.593 1.323-.815 1.989-.017.115-.03.231-.043.348zm-11.882 51.58c1.272 1.554 2.643 2.55 4.679 2.04-1.655-6.551-4.378-8.293-8.24-5.777 1.203 1.233 2.474 2.41 3.56 3.737zm30.054-97.24l-.688.258-1.731 14.635c.464-.153.643-.382.708-.64 1.023-4.077 2.096-8.144 2.965-12.254.117-.553-.81-1.327-1.254-2zm5.742-13.558c.57-7.733 2.132-15.548-1.227-23.062-.316 1.13-.458 2.286-.288 3.393.43 2.8 1.259 5.562 1.451 8.372.257 3.75.064 7.53.064 11.297zm-1.028-8.18l-.106.05c-.55 3.858-.965 7.743-1.713 11.563-.322 1.646.298 2.312 1.819 3.137v-14.75zm-120.22-15.594l-3.382 2.518 7.47 1.68-4.087-4.198zm55.103 171.577l.453-.002v12.215h-.297c-.64 10.165-3.92 19.745-9.608 28.778l9.185-40.603c.104.79.193 1.578.267 2.361v-2.75zm80.98-327.56l-.003.21a4.99 4.99 0 0 1-.054-.194l.057-.015zm.503 2.356c-.811 7.244-1.712 14.477-3.038 21.665.824-6.927 1.662-13.853 2.458-20.783.114-.998.064-2.016.074-3.027.215.72.583 1.457.506 2.145zm-202.546 309.8l1.432-.063c-10.195-1.823-20.554-3.102-30.4-6.078-10.686-3.229-20.76-8.478-30.925-13.322 1.253.423 2.516.821 3.762 1.264a736.056 736.056 0 0 0-3.538-1.7c1.467.495 2.947.952 4.395 1.495 1.553.583 3.078 1.24 4.61 1.875 6.547 2.714 13.028 5.601 19.654 8.103 8.541 3.226 17.578 4.243 26.58 5.246a304.066 304.066 0 0 1 17.51 2.467c-20.2-3.476-54.638-15.465-72.052-26.124a337.91 337.91 0 0 0 7.244 3.417 234.736 234.736 0 0 1-7.104-3.838c22.299 10.793 45.436 19.072 69.694 23.984l-38.495-11.908.147-.47 9.607 2.9a452.128 452.128 0 0 1-9.27-3.303l52.601 15.874c-.875-.09-1.748-.186-2.62-.287l2.09.631c-2.743.314-6.772-.013-11.642-.841a299.778 299.778 0 0 1 37.59 8.97c.356.109.688.291 1.01.553-1.47-.358-2.939-.718-4.408-1.077 1.059.313 2.116.633 3.173.958.355.11.688.293 1.134.486-8.733-1.942-17.274-4.146-25.933-5.68-8.585-1.52-17.289-2.364-26.039-3.069l3.49-.186c-.43-.08-.86-.16-1.29-.237a112.27 112.27 0 0 0-2.007-.04zm25.679-2.576c-4.865-.778-9.484-2.195-13.822-4.312a50.265 50.265 0 0 0 13.545 4.87c-.219.023-.44.08-.655.06-.297-.03-.589-.118-.883-.183-12.693-2.802-22.845-9.63-30.816-19.743-4.531-5.75-8.83-11.683-13.18-17.572-5.048-6.833-10.61-13.163-17.392-18.387a44.084 44.084 0 0 1 3.074 2.086c-.97-.833-1.945-1.662-2.909-2.502l.423-.473c3.233 2.979 6.838 5.65 9.624 9 5.978 7.19 11.458 14.792 17.295 22.103 3.197 4.005 6.508 7.957 10.115 11.588 6.536 6.582 14.588 10.597 23.536 12.876.687.176 1.364.392 2.045.59zm-113.515-35.59l19.493 9.897zm19.493 9.897l14.073 7.147-14.073-7.147zm138.502 38.011l-.115-.028-.112.464-24.465-6.059.133-.55 24.475 6.017-.03.128zm-119.155 3.693l15.92-1.218.026.382-15.926 1.143-.02-.307zM107.6 296.475l2.275 10.163-.314.074.105.472-.382.085-2.282-10.23.297-.067-.091-.406.392-.09zm235.92-32.056l-8.453 12.25-11.71 16.998c4.015-10.412 9.13-20.066 17.822-27.25a48.208 48.208 0 0 1 2.34-1.998zm63.859 15.607l7.03-6.415-6.756 6.602-.274-.187zm23.427 3.73l3.181-3.12 2.124-2.188.128.126-3.572 3.423.72-.741-1.472 1.462.752-.72-2.107 2.17-.072-.083.33-.316-.012-.013zm20.273 2.994l7.834-7.804.05.05-.387.39.085-.082.099.106-7.889 7.788-.071-.156c.096-.095.191-.19.287-.283l-.008-.009zm-322.51 52.192l-.036-.306c4.675-.58 9.35-1.167 14.028-1.725.465-.055.947.034 1.43.078l-15.422 1.953zM144.125 337c.001 0 .001 0 0 0zm320.017-98.153c42.3-1.08 64.912 17.856 76.753 53.372-.35-.786-.696-1.573-1.043-2.36.33.958.653 1.93.965 2.916-2.068-4.42-3.977-8.811-6.142-13.072-6.202-12.204-14.416-22.645-26.468-29.652-5.846-3.4-12.094-5.785-18.602-7.537a2.28 2.28 0 0 0-.345-.062c12.483 4.657 23.27 11.785 32.127 21.786a101.493 101.493 0 0 0-9.116-8.113c3.21 2.558 6.125 5.5 8.999 8.477-7.746-7.594-16.337-13.945-26.224-18.484-9.869-4.53-20.193-6.965-31.115-6.734a110.32 110.32 0 0 1 9.3-.04 70.153 70.153 0 0 0-9.089-.497zm62.494 10.767c10.357 8.868 17.302 20.158 22.964 32.358l-1.274-1.795c.353.73.7 1.465 1.043 2.203l-22.959-32.336c.48.41.951.826 1.416 1.247zM405.746 8.234c-.245 1.287-.355 2.617-.754 3.854-5.602 17.36-10.442 34.92-13.763 52.87-1.3 7.033-2.41 14.101-3.71 21.129 3.041-26.628 9.706-52.433 18.226-77.853zm-36.45 191.137c-2.809-9.114-5.815-18.177-7.158-27.666zm4.872 18.838l-.717-2.772.328 1.377c.136.573.197 1.164.127 1.783-1.304-4.596-3.655-14.123-4.959-18.72.154 0 .58.958 1 2.014l-.652-2.52c.22.715.44 1.632.656 2.53.187.47.374.96.534 1.393 1.459 4.913 2.783 9.86 3.683 14.915zm-3.683-14.239l-.514-1.988c.173.716.344 1.416.514 1.988zm26.287-150.834c2.473-13.777 6.007-29.036 10.736-41.423zm38.705 49.79l-2.59 39.145zm-45.19 27.555c-.394-8.827-.105-18.868 1.664-27.824zm7.741-8.689l1.569-15.87.474.045-1.575 15.869-.468-.044zM227.286 212.01l.3-.221-.637.298c-.043-.065-.085-.13-.128-.193l2.433-1.279c6.056-4.112 12.674-6.975 19.892-8.406 12.06-2.391 23.757-.536 35.166 3.496 5.644 1.994 11.131 4.431 16.69 6.668l-.215.521c-3.718-1.577-7.407-3.227-11.16-4.715-8.747-3.467-17.75-5.927-27.199-6.4-7.233-.363-14.073.736-20.587 3.03h.701l-14.367 6.705c-.297.165-.594.329-.89.496zm76.102-11.253c18.001 7.924 36.523 14.713 53.84 24.129zm-102.91 13.26a51.617 51.617 0 0 1 5.372-4.184l2.361-2.058.325.346.373-.221c-.428.37-.858.74-1.285 1.112-.587.514-1.176 1.027-1.764 1.54-3.335 2.938-6.67 5.879-10.013 8.808-2.364 2.07-4.193 4.344-5.154 6.95-.566 1.833-.664 3.837-.223 6.025.16.796.095 1.637.135 2.457l-.24.018c-.002.094-.004.19-.003.283 0 .063-.073.127-.08.138-.947-2.99-1.054-5.747-.379-8.28.35-1.849 1.218-3.52 2.54-4.983.702-.9 1.526-1.764 2.468-2.593a109.946 109.946 0 0 1 5.566-5.359zM262.603 86.21c21.246 14.844 36.988 34.71 51.124 56.042zm86.321 103.985l17.196 31.73-.4.22.446.83c-.243-.162-.593-.265-.715-.492-3.188-5.884-6.351-11.78-9.519-17.674h.287l-7.811-14.4.516-.214zm-29.538-33.258l14.527 25.56-.465.263-14.547-25.55.485-.273zm149.555 22.177c11.114-14.303 24.155-26.521 39.23-36.54-4.649 3.666-9.42 7.189-13.91 11.039a218.626 218.626 0 0 0-13.09 12.175c-4.238 4.282-8.166 8.871-12.23 13.326zm-28.318.257l-29.345 38.013-2.747 4.014c.394-.867.676-1.808 1.2-2.588 2.712-4.046 5.494-8.046 8.228-12.078.405-.597 2.097-2.705 2.433-3.348.302 0-.81 1.425-.508 1.425l-.578.845a372.606 372.606 0 0 1 21.317-26.283zm50.178 1.106c5.9-6.963 11.814-14.079 20.847-16.983 4.834-1.554 10.018-2.013 15.035-3.01 1.971-.391 3.919-.903 5.99-.865-2.963.647-5.904 1.704-8.894 1.87-12.465.693-21.964 6.737-29.88 15.886-.954 1.102-2.062 2.07-3.098 3.102zm84.556-58.529c-.354.167-.735.312-1.122.452.346-.18.705-.346 1.079-.496l.043.044zm-7.26 6.558c-1.886 2.896-3.869 5.73-5.81 8.591l-.587-.408c3.106-4.23 6.088-8.56 9.4-12.622.69-.846 1.94-1.234 3.135-1.667-2.643 1.379-4.505 3.6-6.138 6.106zM441.523 177.9l6.377-5.973-6.014 6.312-.363-.339zM275.788 313.22a375.512 375.512 0 0 1-2.395-2.906l2.106 3.398c-13.367-14.938-24.906-31.042-31.22-50.38l1.059 1.71c-.277-.705-.548-1.413-.813-2.125zm7.063 6.734c-.069-.159-.136-.32-.202-.48 0 .305.002.609.026.902-1.192-2.73-1.993-5.73-3.653-8.136-4.5-6.523-9.365-12.793-14.082-19.167-.48-.65-.936-1.317-1.163-2.188.252.285.516.561.769.846a4.883 4.883 0 0 1-.545-1.283c.407.462.846.9 1.217 1.39 4.422 5.843 8.928 11.626 13.201 17.577 1.697 2.363 2.954 5.064 4.23 7.7.383.793.153 1.883.202 2.844-.002.006 0-.005 0-.005zM55.368 274.57l-20.68-1.199zm-29.63-3.504l-8.363-2.79.105-.32c2.792.92 5.583 1.838 8.374 2.756l-.116.354zM426.54 242.61l9.968 1.09c-3.32-.432-6.639-.846-9.96-1.207l-.008.117zM318.534 377.197c-.269-.098-.537-.22-.806-.34.268.119.536.234.806.34zm289.424-124.98zM442.167 446.185a64.973 64.973 0 0 1 0-5.119v5.12zM298.859 341.97c.125.08.249.16.369.242l.004.008a8.969 8.969 0 0 1-.373-.25zm18.87 34.887zM66.2 403.952l.055.047-.007-.006.004.004-.194-.006.14-.038c-.38-.304-.738-.646-1.154-.89-3.824-2.242-8.037-2.962-12.384-3.006-7.776-.078-14.896 1.481-19.667 8.416-2.008 2.919-3.926 5.9-5.846 8.878-.424.657-.684 1.42-1.019 2.133l.377.26 4.494-4.84c-1.43 2.477-3.381 4.547-4.755 6.948-1.508 2.634-3.333 5.52-3.512 8.391-.355 5.713.322 11.49.573 17.24l.583.074 3.25-4.39c-.576 1.742-1.732 3.196-2.25 4.85-.508 1.626-1.035 3.756-.406 5.145 3.56 7.856 8.821 14.389 16.363 18.825 2.635 1.55 5.528 1.987 8.508 1.002 2.512-.83 2.689-1.256 1.744-3.762-.532-.94-.921-2.006-1.621-2.797-1.922-2.175-3.975-4.234-5.976-6.34-1.316-3.706-2.23-7.45-1.939-11.462.468-6.433 2.787-12.302 5.23-18.141 4.258-10.174 11.839-16.321 22.667-18.372 3.082-.584 6.218-.876 9.33-1.302-6.77-2.727-13.21-1.4-19.553 1.381 4.574-3.044 9.635-3.981 15.23-3.852l-8.265-4.39zm137.826 60.526c-16.777 8.9-34.376 9.962-52.407 4.671 3.552 3.586 8.12 5.02 20.096 6.428-3.674-.137-7.511.075-10.94-1.007-10.15-3.203-17.786-9.947-23.83-18.542-1.45-2.062-2.52-4.391-3.896-6.83-.414 2.475.33 5.939 2.27 9.686 3.12 6.027 6.284 12.038 9.666 17.92.73 1.27 2.331 2.482 3.754 2.845 13.236 3.38 26.194 2.293 38.767-3.018 6.611-2.793 12.356-6.798 16.52-12.153zm-74.733-75.608c-1.941 1.17-4.01 2.334-5.994 3.63-11.786 7.698-24.73 11.268-38.71 9.857-7.151-.722-14.202-2.6-21.248-4.183-5.744-1.29-9.987-1.701-13.631-.526 10.162.613 18.05 5.365 26.042 9.923 1.87 1.067 3.992 1.83 6.093 2.326 7.453 1.764 14.863 1.071 22.127-1.053 11.076-3.24 20.235-9.052 25.32-19.974zm108.866-52.646c-4.354-1.384-8.731-.75-13.102-.133 9.798 1.215 19.298 5.07 28.317 3.152-5.321.356-10.238-1.437-15.215-3.019zm107.111 14.317l.01-.25c-3.074-.426-6.15-.854-9.409-1.308l-.31 3.464 9.71-1.906zM233.37 339.585l-.002.015.132.061 1.072.273c-.4-.109-.801-.225-1.202-.35zm99.668-98.236l11.031 2.988c-3.377-2.319-6.547-4.947-11.03-2.988zM42.313 280.146c1.709 1.821 3.496 1.785 4.534 0h-4.534zm401.263 147.322v-13.02h.179v12.937l-.179.083zm14.962 60.287l4.024 8.096-.32.155-4.11-8.11.406-.14zM259.765 415.52c1.862-4.577 3.474-9.275 5.634-13.706 5.435-11.147 12.822-20.698 23.594-27.266.69-.42 1.465-.7 2.201-1.046-2.834 2.096-5.776 4.062-8.483 6.312-9.52 7.915-15.44 18.343-20.292 29.49-.899 2.065-1.77 4.144-2.654 6.216zm-25.084-62.116c-11.78.642-22.926 3.845-33.816 8.13 7.086-3.316 14.366-6.178 22.092-7.375 12.74-1.975 25.437-4.047 37.813-7.758 1.042-.312 2.164-.362 3.335-.21-2.493.764-4.981 1.54-7.479 2.29-2.598.779-5.213 1.504-7.806 2.299-10.588 3.243-21.277 6.2-31.73 9.834-14.083 4.895-26.529 12.937-38.7 21.388-.668.464-1.35.907-2.349.924 3.529-2.565 6.995-5.221 10.604-7.668 3.681-2.497 7.426-4.923 11.284-7.132 3.79-2.17 7.684-4.195 11.667-5.982 4.05-1.815 8.223-3.384 12.42-4.837 4.171-1.446 8.44-2.613 12.665-3.903zm15.1-7.35c-5.513 2.414-11.367 3.3-17.293 3.82-8.785.773-17.578 1.457-26.357 2.296-2.063.197-4.08.866-6.119 1.318l-.12-.674c4.713-.782 9.403-1.795 14.147-2.295 8.77-.925 17.585-1.433 26.356-2.362 3.167-.335 6.26-1.382 9.386-2.104zM154.659 293.9l-23.373-11.865 23.373 11.865zm21.23 33.793l-15.852 1.112-.02-.303 15.835-1.21.037.401zM304.72 392.1c.064.076.124.157.183.24l-.223-.195zm10.174 9.11c6.51 7.405 10.33 16.43 14.177 25.392 3.212 7.485 6.485 14.942 9.728 22.413.108.25.18.518-.149.958-1.644-3.588-3.312-7.165-4.93-10.765-4.11-9.146-7.94-18.43-12.372-27.416-2.899-5.877-6.743-11.1-11.606-15.44 1.827 1.523 3.6 3.093 5.152 4.858zm-9.472-8.286c-.208-.146-.361-.368-.519-.585.6.52 1.209 1.03 1.822 1.535-.427-.323-.862-.64-1.303-.95zm4.32 3.428c-.999-.832-2.013-1.65-3.017-2.478a47.722 47.722 0 0 1 3.017 2.478zm103.709 125.778c12.119 9.05 23.712 18.689 33.744 30.08zM304.68 392.144c-.048-.045-.097-.09-.146-.133l.187.088-.04.045zm-9.276-4.419c3.27.927 6.507 1.934 9.13 4.286l-9.13-4.286zm21.822-19.841c-3.513-10.199-3.989-20.76-3.175-31.451zm-34.55-47.499l-.001-.009.002.006s-.001.005-.002.003zm-119.594 41.463c3.411-1.993 6.596-4.548 10.887-4.372l-10.887 4.372zm-75.574 20.327l7.692-1.997.148.558-7.57 2.003-.27-.564zm326.948-107.869l-6.95 6.517a1.346 1.346 0 0 1-.016-.02l6.87-6.646.096.15zm-250.82 68.663c-.264.141-.519.304-.793.42-19 8.084-38.003 16.165-57.004 24.246l-.223-.524 57.787-24.68.232.538zm-120.26 117.23l1.674 3.156c-.36-.238-.83-.397-1.066-.725-7.396-10.307-8.165-25.069-1.097-35.665-.29.683-.56 1.375-.875 2.046-4.584 9.734-4.546 19.467.024 29.187.338.718.888 1.336 1.34 2.001zm14.962-54.094c2.627-1.972 5.143-2.181 7.721-2.114l-7.721 2.114zM56.561 275.34l-22.892-1.15.02-.421 22.884 1.31-.012.26zm-39.203-6.918l8.3 2.729-.11.345-8.391-2.768.201-.306z"/></g></g></svg>