<svg xmlns="http://www.w3.org/2000/svg" width="28" height="29" viewBox="0 0 28 29"><g><g><path fill="#acc9d4" d="M20.082 28.59H8.108c-4.362 0-7.911-3.55-7.911-7.912V8.703c0-4.362 3.549-7.91 7.911-7.91h11.974c4.363 0 7.912 3.548 7.912 7.91v11.975c0 4.362-3.55 7.911-7.912 7.911zM8.108 3.173a5.535 5.535 0 0 0-5.529 5.53v11.974c0 3.049 2.48 5.528 5.53 5.528h11.973a5.535 5.535 0 0 0 5.53-5.528V8.703a5.535 5.535 0 0 0-5.53-5.529zm5.987 18.634c-3.924 0-7.117-3.193-7.117-7.117a7.125 7.125 0 0 1 7.117-7.118 7.125 7.125 0 0 1 7.118 7.118c0 3.924-3.193 7.117-7.118 7.117zm0-11.852a4.74 4.74 0 0 0-4.734 4.735 4.74 4.74 0 0 0 4.734 4.734 4.74 4.74 0 0 0 4.735-4.734 4.74 4.74 0 0 0-4.735-4.735zm9.134-2.79a1.71 1.71 0 1 1-3.421 0 1.71 1.71 0 0 1 3.42 0z"/></g></g></svg>