<svg xmlns="http://www.w3.org/2000/svg" width="150" height="114" viewBox="0 0 150 114"><g><g><path fill="#fff" d="M89.044 0c16.395 0 13.686 12.995 6.448 8.86-2.45-1.401-4.039-5.597-6.068-5.296-5.568 0-9.797 3.844-9.797 14.247v13.926c.42.16.84.37 1.26.6.21.07.41.141.62.221l-.04.12c1.579.971 3.108 2.203 4.558 2.593 4.628 1.232 9.367 1.182 16.605-4.755-11.637 6.938-15.146 1.341-20.394.94 6.858-13.936 21.683-3.974 26.762-7.288-.64 11.564-8.717 19.744-17.415 18.532-5.508-.76-7.657-4.365-11.356-7.429-.2-.07-.4-.14-.6-.2V67.8h5.438v3.534H65.151V67.8h5.439V35.24c-2.5.571-5.049 1.432-7.568 2.273l-.23.08V68.22c.68 8.049 3.559 11.112 8.537 11.112 2.03.29 3.62-3.904 6.069-5.296 7.237-4.135 9.936 8.86-6.458 8.86-9.438 0-16.446-7.749-17.035-14.176h-.1c-.03-.43-.05-.871-.05-1.322V40.147c-4.909.821-9.337.12-12.776-4.555l2.399-1.762c2.589 3.514 6.238 3.984 10.377 3.244V23.397h9.037v11.054c2.58-.862 5.198-1.723 7.798-2.273V19.733C70.59 8.86 77.318-.001 89.044-.001zm2.98 90.787l.319-1.572h-1.25l-.32 1.572zm-2.59.46c-.07 0-.1-.03-.08-.11l.04-.23c.01-.04.03-.07.04-.09.02-.02.05-.03.1-.03h.71l.33-1.572h-.75c-.05 0-.08-.01-.09-.03-.01-.02-.01-.05-.01-.09l.05-.24c.01-.04.03-.07.04-.09.01-.02.04-.03.09-.03h.76l.22-1.082c.01-.04.02-.07.04-.08.01-.01.04-.02.08-.02h.28c.05 0 .08.01.11.02.02.01.02.04.01.08l-.22 1.082h1.249l.22-1.082a.19.19 0 0 1 .04-.08c.01-.01.04-.02.07-.02h.3a.2.2 0 0 1 .09.02c.02.01.03.04.03.08l-.23 1.082h.72c.09 0 .12.04.11.12l-.06.24c-.01.04-.02.07-.03.09-.02.02-.05.03-.09.03h-.75l-.32 1.572h.76c.08 0 .11.04.1.12l-.04.23c-.02.05-.03.08-.05.09-.01.01-.05.02-.09.02h-.77c0 .02-.01.08-.03.201-.03.11-.05.23-.08.37-.03.13-.05.26-.07.37-.03.11-.04.18-.05.19-.01.05-.02.081-.03.091 0 .01-.03.02-.08.02h-.29c-.04 0-.07-.01-.09-.02-.03-.01-.03-.04-.02-.09l.22-1.131h-1.24c-.01.02-.02.08-.05.2-.02.11-.04.23-.07.37-.03.13-.06.26-.08.37-.02.11-.03.18-.03.19-.01.05-.02.081-.04.091-.01.01-.04.02-.08.02h-.3c-.03 0-.07-.01-.09-.02-.02-.01-.03-.04-.02-.09l.23-1.132zm6.428-3.994h-1.65c-.05 0-.08-.01-.09-.03-.02-.02-.02-.06-.02-.11v-.41c0-.05 0-.081.02-.1.01-.02.04-.041.09-.041h4.14c.05 0 .09.02.1.04.01.02.02.05.02.1v.41c0 .05-.01.091-.02.11-.01.02-.05.031-.1.031h-1.7v5.086c0 .06-.01.1-.03.12-.02.02-.06.03-.12.03h-.48c-.05 0-.1-.01-.12-.03-.03-.02-.04-.06-.04-.12zm3.359-.27c0-.15.03-.26.09-.33.07-.07.18-.101.34-.101h1.94c.27 0 .51.04.729.12.21.08.4.2.56.35.16.14.28.32.36.521.09.21.13.43.13.671 0 .34-.09.64-.25.89-.17.261-.41.441-.71.552v.04c.23.07.4.18.5.32.1.15.18.32.24.53l.49 1.783c.01.03.01.06 0 .1-.01.04-.04.06-.1.06h-.56c-.03 0-.06-.01-.09-.02s-.05-.04-.06-.1l-.45-1.612c-.04-.16-.1-.3-.18-.4-.07-.11-.16-.19-.25-.26-.1-.06-.21-.1-.33-.121-.13-.03-.26-.04-.4-.04h-1.2v2.403c0 .06-.02.1-.04.12-.02.02-.06.03-.12.03h-.48c-.05 0-.09-.01-.12-.03-.03-.02-.04-.06-.04-.12zm3.319.92a.707.707 0 0 0-.18-.31.832.832 0 0 0-.33-.24c-.15-.06-.32-.09-.54-.09h-1.47v2.002h1.41c.21 0 .38-.03.53-.08.14-.06.26-.13.36-.22.09-.1.16-.2.2-.32.05-.12.07-.26.07-.401 0-.11-.02-.22-.05-.34zm1.96-1.19c0-.06.01-.1.04-.12.02-.02.06-.031.1-.031h.51c.05 0 .09.01.11.03.019.02.03.06.03.12v3.174c0 .35.029.64.069.89.04.251.12.462.26.632.12.16.31.29.54.37.24.07.55.11.94.11.1 0 .25 0 .45-.01s.43-.04.67-.09v-5.076c0-.06.02-.1.04-.12.02-.02.06-.03.11-.03h.499c.05 0 .08.01.09.03.02.02.02.06.02.12v5.026c0 .2-.04.36-.13.49-.08.12-.25.21-.49.261-.21.03-.44.06-.67.08-.24.01-.44.02-.62.02-.47 0-.87-.05-1.19-.13a1.83 1.83 0 0 1-.799-.44c-.2-.21-.35-.481-.44-.821-.09-.34-.13-.771-.13-1.272zm9.686 5.596c0 .06-.01.1-.03.13-.02.03-.07.05-.13.05h-2.349c-.28 0-.51-.04-.69-.12-.18-.08-.33-.19-.44-.32-.11-.13-.19-.281-.23-.451-.05-.18-.07-.36-.07-.56v-3.024c0-.19.03-.38.08-.56a1.22 1.22 0 0 1 .69-.781c.18-.08.4-.111.66-.111h2.3c.07 0 .11.01.13.04.02.03.03.07.03.13v.36c0 .06-.01.101-.03.13-.02.02-.06.041-.13.041h-2.29c-.24 0-.41.05-.51.15-.11.11-.16.27-.16.49v1.102h2.68c.07 0 .11.01.13.04.02.03.03.07.03.13v.32c0 .06-.01.1-.03.13-.02.03-.06.04-.13.04h-2.68v1.472c0 .19.05.351.15.46.1.12.27.181.52.181h2.34c.06 0 .11.01.13.04.02.03.03.07.03.13zm1.38.08c0 .06-.03.1-.1.1h-.23c-.07 0-.1-.04-.1-.1v-4.526c0-.18.02-.35.06-.52.05-.16.12-.3.22-.41.1-.12.23-.21.4-.28.16-.06.36-.091.6-.091h2.319c.06 0 .09.03.09.1v.19c0 .07-.03.1-.09.1h-2.31c-.3 0-.52.07-.66.22-.13.141-.2.361-.2.641v1.412h2.8c.05 0 .08.04.08.1v.19c0 .06-.03.09-.08.09h-2.8zm7.798.01c0 .06-.03.09-.08.09h-2.4c-.24 0-.44-.04-.6-.1-.16-.07-.29-.16-.4-.28a.946.946 0 0 1-.21-.41 2.25 2.25 0 0 1-.06-.521v-4.536c0-.06.02-.08.08-.08h.26c.06 0 .09.02.09.08v4.566c0 .29.07.5.2.65.14.15.37.23.68.23h2.36c.05 0 .08.03.08.08zm4.578-.621c-.41.53-1.02.801-1.81.801-.43 0-.789-.08-1.089-.23-.3-.15-.55-.35-.74-.621-.2-.27-.34-.6-.43-.971a5.35 5.35 0 0 1-.13-1.232c0-.48.05-.92.16-1.301.11-.38.27-.7.48-.961.21-.25.46-.45.75-.59.3-.131.63-.201 1-.201.4 0 .75.07 1.06.21.3.14.55.33.75.591.2.26.359.58.459.961.1.37.15.801.15 1.282 0 .97-.2 1.732-.61 2.262zm.08-3.264a2.47 2.47 0 0 0-.32-.85c-.15-.25-.35-.441-.6-.591-.26-.15-.57-.22-.96-.22-.36 0-.66.07-.919.22-.25.14-.46.33-.61.58a2.5 2.5 0 0 0-.35.851c-.07.32-.1.66-.1 1.011 0 .371.03.711.09 1.042.07.32.18.6.33.85.16.24.36.44.62.582.25.14.56.21.93.21.38 0 .69-.08.94-.22.25-.15.46-.351.61-.591.16-.25.27-.54.33-.861.07-.32.1-.65.1-1.002 0-.35-.03-.69-.09-1.01zm4.429-1.472l-.29 1.142-1.11 4.085c-.04.14-.12.22-.25.22h-.19c-.07 0-.12-.02-.16-.04a.425.425 0 0 1-.09-.17l-1.21-5.667c-.01-.04 0-.06.04-.06h.31c.05 0 .08.02.1.06l.81 3.915.28 1.431h.04l.39-1.461 1.02-3.745c.01-.06.03-.1.06-.14.03-.04.09-.05.17-.05h.21c.11 0 .18.06.22.19l1 3.745.38 1.461h.04l.3-1.481.829-3.865c.01-.04.04-.06.08-.06h.31c.05 0 .06.02.04.06l-1.24 5.667c-.02.09-.05.14-.09.17-.04.02-.1.04-.17.04h-.18c-.12 0-.2-.08-.24-.22l-1.11-4.115-.28-1.112zm7.807 5.337c0 .07-.03.11-.09.11h-2.349c-.24 0-.44-.04-.61-.1-.16-.07-.29-.16-.39-.27-.1-.12-.17-.261-.21-.42-.04-.161-.06-.331-.06-.521v-3.315c0-.18.02-.35.06-.52.05-.16.12-.3.22-.41.1-.12.24-.21.4-.28.16-.06.36-.091.6-.091h2.25c.07 0 .1.03.1.1v.19c0 .07-.03.1-.1.1h-2.24c-.31 0-.53.07-.66.22-.14.141-.2.351-.2.631v1.332h2.84c.06 0 .1.03.1.1v.18c0 .07-.04.1-.1.1h-2.84v1.723c0 .26.06.46.18.62.13.15.35.23.68.23h2.33c.06 0 .09.03.09.1zm1.32.03c0 .05-.03.08-.09.08h-.27c-.05 0-.07-.03-.07-.08v-5.527c0-.1.02-.18.06-.24.04-.06.13-.08.27-.08h1.9c.26 0 .5.04.71.12.21.08.38.19.52.34.139.14.249.31.319.501.07.19.11.4.11.62 0 .161-.02.331-.06.492-.04.16-.11.31-.19.44-.09.13-.19.25-.33.35-.13.1-.28.18-.46.23v.01c.24.08.42.201.53.361.12.16.21.35.27.58l.51 1.793c.02.06 0 .09-.07.09h-.28c-.01 0-.03-.01-.05-.01-.03-.01-.04-.03-.05-.06l-.24-.851-.24-.841c-.05-.19-.12-.34-.2-.46a.968.968 0 0 0-.29-.281.828.828 0 0 0-.36-.14c-.13-.03-.27-.04-.41-.04h-1.539zm.01-5.446v2.462h1.69c.42 0 .75-.11.98-.33.23-.22.34-.53.34-.921 0-.37-.12-.66-.35-.881-.23-.23-.54-.34-.93-.33zm7.848 5.186c-.36.29-.87.43-1.54.43-.13 0-.27-.01-.44-.02-.17-.01-.34-.03-.52-.07-.18-.03-.36-.07-.54-.13-.19-.06-.36-.13-.52-.22-.05-.02-.06-.06-.03-.11l.11-.231c.02-.04.06-.05.1-.02.14.06.29.12.45.18.16.05.32.1.48.13.17.04.33.07.48.08.16.02.3.03.43.03.2 0 .39-.02.58-.06.2-.04.37-.11.53-.2a1.021 1.021 0 0 0 .53-.92c0-.17-.03-.331-.09-.472-.06-.14-.16-.27-.29-.39-.13-.11-.3-.22-.51-.31-.21-.1-.46-.19-.75-.27-.32-.1-.6-.2-.83-.3-.23-.091-.42-.2-.57-.331a1.18 1.18 0 0 1-.32-.42c-.07-.16-.1-.351-.1-.571 0-.22.04-.42.13-.601.08-.18.2-.34.36-.47.16-.131.35-.23.58-.31.23-.071.49-.111.78-.111.26 0 .53.03.82.08.29.05.57.14.86.29.04.01.06.04.03.09l-.11.24c-.02.041-.05.051-.08.031-.29-.14-.56-.23-.82-.28-.26-.04-.5-.07-.71-.07-.18 0-.36.02-.53.07-.17.04-.32.11-.45.2-.13.09-.23.21-.31.35-.07.13-.11.29-.11.47 0 .19.03.351.1.481.08.12.18.23.32.32.14.1.3.18.5.251.2.07.43.15.68.23.3.1.57.2.8.3.23.11.42.23.58.371.16.14.28.3.36.48.08.18.12.391.12.632 0 .48-.18.87-.54 1.15zM6.409 106.265l.76-3.754h-2.98l-.769 3.754zm-6.178 1.112c-.17 0-.24-.09-.2-.26l.1-.571c.03-.09.06-.16.1-.21.04-.051.12-.07.23-.07h1.71l.77-3.755h-1.8c-.11 0-.17-.02-.2-.06-.03-.04-.03-.12-.02-.23l.12-.56c.03-.101.06-.171.09-.211.04-.05.11-.07.21-.07h1.82l.519-2.594c.03-.1.06-.17.09-.2.04-.02.1-.04.2-.04h.68c.11 0 .19.02.24.04.06.03.07.1.04.2l-.52 2.593h2.979l.53-2.593c.03-.1.06-.17.09-.2.03-.02.09-.04.17-.04h.71c.11 0 .18.02.23.04.05.03.06.1.05.2l-.54 2.593h1.729c.2 0 .29.09.26.281l-.14.56c-.02.11-.06.19-.09.23-.03.04-.1.06-.21.06h-1.78l-.76 3.755h1.79c.2 0 .29.09.25.28l-.11.571c-.02.1-.06.17-.1.21-.04.03-.11.05-.22.05h-1.83c0 .04-.03.19-.09.46-.05.272-.11.572-.18.892-.06.32-.12.621-.18.891-.05.27-.09.421-.099.46-.03.111-.05.181-.07.201-.02.03-.08.04-.19.04h-.71c-.09 0-.17-.01-.22-.04-.05-.02-.07-.09-.04-.2l.52-2.703H3.2c-.01.04-.05.19-.1.46-.06.27-.12.57-.18.891-.07.32-.13.621-.19.891-.05.27-.08.421-.08.46-.02.111-.05.181-.08.201-.02.03-.09.04-.2.04h-.7c-.1 0-.17-.01-.23-.04-.05-.02-.06-.09-.04-.2l.55-2.703zm23.153 2.643c0 .14-.02.22-.07.25-.04.04-.13.05-.25.05h-1.19c-.11 0-.19-.01-.25-.05-.06-.03-.09-.11-.09-.25V97.825h-7.097v12.195c0 .14-.03.22-.08.25-.04.04-.13.05-.25.05h-1.21c-.11 0-.19-.01-.24-.05-.05-.03-.08-.11-.08-.25V97.435c0-.43.11-.75.33-.961.22-.2.51-.31.86-.31h8.427c.38 0 .67.11.88.31.21.21.31.53.31.96zm3.029-12.846c0-.35.07-.61.22-.78.15-.16.41-.25.78-.25h4.698c.63 0 1.21.1 1.74.3.53.21.98.49 1.37.86.38.371.68.822.89 1.332.219.521.319 1.092.319 1.712 0 .36-.06.791-.18 1.292-.12.5-.34.97-.67 1.411-.33.44-.79.822-1.37 1.132-.58.31-1.329.46-2.239.46h-3.749v5.337c0 .15-.02.24-.08.28-.05.04-.15.06-.3.06h-1.05c-.13 0-.229-.02-.29-.06-.06-.04-.089-.13-.089-.28zm7.998 2.393c-.09-.3-.24-.58-.46-.83-.21-.241-.51-.451-.88-.622-.38-.17-.85-.25-1.42-.25h-3.409v5.147h3.45c.96 0 1.669-.22 2.139-.671.47-.46.71-1.081.71-1.892 0-.28-.04-.581-.13-.882zm12.246 10.753c-.12 0-.22-.01-.29-.04-.07-.02-.14-.11-.19-.26l-1.01-2.964H39.48l-1.01 2.964c-.07.2-.21.3-.42.3h-1.37c-.139 0-.219-.03-.26-.11a.478.478 0 0 1-.009-.27l4.559-12.986c.11-.32.23-.54.37-.64.13-.1.35-.15.66-.17h.61c.359 0 .609.06.729.18.13.12.25.33.36.63l4.538 12.986c.04.09.04.18.01.26-.04.08-.12.12-.26.12zm-3.37-9.13l-.939-2.964h-.11l-.9 2.863-1.37 4.325h4.67zm14.536 2.933c-.49-.47-1.21-.711-2.149-.711h-3.749v5.216h3.75c.579 0 1.059-.09 1.429-.26.38-.18.67-.4.89-.661.21-.26.36-.55.44-.861.08-.31.12-.6.12-.861 0-.77-.24-1.392-.73-1.862zm-5.898-2.243h3.71c.219 0 .459-.03.729-.09.27-.06.52-.17.75-.33.24-.15.43-.37.59-.641.15-.28.23-.64.23-1.071 0-.571-.19-1.032-.58-1.382-.38-.35-.9-.52-1.56-.52h-3.869zm6.188.691c.42.14.77.34 1.07.59.3.25.54.531.72.852.19.32.33.65.42 1.02.09.361.13.722.13 1.092 0 .631-.12 1.201-.35 1.712-.24.51-.56.951-.97 1.322-.41.37-.89.66-1.45.86-.56.201-1.16.301-1.809.301h-4.779c-.36 0-.62-.08-.79-.24-.16-.16-.24-.42-.24-.771V97.194c0-.35.08-.61.22-.78.15-.16.42-.25.81-.25l4.49-.02c.609 0 1.179.07 1.699.19.52.13.96.34 1.34.62.38.28.669.641.879 1.082.22.43.33.96.33 1.581 0 .611-.16 1.162-.47 1.672-.31.501-.72.881-1.25 1.142zm8.088 2.483c-.07.55-.14 1.011-.21 1.382-.08.37-.16.69-.24.96-.09.271-.18.501-.29.681-.1.19-.21.38-.33.571h7.098V97.846h-5.118zm-2.48 5.266l-.2 3.014c-.02.2-.1.3-.27.3h-.979c-.08 0-.14-.02-.19-.06-.04-.04-.06-.12-.08-.24l-.26-3.915c-.01-.21.03-.37.13-.51.1-.131.29-.21.56-.24l.64-.04c.23-.261.42-.532.58-.832.15-.29.28-.62.39-.991.11-.36.2-.771.27-1.222.08-.45.16-.97.24-1.561l.82-6.448c.07-.44.2-.79.399-1.041.19-.24.52-.37 1-.37h6.068c.44 0 .76.11.96.31.19.21.29.53.29.96v11.234l.68.04c.21.01.37.08.51.2.13.12.2.321.2.591l-.24 3.835c-.02.12-.04.2-.08.24-.04.04-.1.06-.18.06h-.99a.21.21 0 0 1-.16-.06c-.04-.04-.06-.12-.06-.24l-.13-3.014zm22.874 0c-.13 0-.22-.01-.3-.04-.07-.02-.13-.11-.19-.26l-1.01-2.964h-5.688l-1.01 2.964c-.06.2-.2.3-.42.3h-1.37c-.13 0-.22-.03-.25-.11-.04-.07-.04-.16-.01-.27l4.56-12.986c.1-.32.23-.54.36-.64.13-.1.36-.15.67-.17h.599c.36 0 .61.06.74.18.12.12.24.33.35.63l4.538 12.986c.04.09.04.18.01.26-.03.08-.12.12-.25.12zm-3.37-9.13l-.949-2.964h-.1l-.91 2.863-1.37 4.325h4.68zm17.905 8.189c.27.01.43.08.5.2.06.12.08.25.07.4l-.21 3.395c0 .15-.05.22-.16.22h-.5c-.11 0-.16-.07-.16-.22l-.1-3.054h-9.727c-.31 0-.53-.07-.65-.22-.13-.15-.19-.36-.19-.64V96.363c0-.12.06-.18.2-.18h.62c.14 0 .2.06.2.18v13.035h8.338V96.344c0-.12.06-.18.2-.18h.62c.14 0 .2.06.2.18v13.005zm10.497-5.436c-.6-.551-1.47-.832-2.61-.832h-4.198v6.268h4.239c.74 0 1.33-.12 1.78-.34.45-.22.8-.491 1.05-.811.249-.33.419-.681.509-1.051.08-.381.13-.731.13-1.052 0-.901-.3-1.631-.9-2.182zm-6.808-1.682h4.139c.28 0 .59-.03.94-.11.34-.07.66-.21.96-.411.31-.21.56-.48.76-.821.199-.35.299-.78.299-1.312 0-.7-.23-1.291-.7-1.771-.47-.481-1.14-.722-2-.722h-4.398zm6.068.39c.54.12.99.31 1.34.57.35.26.62.561.82.902.2.34.35.69.43 1.061.08.37.12.73.12 1.081 0 .601-.11 1.162-.32 1.663-.22.51-.52.93-.9 1.28-.39.351-.84.631-1.37.822-.54.2-1.12.29-1.77.29H104.6c-.28 0-.49-.05-.61-.16-.13-.11-.2-.3-.2-.58V96.953c0-.24.05-.43.16-.58.1-.14.31-.21.65-.21h4.519c.54 0 1.04.07 1.51.2.47.14.88.35 1.23.63.349.281.629.641.829 1.072.2.43.3.93.3 1.511 0 .28-.03.571-.11.872-.07.29-.19.57-.35.84-.16.26-.38.501-.65.721-.27.22-.6.4-.99.54zm14.126 7.429c0 .16-.08.24-.23.24h-5.598c-.58 0-1.07-.07-1.46-.23-.39-.15-.7-.37-.94-.64-.23-.281-.4-.612-.5-.992-.1-.39-.15-.801-.15-1.241v-7.92c0-.44.05-.86.16-1.242.11-.39.28-.72.53-1 .24-.28.55-.501.94-.661.39-.15.87-.23 1.44-.23h5.378c.15 0 .22.08.22.24v.47c0 .16-.07.24-.22.24h-5.358c-.73 0-1.25.17-1.58.511-.32.34-.48.851-.48 1.522v3.174h6.798c.14 0 .22.08.22.23v.45c0 .16-.08.23-.22.23h-6.798v4.126c0 .6.15 1.09.44 1.461.3.37.84.56 1.62.56h5.558c.15 0 .23.081.23.241zm6.288.06c0 .12-.06.18-.18.18h-.65c-.13 0-.2-.06-.2-.18V97.074h-4.238c-.12 0-.18-.06-.18-.18v-.53c0-.13.06-.2.18-.2h9.667c.12 0 .18.07.18.2v.53c0 .12-.06.18-.18.18H131.3zm7.138.18c-.28 0-.49-.05-.61-.16-.13-.11-.2-.3-.2-.58V96.343c0-.12.07-.18.21-.18h.62c.14 0 .2.06.2.18v5.416h4.079c1.06 0 1.9.16 2.519.47.62.32 1.09.701 1.41 1.142.32.45.53.911.62 1.402.08.48.13.9.13 1.251 0 .6-.11 1.171-.31 1.692a3.97 3.97 0 0 1-.89 1.362c-.39.39-.85.69-1.38.91-.54.22-1.15.331-1.82.331zm7.708-5.697c-.15-.39-.37-.73-.67-1.011-.29-.29-.66-.52-1.11-.69-.44-.17-.96-.25-1.55-.25h-4.158v6.707h4.179c.74 0 1.34-.13 1.8-.37.469-.24.829-.541 1.079-.901.26-.351.43-.731.52-1.142.09-.4.13-.76.13-1.08 0-.451-.07-.872-.22-1.263zm3.829 5.517c0 .12-.07.18-.2.18h-.65c-.13 0-.2-.06-.2-.18V96.364c0-.13.07-.2.2-.2h.65c.13 0 .2.07.2.2z"/></g></g></svg>