<svg xmlns="http://www.w3.org/2000/svg" width="55" height="48" viewBox="0 0 55 48"><g><g><path fill="#acc9d4" d="M37.985 48.048l-6.284-7.72H6.831a6.48 6.48 0 0 1-6.474-6.472V6.973A6.48 6.48 0 0 1 6.83.5h41.578a6.48 6.48 0 0 1 6.473 6.472v26.883a6.48 6.48 0 0 1-6.473 6.472h-4.139zM6.83 3.473c-1.93 0-3.5 1.57-3.5 3.5v26.883c0 1.93 1.57 3.5 3.5 3.5h26.285l4.87 5.983 4.87-5.984h5.553c1.93 0 3.5-1.57 3.5-3.5V6.974c0-1.93-1.57-3.5-3.5-3.5zM42.332 13.2H13.236v-2.973h29.096zm0 8.259H13.236v-2.973h29.096zm-17.395 8.259H13.236v-2.973h11.7zm9.67 0h-5.85v-2.973h5.85z"/></g></g></svg>