<svg xmlns="http://www.w3.org/2000/svg" width="53" height="52" viewBox="0 0 53 52"><g><g><path fill="#acc9d4" d="M52.935 24.097v13.288h-2.464a6.102 6.102 0 0 0-.01.326c-.001 1 0 2 .001 3v.063c.002 1.934.005 3.935-.009 5.902-.019 2.73-1.74 4.78-4.493 5.347-.38.078-.765.088-1.058.089a85331.217 85331.217 0 0 1-38.857.001c-3.105 0-5.542-2.341-5.547-5.329C.478 36.16.478 24.916.497 13.368c.005-3.038 2.38-5.337 5.526-5.35 2.438-.009 4.975-.008 7.212-.008h.542c2.119 0 4.309 0 6.459-.008.278-.002.586-.078.823-.206 2.58-1.39 5.2-2.813 7.734-4.188l.142-.077c1.564-.85 3.127-1.699 4.692-2.546.982-.531 1.972-.681 2.862-.433.9.25 1.668.898 2.221 1.873l1.028 1.802.11.193c.636 1.114 1.294 2.266 1.932 3.404.102.183.152.201.316.196a70.438 70.438 0 0 1 2.247-.009l.45.003c3.317.018 5.645 2.283 5.661 5.51.02 4.153.017 7.322-.011 10.274-.002.198.02.28.03.308.028.007.104.02.276.003.395-.035.782-.028 1.191-.02.182.004.366.008.557.008zm-8.45-11.554a.125.125 0 0 0 .006.004c.848.01 1.719.009 2.56.008h.35a2.241 2.241 0 0 0-1.783-1.623c-.596-.1-1.228-.114-1.898-.129l-.233-.005c.361.641.672 1.192.998 1.745zm-28.979-1.727l-5.166-.001c-1.35 0-2.7 0-4.05.003-1.88.003-2.917 1.002-2.918 2.812-.008 11.223-.008 22.286 0 32.884.002 1.81.995 2.768 2.872 2.769 13.525.007 26.117.007 38.495 0 1.83-.002 2.84-.995 2.843-2.797.004-2.826.002-5.78 0-8.386v-.458c0-.077-.003-.156-.008-.236h-.317c-.477-.001-.948 0-1.419.003l-.411.001c-1.502.005-3.055.011-4.584-.02-.854-.017-1.622-.137-2.282-.357-2.898-.964-4.556-3.433-4.436-6.605.132-3.483 2.653-6.059 6.13-6.263 1.597-.094 3.218-.081 4.787-.07.666.005 1.41.011 2.128.007h.365V15.4H8.485c-.057 0-.115.001-.173.004-.207.007-.442.016-.681-.055-.37-.11-.773-.267-.959-.598a1.75 1.75 0 0 1-.17-1.25c.095-.35.414-.937 1.49-.94 1.728-.007 2.21-.002 3.94-.006h.03l.113.004c.058.001.16.005.198-.003a362.592 362.592 0 0 0 3.233-1.74zm31.007 23.777c1.388 0 2.443.003 3.42.01.079-.006.127-.004.156-.008.005-.031.01-.084.009-.169a604.397 604.397 0 0 1-.01-5.083v-.03-2.186c0-.061-.003-.124-.006-.187h-2.044c-2.448-.002-4.978-.003-7.464.006-.758.003-1.466.25-2.104.732-1.353 1.024-1.851 2.768-1.27 4.442.532 1.535 1.92 2.458 3.709 2.468 1.325.007 2.675.007 3.98.006zm-5.354-22.065l-.038-.066C39.53 9.67 37.94 6.876 36.345 4.084c-.287-.502-.49-.747-.658-.793-.173-.049-.478.057-1.02.352-3.214 1.747-6.43 3.492-9.645 5.236l-.487.264-5.138 2.788c-.366.198-.731.398-1.096.597zm2.606 18.335c-.012 1.172-1.032 2.148-2.228 2.132-1.21-.017-2.19-1-2.176-2.184.014-1.178 1.04-2.161 2.229-2.137 1.208.026 2.187 1.01 2.175 2.189z"/></g></g></svg>