<svg xmlns="http://www.w3.org/2000/svg" width="22" height="21" viewBox="0 0 22 21"><g><g><path fill="#fff" d="M16.586 20.907c-.728.01-1.562-.24-2.385-.544-.547-.201-1.095-.4-1.642-.603a13.729 13.729 0 0 1-3.907-2.26c-.7-.571-1.384-1.166-2.037-1.789a23.961 23.961 0 0 1-2.621-2.934c-.765-1.018-1.426-2.1-1.888-3.29-.327-.84-.634-1.69-.923-2.543-.227-.67-.366-1.36-.345-2.073a5.752 5.752 0 0 1 .868-2.862c.23-.378.493-.738.76-1.09.288-.38.691-.587 1.146-.718.52-.148 1.041-.268 1.582-.307.302-.022.532.076.682.335.282.488.558.98.835 1.47.345.614.68 1.232 1.034 1.84.163.28.366.536.536.812.297.481.267.768-.1 1.205-.408.487-.92.855-1.408 1.252-.324.265-.646.536-.885.89a.579.579 0 0 0-.071.512c.115.412.362.754.568 1.117.445.783.935 1.535 1.492 2.243a13.824 13.824 0 0 0 2.794 2.674 22.959 22.959 0 0 0 2.508 1.547c.146.08.315.144.478.158.132.011.307-.023.4-.107.319-.285.62-.591.908-.909.34-.377.65-.784.993-1.16.149-.162.34-.29.527-.413.219-.144.46-.122.685-.008.195.099.378.22.566.333.6.357 1.195.721 1.8 1.068.58.333 1.169.647 1.753.972.082.046.157.106.238.155.257.155.335.386.315.675a6.226 6.226 0 0 1-.487 2.058c-.171.395-.492.667-.824.913-.672.5-1.399.899-2.204 1.148a5.79 5.79 0 0 1-1.741.233z"/></g></g></svg>