<svg xmlns="http://www.w3.org/2000/svg" width="74" height="69" viewBox="0 0 74 69"><g><g><path fill="#acc9d4" d="M22.586 59.662l-2.262 2.11c-.72-.766-1.418-1.507-2.176-2.315l2.261-2.114 2.177 2.319zM71.269 42.42a8408.939 8408.939 0 0 1-17.525 11.26c-1.365.876-2.88 1.221-4.497 1.218-6.41-.011-12.82.012-19.23-.02-1.512-.008-2.65.588-3.617 1.775l2.964 2.75L21.58 68.8l-2.387-1.976 5.889-7.125L8.917 43.996l-6.955 5.63L0 47.227l9.493-7.695 1.536 1.87c1.652-1.435 3.181-2.71 4.65-4.052 2.143-1.957 4.421-3.686 7.163-4.744a.362.362 0 0 0 .147-.126l.692-.201V3.332a3.401 3.401 0 0 1 3.4-3.395h37.88c1.875 0 3.4 1.522 3.4 3.395V33.06c1.35.261 2.563.817 3.602 1.793 2.218 2.087 1.868 5.915-.694 7.566zM29.453 31.301c6.803-.024 13.606-.022 20.409-.012 1.909.002 3.463 1.703 3.27 3.599-.091.893-.324 1.772-.5 2.696 1.608.123 3.19-.101 4.684-.83 1.04-.506 2.058-1.057 3.115-1.523.097-.043 4.195-1.768 4.268-1.818 0 0 .284-.12.704-.243V3.332a.442.442 0 0 0-.441-.441h-8.764v23.594l-10.141-6.81-10.214 6.586V2.89H27.08a.442.442 0 0 0-.441.44v28.203c.974-.095 1.894-.23 2.814-.233zm40.675 6.145c-1.187-1.586-2.963-2.054-4.79-1.188-1.888.895-3.736 1.878-5.626 2.773-.995.471-2.023.896-3.07 1.236-1.985.644-4.052.394-6.091.449-.323.009-.691.082-.955.254-1.363.888-2.844 1.316-4.468 1.312-3.328-.008-6.656.001-9.984 0-.264 0-.528-.026-.803-.041v-3.08h1.436c3.427-.011 6.855.04 10.279-.056 2.23-.061 3.881-1.886 3.981-4.097.023-.493-.124-.64-.613-.639-6.68.014-13.362-.044-20.042.035-3.823.046-7.218 1.39-10.107 3.937-.979.863-1.972 1.712-2.955 2.571-.976.853-1.948 1.711-2.982 2.62L24.34 54.238c-.065.05.04-.011.124-.095 1.654-1.664 3.644-2.378 5.997-2.361 6.36.047 12.721.034 19.081-.014.776-.006 1.662-.2 2.307-.606 5.997-3.786 11.955-7.633 17.917-11.472.943-.607 1.042-1.337.363-2.244zM38.801 20.837l7.289-4.7 7.15 4.802V2.89H38.801z"/></g></g></svg>