<svg xmlns="http://www.w3.org/2000/svg" width="40" height="55" viewBox="0 0 40 55"><g><g><path fill="#acc9d4" d="M31.64 11.346H21.35V8.595h10.29zm-4.056 5.207H21.35V13.8h6.234zm4.056 8.897H21.35V22.7h10.29zm-4.056 5.207H21.35v-2.752h6.234zm4.056 8.426H21.35v-2.752h10.29zm-4.056 5.206H21.35v-2.751h6.234zm6.934 10.067H5.219A4.723 4.723 0 0 1 .5 49.64V5.39C.5 2.789 2.617.673 5.22.673h29.298a4.723 4.723 0 0 1 4.72 4.717v44.25c0 2.6-2.118 4.716-4.72 4.716zM5.219 3.425A1.968 1.968 0 0 0 3.253 5.39v44.25c0 1.083.882 1.964 1.966 1.964h29.299a1.968 1.968 0 0 0 1.966-1.964V5.39a1.968 1.968 0 0 0-1.966-1.965zm11.488 11.179h-3.022v3.02h-2.753v-3.02H7.91v-2.752h3.022v-3.02h2.753v3.02h3.022zm0 13.775h-3.022v3.02h-2.753v-3.02H7.91v-2.751h3.022v-3.02h2.753v3.02h3.022zm0 14.003h-3.022v3.02h-2.753v-3.02H7.91v-2.751h3.022v-3.02h2.753v3.02h3.022z"/></g></g></svg>