<svg xmlns="http://www.w3.org/2000/svg" width="60.69" height="44.531" viewBox="0 0 60.69 44.531">
  <defs>
    <style>
      .cls-1 {
        fill: #acc9d4;
        fill-rule: evenodd;
      }
    </style>
  </defs>
  <path id="Фигура_16" data-name="Фигура 16" class="cls-1" d="M1423.49,444.552a1.056,1.056,0,0,1-1.06-1.081l0.19-7.511a1.061,1.061,0,0,1,.18-0.573l14.75-21.335a1.058,1.058,0,0,1,.67-0.439,1.088,1.088,0,0,1,.8.17l6.75,4.657a1.055,1.055,0,0,1,.27,1.467l-14.69,21.259a1.007,1.007,0,0,1-.46.373l-6.99,2.931A1.09,1.09,0,0,1,1423.49,444.552Zm1.23-8.226-0.14,5.568,5.21-2.18,13.91-20.137-5.02-3.459Zm4.91,4.7a1.036,1.036,0,0,1-.6-0.187l-5.55-3.822a1.056,1.056,0,1,1,1.2-1.737l5.55,3.823a1.055,1.055,0,0,1,.27,1.467A1.068,1.068,0,0,1,1429.63,441.022Zm-12.4,17.105a1.055,1.055,0,0,1-.82-0.389l-6.04-7.428h-17.3a7.522,7.522,0,0,1-7.52-7.511V423.323a7.522,7.522,0,0,1,7.52-7.511h32.92a7.528,7.528,0,0,1,7.52,7.511,1.055,1.055,0,0,1-2.11,0,5.414,5.414,0,0,0-5.41-5.4h-32.92a5.407,5.407,0,0,0-5.41,5.4V442.8a5.407,5.407,0,0,0,5.41,5.4h17.8a1.052,1.052,0,0,1,.82.39l5.54,6.81,5.54-6.81a1.052,1.052,0,0,1,.82-0.39h2.4a5.414,5.414,0,0,0,5.41-5.4v-5.085a1.055,1.055,0,1,1,2.11,0V442.8a7.529,7.529,0,0,1-7.52,7.511h-1.9l-6.04,7.428A1.055,1.055,0,0,1,1417.23,458.127Zm0.62-30.154h-21.18a1.055,1.055,0,1,1,0-2.11h21.18A1.055,1.055,0,1,1,1417.85,427.973Zm0,5.708h-21.18a1.055,1.055,0,1,1,0-2.109h21.18A1.055,1.055,0,1,1,1417.85,433.681Zm-9.68,5.708h-11.5a1.055,1.055,0,1,1,0-2.109h11.5A1.055,1.055,0,1,1,1408.17,439.389Z" transform="translate(-1385.53 -413.594)"/>
</svg>
